<svg xmlns="http://www.w3.org/2000/svg" width="1044.54" height="681" viewBox="0 0 1044.54 681">
  <g id="Grupo_1178453" data-name="Grupo 1178453" transform="translate(-265.46 -430)">
    <rect id="Rectángulo_401158" data-name="Rectángulo 401158" width="152.884" height="60" rx="10" transform="translate(325.116 751)" fill="#f8dfff"/>
    <rect id="Rectángulo_455195" data-name="Rectángulo 455195" width="152.884" height="50" rx="10" transform="translate(741.116 751)" fill="#f8dfff"/>
    <rect id="Rectángulo_455204" data-name="Rectángulo 455204" width="152.884" height="50" rx="10" transform="translate(1157.116 751)" fill="#f8dfff"/>
    <rect id="Rectángulo_455190" data-name="Rectángulo 455190" width="152.884" height="60" rx="10" transform="translate(533.116 751)" fill="#ecf2fe"/>
    <rect id="Rectángulo_455198" data-name="Rectángulo 455198" width="152.884" height="80" rx="10" transform="translate(949.116 751)" fill="#ecf2fe"/>
    <rect id="Rectángulo_455184" data-name="Rectángulo 455184" width="152.884" height="60" rx="10" transform="translate(325.116 821)" fill="#f8dfff"/>
    <rect id="Rectángulo_455203" data-name="Rectángulo 455203" width="152.884" height="60" rx="10" transform="translate(1157.116 821)" fill="#f8dfff"/>
    <rect id="Rectángulo_455189" data-name="Rectángulo 455189" width="152.884" height="60" rx="10" transform="translate(533.116 831)" fill="#ecf2fe"/>
    <rect id="Rectángulo_455197" data-name="Rectángulo 455197" width="152.884" height="80" rx="10" transform="translate(949.116 851.5)" fill="#ecf2fe"/>
    <rect id="Rectángulo_455200" data-name="Rectángulo 455200" width="152.884" height="80" rx="10" transform="translate(949.116 952)" fill="#ecf2fe"/>
    <rect id="Rectángulo_455185" data-name="Rectángulo 455185" width="152.884" height="60" rx="10" transform="translate(325.116 891)" fill="#f8dfff"/>
    <rect id="Rectángulo_455193" data-name="Rectángulo 455193" width="152.884" height="60" rx="10" transform="translate(741.116 821.5)" fill="#f8dfff"/>
    <rect id="Rectángulo_455202" data-name="Rectángulo 455202" width="152.884" height="60" rx="10" transform="translate(1157.116 901)" fill="#f8dfff"/>
    <rect id="Rectángulo_455186" data-name="Rectángulo 455186" width="152.884" height="60" rx="10" transform="translate(325.116 961)" fill="#f8dfff"/>
    <rect id="Rectángulo_455192" data-name="Rectángulo 455192" width="152.884" height="60" rx="10" transform="translate(741.116 901.5)" fill="#f8dfff"/>
    <rect id="Rectángulo_455201" data-name="Rectángulo 455201" width="152.884" height="60" rx="10" transform="translate(1157.116 981)" fill="#f8dfff"/>
    <rect id="Rectángulo_455206" data-name="Rectángulo 455206" width="152.884" height="60" rx="10" transform="translate(1157.116 1051)" fill="#f8dfff"/>
    <text id="Identificación_de_ideas_principales" data-name="Identificación de ideas principales" transform="translate(345.862 762)" fill="#12263f" font-size="16" font-family="SegoeUI, Segoe UI" letter-spacing="0.003em"><tspan x="0" y="17">Identificación de </tspan><tspan x="0" y="37">ideas principales</tspan></text>
    <text id="Lectura_literal" data-name="Lectura literal" transform="translate(761.862 767)" fill="#12263f" font-size="16" font-family="SegoeUI, Segoe UI" letter-spacing="0.003em"><tspan x="0" y="17">Lectura literal</tspan></text>
    <text id="Lectura_activa" data-name="Lectura activa" transform="translate(1177.862 767)" fill="#12263f" font-size="16" font-family="SegoeUI, Segoe UI" letter-spacing="0.003em"><tspan x="0" y="17">Lectura activa</tspan></text>
    <text id="Lectura_previa_del_texto" data-name="Lectura previa del texto" transform="translate(553.862 762)" fill="#12263f" font-size="16" font-family="SegoeUI, Segoe UI" letter-spacing="0.003em"><tspan x="0" y="17">Lectura previa </tspan><tspan x="0" y="37">del texto</tspan></text>
    <text id="Identificación_del_propósito_comunicativo" data-name="Identificación del propósito comunicativo" transform="translate(969.862 762)" fill="#12263f" font-size="16" font-family="SegoeUI, Segoe UI" letter-spacing="0.003em"><tspan x="0" y="17">Identificación </tspan><tspan x="0" y="37">del propósito </tspan><tspan x="0" y="57">comunicativo</tspan></text>
    <text id="Relación_de_ideas" data-name="Relación de ideas" transform="translate(345.862 832)" fill="#12263f" font-size="16" font-family="SegoeUI, Segoe UI" letter-spacing="0.003em"><tspan x="0" y="17">Relación de </tspan><tspan x="0" y="37">ideas</tspan></text>
    <text id="Organización_de_ideas" data-name="Organización de ideas" transform="translate(1177.862 832)" fill="#12263f" font-size="16" font-family="SegoeUI, Segoe UI" letter-spacing="0.003em"><tspan x="0" y="17">Organización de </tspan><tspan x="0" y="37">ideas</tspan></text>
    <text id="Predicción_de_contenidos" data-name="Predicción de contenidos" transform="translate(553.862 842)" fill="#12263f" font-size="16" font-family="SegoeUI, Segoe UI" letter-spacing="0.003em"><tspan x="0" y="17">Predicción de </tspan><tspan x="0" y="37">contenidos</tspan></text>
    <text id="Relación_entre_partes_de_la_oración" data-name="Relación entre partes de la oración" transform="translate(969.862 862.5)" fill="#12263f" font-size="16" font-family="SegoeUI, Segoe UI" letter-spacing="0.003em"><tspan x="0" y="17">Relación entre </tspan><tspan x="0" y="37">partes de la </tspan><tspan x="0" y="57">oración</tspan></text>
    <text id="Identificación_de_la_idea_subyacente" data-name="Identificación de la idea subyacente" transform="translate(969.862 963)" fill="#12263f" font-size="16" font-family="SegoeUI, Segoe UI" letter-spacing="0.003em"><tspan x="0" y="17">Identificación de </tspan><tspan x="0" y="37">la idea </tspan><tspan x="0" y="57">subyacente</tspan></text>
    <text id="Síntesis_de_información" data-name="Síntesis de información" transform="translate(345.862 902)" fill="#12263f" font-size="16" font-family="SegoeUI, Segoe UI" letter-spacing="0.003em"><tspan x="0" y="17">Síntesis de </tspan><tspan x="0" y="37">información</tspan></text>
    <text id="Interpretación_inferencial" data-name="Interpretación inferencial" transform="translate(761.862 831.5)" fill="#12263f" font-size="16" font-family="SegoeUI, Segoe UI" letter-spacing="0.003em"><tspan x="0" y="17">Interpretación </tspan><tspan x="0" y="37">inferencial</tspan></text>
    <text id="Verificación_de_la_lectura" data-name="Verificación de la lectura" transform="translate(1177.862 911)" fill="#12263f" font-size="16" font-family="SegoeUI, Segoe UI" letter-spacing="0.003em"><tspan x="0" y="17">Verificación de la </tspan><tspan x="0" y="37">lectura</tspan></text>
    <text id="Técnica_del_subrayado" data-name="Técnica del subrayado" transform="translate(345.862 972)" fill="#12263f" font-size="16" font-family="SegoeUI, Segoe UI" letter-spacing="0.003em"><tspan x="0" y="17">Técnica del </tspan><tspan x="0" y="37">subrayado</tspan></text>
    <text id="Lectura_crítico-valorativa" data-name="Lectura crítico-valorativa" transform="translate(761.862 912.5)" fill="#12263f" font-size="16" font-family="SegoeUI, Segoe UI" letter-spacing="0.003em"><tspan x="0" y="17">Lectura crítico-</tspan><tspan x="0" y="37">valorativa</tspan></text>
    <text id="Actividad_cognitiva" data-name="Actividad cognitiva" transform="translate(1177.862 992)" fill="#12263f" font-size="16" font-family="SegoeUI, Segoe UI" letter-spacing="0.003em"><tspan x="0" y="17">Actividad </tspan><tspan x="0" y="37">cognitiva</tspan></text>
    <text id="Proceso_metacognitivo" data-name="Proceso metacognitivo" transform="translate(1177.862 1062)" fill="#12263f" font-size="16" font-family="SegoeUI, Segoe UI" letter-spacing="0.003em"><tspan x="0" y="17">Proceso </tspan><tspan x="0" y="37">metacognitivo</tspan></text>
    <path id="Trazado_873469" data-name="Trazado 873469" d="M-12474.335-9426.788v-304.688" transform="translate(12779.746 10419.786)" fill="none" stroke="#445866" stroke-width="3"/>
    <path id="Trazado_998495" data-name="Trazado 998495" d="M-12474.335-9485.734v-245.742" transform="translate(13195.746 10419.786)" fill="none" stroke="#445866" stroke-width="3"/>
    <path id="Trazado_998504" data-name="Trazado 998504" d="M-12474.335-9336.731v-394.745" transform="translate(13611.746 10419.786)" fill="none" stroke="#445866" stroke-width="3"/>
    <path id="Trazado_998490" data-name="Trazado 998490" d="M-12474.335-9556.816v-174.66" transform="translate(12987.746 10419.786)" fill="none" stroke="#445866" stroke-width="3"/>
    <path id="Trazado_998497" data-name="Trazado 998497" d="M-12474.335-9425.8v-305.679" transform="translate(13403.746 10419.786)" fill="none" stroke="#445866" stroke-width="3"/>
    <path id="Trazado_873470" data-name="Trazado 873470" d="M-12474.335-9466.749h20.156" transform="translate(12779.295 10248.249)" fill="none" stroke="#445866" stroke-width="3"/>
    <path id="Trazado_998494" data-name="Trazado 998494" d="M-12474.335-9466.749h20.156" transform="translate(13195.295 10243.249)" fill="none" stroke="#445866" stroke-width="3"/>
    <path id="Trazado_998503" data-name="Trazado 998503" d="M-12474.335-9466.749h20.156" transform="translate(13611.295 10243.249)" fill="none" stroke="#445866" stroke-width="3"/>
    <path id="Trazado_998489" data-name="Trazado 998489" d="M-12474.335-9466.749h20.156" transform="translate(12987.295 10248.249)" fill="none" stroke="#445866" stroke-width="3"/>
    <path id="Trazado_998498" data-name="Trazado 998498" d="M-12474.335-9466.749h20.156" transform="translate(13403.295 10258.249)" fill="none" stroke="#445866" stroke-width="3"/>
    <path id="Trazado_998483" data-name="Trazado 998483" d="M-12474.335-9466.749h20.156" transform="translate(12779.295 10318.249)" fill="none" stroke="#445866" stroke-width="3"/>
    <path id="Trazado_998500" data-name="Trazado 998500" d="M-12474.335-9466.749h20.156" transform="translate(13611.295 10318.249)" fill="none" stroke="#445866" stroke-width="3"/>
    <path id="Trazado_998486" data-name="Trazado 998486" d="M-12474.335-9466.749h20.156" transform="translate(12987.295 10328.249)" fill="none" stroke="#445866" stroke-width="3"/>
    <path id="Trazado_998496" data-name="Trazado 998496" d="M-12474.335-9466.749h20.156" transform="translate(13403.295 10358.749)" fill="none" stroke="#445866" stroke-width="3"/>
    <path id="Trazado_998499" data-name="Trazado 998499" d="M-12474.335-9466.749h20.156" transform="translate(13403.295 10459.249)" fill="none" stroke="#445866" stroke-width="3"/>
    <path id="Trazado_998484" data-name="Trazado 998484" d="M-12474.335-9466.749h20.156" transform="translate(12779.295 10388.249)" fill="none" stroke="#445866" stroke-width="3"/>
    <path id="Trazado_998492" data-name="Trazado 998492" d="M-12474.335-9466.749h20.156" transform="translate(13195.295 10317.749)" fill="none" stroke="#445866" stroke-width="3"/>
    <path id="Trazado_998501" data-name="Trazado 998501" d="M-12474.335-9466.749h20.156" transform="translate(13611.295 10397.249)" fill="none" stroke="#445866" stroke-width="3"/>
    <path id="Trazado_998485" data-name="Trazado 998485" d="M-12474.335-9466.749h20.156" transform="translate(12779.295 10458.249)" fill="none" stroke="#445866" stroke-width="3"/>
    <path id="Trazado_998493" data-name="Trazado 998493" d="M-12474.335-9466.749h20.156" transform="translate(13195.295 10398.749)" fill="none" stroke="#445866" stroke-width="3"/>
    <path id="Trazado_998502" data-name="Trazado 998502" d="M-12474.335-9466.749h20.156" transform="translate(13611.295 10478.249)" fill="none" stroke="#445866" stroke-width="3"/>
    <path id="Trazado_998505" data-name="Trazado 998505" d="M-12474.335-9466.749h20.156" transform="translate(13611.295 10548.249)" fill="none" stroke="#445866" stroke-width="3"/>
    <path id="Trazado_873465" data-name="Trazado 873465" d="M42.652,0H0V831H45.85" transform="translate(1216 570.361) rotate(90)" fill="none" stroke="#445866" stroke-width="3"/>
    <path id="Trazado_873466" data-name="Trazado 873466" d="M0,0V112.211" transform="translate(800.5 614.211) rotate(180)" fill="none" stroke="#445866" stroke-width="3"/>
    <path id="Trazado_998481" data-name="Trazado 998481" d="M0,0V45.85" transform="translate(592.5 616.211) rotate(180)" fill="none" stroke="#445866" stroke-width="3"/>
    <path id="Trazado_998482" data-name="Trazado 998482" d="M0,0V45.85" transform="translate(1008 616.211) rotate(180)" fill="none" stroke="#445866" stroke-width="3"/>
    <path id="Trazado_609169" data-name="Trazado 609169" d="M10.967,0H177.033A10.73,10.73,0,0,1,188,10.477V74.834a10.73,10.73,0,0,1-10.967,10.477H10.967A10.73,10.73,0,0,1,0,74.834V10.477A10.73,10.73,0,0,1,10.967,0Z" transform="translate(498 603)" fill="#a4c2ff"/>
    <path id="Trazado_998480" data-name="Trazado 998480" d="M10.967,0H177.033A10.73,10.73,0,0,1,188,10.477V74.834a10.73,10.73,0,0,1-10.967,10.477H10.967A10.73,10.73,0,0,1,0,74.834V10.477A10.73,10.73,0,0,1,10.967,0Z" transform="translate(914 603)" fill="#a4c2ff"/>
    <text id="Estrategias_de_lectura" data-name="Estrategias de lectura" transform="translate(518.642 636)" fill="#12263f" font-size="16" font-family="SegoeUI, Segoe UI"><tspan x="-75.195" y="17">Estrategias de lectura</tspan></text>
    <text id="Análisis_de_oraciones" data-name="Análisis de oraciones" transform="translate(935 636)" fill="#12263f" font-size="16" font-family="SegoeUI, Segoe UI"><tspan x="-73.602" y="17">Análisis de oraciones</tspan></text>
    <rect id="Rectángulo_345699" data-name="Rectángulo 345699" width="188" height="85.311" rx="14" transform="translate(290 603)" fill="#e795ff"/>
    <rect id="Rectángulo_455182" data-name="Rectángulo 455182" width="188" height="85.311" rx="14" transform="translate(706 603)" fill="#e795ff"/>
    <rect id="Rectángulo_455183" data-name="Rectángulo 455183" width="188" height="85.311" rx="14" transform="translate(1122 603)" fill="#e795ff"/>
    <text id="Técnicas_de_comprensión_lectora" data-name="Técnicas de comprensión lectora" transform="translate(309.96 625)" fill="#12263f" font-size="16" font-family="SegoeUI, Segoe UI"><tspan x="-40" y="17">Técnicas de </tspan><tspan x="-72.273" y="39">comprensión lectora</tspan></text>
    <text id="Niveles_de_lectura" data-name="Niveles de lectura" transform="translate(743 625)" fill="#12263f" font-size="16" font-family="SegoeUI, Segoe UI"><tspan x="-36.539" y="17">Niveles de </tspan><tspan x="-23.906" y="39">lectura</tspan></text>
    <text id="Uso_de_técnicas_de_lectura" data-name="Uso de técnicas de lectura" transform="translate(1141 625)" fill="#12263f" font-size="16" font-family="SegoeUI, Segoe UI"><tspan x="-66.156" y="17">Uso de técnicas de </tspan><tspan x="-23.906" y="39">lectura</tspan></text>
    <rect id="Rectángulo_377825" data-name="Rectángulo 377825" width="505" height="74" rx="10" transform="translate(547.833 430)" fill="#cff878"/>
    <path id="Trazado_1007414" data-name="Trazado 1007414" d="M42.039,21.5a9.235,9.235,0,0,1-4,.742,6.749,6.749,0,0,1-5.068-1.895A6.925,6.925,0,0,1,31.121,15.3,7.4,7.4,0,0,1,33.2,9.852a7.259,7.259,0,0,1,5.386-2.09,10.072,10.072,0,0,1,3.457.518v3.037a6.126,6.126,0,0,0-3.2-.84,4.249,4.249,0,0,0-3.184,1.24,4.6,4.6,0,0,0-1.211,3.359,4.514,4.514,0,0,0,1.143,3.237A4.036,4.036,0,0,0,38.66,19.52a6.561,6.561,0,0,0,3.379-.9Zm6.9.742a5.376,5.376,0,0,1-3.931-1.4,5.081,5.081,0,0,1-1.431-3.8,5.081,5.081,0,0,1,1.484-3.882,5.609,5.609,0,0,1,4.014-1.4,5.311,5.311,0,0,1,3.906,1.4A4.981,4.981,0,0,1,54.4,16.863a5.288,5.288,0,0,1-1.46,3.936A5.435,5.435,0,0,1,48.943,22.244Zm.078-8.125a2.058,2.058,0,0,0-1.7.752A3.316,3.316,0,0,0,46.717,17q0,2.881,2.324,2.881,2.217,0,2.217-2.959Q51.258,14.119,49.021,14.119ZM72.283,22H69.207V16.3q0-2.178-1.6-2.178a1.471,1.471,0,0,0-1.24.654,2.689,2.689,0,0,0-.479,1.631V22H62.8V16.238q0-2.119-1.572-2.119a1.507,1.507,0,0,0-1.265.625,2.75,2.75,0,0,0-.474,1.7V22H56.4V12H59.49v1.563h.039a3.789,3.789,0,0,1,3.232-1.807,2.88,2.88,0,0,1,2.9,1.865,3.7,3.7,0,0,1,3.359-1.865q3.262,0,3.262,4.023Zm5.566-1.162h-.039V26.6H74.725V12h3.086v1.5h.039a3.927,3.927,0,0,1,6.216-.415,5.676,5.676,0,0,1,1.06,3.628A6.152,6.152,0,0,1,83.89,20.73,4.028,4.028,0,0,1,80.6,22.244,3.114,3.114,0,0,1,77.85,20.838Zm-.088-4.1v.8a2.546,2.546,0,0,0,.547,1.689,1.78,1.78,0,0,0,1.436.654,1.892,1.892,0,0,0,1.636-.815,3.937,3.937,0,0,0,.581-2.31q0-2.637-2.051-2.637a1.926,1.926,0,0,0-1.548.718A2.863,2.863,0,0,0,77.762,16.736ZM93.65,14.783a2.677,2.677,0,0,0-1.3-.3,1.871,1.871,0,0,0-1.572.737,3.217,3.217,0,0,0-.566,2.007V22H87.127V12h3.086v1.855h.039a2.67,2.67,0,0,1,2.637-2.031,1.987,1.987,0,0,1,.762.117Zm10.342,3.1H97.469q.156,2.178,2.744,2.178a5.357,5.357,0,0,0,2.9-.781V21.5a7.619,7.619,0,0,1-3.6.742A5.073,5.073,0,0,1,95.75,20.9a5.073,5.073,0,0,1-1.338-3.745,5.352,5.352,0,0,1,1.445-3.945,4.815,4.815,0,0,1,3.555-1.455,4.37,4.37,0,0,1,3.384,1.3,5,5,0,0,1,1.2,3.525Zm-2.861-1.895q0-2.148-1.738-2.148a1.66,1.66,0,0,0-1.284.615,2.792,2.792,0,0,0-.659,1.533ZM115.486,22H112.41V16.443q0-2.324-1.66-2.324a1.647,1.647,0,0,0-1.318.615,2.344,2.344,0,0,0-.518,1.563V22h-3.086V12h3.086v1.582h.039a3.536,3.536,0,0,1,3.213-1.826q3.32,0,3.32,4.121Zm1.787-.264v-2.5a6.57,6.57,0,0,0,1.519.684,5.035,5.035,0,0,0,1.431.225,3.068,3.068,0,0,0,1.294-.225.726.726,0,0,0,.474-.684.632.632,0,0,0-.215-.488,2,2,0,0,0-.552-.342,6.261,6.261,0,0,0-.737-.264q-.4-.117-.771-.264a7.392,7.392,0,0,1-1.05-.483,3.034,3.034,0,0,1-.762-.6,2.361,2.361,0,0,1-.469-.791,3.157,3.157,0,0,1-.161-1.064,2.74,2.74,0,0,1,.366-1.445,2.991,2.991,0,0,1,.977-.991,4.462,4.462,0,0,1,1.4-.566,7.281,7.281,0,0,1,1.636-.181,9.076,9.076,0,0,1,1.348.1,10.059,10.059,0,0,1,1.348.3v2.383a4.87,4.87,0,0,0-1.255-.513,5.294,5.294,0,0,0-1.313-.171,2.91,2.91,0,0,0-.571.054,1.882,1.882,0,0,0-.474.156.87.87,0,0,0-.322.264.607.607,0,0,0-.117.366.677.677,0,0,0,.176.469,1.527,1.527,0,0,0,.459.337,4.531,4.531,0,0,0,.63.254q.347.112.688.229a8.951,8.951,0,0,1,1.113.469,3.56,3.56,0,0,1,.854.6,2.339,2.339,0,0,1,.547.8,3.2,3.2,0,0,1-.2,2.612,3.088,3.088,0,0,1-1.025,1.025,4.65,4.65,0,0,1-1.475.576,8.175,8.175,0,0,1-1.733.181A8.936,8.936,0,0,1,117.273,21.736Zm11.016-11.318a1.8,1.8,0,0,1-1.279-.464,1.5,1.5,0,0,1-.5-1.138,1.441,1.441,0,0,1,.5-1.133,2.089,2.089,0,0,1,2.563,0,1.448,1.448,0,0,1,.493,1.133,1.489,1.489,0,0,1-.493,1.152A1.833,1.833,0,0,1,128.289,10.418ZM129.813,22h-3.086V12h3.086Zm7.363.244a5.376,5.376,0,0,1-3.931-1.4,5.081,5.081,0,0,1-1.431-3.8,5.081,5.081,0,0,1,1.484-3.882,5.609,5.609,0,0,1,4.014-1.4,5.311,5.311,0,0,1,3.906,1.4,4.981,4.981,0,0,1,1.416,3.706,5.288,5.288,0,0,1-1.46,3.936A5.435,5.435,0,0,1,137.176,22.244Zm.078-8.125a2.058,2.058,0,0,0-1.7.752A3.316,3.316,0,0,0,134.949,17q0,2.881,2.324,2.881,2.217,0,2.217-2.959Q139.49,14.119,137.254,14.119Zm3.311-6.855-3.057,3.154h-2.227l2.539-3.154ZM154.285,22h-3.076V16.443q0-2.324-1.66-2.324a1.647,1.647,0,0,0-1.318.615,2.344,2.344,0,0,0-.518,1.563V22h-3.086V12h3.086v1.582h.039a3.536,3.536,0,0,1,3.213-1.826q3.32,0,3.32,4.121Zm11.045,0h-3.086V7.2h3.086Zm11.582-4.121h-6.523q.156,2.178,2.744,2.178a5.357,5.357,0,0,0,2.9-.781V21.5a7.62,7.62,0,0,1-3.6.742,5.073,5.073,0,0,1-3.76-1.343,5.073,5.073,0,0,1-1.338-3.745,5.351,5.351,0,0,1,1.445-3.945,4.815,4.815,0,0,1,3.555-1.455,4.37,4.37,0,0,1,3.384,1.3,5,5,0,0,1,1.2,3.525Zm-2.861-1.895q0-2.148-1.738-2.148a1.66,1.66,0,0,0-1.284.615,2.792,2.792,0,0,0-.659,1.533Zm12.275,5.654a6.1,6.1,0,0,1-3.018.605,5.1,5.1,0,0,1-3.73-1.4,4.823,4.823,0,0,1-1.426-3.6,5.313,5.313,0,0,1,1.528-4.019,5.648,5.648,0,0,1,4.087-1.47,5.244,5.244,0,0,1,2.559.469v2.617a3.518,3.518,0,0,0-2.158-.723,2.844,2.844,0,0,0-2.1.776,2.9,2.9,0,0,0-.776,2.144,2.85,2.85,0,0,0,.742,2.085,2.728,2.728,0,0,0,2.041.757,4.073,4.073,0,0,0,2.256-.723Zm8.066.244a4.561,4.561,0,0,1-2.061.361q-3.262,0-3.262-3.389v-4.58h-1.621V12h1.621V9.842l3.076-.879V12h2.246v2.275h-2.246v4.043q0,1.562,1.24,1.563a2.091,2.091,0,0,0,1.006-.283Zm6.426.361a5.376,5.376,0,0,1-3.931-1.4,5.081,5.081,0,0,1-1.431-3.8,5.081,5.081,0,0,1,1.484-3.882,5.609,5.609,0,0,1,4.014-1.4,5.311,5.311,0,0,1,3.906,1.4,4.981,4.981,0,0,1,1.416,3.706,5.288,5.288,0,0,1-1.46,3.936A5.435,5.435,0,0,1,200.818,22.244Zm.078-8.125a2.058,2.058,0,0,0-1.7.752A3.316,3.316,0,0,0,198.592,17q0,2.881,2.324,2.881,2.217,0,2.217-2.959Q203.133,14.119,200.9,14.119Zm13.906.664a2.677,2.677,0,0,0-1.3-.3,1.871,1.871,0,0,0-1.572.737,3.216,3.216,0,0,0-.566,2.007V22h-3.086V12h3.086v1.855h.039a2.67,2.67,0,0,1,2.637-2.031,1.987,1.987,0,0,1,.762.117ZM224.559,22h-2.92V20.564H221.6a3.259,3.259,0,0,1-2.979,1.68,3.116,3.116,0,0,1-2.29-.825,2.957,2.957,0,0,1-.835-2.2q0-2.91,3.447-3.359l2.715-.361q0-1.641-1.777-1.641a6.067,6.067,0,0,0-3.4,1.064V12.6a7.646,7.646,0,0,1,1.763-.586,9.266,9.266,0,0,1,2.036-.254q4.277,0,4.277,4.268Zm-2.9-4.062v-.674l-1.816.234q-1.5.2-1.5,1.357a1.122,1.122,0,0,0,.366.864,1.407,1.407,0,0,0,.991.337,1.827,1.827,0,0,0,1.416-.6A2.169,2.169,0,0,0,221.658,17.938ZM248.4,22H245.32V16.3q0-2.178-1.6-2.178a1.471,1.471,0,0,0-1.24.654A2.689,2.689,0,0,0,242,16.4V22h-3.086V16.238q0-2.119-1.572-2.119a1.507,1.507,0,0,0-1.265.625,2.75,2.75,0,0,0-.474,1.7V22h-3.086V12H235.6v1.563h.039a3.789,3.789,0,0,1,3.232-1.807,2.88,2.88,0,0,1,2.9,1.865,3.7,3.7,0,0,1,3.359-1.865q3.262,0,3.262,4.023Zm11.426-4.121H253.3q.156,2.178,2.744,2.178a5.358,5.358,0,0,0,2.9-.781V21.5a7.619,7.619,0,0,1-3.6.742,5.073,5.073,0,0,1-3.76-1.343,5.073,5.073,0,0,1-1.338-3.745,5.351,5.351,0,0,1,1.445-3.945,4.815,4.815,0,0,1,3.555-1.455,4.37,4.37,0,0,1,3.384,1.3,5,5,0,0,1,1.2,3.525Zm-2.861-1.895q0-2.148-1.738-2.148a1.66,1.66,0,0,0-1.284.615,2.792,2.792,0,0,0-.659,1.533ZM271.443,22h-3.086V20.623h-.039a3.46,3.46,0,0,1-3.1,1.621,3.791,3.791,0,0,1-3.018-1.323,5.478,5.478,0,0,1-1.143-3.7,5.962,5.962,0,0,1,1.26-3.975,4.109,4.109,0,0,1,3.3-1.494,2.808,2.808,0,0,1,2.7,1.387h.039V7.2h3.086Zm-3.027-4.863v-.752a2.366,2.366,0,0,0-.566-1.621,2,2,0,0,0-3.076.161,3.741,3.741,0,0,0-.576,2.212,3.237,3.237,0,0,0,.557,2.031,1.976,1.976,0,0,0,3.071-.039A3.134,3.134,0,0,0,268.416,17.137Zm7.188-6.719a1.8,1.8,0,0,1-1.279-.464,1.5,1.5,0,0,1-.5-1.138,1.441,1.441,0,0,1,.5-1.133,2.089,2.089,0,0,1,2.563,0,1.448,1.448,0,0,1,.493,1.133,1.489,1.489,0,0,1-.493,1.152A1.833,1.833,0,0,1,275.6,10.418ZM277.127,22h-3.086V12h3.086Zm10.918,0h-2.92V20.564h-.039a3.259,3.259,0,0,1-2.979,1.68,3.116,3.116,0,0,1-2.29-.825,2.957,2.957,0,0,1-.835-2.2q0-2.91,3.447-3.359l2.715-.361q0-1.641-1.777-1.641a6.067,6.067,0,0,0-3.4,1.064V12.6a7.645,7.645,0,0,1,1.763-.586,9.266,9.266,0,0,1,2.036-.254q4.277,0,4.277,4.268Zm-2.9-4.062v-.674l-1.816.234q-1.5.2-1.5,1.357a1.122,1.122,0,0,0,.366.864,1.407,1.407,0,0,0,.991.337,1.827,1.827,0,0,0,1.416-.6A2.169,2.169,0,0,0,285.145,17.938Zm15,4.063h-3.076V16.443q0-2.324-1.66-2.324a1.647,1.647,0,0,0-1.318.615,2.344,2.344,0,0,0-.518,1.563V22h-3.086V12h3.086v1.582h.039a3.536,3.536,0,0,1,3.213-1.826q3.32,0,3.32,4.121Zm8.486-.117a4.561,4.561,0,0,1-2.061.361q-3.262,0-3.262-3.389v-4.58h-1.621V12h1.621V9.842l3.076-.879V12h2.246v2.275h-2.246v4.043q0,1.562,1.24,1.563a2.091,2.091,0,0,0,1.006-.283Zm10.645-4h-6.523q.156,2.178,2.744,2.178a5.358,5.358,0,0,0,2.9-.781V21.5a7.619,7.619,0,0,1-3.6.742,5.073,5.073,0,0,1-3.76-1.343,5.073,5.073,0,0,1-1.338-3.745,5.352,5.352,0,0,1,1.445-3.945,4.815,4.815,0,0,1,3.555-1.455,4.37,4.37,0,0,1,3.384,1.3,5,5,0,0,1,1.2,3.525Zm-2.861-1.895q0-2.148-1.738-2.148a1.66,1.66,0,0,0-1.284.615,2.792,2.792,0,0,0-.659,1.533ZM334.949,22h-2.92V20.564h-.039a3.259,3.259,0,0,1-2.979,1.68,3.116,3.116,0,0,1-2.29-.825,2.957,2.957,0,0,1-.835-2.2q0-2.91,3.447-3.359l2.715-.361q0-1.641-1.777-1.641a6.067,6.067,0,0,0-3.4,1.064V12.6a7.645,7.645,0,0,1,1.763-.586,9.266,9.266,0,0,1,2.036-.254q4.277,0,4.277,4.268Zm-2.9-4.062v-.674l-1.816.234q-1.5.2-1.5,1.357a1.122,1.122,0,0,0,.366.864,1.407,1.407,0,0,0,.991.337,1.827,1.827,0,0,0,1.416-.6A2.169,2.169,0,0,0,332.049,17.938Zm15,4.063h-3.076V16.443q0-2.324-1.66-2.324a1.647,1.647,0,0,0-1.318.615,2.344,2.344,0,0,0-.518,1.563V22h-3.086V12h3.086v1.582h.039a3.536,3.536,0,0,1,3.213-1.826q3.32,0,3.32,4.121Zm10.762,0h-2.92V20.564h-.039a3.259,3.259,0,0,1-2.979,1.68,3.116,3.116,0,0,1-2.29-.825,2.957,2.957,0,0,1-.835-2.2q0-2.91,3.447-3.359l2.715-.361q0-1.641-1.777-1.641a6.067,6.067,0,0,0-3.4,1.064V12.6a7.645,7.645,0,0,1,1.763-.586,9.266,9.266,0,0,1,2.036-.254q4.277,0,4.277,4.268Zm-2.9-4.062v-.674l-1.816.234q-1.5.2-1.5,1.357a1.122,1.122,0,0,0,.366.864,1.407,1.407,0,0,0,.991.337,1.827,1.827,0,0,0,1.416-.6A2.169,2.169,0,0,0,354.91,17.938Zm1.982-10.674-3.057,3.154h-2.227l2.539-3.154ZM363.338,22h-3.086V7.2h3.086Zm4.16-11.582a1.8,1.8,0,0,1-1.279-.464,1.5,1.5,0,0,1-.5-1.138,1.441,1.441,0,0,1,.5-1.133,2.089,2.089,0,0,1,2.563,0,1.448,1.448,0,0,1,.493,1.133,1.489,1.489,0,0,1-.493,1.152A1.833,1.833,0,0,1,367.5,10.418ZM369.021,22h-3.086V12h3.086Zm1.943-.264v-2.5a6.57,6.57,0,0,0,1.519.684,5.035,5.035,0,0,0,1.431.225,3.068,3.068,0,0,0,1.294-.225.726.726,0,0,0,.474-.684.632.632,0,0,0-.215-.488,2,2,0,0,0-.552-.342,6.261,6.261,0,0,0-.737-.264q-.4-.117-.771-.264a7.392,7.392,0,0,1-1.05-.483,3.034,3.034,0,0,1-.762-.6,2.361,2.361,0,0,1-.469-.791,3.157,3.157,0,0,1-.161-1.064,2.74,2.74,0,0,1,.366-1.445,2.991,2.991,0,0,1,.977-.991,4.462,4.462,0,0,1,1.4-.566,7.281,7.281,0,0,1,1.636-.181,9.076,9.076,0,0,1,1.348.1,10.059,10.059,0,0,1,1.348.3v2.383a4.87,4.87,0,0,0-1.255-.513,5.293,5.293,0,0,0-1.313-.171,2.91,2.91,0,0,0-.571.054,1.881,1.881,0,0,0-.474.156.87.87,0,0,0-.322.264.607.607,0,0,0-.117.366.677.677,0,0,0,.176.469,1.527,1.527,0,0,0,.459.337,4.532,4.532,0,0,0,.63.254q.347.112.688.229a8.951,8.951,0,0,1,1.113.469,3.56,3.56,0,0,1,.854.6,2.339,2.339,0,0,1,.547.8,3.2,3.2,0,0,1-.2,2.612,3.089,3.089,0,0,1-1.025,1.025,4.65,4.65,0,0,1-1.475.576,8.175,8.175,0,0,1-1.733.181A8.936,8.936,0,0,1,370.965,21.736ZM381.98,10.418a1.8,1.8,0,0,1-1.279-.464,1.5,1.5,0,0,1-.5-1.138,1.441,1.441,0,0,1,.5-1.133,2.089,2.089,0,0,1,2.563,0,1.448,1.448,0,0,1,.493,1.133,1.489,1.489,0,0,1-.493,1.152A1.833,1.833,0,0,1,381.98,10.418ZM383.5,22h-3.086V12H383.5Zm1.943-.264v-2.5a6.57,6.57,0,0,0,1.519.684,5.035,5.035,0,0,0,1.431.225,3.068,3.068,0,0,0,1.294-.225.726.726,0,0,0,.474-.684.632.632,0,0,0-.215-.488,2,2,0,0,0-.552-.342,6.261,6.261,0,0,0-.737-.264q-.4-.117-.771-.264a7.392,7.392,0,0,1-1.05-.483,3.034,3.034,0,0,1-.762-.6,2.361,2.361,0,0,1-.469-.791,3.157,3.157,0,0,1-.161-1.064,2.74,2.74,0,0,1,.366-1.445,2.991,2.991,0,0,1,.977-.991,4.462,4.462,0,0,1,1.4-.566,7.281,7.281,0,0,1,1.636-.181,9.076,9.076,0,0,1,1.348.1,10.059,10.059,0,0,1,1.348.3v2.383a4.87,4.87,0,0,0-1.255-.513,5.293,5.293,0,0,0-1.313-.171,2.91,2.91,0,0,0-.571.054,1.881,1.881,0,0,0-.474.156.87.87,0,0,0-.322.264.607.607,0,0,0-.117.366.677.677,0,0,0,.176.469,1.527,1.527,0,0,0,.459.337,4.532,4.532,0,0,0,.63.254q.347.112.688.229a8.951,8.951,0,0,1,1.113.469,3.56,3.56,0,0,1,.854.6,2.339,2.339,0,0,1,.547.8,3.2,3.2,0,0,1-.2,2.612,3.089,3.089,0,0,1-1.025,1.025,4.65,4.65,0,0,1-1.475.576,8.175,8.175,0,0,1-1.733.181A8.936,8.936,0,0,1,385.447,21.736Z" transform="translate(588.833 455)" fill="#12263f"/>
    <rect id="Rectángulo_401432" data-name="Rectángulo 401432" width="80" height="23" transform="translate(265.46 716.724)" fill="#fff"/>
    <rect id="Rectángulo_455196" data-name="Rectángulo 455196" width="80" height="23" transform="translate(681.46 716.724)" fill="#fff"/>
    <rect id="Rectángulo_455205" data-name="Rectángulo 455205" width="80" height="23" transform="translate(1097.46 716.724)" fill="#fff"/>
    <rect id="Rectángulo_455191" data-name="Rectángulo 455191" width="80" height="23" transform="translate(473.46 716.724)" fill="#fff"/>
    <rect id="Rectángulo_455199" data-name="Rectángulo 455199" width="80" height="23" transform="translate(889.46 716.724)" fill="#fff"/>
    <rect id="Rectángulo_401434" data-name="Rectángulo 401434" width="80" height="28" transform="translate(760 527)" fill="#fff"/>
    <text id="contiene" transform="translate(768 532)" fill="#12263f" font-size="16" font-family="SegoeUI, Segoe UI" letter-spacing="0.003em"><tspan x="0" y="17">contiene</tspan></text>
    <text id="implica" transform="translate(275 718.724)" fill="#12263f" font-size="16" font-family="SegoeUI, Segoe UI" letter-spacing="0.003em"><tspan x="-25.292" y="17">implica</tspan></text>
    <text id="comprende" transform="translate(679 718.724)" fill="#12263f" font-size="16" font-family="SegoeUI, Segoe UI" letter-spacing="0.003em"><tspan x="-40.523" y="17">comprende</tspan></text>
    <text id="Se_aplica_mediante" data-name="Se aplica mediante" transform="translate(1085 717.724)" fill="#12263f" font-size="16" font-family="SegoeUI, Segoe UI" letter-spacing="0.003em"><tspan x="-66.785" y="17">Se aplica mediante</tspan></text>
    <text id="describe" transform="translate(485.46 718.724)" fill="#12263f" font-size="16" font-family="SegoeUI, Segoe UI" letter-spacing="0.003em"><tspan x="-29.73" y="17">describe</tspan></text>
    <text id="incluye" transform="translate(901.46 718.724)" fill="#12263f" font-size="16" font-family="SegoeUI, Segoe UI" letter-spacing="0.003em"><tspan x="-24.8" y="17">incluye</tspan></text>
  </g>
</svg>
