<svg xmlns="http://www.w3.org/2000/svg" width="74" height="74" viewBox="0 0 74 74">
  <g id="Grupo_1178218" data-name="Grupo 1178218" transform="translate(-184.601 -674.002)">
    <rect id="Image_Place_Holder" data-name="Image Place Holder" width="74" height="74" rx="10" transform="translate(184.601 674.002)" fill="#e795ff"/>
    <g id="Layer_18" data-name="Layer 18" transform="translate(196.877 685.279)">
      <path id="Trazado_999091" data-name="Trazado 999091" d="M6,2H36.61V43.323H6Z" transform="translate(-1.174 -0.235)" fill="#c8cded"/>
      <path id="Trazado_999092" data-name="Trazado 999092" d="M32.61,49.323H2V8H25.722l6.887,6.887Z" transform="translate(-0.235 -1.643)" fill="#e2e7f6"/>
      <path id="Trazado_999093" data-name="Trazado 999093" d="M2,46.262H29.549V11.826L25.722,8H2Z" transform="translate(-0.235 -1.643)" fill="#f2f2f2"/>
      <path id="Trazado_999094" data-name="Trazado 999094" d="M33,8v6.887h6.887" transform="translate(-7.512 -1.643)" fill="#fff"/>
      <path id="Trazado_999095" data-name="Trazado 999095" d="M40,46.122l2.52,2.52a1.847,1.847,0,0,0,2.613,0l3.509-3.509a1.847,1.847,0,0,0,0-2.613L46.122,40" transform="translate(-9.156 -9.156)" fill="#3b5892"/>
      <path id="Trazado_999096" data-name="Trazado 999096" d="M46.474,40,41.5,44.974l1.372,1.372a1.847,1.847,0,0,0,2.613,0l3.509-3.509a1.836,1.836,0,0,0,.13-.158,1.835,1.835,0,0,0-.13-.158Z" transform="translate(-9.508 -9.156)" fill="#4c6cb5"/>
      <path id="Trazado_999097" data-name="Trazado 999097" d="M11.576,11.612a.765.765,0,0,0-.75-.612H8.53a.765.765,0,0,0-.75.612l-.765,3.826A.765.765,0,0,0,7,15.591v3.061H8.53v-2.3h2.3v2.3h1.53V15.591a.765.765,0,0,0-.015-.153ZM10.2,12.53l.459,2.3H8.7l.459-2.3Z" transform="translate(-1.409 -2.348)" fill="#78a0d4"/>
      <path id="Trazado_999098" data-name="Trazado 999098" d="M18.061,11h-2.3a.765.765,0,0,0-.765.765v6.122a.765.765,0,0,0,.765.765h2.3a2.3,2.3,0,0,0,1.71-3.826A2.3,2.3,0,0,0,18.061,11Zm0,6.122H16.53v-1.53h1.53a.765.765,0,0,1,0,1.53Zm0-3.061H16.53V12.53h1.53a.765.765,0,0,1,0,1.53Z" transform="translate(-3.287 -2.348)" fill="#78a0d4"/>
      <path id="Trazado_999099" data-name="Trazado 999099" d="M28.357,14.061V13.3a2.3,2.3,0,0,0-2.3-2.3H25.3A2.3,2.3,0,0,0,23,13.3v3.061a2.3,2.3,0,0,0,2.3,2.3h.765a2.3,2.3,0,0,0,2.3-2.3v-.765h-1.53v.765a.765.765,0,0,1-.765.765H25.3a.765.765,0,0,1-.765-.765V13.3a.765.765,0,0,1,.765-.765h.765a.765.765,0,0,1,.765.765v.765Z" transform="translate(-5.165 -2.348)" fill="#78a0d4"/>
      <circle id="Elipse_13773" data-name="Elipse 13773" cx="10.713" cy="10.713" r="10.713" transform="translate(17.07 17.07)" fill="#78a0d4"/>
      <path id="Trazado_999100" data-name="Trazado 999100" d="M49,52.826,51.669,57.1A3.939,3.939,0,1,0,57.1,51.669L52.826,49Z" transform="translate(-11.269 -11.269)" fill="#3b5892"/>
      <path id="Trazado_999101" data-name="Trazado 999101" d="M57.512,51.669,53.241,49l-2.472,2.472L52.85,54.8a3.928,3.928,0,0,0,6.514.23c0-.008,0-.015,0-.021a3.939,3.939,0,0,0-1.851-3.34Z" transform="translate(-11.684 -11.269)" fill="#4c6cb5"/>
      <path id="Trazado_999102" data-name="Trazado 999102" d="M0,0H3.247V2.706H0Z" transform="translate(36.576 38.879) rotate(-45)" fill="#78a0d4"/>
      <path id="Trazado_999103" data-name="Trazado 999103" d="M48.5,49.03l.607.607a.765.765,0,0,0,1.082,0l.989-.989L50.03,47.5Z" transform="translate(-11.151 -10.916)" fill="#8ab4e2"/>
      <circle id="Elipse_13774" data-name="Elipse 13774" cx="7.652" cy="7.652" r="7.652" transform="translate(20.131 20.131)" fill="#e2e7f6"/>
      <path id="Trazado_999104" data-name="Trazado 999104" d="M33.652,26a7.642,7.642,0,0,0-6.116,12.238,7.642,7.642,0,0,0,10.7-10.7A7.607,7.607,0,0,0,33.652,26Z" transform="translate(-5.869 -5.869)" fill="#f2f2f2"/>
      <path id="Trazado_999105" data-name="Trazado 999105" d="M31,35h1.53v1.53H31Z" transform="translate(-7.043 -7.982)" fill="#78a0d4"/>
      <path id="Trazado_999106" data-name="Trazado 999106" d="M35,35h1.53v1.53H35Z" transform="translate(-7.982 -7.982)" fill="#78a0d4"/>
      <path id="Trazado_999107" data-name="Trazado 999107" d="M39,35h1.53v1.53H39Z" transform="translate(-8.921 -7.982)" fill="#78a0d4"/>
      <g id="Grupo_1179254" data-name="Grupo 1179254" transform="translate(4.061 19.366)">
        <path id="Trazado_999108" data-name="Trazado 999108" d="M5,25H15.713v1.53H5Z" transform="translate(-5 -25)" fill="#c8cded"/>
        <path id="Trazado_999109" data-name="Trazado 999109" d="M5,29H15.713v1.53H5Z" transform="translate(-5 -25.939)" fill="#c8cded"/>
        <path id="Trazado_999110" data-name="Trazado 999110" d="M5,33H15.713v1.53H5Z" transform="translate(-5 -26.878)" fill="#c8cded"/>
        <path id="Trazado_999111" data-name="Trazado 999111" d="M5,37H15.713v1.53H5Z" transform="translate(-5 -27.817)" fill="#c8cded"/>
        <path id="Trazado_999112" data-name="Trazado 999112" d="M5,41H15.713v1.53H5Z" transform="translate(-5 -28.756)" fill="#c8cded"/>
        <path id="Trazado_999113" data-name="Trazado 999113" d="M5,45H15.713v1.53H5Z" transform="translate(-5 -29.695)" fill="#c8cded"/>
        <path id="Trazado_999114" data-name="Trazado 999114" d="M5,49H20.3v1.53H5Z" transform="translate(-5 -30.634)" fill="#c8cded"/>
      </g>
      <path id="Trazado_999115" data-name="Trazado 999115" d="M8.53,16.357h2.3v2.3h1.53V15.591a.765.765,0,0,0-.015-.153l-.765-3.826a.765.765,0,0,0-.75-.612H8.53a.765.765,0,0,0-.75.612l-.765,3.826A.765.765,0,0,0,7,15.591v3.061H8.53ZM10.2,12.53l.459,2.3H8.7l.459-2.3Z" transform="translate(-1.409 -2.348)"/>
      <path id="Trazado_999116" data-name="Trazado 999116" d="M15.765,18.652h2.3a2.3,2.3,0,0,0,1.71-3.826A2.3,2.3,0,0,0,18.061,11h-2.3a.765.765,0,0,0-.765.765v6.122A.765.765,0,0,0,15.765,18.652Zm.765-6.122h1.53a.765.765,0,0,1,0,1.53H16.53Zm0,3.061h1.53a.765.765,0,0,1,0,1.53H16.53Z" transform="translate(-3.287 -2.348)"/>
      <path id="Trazado_999117" data-name="Trazado 999117" d="M25.3,18.652h.765a2.3,2.3,0,0,0,2.3-2.3v-.765h-1.53v.765a.765.765,0,0,1-.765.765H25.3a.765.765,0,0,1-.765-.765V13.3a.765.765,0,0,1,.765-.765h.765a.765.765,0,0,1,.765.765v.765h1.53V13.3a2.3,2.3,0,0,0-2.3-2.3H25.3A2.3,2.3,0,0,0,23,13.3v3.061A2.3,2.3,0,0,0,25.3,18.652Z" transform="translate(-5.165 -2.348)"/>
      <path id="Trazado_999118" data-name="Trazado 999118" d="M46.234,39.752l-4.271-2.67a.765.765,0,0,0-.947.108l-.224.224-.831-.831.066-.066a2.613,2.613,0,0,0,0-3.695L38.65,31.446A11.382,11.382,0,0,0,36.2,20.005V1.765A.765.765,0,0,0,35.436,1H4.826a.765.765,0,0,0-.765.765V5.591h-2.3A.765.765,0,0,0,1,6.357V47.68a.765.765,0,0,0,.765.765h30.61a.765.765,0,0,0,.765-.765V43.853h2.3a.765.765,0,0,0,.765-.765v-2.8a2.555,2.555,0,0,0,.317-.26l.066-.066.831.831-.224.224a.765.765,0,0,0-.108.947l2.67,4.271a4.7,4.7,0,1,0,6.482-6.482Zm-7.289-5.847a1.083,1.083,0,0,1,0,1.53l-3.509,3.509a1.11,1.11,0,0,1-1.53,0l-.935-.935a11.547,11.547,0,0,0,5.04-5.04ZM27.783,37.731a9.948,9.948,0,1,1,9.948-9.948A9.948,9.948,0,0,1,27.783,37.731ZM26.253,8.2l4.275,4.275H26.253ZM5.591,2.53H34.67V18.622a11.492,11.492,0,0,0-1.53-.983v-4.4a.765.765,0,0,0-.224-.541L26.029,5.816a.765.765,0,0,0-.541-.224H5.591ZM2.53,46.914V7.122H24.722v6.122a.765.765,0,0,0,.765.765H31.61v2.965a11.479,11.479,0,1,0-.162,21.675l.162.161v8.1Zm32.14-4.591H33.14V40.287a2.583,2.583,0,0,0,1.53.505Zm3-3.444,1.214-1.214.831.831L38.5,39.71Zm6.075,8.035a3.156,3.156,0,0,1-2.691-1.491L38.7,41.669,41.669,38.7l3.754,2.346a3.173,3.173,0,0,1-1.682,5.865Z"/>
      <path id="Trazado_999119" data-name="Trazado 999119" d="M33.418,25a8.418,8.418,0,1,0,8.418,8.418A8.418,8.418,0,0,0,33.418,25Zm0,15.3A6.887,6.887,0,1,1,40.3,33.418,6.887,6.887,0,0,1,33.418,40.3Z" transform="translate(-5.634 -5.634)"/>
      <path id="Trazado_999120" data-name="Trazado 999120" d="M31,35h1.53v1.53H31Z" transform="translate(-7.043 -7.982)"/>
      <path id="Trazado_999121" data-name="Trazado 999121" d="M35,35h1.53v1.53H35Z" transform="translate(-7.982 -7.982)"/>
      <path id="Trazado_999122" data-name="Trazado 999122" d="M39,35h1.53v1.53H39Z" transform="translate(-8.921 -7.982)"/>
      <path id="Trazado_999123" data-name="Trazado 999123" d="M5,25H15.713v1.53H5Z" transform="translate(-0.939 -5.634)"/>
      <path id="Trazado_999124" data-name="Trazado 999124" d="M5,29H15.713v1.53H5Z" transform="translate(-0.939 -6.573)"/>
      <path id="Trazado_999125" data-name="Trazado 999125" d="M5,33H15.713v1.53H5Z" transform="translate(-0.939 -7.512)"/>
      <path id="Trazado_999126" data-name="Trazado 999126" d="M5,37H15.713v1.53H5Z" transform="translate(-0.939 -8.451)"/>
      <path id="Trazado_999127" data-name="Trazado 999127" d="M5,41H15.713v1.53H5Z" transform="translate(-0.939 -9.39)"/>
      <path id="Trazado_999128" data-name="Trazado 999128" d="M5,45H15.713v1.53H5Z" transform="translate(-0.939 -10.33)"/>
      <path id="Trazado_999129" data-name="Trazado 999129" d="M5,49H20.3v1.53H5Z" transform="translate(-0.939 -11.269)"/>
    </g>
  </g>
</svg>
