<svg xmlns="http://www.w3.org/2000/svg" width="292" height="140" viewBox="0 0 292 140">
  <g id="Grupo_1179248" data-name="Grupo 1179248" transform="translate(-186.398 -747)">
    <rect id="Rectángulo_455159" data-name="Rectángulo 455159" width="292" height="140" transform="translate(186.398 747)" fill="#a4c2ff"/>
    <g id="OBJECTS" transform="translate(194.633 704.377)">
      <g id="Grupo_1178893" data-name="Grupo 1178893" transform="translate(51.766 58.379)">
        <g id="Grupo_1178889" data-name="Grupo 1178889" transform="translate(113.004 13.348)">
          <path id="Trazado_998909" data-name="Trazado 998909" d="M388.572,135.7c-3.273.071-7.238.378-8.248-2.468-1.631-4.6,4.086-5.7,6.626-4.489-5.274-5.569,3.081-10.932,6.48-4.75-1.212-3.275-.632-8.36,5.289-8.257,5.212.091,6.482,4.176,5.9,7.806,2.5-4.917,11.3.516,5.932,5.569,2.147-.823,5.906-.341,6.639,2.268.791,2.814-1.644,4.206-5.633,4.335-8.838.284-15.638.114-22.981-.014" transform="translate(-380.035 -115.738)" fill="#fff"/>
        </g>
        <g id="Grupo_1178890" data-name="Grupo 1178890" transform="translate(0 64.537)">
          <path id="Trazado_998910" data-name="Trazado 998910" d="M84.988,267.546c-1.517-2.839-5.852-3.818-8.778-2.582-4.417,1.865-4.894,5.169-3.658,8.778-3.055-4.77-10.226-.544-7.573,4.131-3.658-4.733-9.825.718-6.239,4.948-7.946-3.172-9.782,6.918-1.936,7.487,9.239.671,17.858.129,25.818-.086" transform="translate(-51.766 -264.439)" fill="#fff"/>
        </g>
        <g id="Grupo_1178891" data-name="Grupo 1178891" transform="translate(136.753 62.214)">
          <path id="Trazado_998911" data-name="Trazado 998911" d="M455.823,261.83c0-3.442,4.088-4.862,6.885-3.787,3.012,1.076,3.729,3.788,2.668,6.8,2.266-4.617,9.438-.473,6.153,4.475,2.31-4.331,7.358-.975,6.239,3.055,2.152-1.076,5.766-.1,5.379,3.141-.527,4.4-5.667,3.365-12.694,3.83a195.837,195.837,0,0,1-21.429-.086" transform="translate(-449.025 -257.691)" fill="#fff"/>
        </g>
        <g id="Grupo_1178892" data-name="Grupo 1178892" transform="translate(17.403 0)">
          <path id="Trazado_998912" data-name="Trazado 998912" d="M121.088,98.644c-8.444.036-10.2-.083-13.831-.2-6.483-.21-6.575-6.641-.326-6.26-4.895-4.267.957-8.762,5.164-5.122-4.092-5.268,4.285-8.255,6.541-3.663-.879-8.223,12.284-8.958,11.446.079,2.064-4.048,9.249-.738,5.508,4.058,2.593-3.165,8.215,1.349,4.26,4.412,2.521-1.066,5.415-.1,5.416,2.472,0,5.076-8.108,3.941-24.176,4.225" transform="translate(-102.319 -76.963)" fill="#fff"/>
        </g>
      </g>
      <g id="Grupo_1178900" data-name="Grupo 1178900" transform="translate(53.568 48.623)">
        <g id="Grupo_1178894" data-name="Grupo 1178894" transform="translate(2.524 46.078)">
          <path id="Trazado_998913" data-name="Trazado 998913" d="M64.333,183.919a2.6,2.6,0,0,1,.228-.352,2.017,2.017,0,0,1,.3-.314,1.909,1.909,0,0,1,.8-.41,2.208,2.208,0,0,1,.932-.005,2.247,2.247,0,0,1,.447.13,3.045,3.045,0,0,1,.416.2,3.734,3.734,0,0,1,.736.542,3.984,3.984,0,0,1,.592.7,3.4,3.4,0,0,1,.417.848,2.435,2.435,0,0,1,.112.488,2.258,2.258,0,0,1,0,.535.512.512,0,0,1-1.018.007l0-.019a3.928,3.928,0,0,1,.246-1.861,3.36,3.36,0,0,1,.2-.429,3.1,3.1,0,0,1,.257-.4,2.9,2.9,0,0,1,.694-.671,2.552,2.552,0,0,1,.892-.383,2.549,2.549,0,0,1,.942,0,2.483,2.483,0,0,1,.436.127,3.034,3.034,0,0,1,.4.185c.125.077.248.151.362.238a3.866,3.866,0,0,1,.326.275c-.137-.042-.263-.1-.4-.13s-.264-.074-.395-.1-.262-.051-.392-.06a2.3,2.3,0,0,0-.383-.008,1.749,1.749,0,0,0-.365.043,1.632,1.632,0,0,0-.338.107,1.843,1.843,0,0,0-.58.366,2.568,2.568,0,0,0-.433.542,3.06,3.06,0,0,0-.293.645,3.544,3.544,0,0,0-.151.7,3.479,3.479,0,0,0-.006.711l-1.021-.012a1.577,1.577,0,0,0-.059-.593,2.967,2.967,0,0,0-.27-.635,3.8,3.8,0,0,0-.937-1.093,2.329,2.329,0,0,0-.3-.2,2.565,2.565,0,0,0-.318-.159,1.815,1.815,0,0,0-.689-.14,1.72,1.72,0,0,0-.719.158,2.017,2.017,0,0,0-.344.191A4.038,4.038,0,0,0,64.333,183.919Z" transform="translate(-64.333 -182.477)" fill="#c7ade8"/>
        </g>
        <g id="Grupo_1178895" data-name="Grupo 1178895" transform="translate(101.781 15.389)">
          <path id="Trazado_998914" data-name="Trazado 998914" d="M352.667,94.459a4.718,4.718,0,0,1,.354-.33,4.609,4.609,0,0,1,.4-.294,3.347,3.347,0,0,1,.439-.24,3,3,0,0,1,.481-.175,2.257,2.257,0,0,1,.519-.085,2.546,2.546,0,0,1,.538.021,2.5,2.5,0,0,1,.53.135,3.025,3.025,0,0,1,.488.248,3.059,3.059,0,0,1,.435.328,2.953,2.953,0,0,1,.372.39,4.445,4.445,0,0,1,.557.9c.074.16.139.323.2.489s.1.337.136.508a5.3,5.3,0,0,1,.117,1.046.511.511,0,0,1-1.02.05v0a3.657,3.657,0,0,1-.008-.576,4.083,4.083,0,0,1,.09-.562,3.83,3.83,0,0,1,.42-1.039,3.888,3.888,0,0,1,.7-.867,3.461,3.461,0,0,1,.433-.351,2.775,2.775,0,0,1,.488-.276,3.208,3.208,0,0,1,.531-.186,3.022,3.022,0,0,1,.557-.083,2.95,2.95,0,0,1,.558.044,2.77,2.77,0,0,1,.528.154,2.852,2.852,0,0,1,.472.256,3.153,3.153,0,0,1,.407.327,3.729,3.729,0,0,1,.616.8c-.135-.1-.253-.212-.392-.3a3.574,3.574,0,0,0-.827-.458,2.761,2.761,0,0,0-.434-.122,2.207,2.207,0,0,0-.433-.045,2.3,2.3,0,0,0-.423.043,2.245,2.245,0,0,0-.778.307,3.245,3.245,0,0,0-.342.248,2.573,2.573,0,0,0-.307.293,3.326,3.326,0,0,0-.481.7,3.253,3.253,0,0,0-.291.787,3.006,3.006,0,0,0-.06.408,3.343,3.343,0,0,0,0,.406l-1.02.046a4.289,4.289,0,0,0-.074-.848,5.35,5.35,0,0,0-.229-.821,3.539,3.539,0,0,0-.641-1.075,2.27,2.27,0,0,0-.294-.284,2.332,2.332,0,0,0-.337-.227,2.544,2.544,0,0,0-.375-.16,1.955,1.955,0,0,0-.407-.085,2.445,2.445,0,0,0-.43-.008,3.508,3.508,0,0,0-.883.183c-.145.054-.293.108-.434.175S352.814,94.393,352.667,94.459Z" transform="translate(-352.667 -93.328)" fill="#5c3b66"/>
        </g>
        <g id="Grupo_1178896" data-name="Grupo 1178896" transform="translate(114.862 7.207)">
          <path id="Trazado_998915" data-name="Trazado 998915" d="M390.667,70.974a3.44,3.44,0,0,1,.645-.625,2.871,2.871,0,0,1,.389-.248,3.249,3.249,0,0,1,.428-.2,3.149,3.149,0,0,1,.948-.177,2.553,2.553,0,0,1,.5.037,3.04,3.04,0,0,1,.488.121,2.836,2.836,0,0,1,.464.205,3.257,3.257,0,0,1,.421.286,2.84,2.84,0,0,1,.367.351,3.014,3.014,0,0,1,.308.4,3.362,3.362,0,0,1,.243.44,3.128,3.128,0,0,1,.18.464,4.37,4.37,0,0,1,.186.962l-1.027.043a4.381,4.381,0,0,1,.125-1.025,3.594,3.594,0,0,1,.393-.975,3.122,3.122,0,0,1,.684-.816,2.805,2.805,0,0,1,.928-.523,2.663,2.663,0,0,1,1.039-.135,2.835,2.835,0,0,1,.984.25,3.136,3.136,0,0,1,.809.545,3.254,3.254,0,0,1,.326.346,3.973,3.973,0,0,1,.273.381,4.033,4.033,0,0,0-1.57-.81,2.485,2.485,0,0,0-.818-.056,2.346,2.346,0,0,0-.389.074,2.167,2.167,0,0,0-.365.135,2.225,2.225,0,0,0-.328.2,2.637,2.637,0,0,0-.288.251,2,2,0,0,0-.244.294,2.315,2.315,0,0,0-.2.329,3.066,3.066,0,0,0-.254.737,3.373,3.373,0,0,0-.06.393c-.015.133-.017.268-.02.4v.006a.515.515,0,0,1-1.027.037,3.523,3.523,0,0,0-.427-1.431,2.519,2.519,0,0,0-1.031-1,2.327,2.327,0,0,0-.711-.225,2.536,2.536,0,0,0-.781-.011,3.968,3.968,0,0,0-1.195.363C390.927,70.831,390.8,70.907,390.667,70.974Z" transform="translate(-390.667 -69.56)" fill="#5c3b66"/>
        </g>
        <g id="Grupo_1178897" data-name="Grupo 1178897" transform="translate(146.533 54.604)">
          <path id="Trazado_998916" data-name="Trazado 998916" d="M482.667,208.537a3.116,3.116,0,0,1,1.622-1.189,2.72,2.72,0,0,1,2.122.27,3.487,3.487,0,0,1,.854.693,3.848,3.848,0,0,1,.332.433,4.191,4.191,0,0,1,.275.466,5.706,5.706,0,0,1,.579,2.031l-1-.086c.05-.169.092-.339.153-.506s.126-.332.2-.5a5.4,5.4,0,0,1,.245-.482,4.807,4.807,0,0,1,.3-.459,3.765,3.765,0,0,1,.359-.423,4.243,4.243,0,0,1,.423-.372,3.011,3.011,0,0,1,1.016-.512,2.8,2.8,0,0,1,.563-.1,2.922,2.922,0,0,1,.565.013,3.079,3.079,0,0,1,1.037.353,3.153,3.153,0,0,1,.439.3,3.574,3.574,0,0,1,.378.36,4.407,4.407,0,0,1,.311.407,3.962,3.962,0,0,1,.244.442c-.122-.115-.241-.229-.368-.332a4.124,4.124,0,0,0-.8-.524,3.646,3.646,0,0,0-.426-.17,2.4,2.4,0,0,0-.433-.1,2.445,2.445,0,0,0-.432-.026,2.174,2.174,0,0,0-.419.046,1.982,1.982,0,0,0-.4.126,2.932,2.932,0,0,0-.366.191,2.672,2.672,0,0,0-.334.25,3.23,3.23,0,0,0-.294.3c-.089.112-.177.225-.258.345a6.066,6.066,0,0,0-.726,1.634l0,.014a.509.509,0,0,1-.994-.1,6.418,6.418,0,0,0-.143-.885,5.59,5.59,0,0,0-.275-.837,3.193,3.193,0,0,0-.194-.389,3.67,3.67,0,0,0-.512-.684,2.347,2.347,0,0,0-.318-.279,2.438,2.438,0,0,0-.753-.375,2.019,2.019,0,0,0-.422-.078,2.875,2.875,0,0,0-.439,0,2.675,2.675,0,0,0-.445.081,3.463,3.463,0,0,0-.862.374C482.937,208.347,482.8,208.444,482.667,208.537Z" transform="translate(-482.667 -207.244)" fill="#c7ade8"/>
        </g>
        <g id="Grupo_1178898" data-name="Grupo 1178898" transform="translate(0 67.154)">
          <path id="Trazado_998917" data-name="Trazado 998917" d="M57,245.066a3.044,3.044,0,0,1,.241-.349,2.137,2.137,0,0,1,.3-.314,2.158,2.158,0,0,1,.775-.449,2.063,2.063,0,0,1,.455-.1,2.237,2.237,0,0,1,.47,0,2.755,2.755,0,0,1,.9.259,3.572,3.572,0,0,1,.771.523,3.743,3.743,0,0,1,.618.695,3.89,3.89,0,0,1,.671,1.748l-.989-.032a4.562,4.562,0,0,1,.685-1.85,3.762,3.762,0,0,1,.665-.767,3.265,3.265,0,0,1,.414-.308,2.823,2.823,0,0,1,.465-.236,2.585,2.585,0,0,1,.5-.147,2.735,2.735,0,0,1,.524-.039,2.058,2.058,0,0,1,.514.07,2.5,2.5,0,0,1,.476.177,2.654,2.654,0,0,1,.773.582,3.044,3.044,0,0,1,.289.367,3.375,3.375,0,0,1,.23.4c-.123-.092-.237-.188-.36-.27a3.214,3.214,0,0,0-.368-.233,2.8,2.8,0,0,0-.763-.3,2.146,2.146,0,0,0-.757-.031,1.95,1.95,0,0,0-.69.241,2.646,2.646,0,0,0-.588.452,3.644,3.644,0,0,0-.656.941c-.056.117-.111.236-.156.36a5.087,5.087,0,0,0-.219.763l-.005.024a.5.5,0,0,1-.984-.057,3.2,3.2,0,0,0-.138-.7,3.541,3.541,0,0,0-.293-.667,3.133,3.133,0,0,0-.982-1.079,2.17,2.17,0,0,0-.656-.311,1.94,1.94,0,0,0-.359-.063,1.587,1.587,0,0,0-.37,0,1.7,1.7,0,0,0-.371.081,2.044,2.044,0,0,0-.364.15,2.714,2.714,0,0,0-.345.212C57.215,244.883,57.109,244.978,57,245.066Z" transform="translate(-57 -243.701)" fill="#c7ade8"/>
        </g>
        <g id="Grupo_1178899" data-name="Grupo 1178899" transform="translate(93.749)">
          <path id="Trazado_998918" data-name="Trazado 998918" d="M329.333,49.441a3.7,3.7,0,0,1,.848-.536,2.671,2.671,0,0,1,.486-.174,2.943,2.943,0,0,1,.519-.1,3.131,3.131,0,0,1,1.075.1,3.422,3.422,0,0,1,.985.472,4.6,4.6,0,0,1,1.409,1.606,6.7,6.7,0,0,1,.693,1.98l-1.009-.02a6.171,6.171,0,0,1,.735-1.856,4.258,4.258,0,0,1,.64-.807,3.67,3.67,0,0,1,1.79-.971,4.376,4.376,0,0,1,.986-.1,5.279,5.279,0,0,1,1.858.4c-.314-.011-.623-.017-.927,0a5.985,5.985,0,0,0-.894.1,3.888,3.888,0,0,0-1.564.631,3.444,3.444,0,0,0-.594.556,4.007,4.007,0,0,0-.457.68,6.343,6.343,0,0,0-.569,1.6.516.516,0,0,1-1.009-.02,6.943,6.943,0,0,0-.554-1.715,5.029,5.029,0,0,0-.45-.764,3.619,3.619,0,0,0-.275-.341,3.043,3.043,0,0,0-.305-.309,2.831,2.831,0,0,0-.343-.263,3.618,3.618,0,0,0-.377-.21,2.557,2.557,0,0,0-.844-.229,2.464,2.464,0,0,0-.454-.017,3.361,3.361,0,0,0-.465.051,3.569,3.569,0,0,0-.466.108C329.645,49.329,329.49,49.39,329.333,49.441Z" transform="translate(-329.333 -48.623)" fill="#5c3b66"/>
        </g>
      </g>
      <g id="Grupo_1179247" data-name="Grupo 1179247" transform="translate(58.042 52.188)">
        <g id="Grupo_1178901" data-name="Grupo 1178901" transform="translate(0 100.635)">
          <path id="Trazado_998919" data-name="Trazado 998919" d="M148.545,351.455c-54.1-1.2-78.678,5.64-78.546,13.5.147,10,69.608,12.325,104.835,10.661,29.919-1.413,57.14-4.566,53.121-13.361-2.5-5.394-25.269-10.941-79.41-10.8" transform="translate(-69.998 -351.317)" fill="#5c3b66"/>
        </g>
        <g id="Grupo_1178973" data-name="Grupo 1178973" transform="translate(14.717 44.139)">
          <g id="Grupo_1178921" data-name="Grupo 1178921" transform="translate(4.569 39.624)">
            <g id="Grupo_1178902" data-name="Grupo 1178902" transform="translate(3.305)">
              <path id="Trazado_998920" data-name="Trazado 998920" d="M135.625,314.279c5.881-4.544,11.294-7.873,17.484-11.975h0c27.121,1,73.024,2.038,94.725,2.609-6.081,5.054-15.906,9.886-22.341,14.324" transform="translate(-135.625 -302.304)" fill="#5b437a"/>
            </g>
            <g id="Grupo_1178903" data-name="Grupo 1178903" transform="translate(91.819 2.609)">
              <path id="Trazado_998921" data-name="Trazado 998921" d="M397.118,339c8-4.817,14.19-7.854,23.3-13.378-4.088-3.012-6.34-10.571-3.973-15.735-6.083,3.367-16.945,8.589-22.447,10.931-.587,1.368-3.6,12.649,2.6,18.1" transform="translate(-392.751 -309.883)" fill="#ffe8df"/>
            </g>
            <g id="Grupo_1178908" data-name="Grupo 1178908" transform="translate(92.491 2.158)">
              <g id="Grupo_1178905" data-name="Grupo 1178905" transform="translate(2.217 15.177)">
                <g id="Grupo_1178904" data-name="Grupo 1178904">
                  <path id="Trazado_998922" data-name="Trazado 998922" d="M402.2,367.211A81.96,81.96,0,0,0,426,354.318c.871-.663.015-2.159-.869-1.486a80.624,80.624,0,0,1-23.389,12.719c-1.049.346-.6,2.009.458,1.66Z" transform="translate(-401.144 -352.662)" fill="#a177d9"/>
                </g>
              </g>
              <g id="Grupo_1178907" data-name="Grupo 1178907">
                <g id="Grupo_1178906" data-name="Grupo 1178906">
                  <path id="Trazado_998923" data-name="Trazado 998923" d="M396.014,320.668c7.549-3.637,15.429-6.564,22.835-10.5.981-.521.111-2.007-.868-1.486-7.406,3.935-15.286,6.862-22.835,10.5-1,.482-.127,1.966.869,1.486Z" transform="translate(-394.704 -308.574)" fill="#a177d9"/>
                </g>
              </g>
            </g>
            <g id="Grupo_1178909" data-name="Grupo 1178909" transform="translate(0 11.501)">
              <path id="Trazado_998924" data-name="Trazado 998924" d="M129.759,335.715c-4.117,3.27-6.3,20.3,1.391,20.439,24.284.428,69.515.963,90.693,0-1.936-4.475-3.948-12.493-1.936-18.933-31.115.043-59.745.451-90.149-1.506" transform="translate(-126.023 -335.715)" fill="#a177d9"/>
            </g>
            <g id="Grupo_1178920" data-name="Grupo 1178920" transform="translate(95.363 8.608)">
              <g id="Grupo_1178911" data-name="Grupo 1178911" transform="translate(0.212)">
                <g id="Grupo_1178910" data-name="Grupo 1178910">
                  <path id="Trazado_998925" data-name="Trazado 998925" d="M403.976,335.487a150.312,150.312,0,0,0,17.059-7.7c.3-.151.035-.6-.261-.446a149.2,149.2,0,0,1-16.935,7.648c-.311.113-.177.612.137.5Z" transform="translate(-403.663 -327.31)" fill="#5b437a"/>
                </g>
              </g>
              <g id="Grupo_1178913" data-name="Grupo 1178913" transform="translate(10.094 3.837)">
                <g id="Grupo_1178912" data-name="Grupo 1178912">
                  <path id="Trazado_998926" data-name="Trazado 998926" d="M432.76,342.555c2.441-1.288,4.991-2.352,7.441-3.622.3-.153.034-.6-.261-.446-2.45,1.27-5,2.333-7.441,3.622-.294.155-.034.6.261.445Z" transform="translate(-432.37 -338.456)" fill="#5b437a"/>
                </g>
              </g>
              <g id="Grupo_1178915" data-name="Grupo 1178915" transform="translate(0 9.389)">
                <g id="Grupo_1178914" data-name="Grupo 1178914">
                  <path id="Trazado_998927" data-name="Trazado 998927" d="M403.357,357.676c2.136-.847,4.3-1.615,6.374-2.617.3-.145.038-.59-.261-.446-2.03.982-4.155,1.734-6.25,2.564-.306.121-.173.621.137.5Z" transform="translate(-403.047 -354.585)" fill="#5b437a"/>
                </g>
              </g>
              <g id="Grupo_1178917" data-name="Grupo 1178917" transform="translate(0.686 7.118)">
                <g id="Grupo_1178916" data-name="Grupo 1178916">
                  <path id="Trazado_998928" data-name="Trazado 998928" d="M405.353,356.06c5.92-2.172,11.575-4.915,17.274-7.6.3-.142.039-.587-.261-.446-5.658,2.665-11.271,5.391-17.15,7.547-.31.114-.176.613.137.5Z" transform="translate(-405.04 -347.988)" fill="#5b437a"/>
                </g>
              </g>
              <g id="Grupo_1178919" data-name="Grupo 1178919" transform="translate(2.527 10.899)">
                <g id="Grupo_1178918" data-name="Grupo 1178918">
                  <path id="Trazado_998929" data-name="Trazado 998929" d="M410.7,366.3a152.507,152.507,0,0,0,13.749-6.854c.293-.158.032-.6-.261-.446a151.018,151.018,0,0,1-13.625,6.8c-.3.126-.17.626.137.5Z" transform="translate(-410.387 -358.97)" fill="#5b437a"/>
                </g>
              </g>
            </g>
          </g>
          <g id="Grupo_1178941" data-name="Grupo 1178941" transform="translate(11.67 15.642)">
            <g id="Grupo_1178922" data-name="Grupo 1178922" transform="translate(2.156)">
              <path id="Trazado_998930" data-name="Trazado 998930" d="M265.941,237.2c-19.24-2.245-47.886-3.284-67.242-4.246-20.2-1-28.583-.248-45.785,12.206,21,4.088,64.21,6.239,85.373,6.239" transform="translate(-152.913 -232.639)" fill="#a177d9"/>
            </g>
            <g id="Grupo_1178923" data-name="Grupo 1178923" transform="translate(86.461 4.559)">
              <path id="Trazado_998931" data-name="Trazado 998931" d="M400.291,253.661c-1.373,3.074-3.236,8-2.156,11.3,1.025,3.134,1.262,5.649,5.163,7.2,8.222-3.185,17.23-8.158,25.3-10.1-3.442-4.131-3.1-11.018-2.065-16.181C419.858,247.3,408.945,250.962,400.291,253.661Z" transform="translate(-397.812 -245.883)" fill="#ffe8df"/>
            </g>
            <g id="Grupo_1178928" data-name="Grupo 1178928" transform="translate(87.492 3.461)">
              <g id="Grupo_1178925" data-name="Grupo 1178925" transform="translate(0.82 15.873)">
                <g id="Grupo_1178924" data-name="Grupo 1178924">
                  <path id="Trazado_998932" data-name="Trazado 998932" d="M403.637,300.13a7.052,7.052,0,0,0,4.377,0,51.055,51.055,0,0,0,7.743-2.537c5.584-2.17,11.019-4.714,16.459-7.215,1.008-.463.133-1.946-.868-1.486-5.035,2.314-10.063,4.647-15.208,6.709a73.574,73.574,0,0,1-6.982,2.461c-1.223.353-3.386,1.163-4.653.583-1-.459-1.876,1.025-.868,1.486Z" transform="translate(-403.19 -288.803)" fill="#7959a3"/>
                </g>
              </g>
              <g id="Grupo_1178927" data-name="Grupo 1178927">
                <g id="Grupo_1178926" data-name="Grupo 1178926">
                  <path id="Trazado_998933" data-name="Trazado 998933" d="M401.878,252.575c9.224-2.444,18.264-5.521,27.425-8.184a.861.861,0,0,0-.458-1.66c-9.161,2.662-18.2,5.739-27.425,8.183a.861.861,0,0,0,.458,1.66Z" transform="translate(-400.808 -242.693)" fill="#7959a3"/>
                </g>
              </g>
            </g>
            <g id="Grupo_1178929" data-name="Grupo 1178929" transform="translate(0 10.181)">
              <path id="Trazado_998934" data-name="Trazado 998934" d="M151.217,262.215c-5.279,2.639-7.229,17.442,1.033,18.589,17.335,2.407,64.258,3.1,86.347,2.065-5.221-2.639-6.483-14.114-1.033-19.278-31.612,0-57.2-.115-86.347-1.377" transform="translate(-146.65 -262.215)" fill="#7959a3"/>
            </g>
            <g id="Grupo_1178940" data-name="Grupo 1178940" transform="translate(90.776 8.842)">
              <g id="Grupo_1178931" data-name="Grupo 1178931" transform="translate(0.003)">
                <g id="Grupo_1178930" data-name="Grupo 1178930">
                  <path id="Trazado_998935" data-name="Trazado 998935" d="M410.676,265.291c7.242-2.174,14.575-4.041,21.745-6.455.314-.106.179-.6-.137-.5-7.17,2.414-14.5,4.282-21.745,6.455a.258.258,0,0,0,.137.5Z" transform="translate(-410.358 -258.324)" fill="#5b437a"/>
                </g>
              </g>
              <g id="Grupo_1178933" data-name="Grupo 1178933" transform="translate(7.525 3.415)">
                <g id="Grupo_1178932" data-name="Grupo 1178932">
                  <path id="Trazado_998936" data-name="Trazado 998936" d="M432.527,272.226c4.115-1.138,8.16-2.538,12.328-3.478.325-.073.187-.571-.137-.5-4.168.94-8.213,2.34-12.328,3.478a.258.258,0,0,0,.137.5Z" transform="translate(-432.207 -268.243)" fill="#5b437a"/>
                </g>
              </g>
              <g id="Grupo_1178935" data-name="Grupo 1178935" transform="translate(0 6.887)">
                <g id="Grupo_1178934" data-name="Grupo 1178934">
                  <path id="Trazado_998937" data-name="Trazado 998937" d="M410.669,283.819c5.624-1.374,11.093-3.285,16.624-4.977.317-.1.182-.6-.137-.5-5.531,1.693-11,3.6-16.624,4.977-.324.079-.186.577.137.5Z" transform="translate(-410.348 -278.331)" fill="#5b437a"/>
                </g>
              </g>
              <g id="Grupo_1178937" data-name="Grupo 1178937" transform="translate(8.317 7.789)">
                <g id="Grupo_1178936" data-name="Grupo 1178936">
                  <path id="Trazado_998938" data-name="Trazado 998938" d="M434.825,286.225c4.524-1.454,8.918-3.281,13.432-4.762.315-.1.18-.6-.137-.5-4.514,1.482-8.909,3.309-13.432,4.762-.316.1-.181.6.137.5Z" transform="translate(-434.508 -280.951)" fill="#5b437a"/>
                </g>
              </g>
              <g id="Grupo_1178939" data-name="Grupo 1178939" transform="translate(1.151 13.121)">
                <g id="Grupo_1178938" data-name="Grupo 1178938">
                  <path id="Trazado_998939" data-name="Trazado 998939" d="M414.01,301.316c4.4-1.364,8.806-2.707,13.11-4.361.307-.118.174-.618-.137-.5-4.3,1.653-8.708,3-13.11,4.361-.317.1-.182.6.137.5Z" transform="translate(-413.692 -296.439)" fill="#5b437a"/>
                </g>
              </g>
            </g>
          </g>
          <g id="Grupo_1178965" data-name="Grupo 1178965">
            <g id="Grupo_1178942" data-name="Grupo 1178942" transform="translate(5.508)">
              <path id="Trazado_998940" data-name="Trazado 998940" d="M235.121,193.746c-11.7-2.065-54.734-6.541-54.734-6.541-9.469-.149-34.424,2.754-51.636,6.541l44.407,11.016,56.857-7.688" transform="translate(-128.75 -187.2)" fill="#7959a3"/>
            </g>
            <g id="Grupo_1178943" data-name="Grupo 1178943" transform="translate(0 6.028)">
              <path id="Trazado_998941" data-name="Trazado 998941" d="M169.831,211.525c-11.125-1.133-24.378-2.51-34.361-4.575-5.164-1.033-16.179-4.475-19.966,0-2.41,2.41-2.754,6.885-2.754,9.983.344,6.885,4.475,6.2,10.672,7.573,14.114,3.1,32.243,4.043,47.957,5.371" transform="translate(-112.75 -204.711)" fill="#a177d9"/>
            </g>
            <g id="Grupo_1178944" data-name="Grupo 1178944" transform="translate(49.915 6.546)">
              <path id="Trazado_998942" data-name="Trazado 998942" d="M319.713,206.216c-12.393,1.721-27.539,2.41-39.932,4.131-8.606,1.033-22.117.574-22.031,11.016.108,13.153,14.114,9.295,23.064,8.262,13.77-1.721,27.884-3.442,41.653-4.131-5.68-3.443-6.712-14.114-2.754-19.278" transform="translate(-257.749 -206.216)" fill="#fff"/>
            </g>
            <g id="Grupo_1178949" data-name="Grupo 1178949" transform="translate(48.116 5.677)">
              <g id="Grupo_1178946" data-name="Grupo 1178946" transform="translate(4.848)">
                <g id="Grupo_1178945" data-name="Grupo 1178945">
                  <path id="Trazado_998943" data-name="Trazado 998943" d="M267.689,212.276c19.153-3.322,38.57-4.4,57.833-6.854,1.085-.138,1.1-1.861,0-1.721-19.416,2.471-38.985,3.567-58.291,6.915-1.092.189-.628,1.848.458,1.66Z" transform="translate(-266.608 -203.693)" fill="#a177d9"/>
                </g>
              </g>
              <g id="Grupo_1178948" data-name="Grupo 1178948" transform="translate(0 18.819)">
                <g id="Grupo_1178947" data-name="Grupo 1178947">
                  <path id="Trazado_998944" data-name="Trazado 998944" d="M252.919,263.072c3,1.981,6.977,2.3,10.463,2.5a113.73,113.73,0,0,0,16.687-.584c13.1-1.171,26.092-3.314,39.144-4.9,1.087-.132,1.1-1.855,0-1.721-12.56,1.526-25.061,3.536-37.658,4.762a134.408,134.408,0,0,1-16.655.787c-3.628-.1-7.977-.259-11.112-2.33-.929-.614-1.79.877-.869,1.486Z" transform="translate(-252.524 -258.36)" fill="#a177d9"/>
                </g>
              </g>
            </g>
            <g id="Grupo_1178964" data-name="Grupo 1178964" transform="translate(53.854 11.278)">
              <g id="Grupo_1178951" data-name="Grupo 1178951" transform="translate(0.517)">
                <g id="Grupo_1178950" data-name="Grupo 1178950">
                  <path id="Trazado_998945" data-name="Trazado 998945" d="M270.943,225.789c17.716-1.277,35.356-3.416,53.013-5.31.327-.035.331-.552,0-.516-17.657,1.894-35.3,4.033-53.013,5.31-.33.024-.333.54,0,.516Z" transform="translate(-270.694 -219.961)" fill="#5b437a"/>
                </g>
              </g>
              <g id="Grupo_1178953" data-name="Grupo 1178953" transform="translate(2.353 5.278)">
                <g id="Grupo_1178952" data-name="Grupo 1178952">
                  <path id="Trazado_998946" data-name="Trazado 998946" d="M276.276,239.2c12.586-.885,25.142-2.119,37.695-3.385.328-.033.331-.55,0-.516-12.552,1.266-25.109,2.5-37.695,3.385-.33.023-.333.54,0,.516Z" transform="translate(-276.027 -235.294)" fill="#5b437a"/>
                </g>
              </g>
              <g id="Grupo_1178955" data-name="Grupo 1178955" transform="translate(18.532 9.696)">
                <g id="Grupo_1178954" data-name="Grupo 1178954">
                  <path id="Trazado_998947" data-name="Trazado 998947" d="M323.274,251.858c10.672-.413,21.254-1.913,31.843-3.212.326-.04.33-.557,0-.516-10.589,1.3-21.171,2.8-31.843,3.212-.332.013-.333.529,0,.516Z" transform="translate(-323.025 -248.126)" fill="#5b437a"/>
                </g>
              </g>
              <g id="Grupo_1178957" data-name="Grupo 1178957" transform="translate(6.483 15.09)">
                <g id="Grupo_1178956" data-name="Grupo 1178956">
                  <path id="Trazado_998948" data-name="Trazado 998948" d="M288.273,265.174c4.293-.028,8.574-.55,12.852-.861.33-.024.333-.54,0-.516-4.278.31-8.559.832-12.852.861a.258.258,0,0,0,0,.516Z" transform="translate(-288.023 -263.797)" fill="#5b437a"/>
                </g>
              </g>
              <g id="Grupo_1178959" data-name="Grupo 1178959" transform="translate(37.869 5.679)">
                <g id="Grupo_1178958" data-name="Grupo 1178958">
                  <path id="Trazado_998949" data-name="Trazado 998949" d="M379.446,238.371c4.874-.492,9.763-.831,14.63-1.394.327-.038.331-.555,0-.516-4.867.563-9.756.9-14.63,1.394-.328.033-.331.55,0,.516Z" transform="translate(-379.199 -236.459)" fill="#5b437a"/>
                </g>
              </g>
              <g id="Grupo_1178961" data-name="Grupo 1178961" transform="translate(36.369 12.525)">
                <g id="Grupo_1178960" data-name="Grupo 1178960">
                  <path id="Trazado_998950" data-name="Trazado 998950" d="M375.164,258.615c4.49-.655,8.989-1.265,13.5-1.751.327-.035.331-.552,0-.516-4.557.492-9.1,1.108-13.637,1.77-.328.048-.188.546.137.5Z" transform="translate(-374.84 -256.346)" fill="#5b437a"/>
                </g>
              </g>
              <g id="Grupo_1178963" data-name="Grupo 1178963" transform="translate(0 9.122)">
                <g id="Grupo_1178962" data-name="Grupo 1178962">
                  <path id="Trazado_998951" data-name="Trazado 998951" d="M269.441,249.13c9.6-.383,19.188-1.207,28.744-2.152.328-.032.332-.549,0-.516-9.557.945-19.147,1.769-28.744,2.152-.332.013-.333.53,0,.516Z" transform="translate(-269.191 -246.461)" fill="#5b437a"/>
                </g>
              </g>
            </g>
          </g>
          <g id="Grupo_1178972" data-name="Grupo 1178972" transform="translate(16.231 27.77)">
            <g id="Grupo_1178967" data-name="Grupo 1178967" transform="translate(5.596)">
              <g id="Grupo_1178966" data-name="Grupo 1178966">
                <path id="Trazado_998952" data-name="Trazado 998952" d="M176.4,268.388c9.99,1,19.977,2.139,30.009,2.636.333.017.331-.5,0-.516-10.031-.5-20.019-1.634-30.009-2.636-.331-.033-.328.484,0,.516Z" transform="translate(-176.156 -267.871)" fill="#44325c"/>
              </g>
            </g>
            <g id="Grupo_1178969" data-name="Grupo 1178969" transform="translate(28.642 18.322)">
              <g id="Grupo_1178968" data-name="Grupo 1178968">
                <path id="Trazado_998953" data-name="Trazado 998953" d="M243.352,321.612c9.757.3,19.513.7,29.277.612a.258.258,0,0,0,0-.516c-9.763.091-19.52-.315-29.277-.612-.333-.01-.332.506,0,.516Z" transform="translate(-243.102 -321.096)" fill="#44325c"/>
              </g>
            </g>
            <g id="Grupo_1178971" data-name="Grupo 1178971" transform="translate(0 43.505)">
              <g id="Grupo_1178970" data-name="Grupo 1178970">
                <path id="Trazado_998954" data-name="Trazado 998954" d="M160.149,394.766c14.485.334,28.975.293,43.46.6a.258.258,0,0,0,0-.516c-14.485-.309-28.975-.269-43.46-.6a.258.258,0,0,0,0,.516Z" transform="translate(-159.9 -394.25)" fill="#44325c"/>
              </g>
            </g>
          </g>
        </g>
        <g id="Grupo_1179069" data-name="Grupo 1179069" transform="translate(10.416 58.557)">
          <g id="Grupo_1178987" data-name="Grupo 1178987" transform="translate(9.784 36.059)">
            <g id="Grupo_1178974" data-name="Grupo 1178974" transform="translate(25.619 9.404)">
              <path id="Trazado_998955" data-name="Trazado 998955" d="M203.1,364.225a15.668,15.668,0,0,0,5.845,6.889l4.146-.371c-.808-2.518-1.855-6.15-3.17-9.593C207.584,362.019,205.351,363.139,203.1,364.225Z" transform="translate(-203.1 -361.149)" fill="#775338"/>
            </g>
            <g id="Grupo_1178985" data-name="Grupo 1178985" transform="translate(31.251 18.323)">
              <g id="Grupo_1178975" data-name="Grupo 1178975" transform="translate(0.075 0.45)">
                <path id="Trazado_998956" data-name="Trazado 998956" d="M220.125,388.366s-1.347,4.258.646,4.249c1.017-.005,6.963.109,9.675,0,3.789-.085-.65-2.823-6.068-4.249h-3.469" transform="translate(-219.681 -388.366)" fill="#57808f"/>
              </g>
              <g id="Grupo_1178977" data-name="Grupo 1178977" transform="translate(0.013 4.183)">
                <g id="Grupo_1178976" data-name="Grupo 1178976">
                  <path id="Trazado_998957" data-name="Trazado 998957" d="M219.916,400.072h11.6a.431.431,0,0,0,0-.861h-11.6a.431.431,0,0,0,0,.861Z" transform="translate(-219.5 -399.211)" fill="#44325c"/>
                </g>
              </g>
              <g id="Grupo_1178982" data-name="Grupo 1178982" transform="translate(5.117 0.583)">
                <g id="Grupo_1178979" data-name="Grupo 1178979">
                  <g id="Grupo_1178978" data-name="Grupo 1178978">
                    <path id="Trazado_998958" data-name="Trazado 998958" d="M235.4,388.853l-.968.954c-.316.312.17.8.487.487l.968-.954c.316-.312-.171-.8-.487-.487Z" transform="translate(-234.327 -388.753)" fill="#44325c"/>
                  </g>
                </g>
                <g id="Grupo_1178981" data-name="Grupo 1178981" transform="translate(1.263 0.481)">
                  <g id="Grupo_1178980" data-name="Grupo 1178980">
                    <path id="Trazado_998959" data-name="Trazado 998959" d="M239.131,390.246l-1.029.969c-.324.3.164.791.487.487l1.029-.969c.324-.3-.164-.791-.487-.487Z" transform="translate(-237.996 -390.15)" fill="#44325c"/>
                  </g>
                </g>
              </g>
              <g id="Grupo_1178984" data-name="Grupo 1178984">
                <g id="Grupo_1178983" data-name="Grupo 1178983">
                  <path id="Trazado_998960" data-name="Trazado 998960" d="M219.752,388.042a6.1,6.1,0,0,0,4.452-.119c.5-.211.283-1.044-.229-.83a5.387,5.387,0,0,1-3.994.119c-.519-.2-.742.633-.229.83Z" transform="translate(-219.461 -387.058)" fill="#44325c"/>
                </g>
              </g>
            </g>
            <g id="Grupo_1178986" data-name="Grupo 1178986">
              <path id="Trazado_998961" data-name="Trazado 998961" d="M156.514,349h0a16.836,16.836,0,0,0,6.731-.778c-1.748-7.481-4.562-13.393-8.074-14.3-3.268-.845-10.108,4.881-11.7,6.892l-14.784,8.645c-.349,9.176,9.353,8.12,14.5,5.245,3.649-2.036,10.053-12.657,10.342-12.515C153.425,343.844,155.011,347.185,156.514,349Z" transform="translate(-128.678 -333.832)" fill="#44325c"/>
            </g>
          </g>
          <g id="Grupo_1179042" data-name="Grupo 1179042">
            <g id="Grupo_1178988" data-name="Grupo 1178988">
              <path id="Trazado_998962" data-name="Trazado 998962" d="M111.37,231.561c-2.178-2.721-6.445-.478-5.221,2.707-2.431-2.707-6.28,2.2-2.8,3.827-3.477-1.047-4.371,4.6-.836,4.9-2.909.867-1.745,5.487,1.313,4.545-3.058,1.839,0,6.578,2.984,4.067a2.56,2.56,0,0,0,1.79,3.469c1.671.6,3.055-.066,3.7-2.033-.881,3.827,5.847,3.828,5.37.119,1.074,3.23,7.043.613,4.535-2.751,3.356,2.632,6.629-2.737,3.461-4.425,4.191.478,4.177-6.34.239-6.1,3.729-2.594-.066-8.328-3.461-6.1a3.569,3.569,0,0,0-3.1-4.546,2.755,2.755,0,0,0-3.222,1.675c-.582-2.617-4.983-2.468-4.744.643" transform="translate(-100.258 -229.082)" fill="#44325c"/>
            </g>
            <g id="Grupo_1178994" data-name="Grupo 1178994" transform="translate(14.748 23.173)">
              <g id="Grupo_1178989" data-name="Grupo 1178989" transform="translate(0.954 0.718)">
                <path id="Trazado_998963" data-name="Trazado 998963" d="M147.518,298.67c4.545-1.832,7.692,10.388,8.923,13.055,0,0,5.11-4.183,7.029-5.037,1.516-.827,3.447.869,1.827,2.088-5.614,4.226-8.872,11.576-13.961,4.875-2.188-2.881-8.4-12.42-3.817-14.981" transform="translate(-145.871 -298.484)" fill="#775338"/>
              </g>
              <g id="Grupo_1178993" data-name="Grupo 1178993">
                <g id="Grupo_1178990" data-name="Grupo 1178990">
                  <path id="Trazado_998964" data-name="Trazado 998964" d="M149.511,306.159a18.624,18.624,0,0,0,3.113-1.68c-1.526-3.944-3.925-9.213-7.268-7.865-3.678,1.792-2.227,6.9-.126,11A16.754,16.754,0,0,0,149.511,306.159Z" transform="translate(-143.099 -296.399)" fill="#ba3d71"/>
                </g>
                <g id="Grupo_1178992" data-name="Grupo 1178992" transform="translate(1.74 7.466)">
                  <g id="Grupo_1178991" data-name="Grupo 1178991">
                    <path id="Trazado_998965" data-name="Trazado 998965" d="M148.569,322.183a11.43,11.43,0,0,0,7.823-3.348c.368-.412-.238-1.023-.609-.608a10.568,10.568,0,0,1-7.214,3.1c-.555-.033-.551.828,0,.861Z" transform="translate(-148.154 -318.087)" fill="#8c2e55"/>
                  </g>
                </g>
              </g>
            </g>
            <g id="Grupo_1178998" data-name="Grupo 1178998" transform="translate(4.184 22.577)">
              <g id="Grupo_1178995" data-name="Grupo 1178995">
                <path id="Trazado_998966" data-name="Trazado 998966" d="M129.673,318.831c-.712-6.1,1.192-12.249-.333-18.346-1.7-6.813-10.356-7.635-13.83-2.506-4.417,6.52-3.017,18.45-2.344,25.811.209,2.3,12.561-1.822,16.507-4.96" transform="translate(-112.413 -294.668)" fill="#d78097"/>
              </g>
              <g id="Grupo_1178997" data-name="Grupo 1178997" transform="translate(0.602 23.843)">
                <g id="Grupo_1178996" data-name="Grupo 1178996">
                  <path id="Trazado_998967" data-name="Trazado 998967" d="M114.469,369.651c2.747.7,5.758.019,8.411-.768a22.5,22.5,0,0,0,8.238-4.235c.422-.362-.19-.967-.609-.609a22.169,22.169,0,0,1-7.858,4.014c-2.475.78-5.383,1.428-7.953.768a.431.431,0,0,0-.229.83Z" transform="translate(-114.163 -363.929)" fill="#8c2e55"/>
                </g>
              </g>
            </g>
            <g id="Grupo_1179028" data-name="Grupo 1179028" transform="translate(7.647 3.143)">
              <g id="Grupo_1179005" data-name="Grupo 1179005" transform="translate(0.878 8.211)">
                <g id="Grupo_1179001" data-name="Grupo 1179001" transform="translate(0 4.894)">
                  <g id="Grupo_1178999" data-name="Grupo 1178999" transform="translate(0 0.259)">
                    <path id="Trazado_998968" data-name="Trazado 998968" d="M126.895,277.114c-3.106-.621-1.9,2.712.358,1.671" transform="translate(-125.021 -277.036)" fill="#9e6f4a"/>
                  </g>
                  <g id="Grupo_1179000" data-name="Grupo 1179000" transform="translate(13.211)">
                    <path id="Trazado_998969" data-name="Trazado 998969" d="M163.4,276.382c2.267-.656,2.327,2.207.119,1.73" transform="translate(-163.399 -276.284)" fill="#9e6f4a"/>
                  </g>
                </g>
                <g id="Grupo_1179004" data-name="Grupo 1179004" transform="translate(1.066)">
                  <g id="Grupo_1179002" data-name="Grupo 1179002">
                    <path id="Trazado_998970" data-name="Trazado 998970" d="M140.685,262.066c-.45,2.449.041,4.988-.071,7.528s-3.261,3.519-6.294,3.519c-7.078,0-6.164-5.958-6.164-10.583" transform="translate(-128.117 -262.066)" fill="#9e6f4a"/>
                  </g>
                  <g id="Grupo_1179003" data-name="Grupo 1179003" transform="translate(3.379 8.177)">
                    <path id="Trazado_998971" data-name="Trazado 998971" d="M142.392,286.546c0,1.542.249,4.949-2.405,4.644-2.982-.342-1.959-3.919-1.547-5.37" transform="translate(-137.933 -285.82)" fill="#9e6f4a"/>
                  </g>
                </g>
              </g>
              <g id="Grupo_1179019" data-name="Grupo 1179019" transform="translate(5.86 12.637)">
                <g id="Grupo_1179010" data-name="Grupo 1179010" transform="translate(2.001 0.201)">
                  <g id="Grupo_1179007" data-name="Grupo 1179007" transform="translate(0 0.239)">
                    <g id="Grupo_1179006" data-name="Grupo 1179006">
                      <path id="Trazado_998972" data-name="Trazado 998972" d="M145.806,277.232a.517.517,0,0,0,0-1.033.517.517,0,0,0,0,1.033Z" transform="translate(-145.307 -276.199)" fill="#44325c"/>
                    </g>
                  </g>
                  <g id="Grupo_1179009" data-name="Grupo 1179009" transform="translate(3.7)">
                    <g id="Grupo_1179008" data-name="Grupo 1179008">
                      <path id="Trazado_998973" data-name="Trazado 998973" d="M156.553,276.538a.517.517,0,0,0,0-1.033.517.517,0,0,0,0,1.033Z" transform="translate(-156.053 -275.505)" fill="#44325c"/>
                    </g>
                  </g>
                </g>
                <g id="Grupo_1179012" data-name="Grupo 1179012" transform="translate(4.006)">
                  <g id="Grupo_1179011" data-name="Grupo 1179011">
                    <path id="Trazado_998974" data-name="Trazado 998974" d="M151.311,275.135a4.955,4.955,0,0,0,.866,1.712l.062-.235a1.4,1.4,0,0,1-.941.215c-.221-.024-.218.321,0,.344a1.682,1.682,0,0,0,1.115-.262.173.173,0,0,0,.062-.235,4.727,4.727,0,0,1-.832-1.63c-.053-.215-.385-.124-.332.092Z" transform="translate(-151.133 -274.921)" fill="#44325c"/>
                  </g>
                </g>
                <g id="Grupo_1179013" data-name="Grupo 1179013" transform="translate(2.142 2.806)">
                  <path id="Trazado_998975" data-name="Trazado 998975" d="M145.723,283.071a30.7,30.7,0,0,0,3.092.144,1.551,1.551,0,1,1-3.092-.144" transform="translate(-145.717 -283.071)" fill="#fff"/>
                </g>
                <g id="Grupo_1179018" data-name="Grupo 1179018" transform="translate(0 2.103)">
                  <g id="Grupo_1179015" data-name="Grupo 1179015">
                    <g id="Grupo_1179014" data-name="Grupo 1179014">
                      <path id="Trazado_998976" data-name="Trazado 998976" d="M140.144,282.374a.672.672,0,0,0,0-1.343.672.672,0,0,0,0,1.343Z" transform="translate(-139.495 -281.031)" fill="#dc809b"/>
                    </g>
                  </g>
                  <g id="Grupo_1179017" data-name="Grupo 1179017" transform="translate(6.219 0.239)">
                    <g id="Grupo_1179016" data-name="Grupo 1179016">
                      <path id="Trazado_998977" data-name="Trazado 998977" d="M158.211,283.067a.672.672,0,0,0,0-1.343.672.672,0,0,0,0,1.343Z" transform="translate(-157.562 -281.724)" fill="#dc809b"/>
                    </g>
                  </g>
                </g>
              </g>
              <g id="Grupo_1179025" data-name="Grupo 1179025">
                <g id="Grupo_1179022" data-name="Grupo 1179022">
                  <g id="Grupo_1179020" data-name="Grupo 1179020" transform="translate(0.776 6.999)">
                    <path id="Trazado_998978" data-name="Trazado 998978" d="M124.777,258.795c-.226,3.541.223,6.312,2.281,8.1.283-1.3.358-1.73.776-3.282.358-1.611.537-3.7,1.372-5.071" transform="translate(-124.724 -258.543)" fill="#44325c"/>
                  </g>
                  <g id="Grupo_1179021" data-name="Grupo 1179021">
                    <path id="Trazado_998979" data-name="Trazado 998979" d="M123.1,244.323c-1.192,2.047-.5,3.353.464,3.832,1.041.516,3.019-.116,3.252-1.045-.567,2.787,4.761,3.367,4.993.232.014,3.447,4.412,2.816,3.89,0,3.44,2.6,4.572-3.484.639-3.019a2.281,2.281,0,1,0-3.135-3.251c0-3.832-5.014-3.717-4.994-.233-1.161-3.135-4.993-2.555-4.761.813" transform="translate(-122.471 -238.212)" fill="#44325c"/>
                  </g>
                </g>
                <g id="Grupo_1179024" data-name="Grupo 1179024" transform="translate(2.844 2.494)">
                  <g id="Grupo_1179023" data-name="Grupo 1179023">
                    <path id="Trazado_998980" data-name="Trazado 998980" d="M131.289,248.113c-.649,1.116-1.018,2.731.548,3.215,1.461.451,2.436-1.031,2.457-2.281a.258.258,0,0,0-.516,0c-.181,3.738,5.953,2.762,4.523-.642l-.431.251c1.134,1.424,3.074,1.948,4.224.235,1.336-1.991-1.207-3.222-2.779-3.43-.329-.043-.325.473,0,.516,1.357.179,3.241.983,2.333,2.653-.843,1.551-2.6.687-3.413-.339-.157-.2-.53.016-.431.251,1.141,2.718-3.653,3.474-3.509.505h-.516a1.634,1.634,0,0,1-1.487,1.816c-1.547.111-1-1.733-.557-2.489a.258.258,0,0,0-.445-.261Z" transform="translate(-130.731 -245.458)" fill="#5b437a"/>
                  </g>
                </g>
              </g>
              <g id="Grupo_1179027" data-name="Grupo 1179027" transform="translate(4.581 19.293)">
                <g id="Grupo_1179026" data-name="Grupo 1179026">
                  <path id="Trazado_998981" data-name="Trazado 998981" d="M135.785,294.8c.355,2.52,4.681,3.047,5.649.716.213-.512-.62-.734-.83-.229-.673,1.619-3.768.854-3.989-.716-.077-.548-.906-.314-.83.229Z" transform="translate(-135.78 -294.256)" fill="#8c2e55"/>
                </g>
              </g>
            </g>
            <g id="Grupo_1179041" data-name="Grupo 1179041" transform="translate(6.513 22.603)">
              <g id="Grupo_1179033" data-name="Grupo 1179033" transform="translate(18.21)">
                <g id="Grupo_1179029" data-name="Grupo 1179029" transform="translate(1.826 1.343)">
                  <path id="Trazado_998982" data-name="Trazado 998982" d="M177.383,301.81a10.469,10.469,0,0,1,.7-3.168c2.793.752,5.317,2.309,7.84,3.6" transform="translate(-177.383 -298.642)" fill="#ffe8df"/>
                </g>
                <g id="Grupo_1179030" data-name="Grupo 1179030" transform="translate(7.787)">
                  <path id="Trazado_998983" data-name="Trazado 998983" d="M194.7,300.273c1.181-1.718,1.88-3.759,2.9-5.531a4.528,4.528,0,0,1,1.826,2.793c0,.7-.966,1.933-1.288,2.578-.43.859-.86,1.718-1.343,2.577" transform="translate(-194.7 -294.742)" fill="#ffe8df"/>
                </g>
                <g id="Grupo_1179031" data-name="Grupo 1179031" transform="translate(0 0.831)">
                  <path id="Trazado_998984" data-name="Trazado 998984" d="M172.884,299.572a33.106,33.106,0,0,1,5.639,1.047c1.369.322,2.5.967,3.383-.081.483-.564,1.853-3.383,2.981-3.383,0,0-.235,2.4-.323,3.867-.178,2.988-.233,6.428-.478,8.25a28.444,28.444,0,0,0-2.77,3.108,60.637,60.637,0,0,1-7.465-1.047c-.564-.161-1.773-.644-1.773-.644s.322-3.625.4-4.672c.161-2.014.4-4.35.4-6.444" transform="translate(-172.078 -297.155)" fill="#ba3d71"/>
                </g>
                <g id="Grupo_1179032" data-name="Grupo 1179032" transform="translate(0 3.248)">
                  <path id="Trazado_998985" data-name="Trazado 998985" d="M181.313,305.694c-.519-.092-2.174-.326-2.79-.471a33.119,33.119,0,0,0-5.639-1.047c0,2.094-.242,4.43-.4,6.444-.08,1.047-.4,4.672-.4,4.672s1.209.483,1.773.644a65.646,65.646,0,0,0,7.465,1.047Z" transform="translate(-172.078 -304.176)" fill="#8c2e55"/>
                </g>
              </g>
              <g id="Grupo_1179036" data-name="Grupo 1179036" transform="translate(0.61 1.325)">
                <g id="Grupo_1179034" data-name="Grupo 1179034" transform="translate(16.722 5.161)">
                  <path id="Trazado_998986" data-name="Trazado 998986" d="M169.61,318.227c.961,2.72,3.179,1.579,4.549,1.04,4.492-1.77,3.326-2.229.333-1.25.668-.3,2.957-1.313,2.69-1.892-.155-.395-1.023-.022-3.244.8,3.245-1.751,4.2-3.551-.7-.952.908-.492,2.876-1.776,2.378-2.329-.392-.435-3.25,1.7-3.667,1.9-.091-.366.071-2.655-.639-1.46-.747,1.258-2.127,3.284-1.7,4.153" transform="translate(-169.529 -313.581)" fill="#9e6f4a"/>
                </g>
                <g id="Grupo_1179035" data-name="Grupo 1179035">
                  <path id="Trazado_998987" data-name="Trazado 998987" d="M122.6,298.767c4.545-1.832,7.349,11.076,8.579,13.743,0,0,5.453-4.183,7.373-5.037,1.516-.827,3.447.869,1.827,2.088-5.614,4.226-8.872,11.576-13.962,4.875-2.188-2.881-8.4-13.108-3.817-15.67" transform="translate(-120.951 -298.59)" fill="#9e6f4a"/>
                </g>
              </g>
              <g id="Grupo_1179040" data-name="Grupo 1179040" transform="translate(0 1.286)">
                <g id="Grupo_1179037" data-name="Grupo 1179037">
                  <path id="Trazado_998988" data-name="Trazado 998988" d="M125.59,308.24a18.627,18.627,0,0,0,3.114-1.68c-1.526-3.944-3.925-9.213-7.268-7.865-3.678,1.792-2.227,6.9-.126,11A16.744,16.744,0,0,0,125.59,308.24Z" transform="translate(-119.178 -298.479)" fill="#ba3d71"/>
                </g>
                <g id="Grupo_1179039" data-name="Grupo 1179039" transform="translate(1.741 7.466)">
                  <g id="Grupo_1179038" data-name="Grupo 1179038">
                    <path id="Trazado_998989" data-name="Trazado 998989" d="M124.649,324.262a11.429,11.429,0,0,0,7.822-3.348c.368-.412-.238-1.023-.609-.609a10.57,10.57,0,0,1-7.214,3.1c-.554-.033-.551.828,0,.861Z" transform="translate(-124.235 -320.167)" fill="#8c2e55"/>
                  </g>
                </g>
              </g>
            </g>
          </g>
          <g id="Grupo_1179068" data-name="Grupo 1179068" transform="translate(6.562 36.157)">
            <g id="Grupo_1179043" data-name="Grupo 1179043" transform="translate(26.148 10.554)">
              <path id="Trazado_998990" data-name="Trazado 998990" d="M195.277,367.855a20.048,20.048,0,0,0,6.389,7.425l3.43-.371c-.8-2.5-1.913-6.393-3.3-10.135C199.615,365.771,197.477,366.884,195.277,367.855Z" transform="translate(-195.277 -364.774)" fill="#9e6f4a"/>
            </g>
            <g id="Grupo_1179054" data-name="Grupo 1179054" transform="translate(30.906 19.907)">
              <g id="Grupo_1179044" data-name="Grupo 1179044" transform="translate(0.062 0.558)">
                <path id="Trazado_998991" data-name="Trazado 998991" d="M209.725,393.565s-1.347,4.258.646,4.249c1.017-.005,6.963.109,9.675,0,3.789-.085-.65-2.823-6.068-4.249h-3.47" transform="translate(-209.28 -393.565)" fill="#74abbe"/>
              </g>
              <g id="Grupo_1179046" data-name="Grupo 1179046" transform="translate(0 4.292)">
                <g id="Grupo_1179045" data-name="Grupo 1179045">
                  <path id="Trazado_998992" data-name="Trazado 998992" d="M209.516,405.273h11.6a.431.431,0,0,0,0-.861h-11.6a.431.431,0,0,0,0,.861Z" transform="translate(-209.099 -404.412)" fill="#44325c"/>
                </g>
              </g>
              <g id="Grupo_1179048" data-name="Grupo 1179048" transform="translate(0.147)">
                <g id="Grupo_1179047" data-name="Grupo 1179047">
                  <path id="Trazado_998993" data-name="Trazado 998993" d="M209.823,392.917a7.136,7.136,0,0,0,4.7-.119c.525-.172.3-1-.229-.83a6.374,6.374,0,0,1-4.246.119c-.525-.184-.749.647-.229.83Z" transform="translate(-209.527 -391.944)" fill="#44325c"/>
                </g>
              </g>
              <g id="Grupo_1179053" data-name="Grupo 1179053" transform="translate(5.392 0.813)">
                <g id="Grupo_1179050" data-name="Grupo 1179050">
                  <g id="Grupo_1179049" data-name="Grupo 1179049">
                    <path id="Trazado_998994" data-name="Trazado 998994" d="M226.01,394.4l-1.146.907a.344.344,0,0,0,0,.487.352.352,0,0,0,.487,0l1.146-.907a.344.344,0,0,0,0-.487.352.352,0,0,0-.487,0Z" transform="translate(-224.763 -394.306)" fill="#44325c"/>
                  </g>
                </g>
                <g id="Grupo_1179052" data-name="Grupo 1179052" transform="translate(1.287 0.372)">
                  <g id="Grupo_1179051" data-name="Grupo 1179051">
                    <path id="Trazado_998995" data-name="Trazado 998995" d="M229.727,395.486l-1.121,1.07c-.322.307.166.793.487.487l1.121-1.07c.322-.307-.166-.793-.487-.487Z" transform="translate(-228.5 -395.388)" fill="#44325c"/>
                  </g>
                </g>
              </g>
            </g>
            <g id="Grupo_1179067" data-name="Grupo 1179067">
              <g id="Grupo_1179055" data-name="Grupo 1179055">
                <path id="Trazado_998996" data-name="Trazado 998996" d="M144.174,342.727a15.463,15.463,0,0,0,3.458,9.036c2.668.114,3.768-.5,6.236-1.524-1.61-6.279-5.121-15.982-9.089-16.124-3.372-.121-23.858,14.214-25.451,16.226h0c-.349,9.176,9.854,8.531,14.5,4.9C137.481,352.394,143.885,342.586,144.174,342.727Z" transform="translate(-119.319 -334.115)" fill="#5b437a"/>
              </g>
              <g id="Grupo_1179066" data-name="Grupo 1179066" transform="translate(0.09 4.415)">
                <g id="Grupo_1179057" data-name="Grupo 1179057" transform="translate(3.343)">
                  <g id="Grupo_1179056" data-name="Grupo 1179056">
                    <path id="Trazado_998997" data-name="Trazado 998997" d="M129.352,356.093c1.5,1.881,3.434,2.942,5.831,2.187,2.491-.785,4.521-3.005,6.3-4.8,1.943-1.97,3.948-4.587,6.6-5.617,2.924-1.136,4.52.857,5.327,3.4.784,2.475,1.076,5.045,2.042,7.472.122.306.621.172.5-.137a77,77,0,0,1-2.042-7.472,6.02,6.02,0,0,0-2.368-3.7c-2.2-1.387-4.942.467-6.575,1.876-3.829,3.3-10.079,12.891-15.244,6.423-.208-.261-.57.107-.365.365Z" transform="translate(-129.291 -346.939)" fill="#44325c"/>
                  </g>
                </g>
                <g id="Grupo_1179059" data-name="Grupo 1179059" transform="translate(5.801 6.422)">
                  <g id="Grupo_1179058" data-name="Grupo 1179058">
                    <path id="Trazado_998998" data-name="Trazado 998998" d="M137.437,365.98c.674,1.122.745,3.409-.821,3.809a.258.258,0,0,0,.137.5c1.907-.486,1.98-3.152,1.129-4.568a.258.258,0,0,0-.446.261Z" transform="translate(-136.432 -365.595)" fill="#44325c"/>
                  </g>
                </g>
                <g id="Grupo_1179061" data-name="Grupo 1179061" transform="translate(26.975 9.634)">
                  <g id="Grupo_1179060" data-name="Grupo 1179060">
                    <path id="Trazado_998999" data-name="Trazado 998999" d="M198.19,377.561c2.536-.018,4.876-.4,6.781-2.2.243-.229-.123-.593-.365-.365-1.807,1.7-4.021,2.031-6.415,2.047a.258.258,0,0,0,0,.517Z" transform="translate(-197.94 -374.925)" fill="#44325c"/>
                  </g>
                </g>
                <g id="Grupo_1179063" data-name="Grupo 1179063" transform="translate(0 13.074)">
                  <g id="Grupo_1179062" data-name="Grupo 1179062">
                    <path id="Trazado_999000" data-name="Trazado 999000" d="M119.969,386.489a5.55,5.55,0,0,0,1.486-1.13h-.365c1.373,1.257,4.776,2.665,2.984,4.913-.206.257.158.625.365.365,2.105-2.64-1.321-4.121-2.984-5.643a.261.261,0,0,0-.365,0,5.211,5.211,0,0,1-1.382,1.05c-.294.157-.033.6.261.446Z" transform="translate(-119.58 -384.919)" fill="#44325c"/>
                  </g>
                </g>
                <g id="Grupo_1179065" data-name="Grupo 1179065" transform="translate(0.465 14.008)">
                  <g id="Grupo_1179064" data-name="Grupo 1179064">
                    <path id="Trazado_999001" data-name="Trazado 999001" d="M121.252,389.557A3.738,3.738,0,0,0,123.3,388c.2-.268-.25-.525-.446-.261a3.177,3.177,0,0,1-1.739,1.315c-.324.079-.187.577.137.5Z" transform="translate(-120.93 -387.632)" fill="#44325c"/>
                  </g>
                </g>
              </g>
            </g>
          </g>
        </g>
        <g id="Grupo_1179161" data-name="Grupo 1179161" transform="translate(34.839)">
          <g id="Grupo_1179072" data-name="Grupo 1179072" transform="translate(36.427 21.525)">
            <g id="Grupo_1179070" data-name="Grupo 1179070" transform="translate(21.644 5.124)">
              <path id="Trazado_999002" data-name="Trazado 999002" d="M346.739,136.392c2.22.456,4.612,20.2-6.842,21.816" transform="translate(-339.897 -136.392)" fill="#8c2e55"/>
            </g>
            <g id="Grupo_1179071" data-name="Grupo 1179071">
              <path id="Trazado_999003" data-name="Trazado 999003" d="M284.123,124.05c5.155-3.586,13.145-3.063,18.718-.387,6.16,3.08,2.71,8.22.526,12.9-2.456,5.269.7,12.106-7.169,12.378-7.168.248-13.924-.276-19.175-5.746" transform="translate(-277.023 -121.508)" fill="#ba3d71"/>
            </g>
          </g>
          <g id="Grupo_1179160" data-name="Grupo 1179160">
            <g id="Grupo_1179113" data-name="Grupo 1179113" transform="translate(0 32.612)">
              <g id="Grupo_1179086" data-name="Grupo 1179086" transform="translate(0 6.276)">
                <g id="Grupo_1179073" data-name="Grupo 1179073" transform="translate(6.968 4.132)">
                  <path id="Trazado_999004" data-name="Trazado 999004" d="M192.564,190.056c2.359.109,13.141-.141,15.5-.13-.375-2.317-.454-3.638-.681-5.977-1.706.073-14.259,1.516-15.938,1.636" transform="translate(-191.446 -183.949)" fill="#edbcac"/>
                </g>
                <g id="Grupo_1179074" data-name="Grupo 1179074" transform="translate(15.821 3.595)">
                  <path id="Trazado_999005" data-name="Trazado 999005" d="M232.37,182.389c-3.443,0-11.6.4-15.092.579a50.149,50.149,0,0,0,0,6.437c5.424.093,15.555.1,20.978-.148,3.6-.164,9.647.818,12.428-1.963Z" transform="translate(-217.162 -182.389)" fill="#44325c"/>
                </g>
                <g id="Grupo_1179085" data-name="Grupo 1179085">
                  <g id="Grupo_1179075" data-name="Grupo 1179075" transform="translate(0.535)">
                    <path id="Trazado_999006" data-name="Trazado 999006" d="M181.467,180.19s-2.973,3.1-3.883,1.412c-.464-.861-3.3-5.826-4.456-8.166-1.674-3.237,2.683-.752,6.381,3.165l1.6,2.929" transform="translate(-172.759 -171.946)" fill="#8c2e55"/>
                  </g>
                  <g id="Grupo_1179077" data-name="Grupo 1179077" transform="translate(0 0.018)">
                    <g id="Grupo_1179076" data-name="Grupo 1179076">
                      <path id="Trazado_999007" data-name="Trazado 999007" d="M177.347,182,172,172.213c-.266-.487-1.009-.053-.743.434l5.343,9.79c.265.487,1.009.053.743-.434Z" transform="translate(-171.204 -172)" fill="#44325c"/>
                    </g>
                  </g>
                  <g id="Grupo_1179079" data-name="Grupo 1179079" transform="translate(7.395 4.386)">
                    <g id="Grupo_1179078" data-name="Grupo 1179078">
                      <path id="Trazado_999008" data-name="Trazado 999008" d="M192.7,185.221c.369,1.288.729,2.591,1.2,3.844.2.513,1.028.291.83-.229-.476-1.253-.837-2.556-1.2-3.845a.431.431,0,0,0-.83.229Z" transform="translate(-192.686 -184.688)" fill="#44325c"/>
                    </g>
                  </g>
                  <g id="Grupo_1179084" data-name="Grupo 1179084" transform="translate(4.256 2.496)">
                    <g id="Grupo_1179081" data-name="Grupo 1179081">
                      <g id="Grupo_1179080" data-name="Grupo 1179080">
                        <path id="Trazado_999009" data-name="Trazado 999009" d="M184.717,179.311a8.34,8.34,0,0,1-1.033.976c-.341.285.149.769.487.487a8.335,8.335,0,0,0,1.032-.976c.286-.336-.2-.825-.486-.487Z" transform="translate(-183.569 -179.197)" fill="#44325c"/>
                      </g>
                    </g>
                    <g id="Grupo_1179083" data-name="Grupo 1179083" transform="translate(0.747 0.829)">
                      <g id="Grupo_1179082" data-name="Grupo 1179082">
                        <path id="Trazado_999010" data-name="Trazado 999010" d="M187.117,181.694c-.411.356-.848.681-1.262,1.033-.339.288.151.772.487.487.414-.352.851-.676,1.262-1.033.336-.291-.153-.776-.487-.487Z" transform="translate(-185.74 -181.605)" fill="#44325c"/>
                      </g>
                    </g>
                  </g>
                </g>
              </g>
              <g id="Grupo_1179112" data-name="Grupo 1179112" transform="translate(5.165)">
                <g id="Grupo_1179087" data-name="Grupo 1179087" transform="translate(8.135 4.42)">
                  <path id="Trazado_999011" data-name="Trazado 999011" d="M218.543,169.833c-.859-1.041-.909-2.168-1.67-3.28-2.437,3.016-5.625,7.016-7.034,9.305a12.066,12.066,0,0,0,3.475,1.082,20.455,20.455,0,0,0,7.344-5.262A15.427,15.427,0,0,1,218.543,169.833Z" transform="translate(-209.839 -166.553)" fill="#f1c9bd"/>
                </g>
                <g id="Grupo_1179100" data-name="Grupo 1179100" transform="translate(10.772)">
                  <g id="Grupo_1179088" data-name="Grupo 1179088">
                    <path id="Trazado_999012" data-name="Trazado 999012" d="M240.6,160.642c-4.069-2.471-10.52-9.385-15.827-6.024-1.344.831-5.693,6.122-7.278,8.226.917.976,3.385,3.5,5.852,3.779h0a35.75,35.75,0,0,0,3.94-4.468c8.768,10.991,25.106,13.005,26.883,3.228Z" transform="translate(-217.5 -153.714)" fill="#5b437a"/>
                  </g>
                  <g id="Grupo_1179099" data-name="Grupo 1179099" transform="translate(1.118 4.528)">
                    <g id="Grupo_1179090" data-name="Grupo 1179090" transform="translate(0 2.827)">
                      <g id="Grupo_1179089" data-name="Grupo 1179089">
                        <path id="Trazado_999013" data-name="Trazado 999013" d="M220.824,175.523c1.617,1.613,3.474,3.533,5.794,4.025.325.069.463-.429.137-.5-2.236-.474-4.006-2.336-5.566-3.892a.258.258,0,0,0-.365.365Z" transform="translate(-220.748 -175.082)" fill="#44325c"/>
                      </g>
                    </g>
                    <g id="Grupo_1179092" data-name="Grupo 1179092" transform="translate(3.689)">
                      <g id="Grupo_1179091" data-name="Grupo 1179091">
                        <path id="Trazado_999014" data-name="Trazado 999014" d="M255.907,173.214c-1.229,1.55-4.736,1.009-6.43.608-3.332-.788-5.713-2.975-7.958-5.406-3.88-4.2-7.61,1.157-10,4.224-.2.26.161.628.365.365,1.674-2.153,3.307-4.676,5.967-5.671,1.742-.652,3.249,1.369,4.227,2.484a16.1,16.1,0,0,0,3.259,2.763,12.862,12.862,0,0,0,6.069,2.048c1.472.119,3.824.257,4.86-1.05.2-.258-.158-.626-.365-.365Z" transform="translate(-231.464 -166.868)" fill="#44325c"/>
                      </g>
                    </g>
                    <g id="Grupo_1179094" data-name="Grupo 1179094" transform="translate(25.316 9.217)">
                      <g id="Grupo_1179093" data-name="Grupo 1179093">
                        <path id="Trazado_999015" data-name="Trazado 999015" d="M302.352,195.378a12.053,12.053,0,0,0-2.7-1.671c-1.23-.325-1.763.661-2.831,1.05-1.851.673-3.054.71-2.306,2.921.106.314.6.179.5-.137-.357-1.054-.156-1.6.9-1.956a14.228,14.228,0,0,0,1.4-.46c.948-.434,1.609-1.282,2.809-.613.69.385,1.3.909,1.976,1.313a.259.259,0,0,0,.262-.446Z" transform="translate(-294.289 -193.642)" fill="#44325c"/>
                      </g>
                    </g>
                    <g id="Grupo_1179096" data-name="Grupo 1179096" transform="translate(29.156 9.761)">
                      <g id="Grupo_1179095" data-name="Grupo 1179095">
                        <path id="Trazado_999016" data-name="Trazado 999016" d="M305.51,195.672a10.223,10.223,0,0,0,2.347,2.221.258.258,0,0,0,.261-.446,9.822,9.822,0,0,1-2.243-2.14c-.218-.253-.581.114-.365.365Z" transform="translate(-305.444 -195.222)" fill="#44325c"/>
                      </g>
                    </g>
                    <g id="Grupo_1179098" data-name="Grupo 1179098" transform="translate(22.696 4.152)">
                      <g id="Grupo_1179097" data-name="Grupo 1179097">
                        <path id="Trazado_999017" data-name="Trazado 999017" d="M287.634,178.96c-1.08.555-1.073,2.2-.807,3.218a.258.258,0,0,0,.5-.137c-.206-.786-.282-2.2.57-2.634.3-.153.035-.6-.26-.446Z" transform="translate(-286.678 -178.928)" fill="#44325c"/>
                      </g>
                    </g>
                  </g>
                </g>
                <g id="Grupo_1179111" data-name="Grupo 1179111" transform="translate(0 13.405)">
                  <g id="Grupo_1179101" data-name="Grupo 1179101" transform="translate(0.241 0.516)">
                    <path id="Trazado_999018" data-name="Trazado 999018" d="M198.517,194.6s.839,4.211-1.064,3.993c-.971-.112-6.666-.627-9.247-1.018-3.612-.48.919-2.63,6.247-3.422l3.316.365" transform="translate(-186.909 -194.155)" fill="#ba3d71"/>
                  </g>
                  <g id="Grupo_1179103" data-name="Grupo 1179103" transform="translate(0 3.299)">
                    <g id="Grupo_1179102" data-name="Grupo 1179102">
                      <path id="Trazado_999019" data-name="Trazado 999019" d="M197.707,203.463l-11.086-1.22c-.551-.061-.546.8,0,.861l11.086,1.22c.551.061.545-.8,0-.861Z" transform="translate(-186.209 -202.239)" fill="#44325c"/>
                    </g>
                  </g>
                  <g id="Grupo_1179105" data-name="Grupo 1179105" transform="translate(7.397)">
                    <g id="Grupo_1179104" data-name="Grupo 1179104">
                      <path id="Trazado_999020" data-name="Trazado 999020" d="M207.91,193.456a9.131,9.131,0,0,0,4.692.977.431.431,0,0,0,0-.861,8.269,8.269,0,0,1-4.258-.86c-.485-.269-.919.474-.434.743Z" transform="translate(-207.698 -192.655)" fill="#44325c"/>
                    </g>
                  </g>
                  <g id="Grupo_1179110" data-name="Grupo 1179110" transform="translate(4.442 0.206)">
                    <g id="Grupo_1179107" data-name="Grupo 1179107" transform="translate(0 0.346)">
                      <g id="Grupo_1179106" data-name="Grupo 1179106">
                        <path id="Trazado_999021" data-name="Trazado 999021" d="M199.124,194.687a10.112,10.112,0,0,0,.494,1.4.344.344,0,0,0,.471.123.353.353,0,0,0,.123-.471,8.9,8.9,0,0,1-.424-1.238.345.345,0,0,0-.664.183Z" transform="translate(-199.111 -194.259)" fill="#44325c"/>
                      </g>
                    </g>
                    <g id="Grupo_1179109" data-name="Grupo 1179109" transform="translate(1.322)">
                      <g id="Grupo_1179108" data-name="Grupo 1179108">
                        <path id="Trazado_999022" data-name="Trazado 999022" d="M202.962,193.684c.115.484.328.941.4,1.434.065.438.729.251.664-.183-.073-.493-.286-.951-.4-1.434-.1-.432-.767-.249-.664.183Z" transform="translate(-202.951 -193.255)" fill="#44325c"/>
                      </g>
                    </g>
                  </g>
                </g>
              </g>
            </g>
            <g id="Grupo_1179159" data-name="Grupo 1179159" transform="translate(27.073)">
              <g id="Grupo_1179114" data-name="Grupo 1179114" transform="translate(6.305 8.918)">
                <path id="Trazado_999023" data-name="Trazado 999023" d="M282.682,91.08a8.164,8.164,0,0,1-.07,3.5,5.088,5.088,0,0,1-2.925,3.643,16.8,16.8,0,0,1-3.9.658,6.969,6.969,0,0,1-3.653-.271c-2.42-1.1-2.128-4.229-2.128-6.444a13.208,13.208,0,0,0-1.836-7.281" transform="translate(-268.167 -84.884)" fill="#44325c"/>
              </g>
              <g id="Grupo_1179115" data-name="Grupo 1179115" transform="translate(10.423 20.231)">
                <path id="Trazado_999024" data-name="Trazado 999024" d="M287.512,128.037c.6-1.676,1.466-3.394,1.795-4.767.513-2.142.742-4.208-1.179-5.232h0c-4.281-1.57-6.693,3.584-8,7.1A30.383,30.383,0,0,0,287.512,128.037Z" transform="translate(-280.128 -117.748)" fill="#dd9129"/>
              </g>
              <g id="Grupo_1179119" data-name="Grupo 1179119" transform="translate(8.979 17.933)">
                <g id="Grupo_1179116" data-name="Grupo 1179116" transform="translate(0.209)">
                  <path id="Trazado_999025" data-name="Trazado 999025" d="M276.541,131.535c2.78-5.232,3.6-11.446,6.541-16.515,2.289-3.761,9.157-5.723,12.428-1.8,3.434,4.251,1.8,14.389.327,19.131a26.261,26.261,0,0,1-2.384,5.379,16.44,16.44,0,0,1-5.629-1.127c-3.106-1.144-8.734-3.215-11.282-5.069" transform="translate(-276.541 -111.073)" fill="#e8ad33"/>
                </g>
                <g id="Grupo_1179118" data-name="Grupo 1179118" transform="translate(0 19.628)">
                  <g id="Grupo_1179117" data-name="Grupo 1179117">
                    <path id="Trazado_999026" data-name="Trazado 999026" d="M276.123,168.914a39.835,39.835,0,0,0,16.856,6.928c.543.08.776-.749.229-.83a39.194,39.194,0,0,1-16.65-6.841c-.452-.324-.881.423-.434.743Z" transform="translate(-275.934 -168.091)" fill="#a66d1f"/>
                  </g>
                </g>
              </g>
              <g id="Grupo_1179130" data-name="Grupo 1179130" transform="translate(0 20.415)">
                <g id="Grupo_1179120" data-name="Grupo 1179120" transform="translate(10.5 6.247)">
                  <path id="Trazado_999027" data-name="Trazado 999027" d="M294.332,137.4a18.365,18.365,0,0,1-3.793-.969c-.995,3.008-1.657,7.209-2.2,8.749a25.051,25.051,0,0,0-6.285-.576l-1.705,1.771c2.184,1,7.68,3.884,9.833,3.048,1.106-.429,5.168-6.441,6.807-11.155A12.97,12.97,0,0,0,294.332,137.4Z" transform="translate(-280.353 -136.43)" fill="#f1c9bd"/>
                </g>
                <g id="Grupo_1179124" data-name="Grupo 1179124">
                  <g id="Grupo_1179121" data-name="Grupo 1179121" transform="translate(0.716)">
                    <path id="Trazado_999028" data-name="Trazado 999028" d="M251.93,127.723a36.849,36.849,0,0,0,2.937-6.106,15.866,15.866,0,0,1,1.786-3.334,14.765,14.765,0,0,1,1.441,2.849,40.818,40.818,0,0,1,1.838,4.064" transform="translate(-251.93 -118.283)" fill="#fff"/>
                  </g>
                  <g id="Grupo_1179122" data-name="Grupo 1179122" transform="translate(1.285 1.14)">
                    <path id="Trazado_999029" data-name="Trazado 999029" d="M253.584,129.907a34.133,34.133,0,0,0,4.135-5.258,21.84,21.84,0,0,1,2.219-3.054,30.234,30.234,0,0,1,2.241,5.382" transform="translate(-253.584 -121.594)" fill="#ffe8df"/>
                  </g>
                  <g id="Grupo_1179123" data-name="Grupo 1179123" transform="translate(0 0.35)">
                    <path id="Trazado_999030" data-name="Trazado 999030" d="M253.762,119.339c-.395,2.124-1.794,4.319-2.669,6.243-.537,1.2-1.444,2.664-1.2,3.889,0,0,3.322,4.194,4.986,5.785.914.868,3.3,2.72,3.3,2.72s3.951-3.46,5.116-4.551c.508-.5,1.4-1.107,1.9-1.685.8-.832.647-.744-.124-1.777-1.532-1.912-2.986-3.828-4.517-5.74a23.392,23.392,0,0,1-1.889-2.586c-2.386,1.41-5.03,5.788-7.7,6.518.289-1.418,5.342-9.482,2.8-8.815" transform="translate(-249.85 -119.3)" fill="#a177d9"/>
                  </g>
                </g>
                <g id="Grupo_1179125" data-name="Grupo 1179125" transform="translate(6.202 10.46)">
                  <path id="Trazado_999031" data-name="Trazado 999031" d="M275.169,153.137c-.924,2.616-3.057,1.518-4.374,1-4.32-1.7-3.2-2.143-.32-1.2-.642-.291-2.844-1.262-2.587-1.819.149-.38.984-.022,3.12.765-3.121-1.684-4.042-3.415.678-.916-.873-.473-2.765-1.708-2.287-2.24.377-.418,3.125,1.639,3.526,1.823.087-.351-.068-2.553.615-1.4.718,1.21,2.046,3.158,1.63,3.993" transform="translate(-267.867 -148.669)" fill="#f1c9bd"/>
                </g>
                <g id="Grupo_1179129" data-name="Grupo 1179129" transform="translate(18.439 1.339)">
                  <g id="Grupo_1179126" data-name="Grupo 1179126" transform="translate(0.541)">
                    <path id="Trazado_999032" data-name="Trazado 999032" d="M312.658,132.31c.4-1.735,1.057-3.543,1.222-4.945.257-2.187.242-4.266-1.786-5.057h0c-4.436-1.056-6.226,4.347-7.109,7.987A30.375,30.375,0,0,0,312.658,132.31Z" transform="translate(-304.985 -122.174)" fill="#dd9129"/>
                  </g>
                  <g id="Grupo_1179128" data-name="Grupo 1179128" transform="translate(0 7.584)">
                    <g id="Grupo_1179127" data-name="Grupo 1179127">
                      <path id="Trazado_999033" data-name="Trazado 999033" d="M303.6,145.025c2.291,1.6,5.334,1.893,8.039,2.195.551.062.545-.8,0-.861-2.545-.284-5.448-.571-7.6-2.077-.456-.318-.886.428-.434.743Z" transform="translate(-303.413 -144.204)" fill="#a66d1f"/>
                    </g>
                  </g>
                </g>
              </g>
              <g id="Grupo_1179158" data-name="Grupo 1179158" transform="translate(3.634)">
                <g id="Grupo_1179133" data-name="Grupo 1179133" transform="translate(5.245 5.873)">
                  <g id="Grupo_1179131" data-name="Grupo 1179131" transform="translate(8.012 8.132)">
                    <path id="Trazado_999034" data-name="Trazado 999034" d="M298.916,102.469c.164,2.616.012,5.251,4.217,3.468,2.041-.865-.327-4.148-.818-6.274" transform="translate(-298.916 -99.663)" fill="#f1c9bd"/>
                  </g>
                  <g id="Grupo_1179132" data-name="Grupo 1179132">
                    <path id="Trazado_999035" data-name="Trazado 999035" d="M275.642,77.838c.183,7.8,1.316,12.517,7.848,11.283,8.34-1.575,6.541-8.993,4.088-13.081" transform="translate(-275.642 -76.039)" fill="#f1c9bd"/>
                  </g>
                </g>
                <g id="Grupo_1179135" data-name="Grupo 1179135" transform="translate(12.846 19.556)">
                  <g id="Grupo_1179134" data-name="Grupo 1179134">
                    <path id="Trazado_999036" data-name="Trazado 999036" d="M297.84,116.533c1.21,1.329,3.241.838,4.652.125.5-.251.06-.993-.434-.743-1.062.537-2.684,1.027-3.609.01-.375-.411-.981.2-.609.608Z" transform="translate(-297.723 -115.788)" fill="#a66d1f"/>
                  </g>
                </g>
                <g id="Grupo_1179150" data-name="Grupo 1179150" transform="translate(7.03 12.711)">
                  <g id="Grupo_1179140" data-name="Grupo 1179140">
                    <g id="Grupo_1179137" data-name="Grupo 1179137" transform="translate(3.557)">
                      <g id="Grupo_1179136" data-name="Grupo 1179136">
                        <path id="Trazado_999037" data-name="Trazado 999037" d="M291.661,96.935a.517.517,0,0,0,0-1.033.517.517,0,0,0,0,1.033Z" transform="translate(-291.162 -95.902)" fill="#44325c"/>
                      </g>
                    </g>
                    <g id="Grupo_1179139" data-name="Grupo 1179139" transform="translate(0 0.344)">
                      <g id="Grupo_1179138" data-name="Grupo 1179138">
                        <path id="Trazado_999038" data-name="Trazado 999038" d="M281.328,97.935a.517.517,0,0,0,0-1.033.517.517,0,0,0,0,1.033Z" transform="translate(-280.828 -96.902)" fill="#44325c"/>
                      </g>
                    </g>
                  </g>
                  <g id="Grupo_1179142" data-name="Grupo 1179142" transform="translate(1.762 0.009)">
                    <g id="Grupo_1179141" data-name="Grupo 1179141">
                      <path id="Trazado_999039" data-name="Trazado 999039" d="M286.061,96.091a10.777,10.777,0,0,1-.115,2.238.171.171,0,0,0,.126.166,1.944,1.944,0,0,0,1.239-.172c.2-.083.114-.416-.092-.332a1.671,1.671,0,0,1-1.056.172l.126.166a10.781,10.781,0,0,0,.115-2.238c-.026-.218-.37-.22-.344,0Z" transform="translate(-285.946 -95.927)" fill="#44325c"/>
                    </g>
                  </g>
                  <g id="Grupo_1179144" data-name="Grupo 1179144" transform="translate(2.623 1.948)">
                    <g id="Grupo_1179143" data-name="Grupo 1179143">
                      <path id="Trazado_999040" data-name="Trazado 999040" d="M288.573,103.165a2.936,2.936,0,0,0,3.235-1.341c.094-.2-.2-.375-.3-.174a2.584,2.584,0,0,1-2.847,1.183c-.217-.036-.31.3-.091.332Z" transform="translate(-288.449 -101.561)" fill="#44325c"/>
                    </g>
                  </g>
                  <g id="Grupo_1179149" data-name="Grupo 1179149" transform="translate(0.447 1.019)">
                    <g id="Grupo_1179146" data-name="Grupo 1179146" transform="translate(6.024)">
                      <g id="Grupo_1179145" data-name="Grupo 1179145">
                        <path id="Trazado_999041" data-name="Trazado 999041" d="M300.252,100.154a.646.646,0,0,0,0-1.291.646.646,0,0,0,0,1.291Z" transform="translate(-299.628 -98.863)" fill="#dc809b"/>
                      </g>
                    </g>
                    <g id="Grupo_1179148" data-name="Grupo 1179148" transform="translate(0 2.18)">
                      <g id="Grupo_1179147" data-name="Grupo 1179147">
                        <path id="Trazado_999042" data-name="Trazado 999042" d="M282.752,106.488a.646.646,0,0,0,0-1.291.646.646,0,0,0,0,1.291Z" transform="translate(-282.128 -105.197)" fill="#dc809b"/>
                      </g>
                    </g>
                  </g>
                </g>
                <g id="Grupo_1179156" data-name="Grupo 1179156">
                  <g id="Grupo_1179153" data-name="Grupo 1179153">
                    <g id="Grupo_1179151" data-name="Grupo 1179151">
                      <path id="Trazado_999043" data-name="Trazado 999043" d="M274.61,64.281a5.835,5.835,0,0,1-4.667,5.813c-2.435.632-7.109,1.358-9.537.316,2.6-3.04,2.383-7.493,5.636-10.079,2.673-2.124,8.58-2.064,8.664,2.5" transform="translate(-260.407 -58.978)" fill="#44325c"/>
                    </g>
                    <g id="Grupo_1179152" data-name="Grupo 1179152" transform="translate(11.966 0.465)">
                      <path id="Trazado_999044" data-name="Trazado 999044" d="M295.167,63.045c3.1-5.117,8.236-2.245,9.568,2.391a23.169,23.169,0,0,0,1.744,5.334c1.368,2.369,3.56,3.931,3.621,6.916a5.621,5.621,0,0,1-3.86,5.252c-1.732.658-6.1,1.946-7.512.1-1.546-2.023.131-5.776-.036-8.08-.168-2.335-.735-5.321-2.551-6.975" transform="translate(-295.167 -60.33)" fill="#44325c"/>
                    </g>
                  </g>
                  <g id="Grupo_1179155" data-name="Grupo 1179155" transform="translate(2.933 4.999)">
                    <g id="Grupo_1179154" data-name="Grupo 1179154">
                      <path id="Trazado_999045" data-name="Trazado 999045" d="M271.1,73.746a7.346,7.346,0,0,1-2.1,4.293.26.26,0,0,0,.251.431,7.637,7.637,0,0,0,4.933-2.935l-.431-.251a11.429,11.429,0,0,1-1.236,3.037.261.261,0,0,0,.223.388,6.228,6.228,0,0,0,6.1-4.779.258.258,0,0,0-.5-.137,5.712,5.712,0,0,1-5.6,4.4l.223.388a11.877,11.877,0,0,0,1.288-3.16c.043-.225-.257-.475-.431-.251a7.375,7.375,0,0,1-4.705,2.8l.251.431a7.962,7.962,0,0,0,2.256-4.658c.037-.331-.48-.327-.516,0Z" transform="translate(-268.927 -73.499)" fill="#5b437a"/>
                    </g>
                  </g>
                </g>
                <g id="Grupo_1179157" data-name="Grupo 1179157" transform="translate(15.886 10.411)">
                  <path id="Trazado_999046" data-name="Trazado 999046" d="M306.555,89.857c2.32-2.353,3.964,2.633.546,1.95" transform="translate(-306.555 -89.222)" fill="#f1c9bd"/>
                </g>
              </g>
            </g>
          </g>
        </g>
        <g id="Grupo_1179246" data-name="Grupo 1179246" transform="translate(77.72 45.313)">
          <g id="Grupo_1179198" data-name="Grupo 1179198" transform="translate(0 44.822)">
            <g id="Grupo_1179180" data-name="Grupo 1179180" transform="translate(1.438 26.967)">
              <g id="Grupo_1179170" data-name="Grupo 1179170" transform="translate(0 0.625)">
                <g id="Grupo_1179162" data-name="Grupo 1179162" transform="translate(0.2)">
                  <path id="Trazado_999047" data-name="Trazado 999047" d="M311.632,400.978s1.292,3.952-.6,3.938c-.964-.008-6.6.082-9.168-.028-3.59-.089.605-2.616,5.734-3.922l3.287.01" transform="translate(-300.528 -400.966)" fill="#e8ad33"/>
                </g>
                <g id="Grupo_1179164" data-name="Grupo 1179164" transform="translate(0 3.41)">
                  <g id="Grupo_1179163" data-name="Grupo 1179163">
                    <path id="Trazado_999048" data-name="Trazado 999048" d="M311.353,410.9l-10.991-.033a.431.431,0,0,0,0,.861l10.991.033a.431.431,0,0,0,0-.861Z" transform="translate(-299.946 -410.871)" fill="#44325c"/>
                  </g>
                </g>
                <g id="Grupo_1179169" data-name="Grupo 1179169" transform="translate(3.209 0.071)">
                  <g id="Grupo_1179166" data-name="Grupo 1179166" transform="translate(0 0.61)">
                    <g id="Grupo_1179165" data-name="Grupo 1179165">
                      <path id="Trazado_999049" data-name="Trazado 999049" d="M309.369,403.528c.4.317.809.63,1.215.942a.344.344,0,0,0,.471-.123.353.353,0,0,0-.123-.471c-.36-.277-.719-.554-1.076-.835a.352.352,0,0,0-.487,0,.344.344,0,0,0,0,.487Z" transform="translate(-309.268 -402.944)" fill="#44325c"/>
                    </g>
                  </g>
                  <g id="Grupo_1179168" data-name="Grupo 1179168" transform="translate(1.502)">
                    <g id="Grupo_1179167" data-name="Grupo 1179167">
                      <path id="Trazado_999050" data-name="Trazado 999050" d="M313.732,401.762a11.237,11.237,0,0,0,1.335.943.345.345,0,0,0,.471-.123.352.352,0,0,0-.123-.471,10.11,10.11,0,0,1-1.2-.835c-.311-.318-.8.169-.487.487Z" transform="translate(-313.632 -401.171)" fill="#44325c"/>
                    </g>
                  </g>
                </g>
              </g>
              <g id="Grupo_1179179" data-name="Grupo 1179179" transform="translate(14.388)">
                <g id="Grupo_1179171" data-name="Grupo 1179171" transform="translate(0.143)">
                  <path id="Trazado_999051" data-name="Trazado 999051" d="M352.763,399.15s1.765,3.764-.111,3.981c-.957.11-6.538.887-9.1,1.093-3.574.35.281-2.671,5.212-4.593l3.263-.392" transform="translate(-342.156 -399.15)" fill="#e8ad33"/>
                </g>
                <g id="Grupo_1179173" data-name="Grupo 1179173" transform="translate(0 3.386)">
                  <g id="Grupo_1179172" data-name="Grupo 1179172">
                    <path id="Trazado_999052" data-name="Trazado 999052" d="M353.064,408.989l-10.913,1.31c-.544.065-.55.927,0,.861l10.913-1.31c.544-.065.55-.927,0-.861Z" transform="translate(-341.741 -408.985)" fill="#44325c"/>
                  </g>
                </g>
                <g id="Grupo_1179178" data-name="Grupo 1179178" transform="translate(2.842 0.842)">
                  <g id="Grupo_1179175" data-name="Grupo 1179175" transform="translate(0 0.758)">
                    <g id="Grupo_1179174" data-name="Grupo 1179174">
                      <path id="Trazado_999053" data-name="Trazado 999053" d="M350.161,404.444c.413.251.829.5,1.245.741a.345.345,0,0,0,.348-.594q-.624-.368-1.245-.742a.345.345,0,0,0-.348.595Z" transform="translate(-349.997 -403.798)" fill="#44325c"/>
                    </g>
                  </g>
                  <g id="Grupo_1179177" data-name="Grupo 1179177" transform="translate(1.391)">
                    <g id="Grupo_1179176" data-name="Grupo 1179176">
                      <path id="Trazado_999054" data-name="Trazado 999054" d="M354.157,402.163a11.2,11.2,0,0,0,1.434.782.345.345,0,0,0,.348-.595,10.286,10.286,0,0,1-1.3-.674c-.344-.274-.834.21-.487.487Z" transform="translate(-354.039 -401.595)" fill="#44325c"/>
                    </g>
                  </g>
                </g>
              </g>
            </g>
            <g id="Grupo_1179197" data-name="Grupo 1179197">
              <g id="Grupo_1179183" data-name="Grupo 1179183">
                <g id="Grupo_1179181" data-name="Grupo 1179181" transform="translate(0 1.264)">
                  <path id="Trazado_999055" data-name="Trazado 999055" d="M316.58,324.486l-6.636.669c-3.742,2.124-14.083,6.313-14.175,10.423.044,3.043,3.368,7.981,4.976,10.959.829,1.534,1.424,2.788,1.992,4.121a9.377,9.377,0,0,0,3.432.447,22.822,22.822,0,0,0,2.958-.232,50.634,50.634,0,0,0-2.663-8.724c-1.821-4.01-3.578-4.582-3.578-4.582,2.025-.566,11.006-2.232,13.328-6.143A6.835,6.835,0,0,0,316.58,324.486Z" transform="translate(-295.769 -324.486)" fill="#44325c"/>
                </g>
                <g id="Grupo_1179182" data-name="Grupo 1179182" transform="translate(11.808)">
                  <path id="Trazado_999056" data-name="Trazado 999056" d="M349.281,320.814l-8.908,1.506c-3.442,2.582-10.715,8.391-10.284,12.479.43,3.012,4.31,7.147,6.282,9.9.945,1.317,1.659,2.421,2.343,3.573a7.857,7.857,0,0,0,3.308.156,18.507,18.507,0,0,0,3.157-.621,49.26,49.26,0,0,0-3.688-8.1c-2.315-3.747-4.174-4.088-4.174-4.088,1.936-.818,10.672-3.7,12.479-7.875A6.837,6.837,0,0,0,349.281,320.814Z" transform="translate(-330.071 -320.814)" fill="#44325c"/>
                </g>
              </g>
              <g id="Grupo_1179196" data-name="Grupo 1179196" transform="translate(6.479 2.109)">
                <g id="Grupo_1179185" data-name="Grupo 1179185" transform="translate(5.101 1.554)">
                  <g id="Grupo_1179184" data-name="Grupo 1179184">
                    <path id="Trazado_999057" data-name="Trazado 999057" d="M338.2,331.5c-2.716,1.627-5.6,3.24-7.567,5.791-2.093,2.719-1.25,5.861.59,8.446.191.268.639.011.446-.261-2-2.812-2.449-5.73-.139-8.484,1.829-2.179,4.526-3.606,6.932-5.048a.258.258,0,0,0-.261-.445Z" transform="translate(-329.407 -331.457)" fill="#5b437a"/>
                  </g>
                </g>
                <g id="Grupo_1179187" data-name="Grupo 1179187" transform="translate(10.27)">
                  <g id="Grupo_1179186" data-name="Grupo 1179186">
                    <path id="Trazado_999058" data-name="Trazado 999058" d="M357.444,327.191c0,2.227-.817,3.415-2.579,4.71-1.39,1.021-2.886,1.916-4.311,2.889-1.251.854-2.531,1.595-3.855,2.322a5,5,0,0,0-2.243,2.055.263.263,0,0,0,.04.313,19.887,19.887,0,0,1,3.826,5.055,39.511,39.511,0,0,1,3.222,6.477c.1.315.6.18.5-.137a41.362,41.362,0,0,0-3.849-7.618,19.414,19.414,0,0,0-2.5-3.332c-.841-.918-.516-1.165.48-1.886a13.387,13.387,0,0,1,1.589-.915,76.81,76.81,0,0,0,7.363-4.777,5.534,5.534,0,0,0,2.835-5.155.258.258,0,0,0-.516,0Z" transform="translate(-344.422 -326.941)" fill="#5b437a"/>
                  </g>
                </g>
                <g id="Grupo_1179189" data-name="Grupo 1179189" transform="translate(13.483 23.015)">
                  <g id="Grupo_1179188" data-name="Grupo 1179188">
                    <path id="Trazado_999059" data-name="Trazado 999059" d="M353.945,395.379a7.718,7.718,0,0,0,6.218-1.157c.263-.2-.106-.567-.365-.365a7.173,7.173,0,0,1-5.716,1.024c-.325-.064-.464.434-.137.5Z" transform="translate(-353.758 -393.798)" fill="#5b437a"/>
                  </g>
                </g>
                <g id="Grupo_1179191" data-name="Grupo 1179191" transform="translate(0 23.454)">
                  <g id="Grupo_1179190" data-name="Grupo 1179190">
                    <path id="Trazado_999060" data-name="Trazado 999060" d="M314.777,396.158a13.362,13.362,0,0,0,5.932-.573.258.258,0,0,0-.137-.5,12.793,12.793,0,0,1-5.658.573c-.326-.049-.466.449-.137.5Z" transform="translate(-314.59 -395.074)" fill="#5b437a"/>
                  </g>
                </g>
                <g id="Grupo_1179193" data-name="Grupo 1179193" transform="translate(18.93 0.69)">
                  <g id="Grupo_1179192" data-name="Grupo 1179192">
                    <path id="Trazado_999061" data-name="Trazado 999061" d="M369.582,329.193a3.829,3.829,0,0,0,2.6,3.577.258.258,0,0,0,.137-.5,3.3,3.3,0,0,1-2.22-3.079c-.021-.331-.538-.333-.516,0Z" transform="translate(-369.581 -328.944)" fill="#5b437a"/>
                  </g>
                </g>
                <g id="Grupo_1179195" data-name="Grupo 1179195" transform="translate(20.026 0.568)">
                  <g id="Grupo_1179194" data-name="Grupo 1179194">
                    <path id="Trazado_999062" data-name="Trazado 999062" d="M372.768,328.915a3.215,3.215,0,0,0,2.3,2.819c.325.059.465-.439.137-.5a2.741,2.741,0,0,1-1.942-2.459c-.055-.328-.552-.188-.5.137Z" transform="translate(-372.764 -328.591)" fill="#5b437a"/>
                  </g>
                </g>
              </g>
            </g>
          </g>
          <g id="Grupo_1179245" data-name="Grupo 1179245" transform="translate(2.3)">
            <g id="Grupo_1179199" data-name="Grupo 1179199" transform="translate(3.186 20.534)">
              <path id="Trazado_999063" data-name="Trazado 999063" d="M322.135,250.258c-5.551.059-2.769,8.961-2.813,12.8-2.447-.668-5.938-6.611-7.447-3.981-1.332,2.4,5.476,10.506,8.574,9.873,5.423-.755,8.248-17.586,1.686-18.69" transform="translate(-311.704 -250.258)" fill="#8c2e55"/>
            </g>
            <g id="Grupo_1179235" data-name="Grupo 1179235" transform="translate(7.93)">
              <g id="Grupo_1179200" data-name="Grupo 1179200" transform="translate(2.335 19.039)">
                <path id="Trazado_999064" data-name="Trazado 999064" d="M332.7,272.441c2.854,1.354,6.442.91,9.519,1a26.953,26.953,0,0,0,6.129-.414,40.344,40.344,0,0,1,4.053-.471c.007-.387.015-1.189.044-1.766.4-6.36,3.544-24.359-6.867-24.759-5.667-.219-11.518-.719-12.729,5.449C331.5,258.234,332.958,265.83,332.7,272.441Z" transform="translate(-332.269 -245.916)" fill="#ba3d71"/>
              </g>
              <g id="Grupo_1179202" data-name="Grupo 1179202" transform="translate(2.264 45.46)">
                <g id="Grupo_1179201" data-name="Grupo 1179201">
                  <path id="Trazado_999065" data-name="Trazado 999065" d="M332.368,323.514c6.322,1.665,13.3.854,19.712.155.546-.06.551-.921,0-.861-6.322.69-13.248,1.517-19.483-.124a.431.431,0,0,0-.229.83Z" transform="translate(-332.062 -322.668)" fill="#dc809b"/>
                </g>
              </g>
              <g id="Grupo_1179232" data-name="Grupo 1179232">
                <g id="Grupo_1179209" data-name="Grupo 1179209" transform="translate(1.936 5.183)">
                  <g id="Grupo_1179205" data-name="Grupo 1179205" transform="translate(0 5.626)">
                    <g id="Grupo_1179203" data-name="Grupo 1179203" transform="translate(14.337)">
                      <path id="Trazado_999066" data-name="Trazado 999066" d="M372.877,222.159c2.672-1.016,2.89,3.411-.121,2.469" transform="translate(-372.756 -222.007)" fill="#e5b18f"/>
                    </g>
                    <g id="Grupo_1179204" data-name="Grupo 1179204" transform="translate(0 0.321)">
                      <path id="Trazado_999067" data-name="Trazado 999067" d="M333.581,223.125c-.887-.428-2.736-.171-2.441,1.369.222,1.285,1.849,1.37,2.663,1.027" transform="translate(-331.108 -222.939)" fill="#e5b18f"/>
                    </g>
                  </g>
                  <g id="Grupo_1179208" data-name="Grupo 1179208" transform="translate(2.003)">
                    <g id="Grupo_1179206" data-name="Grupo 1179206">
                      <path id="Trazado_999068" data-name="Trazado 999068" d="M336.926,205.665c.683,4.987-2.278,12.967,6.149,12.967,8.656,0,6.378-7.182,6.15-12.368" transform="translate(-336.926 -205.665)" fill="#e5b18f"/>
                    </g>
                    <g id="Grupo_1179207" data-name="Grupo 1179207" transform="translate(4.501 11.174)">
                      <path id="Trazado_999069" data-name="Trazado 999069" d="M350.025,238.554c0,1.437-.578,5.889,3.82,4.884,2.687-.575,1.311-4.02,1.311-5.313" transform="translate(-350 -238.124)" fill="#e5b18f"/>
                    </g>
                  </g>
                </g>
                <g id="Grupo_1179224" data-name="Grupo 1179224" transform="translate(5.248 10.973)">
                  <g id="Grupo_1179214" data-name="Grupo 1179214" transform="translate(1.57 0.763)">
                    <g id="Grupo_1179211" data-name="Grupo 1179211">
                      <g id="Grupo_1179210" data-name="Grupo 1179210">
                        <path id="Trazado_999070" data-name="Trazado 999070" d="M345.792,225.735a.517.517,0,0,0,0-1.033.517.517,0,0,0,0,1.033Z" transform="translate(-345.292 -224.702)" fill="#44325c"/>
                      </g>
                    </g>
                    <g id="Grupo_1179213" data-name="Grupo 1179213" transform="translate(3.749)">
                      <g id="Grupo_1179212" data-name="Grupo 1179212">
                        <path id="Trazado_999071" data-name="Trazado 999071" d="M356.681,225.735a.517.517,0,0,0,0-1.033.517.517,0,0,0,0,1.033Z" transform="translate(-356.182 -224.702)" fill="#44325c"/>
                      </g>
                    </g>
                  </g>
                  <g id="Grupo_1179216" data-name="Grupo 1179216" transform="translate(3.109)">
                    <g id="Grupo_1179215" data-name="Grupo 1179215">
                      <path id="Trazado_999072" data-name="Trazado 999072" d="M350.21,222.611c-.146.794-.292,1.588-.444,2.38a.174.174,0,0,0,.12.212,8.334,8.334,0,0,0,1.3.075.172.172,0,0,0,0-.344,7.8,7.8,0,0,1-1.212-.063l.12.212c.152-.793.3-1.586.444-2.38.04-.217-.292-.31-.332-.092Z" transform="translate(-349.762 -222.486)" fill="#44325c"/>
                    </g>
                  </g>
                  <g id="Grupo_1179218" data-name="Grupo 1179218" transform="translate(2.738 2.729)">
                    <g id="Grupo_1179217" data-name="Grupo 1179217">
                      <path id="Trazado_999073" data-name="Trazado 999073" d="M348.768,231.574c1.254.715,3.426.454,4.155-.9.105-.2-.192-.369-.3-.174-.638,1.186-2.589,1.4-3.684.778a.172.172,0,0,0-.173.3Z" transform="translate(-348.683 -230.413)" fill="#44325c"/>
                    </g>
                  </g>
                  <g id="Grupo_1179223" data-name="Grupo 1179223" transform="translate(0 1.834)">
                    <g id="Grupo_1179220" data-name="Grupo 1179220" transform="translate(0 0.699)">
                      <g id="Grupo_1179219" data-name="Grupo 1179219">
                        <path id="Trazado_999074" data-name="Trazado 999074" d="M341.492,231.419a.788.788,0,0,0,0-1.575.788.788,0,0,0,0,1.575Z" transform="translate(-340.73 -229.844)" fill="#dc809b"/>
                      </g>
                    </g>
                    <g id="Grupo_1179222" data-name="Grupo 1179222" transform="translate(7.84)">
                      <g id="Grupo_1179221" data-name="Grupo 1179221">
                        <path id="Trazado_999075" data-name="Trazado 999075" d="M364.268,229.388a.788.788,0,0,0,0-1.575.788.788,0,0,0,0,1.575Z" transform="translate(-363.507 -227.813)" fill="#dc809b"/>
                      </g>
                    </g>
                  </g>
                </g>
                <g id="Grupo_1179231" data-name="Grupo 1179231">
                  <g id="Grupo_1179228" data-name="Grupo 1179228">
                    <g id="Grupo_1179225" data-name="Grupo 1179225">
                      <path id="Trazado_999076" data-name="Trazado 999076" d="M341.038,194.4c.437-1.471-1.189-2.795-2.437-3.209a13.465,13.465,0,0,0-5.211-.533c-2.981.251-4.847,3.206-7.892,3.336a3.706,3.706,0,0,0,.8,2.174,8.611,8.611,0,0,0,2.75,2.9c2.143,1.414,4.567,1.417,7.044,1.35a5.18,5.18,0,0,0,4.085-1.618,5.7,5.7,0,0,0,.741-3.375" transform="translate(-325.485 -190.609)" fill="#44325c"/>
                    </g>
                    <g id="Grupo_1179226" data-name="Grupo 1179226" transform="translate(12.646 1.582)">
                      <path id="Trazado_999077" data-name="Trazado 999077" d="M363.478,199.238a17.7,17.7,0,0,1,2.292,7.14c1.71-3.08,3.328-7.017,1.924-9.8-1.06-2.1-4.216-1.54-5.473,0" transform="translate(-362.221 -195.206)" fill="#44325c"/>
                    </g>
                    <g id="Grupo_1179227" data-name="Grupo 1179227" transform="translate(2.64 4.845)">
                      <path id="Trazado_999078" data-name="Trazado 999078" d="M335.565,205.8c-.962,2.38-.618,4.55-1.062,7-.978-2.12-1.97-6.16-.862-8.119" transform="translate(-333.152 -204.684)" fill="#44325c"/>
                    </g>
                  </g>
                  <g id="Grupo_1179230" data-name="Grupo 1179230" transform="translate(3.139 2.939)">
                    <g id="Grupo_1179229" data-name="Grupo 1179229">
                      <path id="Trazado_999079" data-name="Trazado 999079" d="M337.707,199.2a5.421,5.421,0,0,1-2.853,1.342.26.26,0,0,0-.13.481,4.662,4.662,0,0,0,3.183.79,6.688,6.688,0,0,0,1.439-.275A2.873,2.873,0,0,1,338.1,202.9a10.218,10.218,0,0,1-1.194.659.26.26,0,0,0,0,.446c2.1.969,7.1.839,7.609-2.105.056-.326-.442-.465-.5-.137-.435,2.538-5.017,2.641-6.849,1.8V204c1.264-.644,2.568-1.342,2.767-2.862a.259.259,0,0,0-.327-.249,4.875,4.875,0,0,1-4.62-.318l-.13.481a6,6,0,0,0,3.114-1.412c.264-.2.007-.644-.261-.446Z" transform="translate(-334.602 -199.148)" fill="#5b437a"/>
                    </g>
                  </g>
                </g>
              </g>
              <g id="Grupo_1179234" data-name="Grupo 1179234" transform="translate(7.804 18.995)">
                <g id="Grupo_1179233" data-name="Grupo 1179233">
                  <path id="Trazado_999080" data-name="Trazado 999080" d="M348.156,246.689c.178,3.388,6.6,2.609,6.776-.484.031-.555-.83-.552-.861,0-.113,2-4.939,2.679-5.055.484-.029-.552-.89-.555-.861,0Z" transform="translate(-348.155 -245.79)" fill="#dc809b"/>
                </g>
              </g>
            </g>
            <g id="Grupo_1179239" data-name="Grupo 1179239" transform="translate(0 16.125)">
              <g id="Grupo_1179236" data-name="Grupo 1179236" transform="translate(0.286)">
                <path id="Trazado_999081" data-name="Trazado 999081" d="M303.281,246.9c.466-2.394,3.061-7.114,3.66-9.445,1.4.882,4.061,7.3,5.059,8.563" transform="translate(-303.281 -237.451)" fill="#ffe8df"/>
              </g>
              <g id="Grupo_1179237" data-name="Grupo 1179237" transform="translate(0.42 2.962)">
                <path id="Trazado_999082" data-name="Trazado 999082" d="M303.669,252.159c1.863-1.2,3.28-1.695,5.989-3.212,1.146-.642,3.2-2.389,4.327-2.893a10.993,10.993,0,0,1,1.2,4.594c0,.819-1.064.756-2.129,1.134-1.265.441-2.662.756-3.993,1.134a39.064,39.064,0,0,1-3.927.63" transform="translate(-303.669 -246.054)" fill="#ffe8df"/>
              </g>
              <g id="Grupo_1179238" data-name="Grupo 1179238" transform="translate(0 0.908)">
                <path id="Trazado_999083" data-name="Trazado 999083" d="M304.632,240.09c-.576,2.544-2.894,6.772-1.965,8.656,1.374,2.781,4.858,8.994,6.126,11.409,0,0,6.58-1.663,12.248-2.772,0,0-1.185-2.287-2.245-4.375-1.2-2.36-4.211-8.477-4.211-8.477S306,248.764,302.935,248.5c-.419-1.188,5.425-8.311,1.7-8.41" transform="translate(-302.45 -240.09)" fill="#74abbe"/>
              </g>
            </g>
            <g id="Grupo_1179244" data-name="Grupo 1179244" transform="translate(9.253 20.534)">
              <g id="Grupo_1179240" data-name="Grupo 1179240" transform="translate(5.408)">
                <path id="Trazado_999084" data-name="Trazado 999084" d="M357.65,250.258c-5.551.059-2.77,8.961-2.812,12.8-2.448-.668-8.158-4.511-9.667-1.881-1.33,2.4,7.7,8.406,10.794,7.773,5.423-.754,8.248-17.586,1.685-18.69" transform="translate(-345.038 -250.258)" fill="#8c2e55"/>
              </g>
              <g id="Grupo_1179241" data-name="Grupo 1179241" transform="translate(0 6.839)">
                <path id="Trazado_999085" data-name="Trazado 999085" d="M338.741,275.576c-1.191,3.191-3.941,1.852-5.639,1.22-5.567-2.077-4.122-2.615-.412-1.466-.829-.355-3.666-1.54-3.335-2.219.192-.463,1.27-.026,4.021.933-4.022-2.054-5.21-4.166.874-1.117-1.126-.577-3.564-2.084-2.948-2.732.486-.51,4.028,2,4.544,2.223.112-.429-.087-3.114.793-1.713.925,1.476,2.637,3.853,2.1,4.872" transform="translate(-329.329 -270.126)" fill="#e5b18f"/>
              </g>
              <g id="Grupo_1179243" data-name="Grupo 1179243" transform="translate(6.759 10.148)">
                <g id="Grupo_1179242" data-name="Grupo 1179242">
                  <path id="Trazado_999086" data-name="Trazado 999086" d="M351.344,280.149c-.151,1.565-.612,2.955-2.154,3.618-.509.219-.07.96.434.743,1.825-.785,2.4-2.514,2.58-4.361.053-.552-.808-.547-.861,0Z" transform="translate(-348.964 -279.736)" fill="#dc809b"/>
                </g>
              </g>
            </g>
          </g>
        </g>
      </g>
    </g>
  </g>
</svg>
