<svg xmlns="http://www.w3.org/2000/svg" width="128" height="128" viewBox="0 0 128 128">
  <g id="Grupo_1178363" data-name="Grupo 1178363" transform="translate(-72.746 -7992)">
    <g id="Elipse_13628" data-name="Elipse 13628" transform="translate(72.746 7992)" fill="#fff7e2" stroke="#cff878" stroke-width="6">
      <circle cx="64" cy="64" r="64" stroke="none"/>
      <circle cx="64" cy="64" r="61" fill="none"/>
    </g>
    <g id="Grupo_1178372" data-name="Grupo 1178372" transform="translate(92.275 8021.648)">
      <path id="Trazado_998309" data-name="Trazado 998309" d="M90.311,17.467H72.843A1.165,1.165,0,0,1,71.679,16.3V9.9a9.9,9.9,0,1,1,19.8,0v6.4A1.165,1.165,0,0,1,90.311,17.467Zm-16.3-2.329H89.146V9.9a7.569,7.569,0,1,0-15.138,0Z" transform="translate(-37.106)"/>
      <path id="Trazado_998310" data-name="Trazado 998310" d="M76.835,53.609H25.6l3.493-5.822H73.342Z" transform="translate(-6.746 -31.484)" fill="#8c6b3b"/>
      <path id="Trazado_998311" data-name="Trazado 998311" d="M74.586,52.524H23.349a1.165,1.165,0,0,1-1-1.764l3.493-5.823a1.163,1.163,0,0,1,1-.565H71.093a1.163,1.163,0,0,1,1,.565l3.493,5.823a1.165,1.165,0,0,1-1,1.764ZM25.405,50.195H72.53l-2.1-3.493H27.5Z" transform="translate(-4.497 -29.234)"/>
      <rect id="Rectángulo_455160" data-name="Rectángulo 455160" width="16.302" height="17.467" transform="translate(60.317 28.404) rotate(-166.838)" fill="#83d816"/>
      <path id="Trazado_998312" data-name="Trazado 998312" d="M114.235,42.173a1.178,1.178,0,0,1-.267-.031L98.094,38.43a1.164,1.164,0,0,1-.869-1.4L101.2,20.023a1.162,1.162,0,0,1,1.4-.869l15.874,3.713a1.164,1.164,0,0,1,.869,1.4l-3.979,17.008A1.164,1.164,0,0,1,114.235,42.173ZM99.758,36.427l13.607,3.183,3.447-14.739-13.607-3.183Z" transform="translate(-53.917 -12.599)"/>
      <rect id="Rectángulo_455161" data-name="Rectángulo 455161" width="19.612" height="21.014" transform="translate(45.337 25.57) rotate(173.258)" fill="#2a8ee6"/>
      <path id="Trazado_998313" data-name="Trazado 998313" d="M39.126,35.873a1.165,1.165,0,0,1-1.155-1.028L35.5,13.977a1.165,1.165,0,0,1,1.019-1.293L56,10.382a1.165,1.165,0,0,1,1.293,1.02L59.76,32.27a1.165,1.165,0,0,1-1.019,1.293l-19.477,2.3A1.271,1.271,0,0,1,39.126,35.873ZM37.954,14.86l2.193,18.555,17.164-2.028L55.118,12.832Z" transform="translate(-13.268 -6.835)"/>
      <rect id="Rectángulo_455162" data-name="Rectángulo 455162" width="19.296" height="20.307" transform="matrix(-0.972, 0.234, -0.234, -0.972, 55.603, 32.087)" fill="#ed5481"/>
      <path id="Trazado_998314" data-name="Trazado 998314" d="M66.908,59.353a1.164,1.164,0,0,1-1.131-.892L61.029,38.718a1.164,1.164,0,0,1,.86-1.4L80.649,32.8a1.163,1.163,0,0,1,1.4.859L86.8,53.406a1.164,1.164,0,0,1-.86,1.4L67.181,59.321A1.138,1.138,0,0,1,66.908,59.353ZM63.565,39.305l4.2,17.48,16.495-3.966-4.2-17.479Z" transform="translate(-30.068 -21.591)"/>
      <path id="Trazado_998315" data-name="Trazado 998315" d="M74.667,110.268h-55.9L21.1,64.853H72.338Z" transform="translate(-2.249 -42.728)" fill="#fbad4a"/>
      <path id="Trazado_998316" data-name="Trazado 998316" d="M72.418,109.185h-55.9a1.164,1.164,0,0,1-1.163-1.224l2.329-45.415a1.165,1.165,0,0,1,1.163-1.1H70.09a1.165,1.165,0,0,1,1.163,1.1l2.329,45.415a1.164,1.164,0,0,1-1.164,1.224Zm-54.67-2.329H71.193L68.983,63.77H19.958Z" transform="translate(0 -40.48)"/>
      <circle id="Elipse_13718" data-name="Elipse 13718" cx="2.329" cy="2.329" r="2.329" transform="translate(50.875 26.783)" fill="#8c6b3b"/>
      <path id="Trazado_998317" data-name="Trazado 998317" d="M119.545,82.08a3.493,3.493,0,1,1,3.493-3.493A3.5,3.5,0,0,1,119.545,82.08Zm0-4.658a1.164,1.164,0,1,0,1.164,1.164A1.166,1.166,0,0,0,119.545,77.422Z" transform="translate(-66.341 -49.474)"/>
      <circle id="Elipse_13719" data-name="Elipse 13719" cx="2.329" cy="2.329" r="2.329" transform="translate(33.408 26.783)" fill="#8c6b3b"/>
      <path id="Trazado_998318" data-name="Trazado 998318" d="M68.345,82.08a3.493,3.493,0,1,1,3.493-3.493A3.5,3.5,0,0,1,68.345,82.08Zm0-4.658a1.164,1.164,0,1,0,1.164,1.164A1.166,1.166,0,0,0,68.345,77.422Z" transform="translate(-32.608 -49.474)"/>
      <path id="Trazado_998319" data-name="Trazado 998319" d="M81.577,102.8a9.909,9.909,0,0,1-9.9-9.9V86.5a1.164,1.164,0,0,1,2.329,0v6.4a7.569,7.569,0,0,0,15.139,0V86.947a1.15,1.15,0,0,1-.09-.449,1.165,1.165,0,0,1,1.164-1.164h.09A1.165,1.165,0,0,1,91.475,86.5v6.4A9.909,9.909,0,0,1,81.577,102.8Z" transform="translate(-37.106 -56.222)"/>
    </g>
  </g>
</svg>
