<svg xmlns="http://www.w3.org/2000/svg" width="128" height="128" viewBox="0 0 128 128">
  <g id="Grupo_1178365" data-name="Grupo 1178365" transform="translate(-72.746 -7992)">
    <g id="Elipse_13628" data-name="Elipse 13628" transform="translate(72.746 7992)" fill="#fff7e2" stroke="#cff878" stroke-width="6">
      <circle cx="64" cy="64" r="64" stroke="none"/>
      <circle cx="64" cy="64" r="61" fill="none"/>
    </g>
    <g id="Grupo_1178376" data-name="Grupo 1178376" transform="translate(106.439 8025.693)">
      <path id="Trazado_998320" data-name="Trazado 998320" d="M62.081,56.05v6.582H45.98a27.254,27.254,0,0,0-.35-4.5A75.7,75.7,0,0,1,62.081,56.05Z" transform="translate(-2.414 -2.965)" fill="#559e15"/>
      <path id="Trazado_998321" data-name="Trazado 998321" d="M62.02,51.04v4.745a75.7,75.7,0,0,0-16.451,2.084,23.623,23.623,0,0,0-1.1-4.442A74.02,74.02,0,0,1,62.02,51.04Z" transform="translate(-2.352 -2.7)" fill="#71d31c"/>
      <path id="Trazado_998322" data-name="Trazado 998322" d="M61.911,46.05v4.726a74.02,74.02,0,0,0-17.55,2.387A22.115,22.115,0,0,0,42.41,49,70.82,70.82,0,0,1,61.911,46.05Z" transform="translate(-2.243 -2.436)" fill="#559e15"/>
      <path id="Trazado_998323" data-name="Trazado 998323" d="M61.755,41.05v4.736a70.82,70.82,0,0,0-19.5,2.945A22.791,22.791,0,0,0,39.47,44.98C43.779,43.276,50.977,41.334,61.755,41.05Z" transform="translate(-2.088 -2.171)" fill="#71d31c"/>
      <path id="Trazado_998324" data-name="Trazado 998324" d="M61.564,36.04v4.745c-10.778.284-17.976,2.226-22.285,3.93a26.335,26.335,0,0,0-3.419-3.163c3.277-1.771,11.308-5.114,25.7-5.512Z" transform="translate(-1.897 -1.906)" fill="#559e15"/>
      <path id="Trazado_998325" data-name="Trazado 998325" d="M61.387,32v3.826c-14.4.4-22.427,3.741-25.7,5.512A31.277,31.277,0,0,0,32.51,39.17C34.84,37.294,40.3,34,50.96,32.625c2.055-.265,4.309-.455,6.772-.549,1.174-.047,2.387-.076,3.656-.076Z" transform="translate(-1.72 -1.693)" fill="#71d31c"/>
      <path id="Trazado_998326" data-name="Trazado 998326" d="M59.9,23.731a23.255,23.255,0,0,0-3.656,6.7v.009c-2.462.095-4.717.284-6.772.549.009-.208.009-.417.009-.625a18.942,18.942,0,1,0-37.884,0c0,.265.009.521.019.786-2.889-.426-5.427-.625-7.264-.71,5.029-3.485.616-16.177.616-16.177S15.384,19,15.384,2.894c0,0,11.365,11.365,20.836-1.894,0,0,6.63,13.259,17.048,7.577,0,0-5.683,12.312,6.63,15.154Z" transform="translate(-0.23 -0.053)" fill="#ff8939"/>
      <path id="Trazado_998327" data-name="Trazado 998327" d="M49.884,30.942c0,.208,0,.417-.009.625-10.655,1.373-16.12,4.669-18.45,6.544-6.194-3.732-13.553-5.522-19.406-6.383-.009-.265-.019-.521-.019-.786a18.942,18.942,0,1,1,37.884,0Z" transform="translate(-0.635 -0.635)" fill="#ffc135"/>
      <path id="Trazado_998328" data-name="Trazado 998328" d="M49.884,31.34c0,.208,0,.417-.009.625-10.655,1.373-16.12,4.669-18.45,6.544-6.194-3.732-13.553-5.522-19.406-6.383-.009-.265-.019-.521-.019-.786a18.206,18.206,0,0,1,.237-2.983,24.077,24.077,0,0,0,13.5,3.93c9.964,0,18.26-5.5,20.012-12.758A18.863,18.863,0,0,1,49.884,31.34Z" transform="translate(-0.635 -1.033)" fill="#ff9f14"/>
      <path id="Trazado_998329" data-name="Trazado 998329" d="M30.843,39.169a31.277,31.277,0,0,1,3.173,2.169A26.336,26.336,0,0,1,37.435,44.5a22.791,22.791,0,0,1,2.784,3.751,22.115,22.115,0,0,1,1.951,4.167,23.623,23.623,0,0,1,1.1,4.442,27.254,27.254,0,0,1,.35,4.5H35.759c-1.269-8.278-6.876-14.33-16.7-18.042A63.846,63.846,0,0,0,1,39.69V32s1.193-.028,3.173.076c1.837.085,4.376.284,7.264.71,5.853.862,13.212,2.652,19.406,6.383Z" transform="translate(-0.053 -1.692)" fill="#cdef41"/>
      <path id="Trazado_998330" data-name="Trazado 998330" d="M35.759,61.79H31.033c-2.226-6.355-7.5-11.138-15.76-14.254A60.784,60.784,0,0,0,1,44.24V40.12a63.846,63.846,0,0,1,18.061,3.627c9.821,3.713,15.428,9.765,16.7,18.042Z" transform="translate(-0.053 -2.122)" fill="#71d31c"/>
      <path id="Trazado_998331" data-name="Trazado 998331" d="M31.033,62.02H25.445c-2.766-4.5-7.435-8-13.96-10.466A57.26,57.26,0,0,0,1,48.789V44.47a60.785,60.785,0,0,1,14.273,3.3c8.259,3.116,13.534,7.9,15.76,14.254Z" transform="translate(-0.053 -2.352)" fill="#559e15"/>
      <path id="Trazado_998332" data-name="Trazado 998332" d="M25.445,62.261h-6.8A30.452,30.452,0,0,0,7.7,55.584,50.627,50.627,0,0,0,1,53.576V49.03A57.259,57.259,0,0,1,11.484,51.8c6.526,2.462,11.195,5.967,13.96,10.466Z" transform="translate(-0.053 -2.593)" fill="#71d31c"/>
      <path id="Trazado_998333" data-name="Trazado 998333" d="M18.645,62.515H9.95a37.274,37.274,0,0,0-6.043-2.889c-.966-.369-1.942-.7-2.908-.994v-4.8a50.627,50.627,0,0,1,6.7,2.008A30.452,30.452,0,0,1,18.645,62.515Z" transform="translate(-0.053 -2.847)" fill="#559e15"/>
      <path id="Trazado_998334" data-name="Trazado 998334" d="M9.95,62.783H1V58.9c.966.294,1.942.625,2.908.994A37.274,37.274,0,0,1,9.95,62.783Z" transform="translate(-0.053 -3.116)" fill="#559e15"/>
      <g id="Grupo_1178373" data-name="Grupo 1178373" transform="translate(0.947 39.045)">
        <path id="Trazado_998335" data-name="Trazado 998335" d="M44.842,57.35a23.623,23.623,0,0,0-1.1-4.442,22.115,22.115,0,0,0-1.951-4.167,22.791,22.791,0,0,0-2.784-3.751,26.335,26.335,0,0,0-3.419-3.163c-.268-.208-.548-.4-.823-.6A12.261,12.261,0,0,1,30.732,49.7a20.022,20.022,0,0,1,6.6,12.153h7.861A27.254,27.254,0,0,0,44.842,57.35Z" transform="translate(-2.573 -41.226)" fill="#71d31c"/>
        <path id="Trazado_998336" data-name="Trazado 998336" d="M30.487,50.168A21.286,21.286,0,0,1,26.1,53.431a20.294,20.294,0,0,1,6.259,8.89h4.726a20.022,20.022,0,0,0-6.6-12.153Z" transform="translate(-2.328 -41.699)" fill="#559e15"/>
        <path id="Trazado_998337" data-name="Trazado 998337" d="M25.789,53.613A29.374,29.374,0,0,1,20.2,56.03,22.125,22.125,0,0,1,26.46,62.5h5.588a20.294,20.294,0,0,0-6.259-8.89Z" transform="translate(-2.015 -41.881)" fill="#407710"/>
        <path id="Trazado_998338" data-name="Trazado 998338" d="M19.776,56.165A36.717,36.717,0,0,1,12.241,57.7a27.252,27.252,0,0,1,7,4.934h6.8a22.168,22.168,0,0,0-6.263-6.473Z" transform="translate(-1.595 -42.016)" fill="#559e15"/>
        <path id="Trazado_998339" data-name="Trazado 998339" d="M7.63,57.969A39.962,39.962,0,0,1,1,57.42v1.4c.966.294,1.942.625,2.908.994A37.274,37.274,0,0,1,9.95,62.7h8.694a27.245,27.245,0,0,0-7-4.934c-1.309.13-2.65.2-4.017.2Z" transform="translate(-1 -42.083)" fill="#407710"/>
      </g>
      <g id="Grupo_1178374" data-name="Grupo 1178374" transform="translate(17.995 27.187)">
        <ellipse id="Elipse_13720" data-name="Elipse 13720" cx="2.736" cy="1.7" rx="2.736" ry="1.7" fill="#e57c7c"/>
        <ellipse id="Elipse_13721" data-name="Elipse 13721" cx="2.736" cy="1.7" rx="2.736" ry="1.7" transform="translate(19.152)" fill="#e57c7c"/>
      </g>
      <path id="Trazado_998340" data-name="Trazado 998340" d="M24.168,17.086c-.905.421-3.414,1.623-3.383,2.864a1.726,1.726,0,0,0,1.552,1.344,1.946,1.946,0,0,0,.893-.3,23.526,23.526,0,0,0,4.28-3.11c.348-.314,1.253-1.359.4-1.657a1.26,1.26,0,0,0-.523-.039,9.6,9.6,0,0,0-3.224.9Z" transform="translate(-1.099 -0.856)" fill="#ffe75a"/>
      <path id="Trazado_998341" data-name="Trazado 998341" d="M45.831,36.663a.674.674,0,0,1-.484-1.236,1.936,1.936,0,0,1,1.908-.246c.915.431-.314,1.3-1.424,1.482Z" transform="translate(-2.381 -1.853)" fill="#cdef41"/>
      <g id="Grupo_1178375" data-name="Grupo 1178375" transform="translate(-0.001 0)">
        <path id="Trazado_998342" data-name="Trazado 998342" d="M59.668,29.36c-.776,0-1.528.012-2.267.029a22.511,22.511,0,0,1,3-5.106.947.947,0,0,0-.515-1.529c-3.187-.735-5.343-2.2-6.405-4.366-2.005-4.076.4-9.414.422-9.468a.947.947,0,0,0-1.314-1.227,9,9,0,0,1-7.2.912C40.118,6.959,36.868.589,36.836.525A.952.952,0,0,0,36.063,0,.961.961,0,0,0,35.219.4c-2.643,3.7-5.668,5.718-8.992,6-5.6.477-10.358-4.177-10.4-4.223a.947.947,0,0,0-1.616.669c0,5.279-1.181,8.836-3.416,10.284-2.486,1.61-5.633.232-5.663.219a.947.947,0,0,0-1.287,1.173C4.975,17.785,7.1,26.657,3.8,29.4c-1.637-.065-2.683-.049-2.873-.045A.948.948,0,0,0,0,30.308v29.36a.946.946,0,0,0,.947.947H59.668a.946.946,0,0,0,.947-.947V30.308a.946.946,0,0,0-.947-.947Zm-.947,22.813a77.612,77.612,0,0,0-14.737,1.844,25.628,25.628,0,0,0-.654-2.623,73.872,73.872,0,0,1,15.391-2.068Zm0-9.469a72.294,72.294,0,0,0-18.133,2.747,24.4,24.4,0,0,0-1.607-2.227,66.068,66.068,0,0,1,19.741-3.362Zm0,1.9v2.83A75.651,75.651,0,0,0,42.706,49.6a23.966,23.966,0,0,0-1.128-2.466A70.948,70.948,0,0,1,58.721,44.6Zm0-6.634C48.665,38.327,41.8,40.13,37.638,41.7c-.219-.229-.437-.459-.665-.683-.416-.407-.846-.8-1.284-1.176,3.817-1.811,11.111-4.27,23.032-4.718Zm0-4.741c-13.17.488-20.94,3.4-24.666,5.307q-.774-.58-1.581-1.113c3.374-2.286,11.165-6.009,26.247-6.159Zm-52.56-17.6a7.592,7.592,0,0,0,5.643-.9c2.526-1.626,3.948-4.95,4.241-9.891,2.039,1.538,5.871,3.818,10.327,3.448C29.9,7.991,33.095,6.1,35.878,2.66c1.332,2.146,4.42,6.334,8.938,7.751a10.341,10.341,0,0,0,6.6-.131c-.627,2.224-1.183,5.8.356,8.936a9.981,9.981,0,0,0,6.311,5.01,24.653,24.653,0,0,0-2.743,5.235q-2.753.128-5.165.4a19.882,19.882,0,0,0-39.359-3.534.948.948,0,0,0,1.857.378A17.991,17.991,0,0,1,48.292,30.1c-9.437,1.326-14.786,4.163-17.563,6.232-8.37-4.855-18.523-6.345-24.567-6.791,2.386-3.818.9-10.7,0-13.92ZM1.894,52.192a50.2,50.2,0,0,1,5.414,1.681,32.114,32.114,0,0,1,8.79,4.847H10.147A38.224,38.224,0,0,0,4.189,55.89c-.739-.278-1.512-.542-2.295-.795ZM7.977,52.1a52.744,52.744,0,0,0-6.083-1.86V47.584a54.536,54.536,0,0,1,9.2,2.5c5.578,2.106,9.767,5.009,12.5,8.636H18.965A31.913,31.913,0,0,0,7.977,52.1Zm3.788-3.788a56.786,56.786,0,0,0-9.872-2.659V43.19A57.667,57.667,0,0,1,14.885,46.3c7.4,2.8,12.336,6.973,14.7,12.425h-3.7c-2.906-4.454-7.642-7.96-14.122-10.408Zm3.788-3.788a59.817,59.817,0,0,0-13.66-3.243V39.01a62.766,62.766,0,0,1,16.779,3.5C27.7,45.917,33.031,51.37,34.566,58.721H31.63c-2.444-6.31-7.844-11.087-16.076-14.2ZM1.894,57.086c.553.186,1.1.377,1.625.576.875.331,1.711.688,2.522,1.059H1.894Zm34.6,1.635C34.932,50.5,29.176,44.45,19.343,40.736A63.676,63.676,0,0,0,1.894,37.11V31.257c4.4.065,23.365.951,33.755,11.111a23.078,23.078,0,0,1,6.956,16.353Zm8,0q-.043-1.445-.213-2.828a75.334,75.334,0,0,1,14.44-1.823v4.651Z" transform="translate(0.001 0)"/>
        <path id="Trazado_998343" data-name="Trazado 998343" d="M44.217,23.3a.947.947,0,1,0,1.564-1.069,16.172,16.172,0,0,0-3.241-3.5A.947.947,0,1,0,41.354,20.2,14.331,14.331,0,0,1,44.217,23.3Z" transform="translate(-2.168 -0.979)"/>
        <path id="Trazado_998344" data-name="Trazado 998344" d="M46.247,27.243a14.158,14.158,0,0,1,.459,1.775.948.948,0,0,0,1.862-.353,15.951,15.951,0,0,0-.521-2.014.948.948,0,1,0-1.8.592Z" transform="translate(-2.443 -1.375)"/>
        <path id="Trazado_998345" data-name="Trazado 998345" d="M28.947,33.788c.949,0,5.683-.137,5.683-2.841a.947.947,0,1,0-1.894,0c0,.412-1.837.944-3.789.947a.947.947,0,0,0,0,1.894Z" transform="translate(-1.48 -1.587)"/>
        <path id="Trazado_998346" data-name="Trazado 998346" d="M.277,1.617l9.471,9.471a.947.947,0,1,0,1.339-1.339L1.617.277A.947.947,0,0,0,.277,1.617Z" transform="translate(0.001 0)"/>
        <path id="Trazado_998347" data-name="Trazado 998347" d="M0,23.947a.946.946,0,0,0,.947.947H3.788a.947.947,0,0,0,0-1.894H.947A.946.946,0,0,0,0,23.947Z" transform="translate(0.001 -1.216)"/>
        <path id="Trazado_998348" data-name="Trazado 998348" d="M.6,10.827l4.736,1.894a.934.934,0,0,0,.351.067.947.947,0,0,0,.351-1.827L1.3,9.067a.947.947,0,1,0-.7,1.76Z" transform="translate(0.001 -0.476)"/>
        <path id="Trazado_998349" data-name="Trazado 998349" d="M62.013.277,57.277,5.013a.947.947,0,1,0,1.339,1.339l4.736-4.736A.947.947,0,0,0,62.013.277Z" transform="translate(-3.014 0)"/>
        <path id="Trazado_998350" data-name="Trazado 998350" d="M47.524,7.477a.949.949,0,0,0,1.271-.424L51.636,1.37A.947.947,0,1,0,49.942.523L47.1,6.205A.948.948,0,0,0,47.524,7.477Z" transform="translate(-2.485 0)"/>
        <path id="Trazado_998351" data-name="Trazado 998351" d="M23.421.159a.946.946,0,0,0-.262,1.314l1.894,2.841a.947.947,0,0,0,1.576-1.051L24.735.421A.947.947,0,0,0,23.421.159Z" transform="translate(-1.216 0)"/>
        <path id="Trazado_998352" data-name="Trazado 998352" d="M31,.947v.947a.947.947,0,0,0,1.894,0V.947A.947.947,0,0,0,31,.947Z" transform="translate(-1.639 0)"/>
        <path id="Trazado_998353" data-name="Trazado 998353" d="M62.013,11.277l-4.736,4.736a.947.947,0,1,0,1.339,1.339l4.736-4.736a.947.947,0,0,0-1.339-1.339Z" transform="translate(-3.014 -0.582)"/>
        <path id="Trazado_998354" data-name="Trazado 998354" d="M59.947,21.841a.948.948,0,0,0,.3-.049l2.841-.947a.947.947,0,1,0-.6-1.8L59.647,20a.947.947,0,0,0,.3,1.846Z" transform="translate(-3.12 -1.005)"/>
        <path id="Trazado_998355" data-name="Trazado 998355" d="M12.193,5.686a.947.947,0,0,0,.6-1.2l-.947-2.841a.947.947,0,0,0-1.8.6L11,5.088a.945.945,0,0,0,1.2.6Z" transform="translate(-0.528 -0.053)"/>
        <path id="Trazado_998356" data-name="Trazado 998356" d="M22.288,28.277a2.664,2.664,0,0,0,.344-.023c1.225-.162,2.211-1.156,2.93-2.955a.947.947,0,1,0-1.76-.7c-.426,1.066-.943,1.716-1.417,1.78-.6.091-1.4-.674-1.683-1.051a.947.947,0,0,0-1.513,1.138,4.438,4.438,0,0,0,3.1,1.814Z" transform="translate(-1.004 -1.269)"/>
        <path id="Trazado_998357" data-name="Trazado 998357" d="M40.288,28.277a2.663,2.663,0,0,0,.344-.023c1.225-.162,2.211-1.156,2.93-2.955a.947.947,0,1,0-1.76-.7c-.426,1.066-.943,1.716-1.417,1.78-.6.091-1.4-.674-1.683-1.051a.946.946,0,0,0-1.513,1.137,4.437,4.437,0,0,0,3.1,1.816Z" transform="translate(-1.956 -1.269)"/>
        <path id="Trazado_998358" data-name="Trazado 998358" d="M23.343,38.805A64.427,64.427,0,0,0,5,35.119a.965.965,0,0,0-1,.888.948.948,0,0,0,.888,1,63.71,63.71,0,0,1,17.783,3.568c9.466,3.575,14.883,9.4,16.1,17.3a.948.948,0,0,0,.935.8.934.934,0,0,0,.145-.011.947.947,0,0,0,.792-1.081c-1.328-8.631-7.149-14.952-17.3-18.787Z" transform="translate(-0.211 -1.857)"/>
      </g>
    </g>
  </g>
</svg>
