<svg xmlns="http://www.w3.org/2000/svg" width="128" height="128" viewBox="0 0 128 128">
  <g id="Grupo_1178367" data-name="Grupo 1178367" transform="translate(-72.746 -7992)">
    <g id="Elipse_13628" data-name="Elipse 13628" transform="translate(72.746 7992)" fill="#fff7e2" stroke="#cff878" stroke-width="6">
      <circle cx="64" cy="64" r="64" stroke="none"/>
      <circle cx="64" cy="64" r="61" fill="none"/>
    </g>
    <g id="Grupo_1178387" data-name="Grupo 1178387" transform="translate(106.005 8025.394)">
      <g id="Grupo_1178384" data-name="Grupo 1178384" transform="translate(1.061 0.897)">
        <path id="Trazado_998359" data-name="Trazado 998359" d="M133.947,227.869l-2.259-4.969-3.83-8.222-1.54,2.043V250.2h.026l5.838-16.529C132.183,232.509,133.947,227.869,133.947,227.869Z" transform="translate(-112.13 -189.889)" fill="#ffdaaa"/>
        <path id="Trazado_998360" data-name="Trazado 998360" d="M193.012,21.358a1.8,1.8,0,0,0,1.795-1.795V17.079A9.579,9.579,0,0,0,185.228,7.5h.007a9.579,9.579,0,0,0-9.579,9.579v2.484a1.8,1.8,0,0,0,1.795,1.795Z" transform="translate(-155.564 -7.5)" fill="#767676"/>
        <g id="Grupo_1178377" data-name="Grupo 1178377" transform="translate(20.092)">
          <path id="Trazado_998361" data-name="Trazado 998361" d="M255.656,7.5h.007Z" transform="translate(-246.084 -7.5)" fill="#616161"/>
          <path id="Trazado_998362" data-name="Trazado 998362" d="M178.647,19.564V17.08a9.581,9.581,0,0,1,8.08-9.461,9.576,9.576,0,0,0-11.071,9.461v2.484a1.8,1.8,0,0,0,1.795,1.795h2.991A1.8,1.8,0,0,1,178.647,19.564Z" transform="translate(-175.656 -7.501)" fill="#616161"/>
        </g>
        <path id="Trazado_998363" data-name="Trazado 998363" d="M157.62,165.965v33.482H126.534l5.839-16.528a17.861,17.861,0,0,1,.991-3.661l.014-.041q.032-.09.061-.176c.012-.036.024-.072.037-.107.022-.059.042-.117.061-.175.237-.675.444-1.232.541-1.491.008-.02.016-.041.022-.057l.032-.085a.04.04,0,0,1,0-.01.009.009,0,0,0,0,0l-6.089-13.191,1.961-2.6a17.613,17.613,0,0,1,8.19-4.3h7.491c3.526.577,6.631,2.906,8.341,4.429Z" transform="translate(-112.319 -139.133)" fill="#fbb9d7"/>
        <g id="Grupo_1178378" data-name="Grupo 1178378" transform="translate(27.703 37.445)">
          <path id="Trazado_998364" data-name="Trazado 998364" d="M244.956,320.454c.8.008,3.56.206,4.83,2.438l.026.028c-2.911,3.52-6.995,8.148-8.341,8.148h-2.208c0-4.291,3.289-7.655,5.025-9.789.2-.25.437-.521.666-.826Z" transform="translate(-239.264 -320.454)" fill="#eb975d"/>
        </g>
        <path id="Trazado_998365" data-name="Trazado 998365" d="M137.128,177.113a50.39,50.39,0,0,0-1.681,5.184,7.309,7.309,0,0,1,.836,3.822,6.464,6.464,0,0,1-1.425,3.588,43.856,43.856,0,0,1,1.532,9.74h-9.856l5.839-16.528a17.862,17.862,0,0,1,.991-3.661l.014-.041q.032-.09.061-.176c.012-.036.024-.072.037-.106l.061-.175c.237-.675.444-1.232.541-1.491.008-.02.016-.041.022-.057l.032-.085a.04.04,0,0,1,0-.01.009.009,0,0,0,0,0l-6.089-13.191,1.961-2.6a17.613,17.613,0,0,1,8.19-4.3h2.991a14.535,14.535,0,0,0-5.206,2.075c.026.11.051.219.074.329a3.487,3.487,0,0,1-.677,2.778,10.045,10.045,0,0,1-2.4,2.225v.958l2.136,1.788v3.461a7.815,7.815,0,0,1-.177,1.65Z" transform="translate(-112.319 -139.133)" fill="#f696c3"/>
        <path id="Trazado_998366" data-name="Trazado 998366" d="M41.137,334.84c0-4.313-1.879-10.608-1.879-10.608,5.912-4.758-4.722-10.227-4.722-13.413h-12.8V334.84Z" transform="translate(-20.058 -274.526)" fill="#fee95d"/>
        <path id="Trazado_998367" data-name="Trazado 998367" d="M145.81,395.783c-3.587-.133-9.957-.554-12.062-1.859,0,1.473-.509,4.282-2.643,5.266,6.3,1.578,18.441.478,18.441.478A3.884,3.884,0,0,0,145.81,395.783Z" transform="translate(-116.344 -347.688)" fill="#ffdaaa"/>
        <path id="Trazado_998368" data-name="Trazado 998368" d="M21.733,310.818h2.991V334.84H21.733Z" transform="translate(-20.058 -274.526)" fill="#e9ca1c"/>
        <path id="Trazado_998369" data-name="Trazado 998369" d="M103.333,218.35h3.576a4.786,4.786,0,0,0,4.786-4.786V211.5l-2.136-1.788v-3.93h-6.227Z" transform="translate(-91.894 -182.058)" fill="#ffdaaa"/>
        <path id="Trazado_998370" data-name="Trazado 998370" d="M19.292,154.153V132.182c5.978-.8,9.374-4.1,9.25-4.7-.867-4.239-5.814-7.428-10.31-7.428-6.459,0-10.5,5.236-10.5,11.7v17.979a4.427,4.427,0,0,0,4.427,4.427Z" transform="translate(-7.734 -106.585)" fill="#767676"/>
        <path id="Trazado_998371" data-name="Trazado 998371" d="M10.724,149.726V131.747c0-5.924,3.4-10.818,8.943-11.589a10.134,10.134,0,0,0-1.436-.106c-6.459,0-10.5,5.236-10.5,11.7v17.979a4.427,4.427,0,0,0,4.427,4.427h2.991A4.427,4.427,0,0,1,10.724,149.726Z" transform="translate(-7.733 -106.585)" fill="#616161"/>
        <path id="Trazado_998372" data-name="Trazado 998372" d="M210.966,43.317a3.589,3.589,0,0,1-3.59,3.589h-.052a2.44,2.44,0,0,0-2.44,2.44V53.7a3.253,3.253,0,0,0,1.583,2.791s3.205,2.025,4.421,2.029c1.233,0,4.494-2.033,4.494-2.033a3.253,3.253,0,0,0,1.606-2.805V49.347a2.44,2.44,0,0,0-2.44-2.44,3.589,3.589,0,0,1-3.589-3.59h.007Z" transform="translate(-181.295 -39.031)" fill="#eb975d"/>
        <g id="Grupo_1178383" data-name="Grupo 1178383" transform="translate(26.139 13.467)">
          <g id="Grupo_1178379" data-name="Grupo 1178379" transform="translate(11.943 22.825)">
            <path id="Trazado_998373" data-name="Trazado 998373" d="M326.014,334.84c0-4.313,1.879-10.608,1.879-10.608-5.912-4.758,4.721-10.227,4.721-13.413h3.625c7.057,0,9.177,6.593,9.177,10.29V334.84Z" transform="translate(-326.014 -310.818)" fill="#a8e1f8"/>
          </g>
          <path id="Trazado_998374" data-name="Trazado 998374" d="M335.606,310.818h-2.991c0,3.186-10.633,8.656-4.721,13.413,0,0-1.879,6.3-1.879,10.608h2.991c0-4.313,1.879-10.608,1.879-10.608C324.973,319.474,335.606,314,335.606,310.818Z" transform="translate(-314.071 -287.993)" fill="#75d2f5"/>
          <path id="Trazado_998375" data-name="Trazado 998375" d="M338.932,214.828H331.99a4.786,4.786,0,0,1-4.786-4.786v-2.064l2.136-1.788v-4.408h9.592Z" transform="translate(-315.118 -192.003)" fill="#ffdaaa"/>
          <path id="Trazado_998376" data-name="Trazado 998376" d="M337.838,142.877h7.969a4.786,4.786,0,0,0,4.786-4.786v-6.344c0-6.459-4.04-11.7-10.5-11.7-7.166,0-10.31,5.15-10.31,9.779h6.259a1.8,1.8,0,0,1,1.795,1.795v11.251Z" transform="translate(-317.389 -120.052)" fill="#767676"/>
          <g id="Grupo_1178380" data-name="Grupo 1178380" transform="translate(0 32.769)">
            <path id="Trazado_998377" data-name="Trazado 998377" d="M244.661,399.2c-6.295,1.661-18.467.822-18.467.822a4.51,4.51,0,0,1,1.086-2.875,3.7,3.7,0,0,1,2.65-1.368c3.586-.133,9.956-.554,12.062-1.859,0,1.478.512,4.3,2.666,5.277Z" transform="translate(-226.194 -393.924)" fill="#ffdaaa"/>
          </g>
          <g id="Grupo_1178381" data-name="Grupo 1178381" transform="translate(12.395 0)">
            <path id="Trazado_998378" data-name="Trazado 998378" d="M385.085,194.782h-2.991a1.8,1.8,0,0,1,1.795,1.795v12.089h2.991V196.577A1.8,1.8,0,0,0,385.085,194.782Z" transform="translate(-375.835 -185.841)" fill="#616161"/>
            <path id="Trazado_998379" data-name="Trazado 998379" d="M341.513,120.14a11.337,11.337,0,0,0-1.418-.088c-7.166,0-10.31,5.15-10.31,9.779h2.991a9.486,9.486,0,0,1,8.737-9.691Z" transform="translate(-329.785 -120.052)" fill="#616161"/>
          </g>
          <g id="Grupo_1178382" data-name="Grupo 1178382" transform="translate(0 9.779)">
            <path id="Trazado_998380" data-name="Trazado 998380" d="M330.2,210.042v-.988l2.136-2.147v-5.126H329.34v4.408l-2.136,1.788v2.064a4.786,4.786,0,0,0,4.786,4.786h2.991A4.786,4.786,0,0,1,330.2,210.042Z" transform="translate(-315.118 -201.782)" fill="#ffb680"/>
            <path id="Trazado_998381" data-name="Trazado 998381" d="M230.272,410.168a4.771,4.771,0,0,1,1.067-1.22c-.5.025-.975.046-1.408.062a3.7,3.7,0,0,0-2.65,1.368,4.51,4.51,0,0,0-1.086,2.875s1.192.082,3.023.144A7.44,7.44,0,0,1,230.272,410.168Z" transform="translate(-226.194 -384.161)" fill="#ffb680"/>
          </g>
        </g>
        <path id="Trazado_998382" data-name="Trazado 998382" d="M207.874,73.022a3.61,3.61,0,0,1-.5.035h-.052a2.44,2.44,0,0,0-2.44,2.44v4.353a3.253,3.253,0,0,0,1.583,2.791s.615.389,1.408.826Z" transform="translate(-181.294 -65.182)" fill="#b25e1e"/>
      </g>
      <g id="Grupo_1178385" data-name="Grupo 1178385" transform="translate(0.154 0)">
        <path id="Trazado_998383" data-name="Trazado 998383" d="M480.684,462.224h1.795v5.906h-1.795Z" transform="translate(-423.189 -406.919)"/>
        <path id="Trazado_998384" data-name="Trazado 998384" d="M58.257,17.205c-4.817-5.92-15.972-4.6-18.669,2.582a16.557,16.557,0,0,0-3.064-1.4,4.165,4.165,0,0,0,1.125-2.736h.861A2.7,2.7,0,0,0,41.2,12.96V10.476a10.473,10.473,0,1,0-20.946,0V12.96a2.7,2.7,0,0,0,2.692,2.692h.808a4.17,4.17,0,0,0,1.106,2.731,16.25,16.25,0,0,0-2.8,1.249,10.561,10.561,0,0,0-3.469-3.881C9.73,9.839-.2,16,.164,26.495H1.959c-.245-5.891,3.5-11.325,9.6-11.233,3.741-.079,8.533,2.781,9.38,6.483-.565.878-3.431,2.916-7.423,3.707V21.806H11.722v4.689h0V47.569H5.488a3.534,3.534,0,0,1-3.53-3.53V28.415H.164V44.039a5.309,5.309,0,0,0,1.675,3.872v13.3H3.634V49.03a5.3,5.3,0,0,0,1.855.334h4.26c3.081,3.5,4.766,4.031,10.457,4.6a35.268,35.268,0,0,1,1.037,7.25h1.795a35.483,35.483,0,0,0-.965-7.133c1.592.073,3.43.086,5.13.054a108.462,108.462,0,0,0,11.98.08,35.071,35.071,0,0,0-.936,7h1.795a34.969,34.969,0,0,1,1.017-7.16c3.51-.359,6.561-1.026,7.655-1.93,2.193-1.458,5.034-4.766,5.8-7.567l-1.731-.474c-.627,2.29-3.171,5.288-5.063,6.546a7.189,7.189,0,0,1-1.946.827c-1.313-.786-1.776-2.63-1.861-3.89,1.718-1.486,4.008-5.524,4.483-6.38l-1.569-.871c-1.109,2-3.257,5.411-4.3,6.057a8.129,8.129,0,0,1-2.389.8c.256-2.953,5.306-6.238,6.327-9.08H49.4c6.767.02,8.25,6.784,8.25,9.392v5.906h1.795V47.479c0-3.044-1.23-7.094-4.318-9.392A5.735,5.735,0,0,0,61.3,32.4c-.073-5.469.749-10.843-3.044-15.2ZM30.729,7.877A4.483,4.483,0,0,0,34.315,9.67a1.545,1.545,0,0,1,1.543,1.543v4.335a2.364,2.364,0,0,1-1.163,2.031,14,14,0,0,1-4.036,1.909,13.839,13.839,0,0,1-3.946-1.89,2.369,2.369,0,0,1-1.165-2.033V11.212A1.545,1.545,0,0,1,27.091,9.67,4.486,4.486,0,0,0,30.729,7.877Zm8.678,2.6V12.96a.9.9,0,0,1-.9.9h-.857V11.213a3.341,3.341,0,0,0-3.338-3.338,2.684,2.684,0,0,1-2.685-2.692V1.842a8.694,8.694,0,0,1,7.777,8.634Zm-15.654.736v2.645h-.805a.9.9,0,0,1-.9-.9V10.476a8.694,8.694,0,0,1,7.784-8.635l-.007,3.342a2.684,2.684,0,0,1-2.685,2.692A3.343,3.343,0,0,0,23.753,11.212ZM22.416,22.758a1.443,1.443,0,0,0,.269-1.418,13.359,13.359,0,0,1,4.088-1.61,10.449,10.449,0,0,0,3.884,1.553,10.663,10.663,0,0,0,3.935-1.555,13.692,13.692,0,0,1,4.427,1.808,12.382,12.382,0,0,0-.322,3.5h1.827v3.092L38.389,29.92V32.4a5.684,5.684,0,0,0,2.67,4.815c-.422.535-1.018,1.282-1.716,2.139A6.268,6.268,0,0,0,35.965,37.6a6.672,6.672,0,0,0,.62-2.574c.074-1.831,0-7.089,0-7.312l-1.795.024c0,.054.073,5.433,0,7.215-.143,2.264-1.258,3.011-2.331,4.4-1.806,2.107-4.108,4.985-4.543,8.6-1.9-.122-3.574-.294-4.97-.506a5.839,5.839,0,0,0-.916-3,42.6,42.6,0,0,1,1.819-5.613l-2.276-5.005a19.4,19.4,0,0,0,.185-3.921l-2.136-1.788V25.065a9.4,9.4,0,0,0,2.792-2.308Zm8.534,25.3H29.714c.516-3.785,3.147-6.265,5.159-8.8a4.817,4.817,0,0,1,3.311,1.5c-.387.464-.789.94-1.2,1.417-4.626,5.389-5.87,5.843-6.036,5.881ZM18.938,46.37c-1.278-.792-3.943-4.692-5.421-7.115V38.087h1.3c1.016,2.83,6.025,6.1,6.323,9.039A7.677,7.677,0,0,1,18.938,46.37Zm1.605-10.46,1.364,3c-.286.767-.845,2.3-1.242,3.651-1.178-1.449-2.981-3.086-3.9-4.517A5.682,5.682,0,0,0,20.544,35.91Zm-2.715-9.933v2.993l2.136,1.788V32.4a3.893,3.893,0,0,1-3.889,3.889H13.517V27.264A18.984,18.984,0,0,0,17.829,25.978ZM12.212,49.363h1.3V42.58a26.556,26.556,0,0,0,4.035,5c-.086,1.254-.546,3.076-1.84,3.867A6.994,6.994,0,0,1,12.212,49.363Zm5.654,2.523a7.289,7.289,0,0,0,1.394-3.421,36.729,36.729,0,0,0,8.362,1.278,5.38,5.38,0,0,0-1.241,2.6,54.819,54.819,0,0,1-8.515-.461Zm10.341.512a3.249,3.249,0,0,1,2.762-2.509c3.8-.141,8.541-.5,11.234-1.424a7.255,7.255,0,0,0,1.426,3.46A81.877,81.877,0,0,1,28.207,52.4ZM42.36,40.619c-1.921,2.062-4.066,4.368-4.023,6.865-1.224.18-2.656.329-4.256.443a111.818,111.818,0,0,0,8.7-9.991,6.669,6.669,0,0,0,1.716.151,20.375,20.375,0,0,1-2.134,2.532Zm1.712-4.327A3.893,3.893,0,0,1,40.183,32.4V30.758l2.136-1.788v-3.93h3.534a.9.9,0,0,1,.9.9V36.292ZM59.506,32.4a3.893,3.893,0,0,1-3.889,3.889c-.035,0-7.071,0-7.071,0V25.938a2.7,2.7,0,0,0-2.692-2.692H40.535c.385-4,3.353-7.984,9.369-7.984,5.653,0,9.6,4.44,9.6,10.8Z" transform="translate(-0.154 0)"/>
      </g>
      <g id="Grupo_1178386" data-name="Grupo 1178386" transform="translate(27.536 28.169)">
        <path id="Trazado_998385" data-name="Trazado 998385" d="M229,235.425H230.8v1.795H229Z" transform="translate(-229.001 -235.425)" fill="#fff"/>
        <path id="Trazado_998386" data-name="Trazado 998386" d="M259,235.425H260.8v1.795H259Z" transform="translate(-255.412 -235.425)" fill="#fff"/>
      </g>
    </g>
  </g>
</svg>
