<svg xmlns="http://www.w3.org/2000/svg" width="128" height="128" viewBox="0 0 128 128">
  <g id="Grupo_1178369" data-name="Grupo 1178369" transform="translate(-72.746 -7992)">
    <g id="Elipse_13628" data-name="Elipse 13628" transform="translate(72.746 7992)" fill="#fff7e2" stroke="#cff878" stroke-width="6">
      <circle cx="64" cy="64" r="64" stroke="none"/>
      <circle cx="64" cy="64" r="61" fill="none"/>
    </g>
    <g id="Grupo_1178393" data-name="Grupo 1178393" transform="translate(102.321 8021.572)">
      <g id="Grupo_1178391" data-name="Grupo 1178391" transform="translate(1.083 1.011)">
        <g id="Grupo_1178388" data-name="Grupo 1178388" transform="translate(3.761 0.928)">
          <path id="Trazado_998387" data-name="Trazado 998387" d="M184.1,197.43a27.727,27.727,0,0,1,.395,12.837l.286.491c2.928-3.023,6.11-8.39.26-14.287l-.16-.054-.781.254v.76Z" transform="translate(-164.184 -171.939)" fill="#00f4a8"/>
          <path id="Trazado_998388" data-name="Trazado 998388" d="M195.529,175.915a28.737,28.737,0,0,1,10.892,9.816l.543.411c.1-4.846-1.488-11.947-11.665-11.818l-.216.171-.137.674Z" transform="translate(-173.576 -152.816)" fill="#00f4a8"/>
          <path id="Trazado_998389" data-name="Trazado 998389" d="M113.8,14.4l-.161.776s7.21,10.01,6.195,18.745l.211.249.852-.482.143-.244C126.3,21.6,119.388,16.513,113.8,14.4Z" transform="translate(-103.204 -14.395)" fill="#00f4a8"/>
          <path id="Trazado_998390" data-name="Trazado 998390" d="M36.026,93.643s7.452,1.2,12.069,5.351l.825.74,1.394-.432.231-.25c-4.055-8.364-10.2-7.746-14.519-5.86Z" transform="translate(-36.026 -81.571)" fill="#00f4a8"/>
          <path id="Trazado_998391" data-name="Trazado 998391" d="M41.858,169.013c-3.907.628-5.495,6.981-5.495,6.981l.228.358a22.241,22.241,0,0,1,10.928-5.929l.152-.263-.075-1.406A23.126,23.126,0,0,0,41.858,169.013Z" transform="translate(-36.318 -147.932)" fill="#00f4a8"/>
        </g>
        <path id="Trazado_998392" data-name="Trazado 998392" d="M14.338,101.078a.72.72,0,0,1-.448-.268,20.6,20.6,0,0,0-3.109,1.707.733.733,0,0,0,.422,1.343,24.434,24.434,0,0,1,14.18,3.833h.308l1.408-.437a24.649,24.649,0,0,0-12.76-6.177Z" transform="translate(-10.129 -88.262)" fill="#00e49d"/>
        <path id="Trazado_998393" data-name="Trazado 998393" d="M95.775,27.888c.129-4.016-.669-11.366-6.587-19.464a25.485,25.485,0,0,0-2.9-.9.875.875,0,0,0-.841,1.456c6.41,6.756,7.952,13.42,8.269,17.1l.162.285,1.552,1.827.38-.215Z" transform="translate(-74.828 -7.497)" fill="#00e49d"/>
        <path id="Trazado_998394" data-name="Trazado 998394" d="M201.208,141.434s-4.731-5.4-10.009-5.1a13.294,13.294,0,0,0-7.82,3.511l1.333.9.359.051a26.826,26.826,0,0,1,16.136,1.4v-.762Z" transform="translate(-159.803 -119.001)" fill="#00f4a8"/>
        <path id="Trazado_998395" data-name="Trazado 998395" d="M175.852,126.655c7.883-6.513,14.157-1.792,17.481,2.114l.194.074a.808.808,0,0,0,.955-1.225c-3.026-4.171-10.525-11.766-20.2-2.15l.19.254Z" transform="translate(-151.928 -105.574)" fill="#00e49d"/>
        <path id="Trazado_998396" data-name="Trazado 998396" d="M192.831,181.512l-.3,1.476.084.266c2.827,1.394,7.412,4.561,10.738,11.331a.733.733,0,0,0,1.388-.237,21.5,21.5,0,0,0,.137-2.311A25.672,25.672,0,0,0,192.831,181.512Z" transform="translate(-167.723 -158.112)" fill="#00e49d"/>
        <path id="Trazado_998397" data-name="Trazado 998397" d="M29.985,163.83c1.241-3.715,4.2-8.635,11.022-7.265l-.094-1.753-.162-.253c-8.284-1.991-11.1,5.039-12,8.766a.66.66,0,0,0,1.1.628l.131-.124Z" transform="translate(-25.951 -134.482)" fill="#00e49d"/>
        <path id="Trazado_998398" data-name="Trazado 998398" d="M173.539,212.407a21.762,21.762,0,0,0-.821-13.789l-1.285.418-.335.278a21.737,21.737,0,0,1,.065,13.88.66.66,0,0,0,1.061.7c.405-.348.851-.759,1.3-1.225A.675.675,0,0,1,173.539,212.407Z" transform="translate(-149.173 -172.918)" fill="#00e49d"/>
        <path id="Trazado_998399" data-name="Trazado 998399" d="M325.754,371.238a5.115,5.115,0,0,1-6.223-.8,1.41,1.41,0,0,0-2,0,5.114,5.114,0,0,1-7.256,0,1.41,1.41,0,0,0-2,0,5.114,5.114,0,0,1-7.256,0,1.41,1.41,0,0,0-1.9-.1v1.078l5.227,9.346h21.684l.782-1.817v-7.11a.7.7,0,0,0-1.056-.6Z" transform="translate(-259.977 -321.268)" fill="#60b9fe"/>
        <path id="Trazado_998400" data-name="Trazado 998400" d="M271.917,372.494a5.1,5.1,0,0,1-3.628,1.51c-.16,0-.318-.008-.473-.023v.267l6.486,8.127.617.445h4.545a37.589,37.589,0,0,0-7.439-10.424A1.42,1.42,0,0,0,271.917,372.494Z" transform="translate(-232.884 -323.327)" fill="#1ca8ff"/>
        <path id="Trazado_998401" data-name="Trazado 998401" d="M367.867,435.4a5.1,5.1,0,0,1-3.628-1.51,1.41,1.41,0,0,0-2,0,5.114,5.114,0,0,1-7.256,0,1.41,1.41,0,0,0-2,0,5.11,5.11,0,0,1-2.206,1.308l2.165,7.3.976.526h15.816a1.79,1.79,0,0,0,1.79-1.79v-7.367A5.1,5.1,0,0,1,367.867,435.4Z" transform="translate(-304.685 -376.187)" fill="#8bcaff"/>
        <path id="Trazado_998402" data-name="Trazado 998402" d="M320.061,443.742a37.461,37.461,0,0,0-2.624-6.821,5.113,5.113,0,0,1-5.271-1.239,1.429,1.429,0,0,0-.163-.139v.2l3.6,8.545.568.532h4.185Z" transform="translate(-271.131 -377.984)" fill="#60b9fe"/>
        <path id="Trazado_998403" data-name="Trazado 998403" d="M400.467,219.755a6.472,6.472,0,0,0,0,11.811,6.217,6.217,0,0,0,0-11.811Z" transform="translate(-344.39 -191.212)" fill="#ffc365"/>
        <path id="Trazado_998404" data-name="Trazado 998404" d="M368.891,223.654a6.218,6.218,0,0,1,3.966-5.8,6.217,6.217,0,1,0,0,11.59A6.218,6.218,0,0,1,368.891,223.654Z" transform="translate(-316.472 -189.206)" fill="#ffa90f"/>
        <path id="Trazado_998405" data-name="Trazado 998405" d="M50.555,322l-2.349,1.326-3.822-.284-.573-.845a33.485,33.485,0,0,0-4.033.78v22.083a1.619,1.619,0,0,0,.972,1.479h39.8A33.614,33.614,0,0,0,50.555,322Z" transform="translate(-35.513 -279.712)" fill="#ffdda8"/>
        <g id="Grupo_1178389" data-name="Grupo 1178389" transform="translate(0 43.201)">
          <path id="Trazado_998406" data-name="Trazado 998406" d="M12.589,350.911V328.758a33.313,33.313,0,0,0-3.341,1.017,1.813,1.813,0,0,0-1.194,1.7v6.781l.815.683.09,8.382-.9,1.447v1.807a1.811,1.811,0,0,0,1.811,1.811h3.7A1.618,1.618,0,0,1,12.589,350.911Z" transform="translate(-8.054 -328.758)" fill="#ffc365"/>
        </g>
        <path id="Trazado_998407" data-name="Trazado 998407" d="M27.516,186.166l-.6.122-.582,2.271-8.562,16.507L8.757,217.7l-.7,1.87v5.786c13.88-13.129,19.094-29.857,20.8-37.164v-.429Z" transform="translate(-8.054 -162.14)" fill="#dd8858"/>
        <g id="Grupo_1178390" data-name="Grupo 1178390" transform="translate(0 24.031)">
          <path id="Trazado_998408" data-name="Trazado 998408" d="M27.491,186.2l-2.009.408-.42.366c-1.4,4.923-5.565,15.779-17.008,27.9V219.6c13.14-14.559,17.826-27.259,19.437-33.4Z" transform="translate(-8.054 -186.203)" fill="#cb6c35"/>
        </g>
        <path id="Trazado_998409" data-name="Trazado 998409" d="M171.57,157.453a3.33,3.33,0,0,0,0,5.982,3.261,3.261,0,0,0,0-5.982Z" transform="translate(-147.967 -137.288)" fill="#938493"/>
        <path id="Trazado_998410" data-name="Trazado 998410" d="M154.26,159.728a3.262,3.262,0,0,1,1.725-3.992,3.29,3.29,0,0,0-.337-.134,3.253,3.253,0,0,0-2.66.268l-.214.233-1.156,3.642v.234a3.259,3.259,0,0,0,4.367,1.676A3.251,3.251,0,0,1,154.26,159.728Z" transform="translate(-132.313 -135.541)" fill="#7b6c79"/>
        <path id="Trazado_998411" data-name="Trazado 998411" d="M136.9,145.743a3.423,3.423,0,0,0,0,6.046,3.261,3.261,0,0,0,0-6.046Z" transform="translate(-117.998 -127.153)" fill="#938493"/>
        <path id="Trazado_998412" data-name="Trazado 998412" d="M118.177,146.191a3.252,3.252,0,0,1,1.715-1.923,3.322,3.322,0,0,0-.349-.14,3.262,3.262,0,1,0,.348,6.049A3.261,3.261,0,0,1,118.177,146.191Z" transform="translate(-100.834 -125.609)" fill="#7b6c79"/>
      </g>
      <g id="Grupo_1178392" data-name="Grupo 1178392" transform="translate(0 0.003)">
        <path id="Trazado_998413" data-name="Trazado 998413" d="M66.273,50.112a4.1,4.1,0,0,1-4.995-.646,2.417,2.417,0,0,0-3.434,0,4.1,4.1,0,0,1-5.825,0,2.417,2.417,0,0,0-3.434,0,4.1,4.1,0,0,1-5.825,0,2.417,2.417,0,0,0-3.434,0,4.072,4.072,0,0,1-2.983,1.21,34.55,34.55,0,0,0-18.77-8.246,81.879,81.879,0,0,0,4.806-13.465A21.191,21.191,0,0,1,22.033,41a1.669,1.669,0,0,0,2.684,1.751c4.24-3.642,6.689-8.5,4.2-13.5a24.661,24.661,0,0,1,6.819,8.679,1.742,1.742,0,0,0,3.3-.569c.712-6.315-1.1-12.208-7.231-14.2a28.1,28.1,0,0,1,10.443,2.06,1.817,1.817,0,0,0,2.139-2.757c-5.324-7.337-12.49-9.765-19.725-4.057C27.636,8.673,22.262,2.425,12.713.06a1.868,1.868,0,0,0-2.079.879A1.876,1.876,0,0,0,10.9,3.189a29.384,29.384,0,0,1,7.261,12.463C13.676,9.909,7.187,10.392,1.1,14.425a1.741,1.741,0,0,0,.965,3.192H2.1a24.777,24.777,0,0,1,10.83,2.123c-5.607.079-8.8,4.469-10.1,9.879A1.669,1.669,0,0,0,5.611,31.21a21.609,21.609,0,0,1,9.963-5.66,4.222,4.222,0,0,0,1.2.894,61.21,61.21,0,0,1-8.041,16.12,34.473,34.473,0,0,0-6.877,1.717A2.83,2.83,0,0,0,0,46.932v19.1a2.822,2.822,0,0,0,2.819,2.819H21.176a1.009,1.009,0,0,0,0-2.017H2.819a.8.8,0,0,1-.8-.8V64.658a71.739,71.739,0,0,0,14.64-20.294A32.617,32.617,0,0,1,44.7,66.835H25.882a1.009,1.009,0,1,0,0,2.017H66.051a2.8,2.8,0,0,0,2.8-2.8V51.576a1.706,1.706,0,0,0-2.577-1.464ZM24.291,40.4a22.765,22.765,0,0,0,0-12.08,4.3,4.3,0,0,0,1.217-.5C29.275,32.1,28.352,36.423,24.291,40.4Zm12.817-4.216A24.989,24.989,0,0,0,27.282,25.74a4.414,4.414,0,0,0,.29-1.27C34.589,24.772,37.577,29.113,37.108,36.186ZM42.333,23.1a29.9,29.9,0,0,0-10.422-1.955,25.023,25.023,0,0,0-5.142.523,4.272,4.272,0,0,0-1.4-1.236l0,0C31.532,15.2,37.4,16.713,42.333,23.1ZM25.45,24.88a2.266,2.266,0,0,1-3.794.814A4.284,4.284,0,0,0,22.9,21.952,2.256,2.256,0,0,1,25.45,24.88ZM12.671,2.132c9.185,2.454,13.195,8.335,9.3,17.766a4.258,4.258,0,0,0-1.128-.958c-.412-3.66-2.056-10.2-8.175-16.808Zm-7.564,26.8c1.459-4.726,4.459-7.777,9.377-7.073a4.275,4.275,0,0,0,.074,1.866A23.475,23.475,0,0,0,5.107,28.932ZM3.023,15.6c5.882-3.521,11.1-3.075,14.622,2.884a4.269,4.269,0,0,0-1.483.7A25.446,25.446,0,0,0,3.023,15.6ZM16.44,22.47a2.253,2.253,0,0,1,2.371-2.1h0a2.253,2.253,0,1,1-2.375,2.1ZM2.017,46.932a.807.807,0,0,1,.53-.756A32.407,32.407,0,0,1,7.075,44.9c-1.552,2.111-3.244,4.193-5.057,6.226h0Zm0,14.883v-7.7C9.2,46.448,15.7,36.849,18.749,26.894a4.469,4.469,0,0,0,1.142-.173,4.444,4.444,0,0,0,.773.8c-3.008,12.267-9.431,24.9-18.647,34.3Zm64.816,4.238a.783.783,0,0,1-.782.782H46.809a34.614,34.614,0,0,0-2.293-5.715,6.108,6.108,0,0,0,5.5-1.7.4.4,0,0,1,.572,0,6.119,6.119,0,0,0,8.687,0,.4.4,0,0,1,.572,0,6.126,6.126,0,0,0,6.985,1.212Zm0-7.806A4.1,4.1,0,0,1,61.278,58a2.417,2.417,0,0,0-3.434,0,4.1,4.1,0,0,1-5.825,0,2.418,2.418,0,0,0-3.434,0,4.1,4.1,0,0,1-5.825,0c-.034-.035-.071-.068-.11-.1a34.75,34.75,0,0,0-4.433-5.471,6.091,6.091,0,0,0,2.539-1.539.4.4,0,0,1,.572,0,6.119,6.119,0,0,0,8.687,0,.4.4,0,0,1,.572,0,6.119,6.119,0,0,0,8.687,0,.4.4,0,0,1,.572,0A6.117,6.117,0,0,0,66.833,52.1v6.15Z" transform="translate(0 -0.003)"/>
        <path id="Trazado_998414" data-name="Trazado 998414" d="M477.161,258.188h1.647a1.009,1.009,0,0,0,0-2.017h-1.647a1.009,1.009,0,0,0,0,2.017Z" transform="translate(-412.123 -221.724)"/>
        <path id="Trazado_998415" data-name="Trazado 998415" d="M319.388,256.171h-1.647a1.009,1.009,0,0,0,0,2.017h1.647a1.009,1.009,0,1,0,0-2.017Z" transform="translate(-274.141 -221.724)"/>
        <path id="Trazado_998416" data-name="Trazado 998416" d="M456.321,198.363l1.165-1.165a1.008,1.008,0,1,0-1.426-1.426l-1.165,1.165a1.008,1.008,0,0,0,1.426,1.426Z" transform="translate(-393.469 -169.191)"/>
        <path id="Trazado_998417" data-name="Trazado 998417" d="M343.6,311.09l1.165-1.165a1.008,1.008,0,1,0-1.426-1.426l-1.165,1.165a1.008,1.008,0,0,0,1.426,1.426Z" transform="translate(-295.901 -266.76)"/>
        <path id="Trazado_998418" data-name="Trazado 998418" d="M404.584,172.992v-1.647a1.009,1.009,0,1,0-2.017,0v1.647a1.009,1.009,0,1,0,2.017,0Z" transform="translate(-348.433 -147.431)"/>
        <path id="Trazado_998419" data-name="Trazado 998419" d="M402.567,330.765v1.647a1.009,1.009,0,1,0,2.017,0v-1.647a1.009,1.009,0,1,0-2.017,0Z" transform="translate(-348.433 -285.414)"/>
        <path id="Trazado_998420" data-name="Trazado 998420" d="M343.332,198.363a1.009,1.009,0,1,0,1.426-1.426l-1.165-1.165a1.009,1.009,0,1,0-1.426,1.426Z" transform="translate(-295.9 -169.191)"/>
        <path id="Trazado_998421" data-name="Trazado 998421" d="M456.059,311.09a1.009,1.009,0,1,0,1.426-1.426l-1.165-1.165a1.009,1.009,0,0,0-1.426,1.426Z" transform="translate(-393.469 -266.76)"/>
        <path id="Trazado_998422" data-name="Trazado 998422" d="M370.208,220a1.009,1.009,0,0,0-1.855-.792,5.21,5.21,0,1,1,.057-3.942,1.009,1.009,0,0,0,1.878-.737,7.224,7.224,0,1,0-.08,5.471Z" transform="translate(-308.418 -181.708)"/>
      </g>
    </g>
  </g>
</svg>
