<svg xmlns="http://www.w3.org/2000/svg" width="128" height="128" viewBox="0 0 128 128">
  <g id="Grupo_1178371" data-name="Grupo 1178371" transform="translate(-72.746 -7992)">
    <g id="Elipse_13628" data-name="Elipse 13628" transform="translate(72.746 7992)" fill="#fff7e2" stroke="#cff878" stroke-width="6">
      <circle cx="64" cy="64" r="64" stroke="none"/>
      <circle cx="64" cy="64" r="61" fill="none"/>
    </g>
    <g id="Grupo_1178413" data-name="Grupo 1178413" transform="translate(100.563 8020.251)">
      <g id="Grupo_1178411" data-name="Grupo 1178411" transform="translate(1.159 1.159)">
        <g id="Grupo_1178394" data-name="Grupo 1178394" transform="translate(19.882 48.627)">
          <path id="Trazado_998423" data-name="Trazado 998423" d="M19.133,43A12.812,12.812,0,0,1,30.719,50.35v.012a12.526,12.526,0,0,1,1.159,4.171v.058H26.085l-2.2-7.322a5.85,5.85,0,0,0-2.155-3.082A5.944,5.944,0,0,0,18.16,43V42.97q.487.035.973.035Z" transform="translate(-18.16 -42.97)" fill="#e6e9ed"/>
        </g>
        <g id="Grupo_1178395" data-name="Grupo 1178395" transform="translate(13.903 48.662)">
          <path id="Trazado_998424" data-name="Trazado 998424" d="M26.9,54.586h9.269V62.7a1.162,1.162,0,0,1-1.159,1.159H25.988a1.712,1.712,0,0,1-.243-.012A11.567,11.567,0,0,1,14.993,55.93L13.3,50.867a6.079,6.079,0,0,1-.3-1.889,5.978,5.978,0,0,1,9.547-4.8A5.85,5.85,0,0,1,24.7,47.264Z" transform="translate(-13 -43)" fill="#e6e9ed"/>
        </g>
        <g id="Grupo_1178396" data-name="Grupo 1178396" transform="translate(13.903 54.64)">
          <path id="Trazado_998425" data-name="Trazado 998425" d="M14.993,55.112a11.567,11.567,0,0,0,10.752,7.913v.012H13V48.16a6.079,6.079,0,0,0,.3,1.889Z" transform="translate(-13 -48.16)" fill="#e6e9ed"/>
        </g>
        <g id="Grupo_1178397" data-name="Grupo 1178397">
          <path id="Trazado_998426" data-name="Trazado 998426" d="M15,17.591,7.975,20.024A3.468,3.468,0,0,0,5.634,23.3v3.186H4.476a3.356,3.356,0,0,0-1.483.336l-.742-1.842A17.486,17.486,0,0,1,18.483,1h6.743A17.487,17.487,0,0,1,41.459,24.983l-.742,1.842a3.356,3.356,0,0,0-1.483-.336H38.076V23.153A3.471,3.471,0,0,0,34.6,19.677H21.206A10.251,10.251,0,0,1,15,17.591Z" transform="translate(-1 -1)" fill="#656d78"/>
        </g>
        <g id="Grupo_1178398" data-name="Grupo 1178398" transform="translate(4.634 16.591)">
          <path id="Trazado_998427" data-name="Trazado 998427" d="M32.3,43.022A16.241,16.241,0,0,1,21.221,47.39q-.487,0-.973-.035A16.213,16.213,0,0,1,5,31.17V21.032a3.468,3.468,0,0,1,2.34-3.279l7.021-2.433a10.251,10.251,0,0,0,6.21,2.085H33.965a3.471,3.471,0,0,1,3.476,3.476V31.17a16.141,16.141,0,0,1-1.865,7.566A8.089,8.089,0,0,0,29.331,35.8H21.5a9.794,9.794,0,0,0,0,4.634h6.674a4.614,4.614,0,0,1,4.148,2.572Z" transform="translate(-5 -15.32)" fill="#f0d0b4"/>
        </g>
        <g id="Grupo_1178399" data-name="Grupo 1178399" transform="translate(40.551 53.296)">
          <path id="Trazado_998428" data-name="Trazado 998428" d="M48.745,50.476A10.428,10.428,0,0,1,38.317,60.9H36a3.476,3.476,0,0,0,0-6.952,3.481,3.481,0,0,0,3.476-3.476V47h9.269Z" transform="translate(-36 -47)" fill="#fcd770"/>
        </g>
        <g id="Grupo_1178400" data-name="Grupo 1178400" transform="translate(20.855 37.076)">
          <path id="Trazado_998429" data-name="Trazado 998429" d="M35.221,52.7A3.471,3.471,0,0,0,38.7,56.172H31.745v-.058a12.526,12.526,0,0,0-1.159-4.171V42.269a4.641,4.641,0,0,0-4.634-4.634H19.278a9.794,9.794,0,0,1,0-4.634H27.11a8.1,8.1,0,0,1,8.11,8.11V52.7Z" transform="translate(-19 -33)" fill="#fcd770"/>
        </g>
        <g id="Grupo_1178401" data-name="Grupo 1178401" transform="translate(41.71 48.662)">
          <path id="Trazado_998430" data-name="Trazado 998430" d="M50.9,44.159v2.317a1.162,1.162,0,0,1-1.159,1.159H38.159A1.162,1.162,0,0,1,37,46.476V44.159A1.162,1.162,0,0,1,38.159,43H49.745A1.162,1.162,0,0,1,50.9,44.159Z" transform="translate(-37 -43)" fill="#ffc729"/>
        </g>
        <g id="Grupo_1178402" data-name="Grupo 1178402" transform="translate(37.076 60.248)">
          <path id="Trazado_998431" data-name="Trazado 998431" d="M36.476,53a3.476,3.476,0,0,1,0,6.952H33V53Z" transform="translate(-33 -53)" fill="#f0d0b4"/>
        </g>
        <g id="Grupo_1178403" data-name="Grupo 1178403" transform="translate(37.076 25.489)">
          <path id="Trazado_998432" data-name="Trazado 998432" d="M35.642,23.336a3.475,3.475,0,0,1-1.483,6.616H33V23h1.159a3.356,3.356,0,0,1,1.483.336Z" transform="translate(-33 -23)" fill="#f0d0b4"/>
        </g>
        <g id="Grupo_1178404" data-name="Grupo 1178404" transform="translate(0 25.489)">
          <path id="Trazado_998433" data-name="Trazado 998433" d="M5.634,23v6.952H4.476a3.474,3.474,0,0,1-1.483-6.616A3.356,3.356,0,0,1,4.476,23Z" transform="translate(-1 -23)" fill="#f0d0b4"/>
        </g>
        <g id="Grupo_1178405" data-name="Grupo 1178405" transform="translate(63.724 42.869)">
          <path id="Trazado_998434" data-name="Trazado 998434" d="M59.476,38v1.738A1.738,1.738,0,1,1,57.738,38Z" transform="translate(-56 -38)" fill="#ff826e"/>
        </g>
        <g id="Grupo_1178406" data-name="Grupo 1178406" transform="translate(57.931 31.283)">
          <path id="Trazado_998435" data-name="Trazado 998435" d="M60.269,29.159v3.476H51V29.159A1.162,1.162,0,0,1,52.159,28H59.11A1.162,1.162,0,0,1,60.269,29.159Z" transform="translate(-51 -28)" fill="#ff826e"/>
        </g>
        <g id="Grupo_1178407" data-name="Grupo 1178407" transform="translate(54.455 40.551)">
          <path id="Trazado_998436" data-name="Trazado 998436" d="M51.476,36v1.738A1.738,1.738,0,1,1,49.738,36Z" transform="translate(-48 -36)" fill="#ff826e"/>
        </g>
        <g id="Grupo_1178408" data-name="Grupo 1178408" transform="translate(60.248 5.793)">
          <path id="Trazado_998437" data-name="Trazado 998437" d="M59.952,7.159V9.476a1.162,1.162,0,0,1-1.159,1.159H53V7.159A1.162,1.162,0,0,1,54.159,6h4.634A1.162,1.162,0,0,1,59.952,7.159Z" transform="translate(-53 -6)" fill="#ff826e"/>
        </g>
        <g id="Grupo_1178409" data-name="Grupo 1178409" transform="translate(56.772 15.062)">
          <path id="Trazado_998438" data-name="Trazado 998438" d="M53.476,14v1.738A1.738,1.738,0,1,1,51.738,14Z" transform="translate(-50 -14)" fill="#ff826e"/>
        </g>
        <g id="Grupo_1178410" data-name="Grupo 1178410" transform="translate(49.82 20.855)">
          <path id="Trazado_998439" data-name="Trazado 998439" d="M47.476,20.738v1.738H45.738a1.738,1.738,0,1,1,1.738-1.738Z" transform="translate(-44 -19)" fill="#ff826e"/>
        </g>
      </g>
      <g id="Grupo_1178412" data-name="Grupo 1178412" transform="translate(0 0)">
        <path id="Trazado_998440" data-name="Trazado 998440" d="M12.634,24.317A2.32,2.32,0,0,1,10.317,22H8a4.634,4.634,0,1,0,9.269,0H14.952A2.32,2.32,0,0,1,12.634,24.317Z" transform="translate(1.269 3.489)"/>
        <path id="Trazado_998441" data-name="Trazado 998441" d="M26.634,26.634A4.639,4.639,0,0,0,31.269,22H28.952a2.317,2.317,0,0,1-4.634,0H22A4.639,4.639,0,0,0,26.634,26.634Z" transform="translate(3.489 3.489)"/>
        <path id="Trazado_998442" data-name="Trazado 998442" d="M55.613,48.662H44.027a2.32,2.32,0,0,0-2.317,2.317H39.393V48.662H41.71V46.345H39.393a9.214,9.214,0,0,0-.3-2.317H41.71V41.71H38.139q-.205-.355-.439-.688a17.385,17.385,0,0,0,1.622-6.263h.071a4.614,4.614,0,0,0,2.91-8.211l.39-.976A18.647,18.647,0,0,0,25.382,0H18.647A18.647,18.647,0,0,0,1.334,25.572l.39.977a4.613,4.613,0,0,0,2.91,8.21h.059A17.4,17.4,0,0,0,16.706,50.142,7.125,7.125,0,0,0,13.9,55.8V71.834h13.9v-.009c.08,0,.16.009.241.009h9.028a2.32,2.32,0,0,0,2.317-2.317h4.634A11.6,11.6,0,0,0,55.613,57.931V55.613A2.32,2.32,0,0,0,57.931,53.3V50.979a2.32,2.32,0,0,0-2.317-2.317ZM41.71,53.3a2.32,2.32,0,0,0,2.317,2.317v2.317a2.317,2.317,0,1,1-4.634,0V53.3Zm-13.832.453a7.239,7.239,0,0,0-.709-1.573A11.628,11.628,0,0,1,33.4,60.248H29.828ZM32.441,47.5V53.33a13.917,13.917,0,0,0-4.572-3.381,17.278,17.278,0,0,0,4.572-2.455A.025.025,0,0,0,32.441,47.5Zm3.319,12.745a13.933,13.933,0,0,0-1-3.312V47.5a5.8,5.8,0,0,0-5.793-5.793H23.259a7.767,7.767,0,0,1,0-2.317h6.865a6.959,6.959,0,0,1,6.952,6.952V57.931a4.587,4.587,0,0,0,.644,2.317Zm3.632-27.807V27.807a2.317,2.317,0,0,1,0,4.634ZM2.317,30.124a2.32,2.32,0,0,1,2.317-2.317v4.634A2.32,2.32,0,0,1,2.317,30.124Zm2.317-6.659v2.024a4.616,4.616,0,0,0-.805.081l-.344-.86A16.329,16.329,0,0,1,18.646,2.317h6.735A16.329,16.329,0,0,1,40.542,24.711l-.344.86a4.616,4.616,0,0,0-.805-.081V23.308a4.639,4.639,0,0,0-4.634-4.634H21.36a9.105,9.105,0,0,1-8.672-6.289l-2.2.719a11.444,11.444,0,0,0,2.453,4.185l-5.186,1.8A4.64,4.64,0,0,0,4.634,23.465ZM6.952,33.6V23.465a2.318,2.318,0,0,1,1.558-2.19l6.462-2.237a11.41,11.41,0,0,0,6.389,1.952h13.4a2.32,2.32,0,0,1,2.317,2.317V33.6a15.131,15.131,0,0,1-1.081,5.579,9.228,9.228,0,0,0-5.871-2.1H23.917c.058-.132.105-.268.17-.4l.122-.244L22.136,35.4l-.123.246a10.974,10.974,0,0,0,0,9.816l.122.244,2.073-1.037-.122-.244c-.064-.129-.112-.264-.17-.4h5.049a3.452,3.452,0,0,1,2.6,1.2A15.044,15.044,0,0,1,6.952,33.6Zm9.269,35.917v-5.7a12.708,12.708,0,0,0,4.5,5.7Zm20.855,0H28.048a10.415,10.415,0,0,1-9.892-7.13l-1.687-5.06a4.821,4.821,0,1,1,9.19-2.913l2,6.663-1.828,1.828,1.638,1.638,1.978-1.979h7.631ZM39.393,67.2V62.565H41.71a2.317,2.317,0,1,1,0,4.634Zm13.9-9.269a9.281,9.281,0,0,1-7.5,9.1,4.529,4.529,0,0,0-1.051-5.619,4.6,4.6,0,0,0,1.6-3.476V55.613H53.3ZM44.027,53.3V50.979H55.613V53.3Z" transform="translate(0 0)"/>
        <path id="Trazado_998443" data-name="Trazado 998443" d="M59.745,27H52.793a2.32,2.32,0,0,0-2.317,2.317v6.952H49.9a2.9,2.9,0,1,0,2.9,2.9V33.952h6.952v4.634h-.579a2.9,2.9,0,1,0,2.9,2.9V29.317A2.32,2.32,0,0,0,59.745,27ZM50.476,39.165a.579.579,0,1,1-.579-.579h.579Zm9.269,2.317a.579.579,0,1,1-.579-.579h.579Zm-6.952-9.848V29.317h6.952v2.317Z" transform="translate(7.455 4.283)"/>
        <path id="Trazado_998444" data-name="Trazado 998444" d="M39.062,36.779l.437.874a7.787,7.787,0,0,1,.818,3.465v1.373h2.317V41.118a10.12,10.12,0,0,0-1.062-4.5l-.437-.874a7.779,7.779,0,0,1-.818-3.464,7.7,7.7,0,0,1,2.27-5.479l.867-.867-1.638-1.638-.867.867A9.995,9.995,0,0,0,38,32.278,10.118,10.118,0,0,0,39.062,36.779Z" transform="translate(6.027 3.853)"/>
        <path id="Trazado_998445" data-name="Trazado 998445" d="M43.5,38.878l1.636,1.641.214-.213a4.394,4.394,0,0,0,.548-5.54l-1.232-1.846a2.068,2.068,0,0,1-.349-1.152,2.09,2.09,0,0,1,.607-1.467l1.371-1.371-1.638-1.638-1.372,1.371a4.4,4.4,0,0,0-.548,5.542l1.232,1.846a2.068,2.068,0,0,1,.349,1.152,2.089,2.089,0,0,1-.606,1.466Z" transform="translate(6.662 4.329)"/>
        <path id="Trazado_998446" data-name="Trazado 998446" d="M45.9,23.793h.579v4.634h2.317V20.9a2.9,2.9,0,1,0-2.9,2.9Zm0-3.476a.58.58,0,0,1,.579.579v.579H45.9a.579.579,0,1,1,0-1.159Z" transform="translate(6.82 2.855)"/>
        <path id="Trazado_998447" data-name="Trazado 998447" d="M51.9,20.062a2.9,2.9,0,0,0,2.9-2.9V11.952h4.634a2.32,2.32,0,0,0,2.317-2.317V7.317A2.32,2.32,0,0,0,59.428,5H54.793a2.32,2.32,0,0,0-2.317,2.317v6.952H51.9a2.9,2.9,0,0,0,0,5.793Zm2.9-12.745h4.634V9.634H54.793Zm-2.9,9.269h.579v.579a.579.579,0,1,1-.579-.579Z" transform="translate(7.772 0.793)"/>
        <path id="Trazado_998448" data-name="Trazado 998448" d="M62.3,14.534l-1.241-1.241-1.638,1.638,1.241,1.241a2.516,2.516,0,0,1-1.365,4.26,10.923,10.923,0,0,0-6.978,4.243L51.2,26.162l1.854,1.389,1.116-1.486a8.624,8.624,0,0,1,5.506-3.347A4.832,4.832,0,0,0,62.3,14.534Z" transform="translate(8.121 2.108)"/>
        <path id="Trazado_998449" data-name="Trazado 998449" d="M44.836,14.222a1.638,1.638,0,0,1,0,2.317l-.339.339,1.638,1.638.339-.339a3.955,3.955,0,0,0,0-5.594l-.269-.269a3.038,3.038,0,0,1,0-4.3l1.088-1.088L45.657,5.293,44.569,6.381a5.354,5.354,0,0,0,0,7.573Z" transform="translate(6.82 0.84)"/>
      </g>
    </g>
  </g>
</svg>
