<svg xmlns="http://www.w3.org/2000/svg" width="128" height="128" viewBox="0 0 128 128">
  <g id="Grupo_1178361" data-name="Grupo 1178361" transform="translate(-72.746 -7992)">
    <g id="Elipse_13628" data-name="Elipse 13628" transform="translate(72.746 7992)" fill="#fff7e2" stroke="#cff878" stroke-width="6">
      <circle cx="64" cy="64" r="64" stroke="none"/>
      <circle cx="64" cy="64" r="61" fill="none"/>
    </g>
    <g id="Grupo_1178443" data-name="Grupo 1178443" transform="translate(103.606 8009.959)">
      <g id="Grupo_1178414" data-name="Grupo 1178414" transform="translate(15.609 18.649)">
        <path id="Trazado_998450" data-name="Trazado 998450" d="M126.093,53l10.913-.983-.862-4.3L131.487,44.4l-10.913.983,1.7,4.514Z" transform="translate(-120.574 -44.401)" fill="#ffd772" fill-rule="evenodd"/>
      </g>
      <g id="Grupo_1178415" data-name="Grupo 1178415" transform="translate(37.435 16.686)">
        <path id="Trazado_998451" data-name="Trazado 998451" d="M294.7,37.829l10.913-.983-1.255-4.253-4.264-3.358-10.913.98,1.292,3.805Z" transform="translate(-289.18 -29.235)" fill="#ffd772" fill-rule="evenodd"/>
      </g>
      <g id="Grupo_1178416" data-name="Grupo 1178416" transform="translate(48.348 15.79)">
        <path id="Trazado_998452" data-name="Trazado 998452" d="M384.149,30.363l-.723-8.044-9.944.9L379,30.825Z" transform="translate(-373.482 -22.319)" fill="#375e7d" fill-rule="evenodd"/>
      </g>
      <g id="Grupo_1178417" data-name="Grupo 1178417" transform="translate(1.94 36.036)">
        <path id="Trazado_998453" data-name="Trazado 998453" d="M73.1,195.5V182.108l-28.2-3.4L14.983,182.1v31.295a.752.752,0,0,0,.749.749H55.22Z" transform="translate(-14.983 -178.71)" fill="#eff6ff" fill-rule="evenodd"/>
      </g>
      <g id="Grupo_1178418" data-name="Grupo 1178418" transform="translate(17.201 31.357)">
        <path id="Trazado_998454" data-name="Trazado 998454" d="M143.834,150.638l4.367-4,.444-4.066H137.688l-4.33,3.571-.481,4.5Z" transform="translate(-132.877 -142.568)" fill="#ffd772" fill-rule="evenodd"/>
      </g>
      <g id="Grupo_1178419" data-name="Grupo 1178419" transform="translate(39.112 31.357)">
        <path id="Trazado_998455" data-name="Trazado 998455" d="M313.091,150.641l4.528-3.039.286-5.035H306.948l-4.506,3.86-.308,4.213Z" transform="translate(-302.134 -142.568)" fill="#ffd772" fill-rule="evenodd"/>
      </g>
      <g id="Grupo_1178420" data-name="Grupo 1178420" transform="translate(18.882 23.162)">
        <path id="Trazado_998456" data-name="Trazado 998456" d="M148.1,83.349l10.913-.983-2.246-3.1-10.913.983Z" transform="translate(-145.859 -79.268)" fill="#fbba58" fill-rule="evenodd"/>
      </g>
      <g id="Grupo_1178421" data-name="Grupo 1178421" transform="translate(40.708 21.199)">
        <path id="Trazado_998457" data-name="Trazado 998457" d="M316.711,68.184l10.913-.983-2.246-3.1-10.913.98Z" transform="translate(-314.465 -64.103)" fill="#fbba58" fill-rule="evenodd"/>
      </g>
      <g id="Grupo_1178422" data-name="Grupo 1178422" transform="translate(51.621 15.79)">
        <path id="Trazado_998458" data-name="Trazado 998458" d="M401.012,30.825l5.148-.462-.723-8.044-3.479.312.2,2.242c.15,1.681.5,2.5-1.182,2.653l-2.213.2Z" transform="translate(-398.766 -22.319)" fill="#2b4d66" fill-rule="evenodd"/>
      </g>
      <g id="Grupo_1178423" data-name="Grupo 1178423" transform="translate(46.62 31.357)">
        <path id="Trazado_998459" data-name="Trazado 998459" d="M368.395,142.568h-8.264a42.946,42.946,0,0,1,1.035,8.073h2.415Z" transform="translate(-360.131 -142.568)" fill="#fbba58" fill-rule="evenodd"/>
      </g>
      <g id="Grupo_1178424" data-name="Grupo 1178424" transform="translate(50.069 31.357)">
        <path id="Trazado_998460" data-name="Trazado 998460" d="M391.591,142.568l-4.814,8.073,9.985,0v-8.077Z" transform="translate(-386.777 -142.568)" fill="#2b4d66" fill-rule="evenodd"/>
      </g>
      <g id="Grupo_1178425" data-name="Grupo 1178425" transform="translate(47.482 39.43)">
        <path id="Trazado_998461" data-name="Trazado 998461" d="M379.365,204.936l-9.985,0h-2.415a46.257,46.257,0,0,1-.172,5.967h5.864a.736.736,0,0,1,.734.734v4.253a12.955,12.955,0,0,1,5.974,2.444Z" transform="translate(-366.793 -204.932)" fill="#d9eeff" fill-rule="evenodd"/>
      </g>
      <g id="Grupo_1178426" data-name="Grupo 1178426" transform="translate(7.91 48.013)">
        <path id="Trazado_998462" data-name="Trazado 998462" d="M99.6,274.891l-14.891-3.655L61.1,274.891v13.093a.733.733,0,0,0,.734.73H98.866c.4,0,.583-.36.734-.73l3.053-7.449Z" transform="translate(-61.103 -271.236)" fill="#ffd772" fill-rule="evenodd"/>
      </g>
      <g id="Grupo_1178427" data-name="Grupo 1178427" transform="translate(39.277 50.263)">
        <path id="Trazado_998463" data-name="Trazado 998463" d="M316.426,314.642A13.015,13.015,0,0,0,329.442,301.7v-.14a13.017,13.017,0,1,0-13.016,13.082Z" transform="translate(-303.41 -288.613)" fill="#9fd4fe" fill-rule="evenodd"/>
      </g>
      <g id="Grupo_1178428" data-name="Grupo 1178428" transform="translate(48.077 56.501)">
        <path id="Trazado_998464" data-name="Trazado 998464" d="M371.385,350.356l11.566-6.774L371.385,336.8Z" transform="translate(-371.385 -336.804)" fill="#eb5468" fill-rule="evenodd"/>
      </g>
      <g id="Grupo_1178429" data-name="Grupo 1178429" transform="translate(50.495 50.263)">
        <path id="Trazado_998465" data-name="Trazado 998465" d="M396.388,291.133c9.335,6.943,5.589,22.077-6.323,23.387a13.2,13.2,0,0,0,1.8.121,13.013,13.013,0,0,0,13.016-13.013v-.07a13,13,0,0,0-13.016-12.946,13.286,13.286,0,0,0-1.438.077A12.994,12.994,0,0,1,396.388,291.133Z" transform="translate(-390.065 -288.612)" fill="#85beef" fill-rule="evenodd"/>
      </g>
      <g id="Grupo_1178430" data-name="Grupo 1178430" transform="translate(7.91 45.397)">
        <path id="Trazado_998466" data-name="Trazado 998466" d="M61.1,257.3h15.39l3.405-3.211-3.405-3.061H61.837a.736.736,0,0,0-.734.734V257.3Z" transform="translate(-61.103 -251.024)" fill="#7fdbae" fill-rule="evenodd"/>
      </g>
      <g id="Grupo_1178431" data-name="Grupo 1178431" transform="translate(36.375 45.397)">
        <path id="Trazado_998467" data-name="Trazado 998467" d="M291.02,257.3a13.078,13.078,0,0,1,7.673-1.284v-4.253a.736.736,0,0,0-.734-.734H283.3l-2.316,2.617L283.3,257.3Z" transform="translate(-280.987 -251.024)" fill="#eb5468" fill-rule="evenodd"/>
      </g>
      <g id="Grupo_1178432" data-name="Grupo 1178432" transform="translate(46.407 45.397)">
        <path id="Trazado_998468" data-name="Trazado 998468" d="M365.425,251.025h-5.864c-.279,2.928-.187,3.655-1.075,6.271a13.077,13.077,0,0,1,7.673-1.284v-4.253A.736.736,0,0,0,365.425,251.025Z" transform="translate(-358.486 -251.025)" fill="#e5384f" fill-rule="evenodd"/>
      </g>
      <g id="Grupo_1178433" data-name="Grupo 1178433" transform="translate(23.3 45.397)">
        <path id="Trazado_998469" data-name="Trazado 998469" d="M179.989,251.025h15.39V257.3h-15.39Z" transform="translate(-179.989 -251.025)" fill="#375e7d" fill-rule="evenodd"/>
      </g>
      <g id="Grupo_1178434" data-name="Grupo 1178434" transform="translate(8.662 31.357)">
        <path id="Trazado_998470" data-name="Trazado 998470" d="M69.307,150.634l6.147,0,4.811-8.07H69.307l-2.393,4.337Z" transform="translate(-66.914 -142.568)" fill="#375e7d" fill-rule="evenodd"/>
      </g>
      <g id="Grupo_1178435" data-name="Grupo 1178435" transform="translate(28.159 31.357)">
        <path id="Trazado_998471" data-name="Trazado 998471" d="M217.52,150.638l10.954,0,4.815-8.073H222.331Z" transform="translate(-217.52 -142.568)" fill="#375e7d" fill-rule="evenodd"/>
      </g>
      <g id="Grupo_1178436" data-name="Grupo 1178436" transform="translate(0.971 18.937)">
        <path id="Trazado_998472" data-name="Trazado 998472" d="M17.584,67.116V59.05l-1-3.119-2.114-6.616a4.29,4.29,0,0,0-.62-1.244C11.914,45.414,7.5,46.537,7.5,50.591v16.1a.43.43,0,0,0,.429.429h9.654Z" transform="translate(-7.5 -46.631)" fill="#ffd772" fill-rule="evenodd"/>
      </g>
      <g id="Grupo_1178437" data-name="Grupo 1178437" transform="translate(2.89 18.938)">
        <path id="Trazado_998473" data-name="Trazado 998473" d="M26.214,55.934l1,3.119v8.066h3.277V59.053l-1-3.119-1.024-3.207-1.09-3.409a4.29,4.29,0,0,0-.62-1.244,3.43,3.43,0,0,0-4.433-1.024,3.5,3.5,0,0,1,1.156,1.024,4.385,4.385,0,0,1,.62,1.244Z" transform="translate(-22.324 -46.634)" fill="#fbba58" fill-rule="evenodd"/>
      </g>
      <g id="Grupo_1178438" data-name="Grupo 1178438" transform="translate(7.323 19.632)">
        <path id="Trazado_998474" data-name="Trazado 998474" d="M59.3,60.6l11.071-.994L64.854,52l-8.286.745a4.292,4.292,0,0,1,.62,1.244Z" transform="translate(-56.568 -51.999)" fill="#375e7d" fill-rule="evenodd"/>
      </g>
      <g id="Grupo_1178439" data-name="Grupo 1178439" transform="translate(9.033 24.146)">
        <path id="Trazado_998475" data-name="Trazado 998475" d="M70.8,90.957l11.071-.994-2.246-3.1-9.849.884Z" transform="translate(-69.777 -86.865)" fill="#2b4d66" fill-rule="evenodd"/>
      </g>
      <g id="Grupo_1178440" data-name="Grupo 1178440" transform="translate(26.522 17.665)">
        <path id="Trazado_998476" data-name="Trazado 998476" d="M210.4,45.4l10.913-.98L215.79,36.8l-10.913.983Z" transform="translate(-204.877 -36.804)" fill="#375e7d" fill-rule="evenodd"/>
      </g>
      <g id="Grupo_1178441" data-name="Grupo 1178441" transform="translate(29.795 22.179)">
        <path id="Trazado_998477" data-name="Trazado 998477" d="M232.408,75.752l10.913-.98-2.246-3.1-10.913.983Z" transform="translate(-230.162 -71.671)" fill="#2b4d66" fill-rule="evenodd"/>
      </g>
      <g id="Grupo_1178442" data-name="Grupo 1178442" transform="translate(0 14.819)">
        <path id="Trazado_998478" data-name="Trazado 998478" d="M61.025,52.361v-21a.971.971,0,0,0-.971-.971H11.764l-.412-1.29L59.1,24.8a.971.971,0,0,0,.88-1.054L59.26,15.7a.971.971,0,0,0-1.054-.88L7.753,19.364a4.4,4.4,0,0,0-3.9-1.345A4.642,4.642,0,0,0,0,22.9v16.1a1.4,1.4,0,0,0,.969,1.331V50.857a.971.971,0,1,0,1.942,0V40.394h8.144l48.029.011v10.65a13.888,13.888,0,0,0-4.032-1.489V46.131a1.707,1.707,0,0,0-1.7-1.7H8.644a1.707,1.707,0,0,0-1.7,1.7V64.762a1.7,1.7,0,0,0,1.7,1.7h15.6a.971.971,0,0,0,0-1.942H8.881V52.639H43.225a13.961,13.961,0,0,0-4.919,10.64c0,.419.02.833.056,1.242H28.72a.971.971,0,1,0,0,1.942h9.952A13.9,13.9,0,0,0,40.317,70.5H2.91V55.338a.971.971,0,1,0-1.942,0v15.38a1.721,1.721,0,0,0,1.72,1.72H41.732A13.98,13.98,0,1,0,61.025,52.361Zm-1.942-13.9-7.3,0,3.656-6.133h3.648v6.135Zm-18.26,0,3.654-6.131h8.7L49.519,38.46Zm-10.956,0,3.653-6.128h8.7l-3.654,6.13Zm-10.956,0,3.651-6.126h8.7l-3.653,6.128ZM26.06,19.666l4.192,5.781-8.663.779L17.4,20.445Zm10.914-.982,4.19,5.781-8.661.779-4.192-5.781ZM47.886,17.7l4.193,5.782-8.663.779-4.19-5.781Zm10.076,5.252-3.632.327L50.138,17.5l7.275-.655ZM15.146,20.648l4.191,5.78-8.592.773L8.868,21.326c-.012-.037-.025-.073-.038-.109ZM1.942,22.9a2.726,2.726,0,0,1,2.207-2.961,2.572,2.572,0,0,1,2.87,1.979l3.066,9.591v6.944H1.942Zm10.084,9.429H20.3l-3.651,6.125H12.026V32.328Zm25.694,14.04V50.7H24.271v-4.33Zm-28.838,0H22.329V50.7H8.881Zm30.78,4.33v-4.33H53.109v2.949c-.27-.016-.542-.024-.816-.024A13.9,13.9,0,0,0,46.186,50.7ZM52.293,75.321A12.044,12.044,0,1,1,64.338,63.279,12.057,12.057,0,0,1,52.293,75.321Z" transform="translate(0 -14.819)"/>
        <path id="Trazado_998479" data-name="Trazado 998479" d="M376.913,336.215l-11.566-6.778a.971.971,0,0,0-1.462.838v13.552a.971.971,0,0,0,1.462.838l11.566-6.774a.971.971,0,0,0,0-1.675Zm-11.086,5.918V331.969l8.675,5.083Z" transform="translate(-316.779 -288.593)"/>
      </g>
    </g>
  </g>
</svg>
