<svg xmlns="http://www.w3.org/2000/svg" width="105.988" height="138.846" viewBox="0 0 105.988 138.846">
  <g id="Grupo_1179251" data-name="Grupo 1179251" transform="translate(-206.398 -1625)">
    <rect id="Rectángulo_455165" data-name="Rectángulo 455165" width="105.988" height="138.846" transform="translate(206.398 1625)" fill="#a4c2ff"/>
    <g id="Grupo_1179250" data-name="Grupo 1179250" transform="translate(226.299 1661.902)">
      <g id="Lineal_Color" transform="translate(2.572 2.572)">
        <path id="Trazado_999087" data-name="Trazado 999087" d="M2,6H53.472V48.893H2Z" transform="translate(-2 2.579)" fill="#f2f3f3"/>
        <path id="Trazado_999088" data-name="Trazado 999088" d="M2,2H53.472v8.579H2Z" transform="translate(-2 -2)" fill="#f15f60"/>
        <path id="Trazado_999089" data-name="Trazado 999089" d="M28.723,22.289a6.434,6.434,0,1,1-6.434,6.434A6.425,6.425,0,0,1,28.723,22.289Zm5.919,15.377a10.72,10.72,0,1,1,3.024-3.024l6.069,6.069-3.024,3.024Z" transform="translate(16.315 16.315)" fill="#65cef6" fill-rule="evenodd"/>
      </g>
      <g id="Outline" transform="translate(1.5 1.5)">
        <path id="Trazado_999090" data-name="Trazado 999090" d="M45.466,5.789a1.072,1.072,0,1,1-1.072,1.072A1.062,1.062,0,0,1,45.466,5.789Zm4.289,0a1.072,1.072,0,1,1-1.072,1.072A1.062,1.062,0,0,1,49.755,5.789Zm-38.6,2.145H6.862a1.072,1.072,0,0,1,0-2.145h4.289a1.072,1.072,0,1,1,0,2.145ZM3.645,10.079H52.972V3.645H3.645ZM2.572,18.657A1.072,1.072,0,1,1,1.5,19.73,1.062,1.062,0,0,1,2.572,18.657Zm22.519,4.289h4.289a2.145,2.145,0,1,0,0-4.289H25.091Zm-12.7,2.145H16.32l-1.973-4.718-1.973,4.718Zm12.7,4.289h6.434a2.145,2.145,0,1,0,0-4.289H25.091Zm6.434,2.145H24.019a1.062,1.062,0,0,1-1.072-1.072V17.585a1.062,1.062,0,0,1,1.072-1.072h5.362A4.323,4.323,0,0,1,32.4,17.757a4.248,4.248,0,0,1,.536,5.4,4.528,4.528,0,0,1,1.608,1.008,4.266,4.266,0,0,1,1.265,3.045,4.18,4.18,0,0,1-1.265,3.024A4.253,4.253,0,0,1,31.525,31.5Zm16.085,0H45.466a7.505,7.505,0,0,1-7.506-7.506,7.379,7.379,0,0,1,2.209-5.3,7.467,7.467,0,0,1,5.3-2.209H47.61a1.072,1.072,0,1,1,0,2.145H45.466a5.362,5.362,0,1,0,0,10.723H47.61a1.072,1.072,0,1,1,0,2.145ZM10.079,25.091l3.3-7.914a1.115,1.115,0,0,1,1.973,0l3.3,7.914H19.73a1.072,1.072,0,0,1,0,2.145h-.172l1.18,2.81a1.041,1.041,0,0,1-.579,1.394.929.929,0,0,1-.407.086,1.07,1.07,0,0,1-.987-.665l-1.523-3.624H11.516L9.993,30.86a1.067,1.067,0,1,1-1.973-.815l1.18-2.81H9.028a1.072,1.072,0,0,1,0-2.145H10.1ZM1.5,2.572A1.062,1.062,0,0,1,2.572,1.5H54.044a1.062,1.062,0,0,1,1.072,1.072V32.6a1.072,1.072,0,0,1-2.145,0V12.223H3.645V15.44a1.072,1.072,0,0,1-2.145,0ZM32.6,37.959H9.006a1.072,1.072,0,1,1,0-2.145H32.6a1.072,1.072,0,0,1,0,2.145Zm0,6.434H9.006a1.072,1.072,0,1,1,0-2.145H32.6a1.072,1.072,0,0,1,0,2.145ZM47.61,42.249a5.362,5.362,0,1,0,5.362,5.362A5.364,5.364,0,0,0,47.61,42.249ZM32.6,55.117H2.572A1.062,1.062,0,0,1,1.5,54.044V24.019a1.072,1.072,0,1,1,2.145,0V52.972H32.6a1.072,1.072,0,0,1,0,2.145Zm15.013,0a7.506,7.506,0,1,1,7.506-7.506A7.515,7.515,0,0,1,47.61,55.117Zm5.919.365a1.006,1.006,0,0,1,.751.322L59.6,61.122,61.122,59.6,55.8,54.28a1.071,1.071,0,0,1-.129-1.351,9.674,9.674,0,1,0-2.724,2.724,1.027,1.027,0,0,1,.6-.172ZM59.6,63.7a1.006,1.006,0,0,1-.751-.322L53.379,57.9a11.811,11.811,0,1,1,4.547-4.547L63.4,58.827a1.1,1.1,0,0,1,0,1.523L60.35,63.374a1.04,1.04,0,0,1-.751.322Z" transform="translate(-1.5 -1.5)"/>
      </g>
    </g>
  </g>
</svg>
