<svg xmlns="http://www.w3.org/2000/svg" width="1021.413" height="500" viewBox="0 0 1021.413 500">
  <g id="Grupo_1192457" data-name="Grupo 1192457" transform="translate(-289.479 -2934)">
    <rect id="Rectángulo_455180" data-name="Rectángulo 455180" width="1021.413" height="500" rx="10" transform="translate(289.479 2934)" fill="#fff7e2"/>
    <g id="Grupo_1192430" data-name="Grupo 1192430" transform="translate(-7110.521 11755.014)">
      <g id="Grupo_1192394" data-name="Grupo 1192394" transform="translate(7539 -8766)">
        <g id="Grupo_1192393" data-name="Grupo 1192393">
          <path id="Trazado_1004836" data-name="Trazado 1004836" d="M515.51,149.494l-48.07,83.27L440.17,280a130.562,130.562,0,0,0-59.21-17.2c-1.98-.09-3.98-.14-5.98-.14V112.034q3,0,5.98.07A280.173,280.173,0,0,1,515.51,149.494Z" fill="#7ee29f"/>
          <path id="Trazado_1004837" data-name="Trazado 1004837" d="M380.96,112.1V262.8c-1.98-.09-3.98-.14-5.98-.14V112.034Q377.98,112.034,380.96,112.1Z" fill="#76d392"/>
          <path id="Trazado_1004838" data-name="Trazado 1004838" d="M618.58,252.224l-83.7,48.31-46.82,27.04a131.3,131.3,0,0,0-42.75-44.46q-2.535-1.605-5.14-3.11l27.27-47.24,48.07-83.27q2.595,1.5,5.16,3.06A283.05,283.05,0,0,1,618.58,252.224Z" fill="#54c5c4"/>
          <path id="Trazado_1004839" data-name="Trazado 1004839" d="M520.67,152.554l-75.36,130.56q-2.535-1.605-5.14-3.11l27.27-47.24,48.07-83.27Q518.105,150.994,520.67,152.554Z" fill="#4fb7b4"/>
          <path id="Trazado_1004840" data-name="Trazado 1004840" d="M309.8,280.044a131.3,131.3,0,0,0-44.78,42.48q-1.62,2.49-3.12,5.05l-48.14-27.78-82.35-47.53c1-1.71,2.01-3.42,3.05-5.11a282.929,282.929,0,0,1,99.99-97.63l47.62,82.49Z" fill="#ffa6a6"/>
          <path id="Trazado_1004841" data-name="Trazado 1004841" d="M374.96,112.034v150.63a130.14,130.14,0,0,0-59.89,14.51c-1.78.92-3.54,1.87-5.27,2.87l-27.73-48.03-47.62-82.49c1.74-1,3.48-1.98,5.24-2.94A280.546,280.546,0,0,1,374.96,112.034Z" fill="#ffd897"/>
          <path id="Trazado_1004842" data-name="Trazado 1004842" d="M309.8,280.041a130.389,130.389,0,0,1,65.161-17.378V207.612h-.85a184.664,184.664,0,0,0-92.039,24.4Z" fill="#ffc599"/>
          <path id="Trazado_1004843" data-name="Trazado 1004843" d="M315.07,277.174c-1.78.92-3.54,1.87-5.27,2.87l-27.73-48.03-47.62-82.49c1.74-1,3.48-1.98,5.24-2.94Z" fill="#ffc599"/>
          <path id="Trazado_1004844" data-name="Trazado 1004844" d="M265.02,322.524q-1.62,2.49-3.12,5.05l-48.14-27.78-82.35-47.53c1-1.71,2.01-3.42,3.05-5.11l82.28,47.49Z" fill="#e89292"/>
          <path id="Trazado_1004845" data-name="Trazado 1004845" d="M261.874,327.633a130.446,130.446,0,0,0-17.835,65.275H93.41a279.934,279.934,0,0,1,37.978-140.6l82.348,47.529Z" fill="#d5628e"/>
          <path id="Trazado_1004846" data-name="Trazado 1004846" d="M656.59,392.844H505.92a130.159,130.159,0,0,0-14.94-60.03c-.92-1.76-1.89-3.5-2.89-5.21l46.82-27.03,83.7-48.31c1,1.72,1.98,3.44,2.93,5.18A279.989,279.989,0,0,1,656.59,392.844Z" fill="#a8baff"/>
          <path id="Trazado_1004847" data-name="Trazado 1004847" d="M621.54,257.444l-83.66,48.29-46.9,27.08c-.92-1.76-1.89-3.5-2.89-5.21l46.82-27.03,83.7-48.31C619.61,253.984,620.59,255.7,621.54,257.444Z" fill="#a0b3ef"/>
        </g>
      </g>
      <g id="Grupo_1192398" data-name="Grupo 1192398" transform="translate(7539 -8766)">
        <path id="Trazado_1004848" data-name="Trazado 1004848" d="M188.633,392.908h55.406a130.439,130.439,0,0,1,17.835-65.275l-48.138-27.792A184.7,184.7,0,0,0,188.633,392.908Z" fill="#c45783"/>
        <path id="Trazado_1004849" data-name="Trazado 1004849" d="M282.068,232.017a186.373,186.373,0,0,0-68.306,67.774L261.9,327.57a131.568,131.568,0,0,1,47.9-47.529Z" fill="#e89292"/>
        <path id="Trazado_1004850" data-name="Trazado 1004850" d="M467.44,232.765a184.589,184.589,0,0,0-92.458-25.154v55.051A130.7,130.7,0,0,1,440.168,280Z" fill="#76d392"/>
        <line id="Línea_3585" data-name="Línea 3585" x2="53.656" transform="translate(505.925 392.845)" fill="#fff" opacity="0.2"/>
        <path id="Trazado_1004851" data-name="Trazado 1004851" d="M440.168,280a131.381,131.381,0,0,1,47.9,47.567l46.819-27.031a186.371,186.371,0,0,0-67.444-67.774Z" fill="#4fb7b4"/>
        <path id="Trazado_1004852" data-name="Trazado 1004852" d="M559.581,392.845a184.675,184.675,0,0,0-24.671-92.268l-46.819,27.031a130.2,130.2,0,0,1,17.835,65.237" fill="#a0b3ef"/>
      </g>
      <text id="_01" data-name="01" transform="translate(7762.633 -8403.132)" fill="#12263f" font-size="30" font-family="SegoeUIBlack, Segoe UI"><tspan x="-16.238" y="0">01</tspan></text>
      <text id="_02" data-name="02" transform="translate(7797.217 -8472.222)" fill="#12263f" font-size="30" font-family="SegoeUIBlack, Segoe UI"><tspan x="-17.974" y="0">02</tspan></text>
      <text id="_03" data-name="03" transform="translate(7871.065 -8515.386)" fill="#12263f" font-size="30" font-family="SegoeUIBlack, Segoe UI"><tspan x="-17.974" y="0">03</tspan></text>
      <text id="_06" data-name="06" transform="translate(8063.205 -8403.132)" fill="#12263f" font-size="30" font-family="SegoeUIBlack, Segoe UI"><tspan x="-17.974" y="0">06</tspan></text>
      <text id="_05" data-name="05" transform="translate(8024.171 -8471.11)" fill="#12263f" font-size="30" font-family="SegoeUIBlack, Segoe UI"><tspan x="-17.974" y="0">05</tspan></text>
      <text id="_04" data-name="04" transform="translate(7951.177 -8515.386)" fill="#12263f" font-size="30" font-family="SegoeUIBlack, Segoe UI"><tspan x="-18.296" y="0">04</tspan></text>
      <rect id="Rectángulo_455454" data-name="Rectángulo 455454" width="86.502" height="40.848" transform="translate(7654.4 -8440.932)" fill="none"/>
      <rect id="Rectángulo_455455" data-name="Rectángulo 455455" width="138.502" height="40.848" transform="translate(8203 -8473.093)" fill="#a8baff"/>
      <rect id="Rectángulo_455460" data-name="Rectángulo 455460" width="138.502" height="40.848" transform="translate(7478 -8473.093)" fill="#d5628e"/>
      <rect id="Rectángulo_455461" data-name="Rectángulo 455461" width="138.502" height="40.848" transform="translate(7579 -8647.524)" fill="#ffa6a6"/>
      <rect id="Rectángulo_455463" data-name="Rectángulo 455463" width="138.502" height="40.848" transform="translate(7933.498 -8753.967)" fill="#7ee29f"/>
      <rect id="Rectángulo_455464" data-name="Rectángulo 455464" width="161.774" height="40.848" transform="translate(8121.862 -8649)" fill="#54c5c4"/>
      <rect id="Rectángulo_455462" data-name="Rectángulo 455462" width="174.502" height="59.848" transform="translate(7727.633 -8769.014)" fill="#ffd897"/>
      <rect id="Rectángulo_455456" data-name="Rectángulo 455456" width="86.502" height="40.848" transform="translate(7706.098 -8547.523)" fill="none"/>
      <rect id="Rectángulo_455457" data-name="Rectángulo 455457" width="86.502" height="40.848" transform="translate(7809.903 -8614.923)" fill="none"/>
      <rect id="Rectángulo_455458" data-name="Rectángulo 455458" width="86.502" height="40.848" transform="translate(7925.355 -8614.923)" fill="none"/>
      <rect id="Rectángulo_455459" data-name="Rectángulo 455459" width="86.502" height="40.848" transform="translate(8035.36 -8547.523)" fill="none"/>
      <path id="Trazado_1005613" data-name="Trazado 1005613" d="M11.162,0,6.221-6.758A16.106,16.106,0,0,1,5.264-8.2H5.225q.059,1.035.059,2.324V0H1.377V-14H5.361L10.1-7.578q.088.127.215.3t.254.361q.127.186.239.361a2.223,2.223,0,0,1,.171.313h.039a12.692,12.692,0,0,1-.059-1.484V-14h3.906V0ZM23.6,0V-1.543h-.039A5.473,5.473,0,0,1,22.632-.5a3.589,3.589,0,0,1-.937.537,3.315,3.315,0,0,1-1.216.205,3.025,3.025,0,0,1-2.5-1.064,4.921,4.921,0,0,1-.859-3.145V-10h4.16v5.723q0,1.475,1.1,1.475a1.08,1.08,0,0,0,.913-.4A1.825,1.825,0,0,0,23.6-4.336V-10h4.16V0ZM42.725,0V-5.762a1.838,1.838,0,0,0-.259-1.079.973.973,0,0,0-.845-.356,1.055,1.055,0,0,0-.9.435A1.989,1.989,0,0,0,40.4-5.557V0H36.24V-5.664Q36.24-7.2,35.2-7.2a1.106,1.106,0,0,0-.957.444,2.148,2.148,0,0,0-.322,1.274V0h-4.16V-10h4.16v1.582h.039a3.224,3.224,0,0,1,.747-.854,4.385,4.385,0,0,1,1.157-.7,3.594,3.594,0,0,1,1.4-.269,3.535,3.535,0,0,1,1.792.42A3.256,3.256,0,0,1,40.264-8.5,3.564,3.564,0,0,1,41.67-9.79a4.191,4.191,0,0,1,1.953-.454,2.939,2.939,0,0,1,2.412,1.025,4.566,4.566,0,0,1,.84,2.959V0Zm9.619-3.818a1.405,1.405,0,0,0,.742,1.011,3.347,3.347,0,0,0,1.68.366A6.917,6.917,0,0,0,57.52-3V-.361a9.9,9.9,0,0,1-3.672.605,5.794,5.794,0,0,1-4.072-1.338A4.753,4.753,0,0,1,48.32-4.775a6.074,6.074,0,0,1,.64-2.842,4.6,4.6,0,0,1,1.895-1.929,5.6,5.6,0,0,1,2.769-.7,5.447,5.447,0,0,1,2.656.605,4.033,4.033,0,0,1,1.675,1.7,5.452,5.452,0,0,1,.571,2.559v1.563ZM54.844-6q0-1.729-1.24-1.729a1.049,1.049,0,0,0-.869.474A2.364,2.364,0,0,0,52.324-6ZM67.48-6.436a3.233,3.233,0,0,0-.635-.2,3.212,3.212,0,0,0-.664-.088q-2.061,0-2.061,2.383V0h-4.16V-10h4.16v1.758h.039a3.123,3.123,0,0,1,1.084-1.44,2.785,2.785,0,0,1,1.641-.493,1.409,1.409,0,0,1,.6.117ZM74.229,0V-1.523h-.039A3.272,3.272,0,0,1,71.143.244,2.917,2.917,0,0,1,68.926-.6a3.12,3.12,0,0,1-.8-2.246q0-2.949,3.623-3.418l2.48-.322a.946.946,0,0,0-.439-.8A2,2,0,0,0,72.607-7.7a7.783,7.783,0,0,0-3.545.957V-9.443a9.484,9.484,0,0,1,2.031-.576,11.822,11.822,0,0,1,2.09-.225,5.247,5.247,0,0,1,3.7,1.089,4.853,4.853,0,0,1,1.147,3.638V0ZM71.768-3.4a.922.922,0,0,0,.259.674.987.987,0,0,0,.737.264,1.311,1.311,0,0,0,1.06-.488,1.892,1.892,0,0,0,.405-1.25V-4.58l-1.406.2Q71.768-4.209,71.768-3.4ZM79.9,0V-14.8h4.16V0Zm9.746-3.818a1.405,1.405,0,0,0,.742,1.011,3.347,3.347,0,0,0,1.68.366A6.917,6.917,0,0,0,94.824-3V-.361a9.9,9.9,0,0,1-3.672.605A5.794,5.794,0,0,1,87.08-1.094a4.753,4.753,0,0,1-1.455-3.682,6.074,6.074,0,0,1,.64-2.842,4.6,4.6,0,0,1,1.895-1.929,5.6,5.6,0,0,1,2.769-.7,5.447,5.447,0,0,1,2.656.605,4.033,4.033,0,0,1,1.675,1.7,5.452,5.452,0,0,1,.571,2.559v1.563ZM92.148-6q0-1.729-1.24-1.729a1.049,1.049,0,0,0-.869.474A2.364,2.364,0,0,0,89.629-6ZM105.391-3.32A3.054,3.054,0,0,1,104.1-.688a6.082,6.082,0,0,1-3.608.933A12.546,12.546,0,0,1,98.823.107a10.286,10.286,0,0,1-1.616-.332v-2.92a7.958,7.958,0,0,0,3.086.82q1.221,0,1.221-.635a.5.5,0,0,0-.283-.435,10.01,10.01,0,0,0-1.484-.571,4.192,4.192,0,0,1-1.934-1.113,2.647,2.647,0,0,1-.605-1.807,2.883,2.883,0,0,1,1.235-2.456,5.8,5.8,0,0,1,3.472-.9,11.035,11.035,0,0,1,2.773.381v2.8A8.387,8.387,0,0,0,103.34-7.5a5.443,5.443,0,0,0-1.23-.176,1.339,1.339,0,0,0-.654.137.421.421,0,0,0-.244.381.531.531,0,0,0,.264.459,4.664,4.664,0,0,0,1.055.42,4.894,4.894,0,0,1,2.2,1.152A2.525,2.525,0,0,1,105.391-3.32Z" transform="translate(8223 -8446.093)" fill="#12263f"/>
      <path id="Trazado_1005615" data-name="Trazado 1005615" d="M-54.712,0V-14h4.219V0Zm13.076,0V-5.459a2.427,2.427,0,0,0-.278-1.333,1.017,1.017,0,0,0-.9-.405.978.978,0,0,0-.84.42,1.792,1.792,0,0,0-.3,1.074V0h-4.16V-10h4.16v1.563h.039a3.53,3.53,0,0,1,1.338-1.333,3.655,3.655,0,0,1,1.826-.474q3.281,0,3.281,4.141V0Zm12.715,0V-1.162h-.039a3.433,3.433,0,0,1-1.3,1.03,3.7,3.7,0,0,1-1.582.376A4.07,4.07,0,0,1-34.1-.386a3.825,3.825,0,0,1-1.46-1.763,6.784,6.784,0,0,1-.483-2.676,6.583,6.583,0,0,1,.576-2.822,4.51,4.51,0,0,1,1.621-1.914,4.188,4.188,0,0,1,2.344-.684,3.547,3.547,0,0,1,1.138.176,3.078,3.078,0,0,1,.908.474A1.414,1.414,0,0,1-28.96-9h.039v-5.8h4.16V0Zm.088-5.3a2.194,2.194,0,0,0-.4-1.4A1.294,1.294,0,0,0-30.3-7.2a1.283,1.283,0,0,0-1.1.62,2.881,2.881,0,0,0-.425,1.655q0,2.119,1.465,2.119a1.3,1.3,0,0,0,1.108-.571,2.812,2.812,0,0,0,.415-1.665Zm9.658,1.484a1.405,1.405,0,0,0,.742,1.011,3.347,3.347,0,0,0,1.68.366A6.917,6.917,0,0,0-14-3V-.361a9.9,9.9,0,0,1-3.672.605,5.794,5.794,0,0,1-4.072-1.338A4.753,4.753,0,0,1-23.2-4.775a6.074,6.074,0,0,1,.64-2.842,4.6,4.6,0,0,1,1.895-1.929,5.6,5.6,0,0,1,2.769-.7,5.447,5.447,0,0,1,2.656.605,4.033,4.033,0,0,1,1.675,1.7,5.452,5.452,0,0,1,.571,2.559v1.563ZM-16.675-6q0-1.729-1.24-1.729a1.049,1.049,0,0,0-.869.474A2.364,2.364,0,0,0-19.194-6Zm12.822-5.781A3.665,3.665,0,0,0-5.054-12a1.338,1.338,0,0,0-1.025.356,1.355,1.355,0,0,0-.332.962V-10H-4.1v2.881H-6.411V0h-4.16V-7.119h-1.68V-10h1.68v-.918A4.065,4.065,0,0,1-10-13.071a3.778,3.778,0,0,1,1.646-1.45,6.025,6.025,0,0,1,2.622-.518,7.118,7.118,0,0,1,1.885.215ZM1.47-12.7A1.787,1.787,0,0,1,.83-11.27a2.5,2.5,0,0,1-1.685.547,2.441,2.441,0,0,1-1.665-.566A1.791,1.791,0,0,1-3.169-12.7a1.734,1.734,0,0,1,.63-1.392,2.524,2.524,0,0,1,1.685-.532,2.548,2.548,0,0,1,1.685.532A1.723,1.723,0,0,1,1.47-12.7ZM-2.935,0V-10h4.16V0ZM9.712,0V-5.459a2.427,2.427,0,0,0-.278-1.333,1.017,1.017,0,0,0-.9-.405.978.978,0,0,0-.84.42,1.792,1.792,0,0,0-.3,1.074V0H3.228V-10h4.16v1.563h.039A3.53,3.53,0,0,1,8.765-9.771a3.655,3.655,0,0,1,1.826-.474q3.281,0,3.281,4.141V0ZM20.151-12.7a1.787,1.787,0,0,1-.64,1.426,2.5,2.5,0,0,1-1.685.547,2.441,2.441,0,0,1-1.665-.566,1.791,1.791,0,0,1-.649-1.406,1.734,1.734,0,0,1,.63-1.392,2.524,2.524,0,0,1,1.685-.532,2.548,2.548,0,0,1,1.685.532A1.723,1.723,0,0,1,20.151-12.7ZM15.747,0V-10h4.16V0ZM28.589,0V-1.162H28.55a3.433,3.433,0,0,1-1.3,1.03,3.7,3.7,0,0,1-1.582.376,4.07,4.07,0,0,1-2.256-.63,3.825,3.825,0,0,1-1.46-1.763,6.784,6.784,0,0,1-.483-2.676,6.583,6.583,0,0,1,.576-2.822,4.51,4.51,0,0,1,1.621-1.914,4.188,4.188,0,0,1,2.344-.684,3.547,3.547,0,0,1,1.138.176,3.078,3.078,0,0,1,.908.474A1.414,1.414,0,0,1,28.55-9h.039v-5.8h4.16V0Zm.088-5.3a2.194,2.194,0,0,0-.4-1.4,1.294,1.294,0,0,0-1.069-.5,1.283,1.283,0,0,0-1.1.62,2.881,2.881,0,0,0-.425,1.655q0,2.119,1.465,2.119a1.3,1.3,0,0,0,1.108-.571,2.812,2.812,0,0,0,.415-1.665Zm17.2.127A5.207,5.207,0,0,1,44.346-1.2,5.972,5.972,0,0,1,40.073.244,6,6,0,0,1,35.83-1.167a5.051,5.051,0,0,1-1.519-3.892,5.214,5.214,0,0,1,.713-2.764,4.636,4.636,0,0,1,2.031-1.8,7.012,7.012,0,0,1,3.037-.625,6.792,6.792,0,0,1,3.081.654,4.763,4.763,0,0,1,2,1.816A4.946,4.946,0,0,1,45.874-5.176Zm-4.219.02q0-2.041-1.562-2.041T38.53-5.059q0,2.256,1.582,2.256Q41.655-2.8,41.655-5.156Zm13.9,1.836A3.054,3.054,0,0,1,54.258-.688a6.082,6.082,0,0,1-3.608.933A12.546,12.546,0,0,1,48.984.107a10.286,10.286,0,0,1-1.616-.332v-2.92a7.958,7.958,0,0,0,3.086.82q1.221,0,1.221-.635a.5.5,0,0,0-.283-.435,10.01,10.01,0,0,0-1.484-.571,4.192,4.192,0,0,1-1.934-1.113,2.647,2.647,0,0,1-.605-1.807A2.883,2.883,0,0,1,48.6-9.341a5.8,5.8,0,0,1,3.472-.9,11.035,11.035,0,0,1,2.773.381v2.8A8.387,8.387,0,0,0,53.5-7.5a5.443,5.443,0,0,0-1.23-.176,1.339,1.339,0,0,0-.654.137.421.421,0,0,0-.244.381.531.531,0,0,0,.264.459,4.664,4.664,0,0,0,1.055.42,4.894,4.894,0,0,1,2.2,1.152A2.525,2.525,0,0,1,55.552-3.32Z" transform="translate(7547 -8446.093)" fill="#12263f"/>
      <path id="Trazado_1005614" data-name="Trazado 1005614" d="M-36.768,0l-1.045-3.018a3.752,3.752,0,0,0-.786-1.4,1.435,1.435,0,0,0-1.05-.508h-.166V0h-4.219V-14h5.605a7.772,7.772,0,0,1,4.341.962,3.267,3.267,0,0,1,1.4,2.886A3.651,3.651,0,0,1-33.5-7.734a4.647,4.647,0,0,1-2.427,1.416v.039a3.391,3.391,0,0,1,1.479.889,5.5,5.5,0,0,1,1.06,1.826L-32.012,0Zm-.4-9.561a1.466,1.466,0,0,0-.43-1.113,1.9,1.9,0,0,0-1.348-.41h-.869v3.2h.762a1.934,1.934,0,0,0,1.367-.479A1.567,1.567,0,0,0-37.168-9.561Zm9.98,5.742a1.405,1.405,0,0,0,.742,1.011,3.347,3.347,0,0,0,1.68.366A6.917,6.917,0,0,0-22.012-3V-.361a9.9,9.9,0,0,1-3.672.605,5.794,5.794,0,0,1-4.072-1.338,4.753,4.753,0,0,1-1.455-3.682,6.074,6.074,0,0,1,.64-2.842,4.6,4.6,0,0,1,1.895-1.929,5.6,5.6,0,0,1,2.769-.7,5.447,5.447,0,0,1,2.656.605,4.033,4.033,0,0,1,1.675,1.7,5.452,5.452,0,0,1,.571,2.559v1.563ZM-24.687-6q0-1.729-1.24-1.729a1.049,1.049,0,0,0-.869.474A2.364,2.364,0,0,0-27.207-6Zm5.117,6V-14.8h4.16V0ZM-7.861,0V-1.523H-7.9A3.272,3.272,0,0,1-10.947.244,2.917,2.917,0,0,1-13.164-.6a3.12,3.12,0,0,1-.8-2.246q0-2.949,3.623-3.418l2.48-.322a.946.946,0,0,0-.439-.8A2,2,0,0,0-9.482-7.7a7.783,7.783,0,0,0-3.545.957V-9.443A9.484,9.484,0,0,1-11-10.02a11.822,11.822,0,0,1,2.09-.225,5.247,5.247,0,0,1,3.7,1.089A4.853,4.853,0,0,1-4.062-5.518V0Zm-2.461-3.4a.922.922,0,0,0,.259.674.987.987,0,0,0,.737.264,1.311,1.311,0,0,0,1.06-.488A1.892,1.892,0,0,0-7.861-4.2V-4.58l-1.406.2Q-10.322-4.209-10.322-3.4ZM4.854-.137a4.053,4.053,0,0,1-.928.259A8.482,8.482,0,0,1,2.373.244,3.73,3.73,0,0,1-.347-.713a3.632,3.632,0,0,1-.981-2.725V-7.119H-2.9V-10h1.572v-1.963l4.1-1.133V-10h2.08v2.881H2.773v3Q2.773-2.8,3.818-2.8a2.835,2.835,0,0,0,1.035-.215Zm5.7-12.559a1.787,1.787,0,0,1-.64,1.426,2.5,2.5,0,0,1-1.685.547,2.441,2.441,0,0,1-1.665-.566A1.791,1.791,0,0,1,5.918-12.7a1.734,1.734,0,0,1,.63-1.392,2.524,2.524,0,0,1,1.685-.532,2.548,2.548,0,0,1,1.685.532A1.723,1.723,0,0,1,10.557-12.7ZM6.152,0V-10h4.16V0ZM19.6,0H14.658l-3.34-10h4.336l1.221,5.459A12.629,12.629,0,0,1,17.2-2.559h.059q.02-.2.054-.4T18.76-10h4.316ZM35.2-5.176A5.207,5.207,0,0,1,33.667-1.2,5.972,5.972,0,0,1,29.395.244a6,6,0,0,1-4.243-1.411,5.051,5.051,0,0,1-1.519-3.892,5.214,5.214,0,0,1,.713-2.764,4.636,4.636,0,0,1,2.031-1.8,7.012,7.012,0,0,1,3.037-.625A6.792,6.792,0,0,1,32.5-9.59a4.763,4.763,0,0,1,2,1.816A4.946,4.946,0,0,1,35.2-5.176Zm-4.219.02q0-2.041-1.562-2.041T27.852-5.059q0,2.256,1.582,2.256Q30.977-2.8,30.977-5.156Zm13.9,1.836A3.054,3.054,0,0,1,43.579-.688a6.082,6.082,0,0,1-3.608.933A12.546,12.546,0,0,1,38.306.107a10.286,10.286,0,0,1-1.616-.332v-2.92a7.958,7.958,0,0,0,3.086.82Q41-2.324,41-2.959a.5.5,0,0,0-.283-.435,10.01,10.01,0,0,0-1.484-.571,4.192,4.192,0,0,1-1.934-1.113,2.647,2.647,0,0,1-.605-1.807,2.883,2.883,0,0,1,1.235-2.456,5.8,5.8,0,0,1,3.472-.9,11.035,11.035,0,0,1,2.773.381v2.8A8.387,8.387,0,0,0,42.822-7.5a5.443,5.443,0,0,0-1.23-.176,1.339,1.339,0,0,0-.654.137.421.421,0,0,0-.244.381.531.531,0,0,0,.264.459,4.664,4.664,0,0,0,1.055.42,4.894,4.894,0,0,1,2.2,1.152A2.525,2.525,0,0,1,44.873-3.32Z" transform="translate(7648 -8620.524)" fill="#12263f"/>
      <path id="Trazado_1005611" data-name="Trazado 1005611" d="M-35.459-9.385a4.554,4.554,0,0,1-.728,2.549,4.741,4.741,0,0,1-2.075,1.724A7.533,7.533,0,0,1-41.4-4.5h-1.289V0H-46.9V-14h5.742a6.8,6.8,0,0,1,4.331,1.123A4.256,4.256,0,0,1-35.459-9.385Zm-4.463.146a1.641,1.641,0,0,0-.5-1.3,2.152,2.152,0,0,0-1.465-.439h-.8V-7.52h.947Q-39.922-7.52-39.922-9.238Zm16.875,4.063A5.207,5.207,0,0,1-24.575-1.2,5.972,5.972,0,0,1-28.848.244a6,6,0,0,1-4.243-1.411,5.051,5.051,0,0,1-1.519-3.892A5.214,5.214,0,0,1-33.9-7.822a4.636,4.636,0,0,1,2.031-1.8,7.012,7.012,0,0,1,3.037-.625,6.792,6.792,0,0,1,3.081.654,4.763,4.763,0,0,1,2,1.816A4.946,4.946,0,0,1-23.047-5.176Zm-4.219.02q0-2.041-1.562-2.041t-1.562,2.139q0,2.256,1.582,2.256Q-27.266-2.8-27.266-5.156Zm13.9,1.836A3.054,3.054,0,0,1-14.663-.688a6.082,6.082,0,0,1-3.608.933A12.546,12.546,0,0,1-19.937.107a10.286,10.286,0,0,1-1.616-.332v-2.92a7.958,7.958,0,0,0,3.086.82q1.221,0,1.221-.635a.5.5,0,0,0-.283-.435,10.01,10.01,0,0,0-1.484-.571,4.192,4.192,0,0,1-1.934-1.113,2.647,2.647,0,0,1-.605-1.807,2.883,2.883,0,0,1,1.235-2.456,5.8,5.8,0,0,1,3.472-.9,11.035,11.035,0,0,1,2.773.381v2.8A8.387,8.387,0,0,0-15.42-7.5a5.443,5.443,0,0,0-1.23-.176,1.339,1.339,0,0,0-.654.137.421.421,0,0,0-.244.381.531.531,0,0,0,.264.459,4.664,4.664,0,0,0,1.055.42,4.894,4.894,0,0,1,2.2,1.152A2.525,2.525,0,0,1-13.369-3.32Zm5.117-.5A1.405,1.405,0,0,0-7.51-2.808a3.347,3.347,0,0,0,1.68.366A6.917,6.917,0,0,0-3.076-3V-.361A9.9,9.9,0,0,1-6.748.244,5.794,5.794,0,0,1-10.82-1.094a4.753,4.753,0,0,1-1.455-3.682,6.074,6.074,0,0,1,.64-2.842A4.6,4.6,0,0,1-9.741-9.546a5.6,5.6,0,0,1,2.769-.7,5.447,5.447,0,0,1,2.656.605,4.033,4.033,0,0,1,1.675,1.7A5.452,5.452,0,0,1-2.07-5.381v1.563ZM-5.752-6q0-1.729-1.24-1.729a1.049,1.049,0,0,0-.869.474A2.364,2.364,0,0,0-8.271-6ZM7.49-3.32A3.054,3.054,0,0,1,6.2-.688,6.082,6.082,0,0,1,2.588.244,12.546,12.546,0,0,1,.923.107,10.286,10.286,0,0,1-.693-.225v-2.92a7.958,7.958,0,0,0,3.086.82q1.221,0,1.221-.635a.5.5,0,0,0-.283-.435,10.01,10.01,0,0,0-1.484-.571A4.192,4.192,0,0,1-.088-5.078,2.647,2.647,0,0,1-.693-6.885,2.883,2.883,0,0,1,.542-9.341a5.8,5.8,0,0,1,3.472-.9,11.035,11.035,0,0,1,2.773.381v2.8A8.387,8.387,0,0,0,5.439-7.5a5.443,5.443,0,0,0-1.23-.176,1.339,1.339,0,0,0-.654.137.421.421,0,0,0-.244.381.531.531,0,0,0,.264.459,4.664,4.664,0,0,0,1.055.42,4.894,4.894,0,0,1,2.2,1.152A2.525,2.525,0,0,1,7.49-3.32ZM13.428-12.7a1.787,1.787,0,0,1-.64,1.426,2.5,2.5,0,0,1-1.685.547,2.441,2.441,0,0,1-1.665-.566A1.791,1.791,0,0,1,8.789-12.7a1.734,1.734,0,0,1,.63-1.392,2.524,2.524,0,0,1,1.685-.532,2.548,2.548,0,0,1,1.685.532A1.723,1.723,0,0,1,13.428-12.7ZM9.023,0V-10h4.16V0ZM22.471,0H17.529l-3.34-10h4.336l1.221,5.459a12.629,12.629,0,0,1,.322,1.982h.059q.02-.2.054-.4T21.631-10h4.316Zm15.6-5.176A5.207,5.207,0,0,1,36.538-1.2,5.972,5.972,0,0,1,32.266.244a6,6,0,0,1-4.243-1.411A5.051,5.051,0,0,1,26.5-5.059a5.214,5.214,0,0,1,.713-2.764,4.636,4.636,0,0,1,2.031-1.8,7.012,7.012,0,0,1,3.037-.625,6.792,6.792,0,0,1,3.081.654,4.763,4.763,0,0,1,2,1.816A4.946,4.946,0,0,1,38.066-5.176Zm-4.219.02q0-2.041-1.562-2.041T30.723-5.059Q30.723-2.8,32.3-2.8,33.848-2.8,33.848-5.156Zm13.9,1.836A3.054,3.054,0,0,1,46.45-.688a6.082,6.082,0,0,1-3.608.933A12.546,12.546,0,0,1,41.177.107a10.286,10.286,0,0,1-1.616-.332v-2.92a7.958,7.958,0,0,0,3.086.82q1.221,0,1.221-.635a.5.5,0,0,0-.283-.435A10.01,10.01,0,0,0,42.1-3.965a4.192,4.192,0,0,1-1.934-1.113,2.647,2.647,0,0,1-.605-1.807A2.883,2.883,0,0,1,40.8-9.341a5.8,5.8,0,0,1,3.472-.9,11.035,11.035,0,0,1,2.773.381v2.8A8.387,8.387,0,0,0,45.693-7.5a5.443,5.443,0,0,0-1.23-.176,1.339,1.339,0,0,0-.654.137.421.421,0,0,0-.244.381.531.531,0,0,0,.264.459,4.664,4.664,0,0,0,1.055.42,4.894,4.894,0,0,1,2.2,1.152A2.525,2.525,0,0,1,47.744-3.32Z" transform="translate(8002.498 -8726.967)" fill="#12263f"/>
      <path id="Trazado_1005612" data-name="Trazado 1005612" d="M-57.715-7.178a7.726,7.726,0,0,1-.894,3.765A6.158,6.158,0,0,1-61.162-.889,7.988,7.988,0,0,1-64.99,0h-5.928V-14h5.8Q-57.715-14-57.715-7.178Zm-4.482.039a4.03,4.03,0,0,0-.415-1.846,3,3,0,0,0-1.187-1.27,3.546,3.546,0,0,0-1.816-.449H-66.7v7.4h1.182A3.04,3.04,0,0,0-63.1-4.341,4.118,4.118,0,0,0-62.2-7.139Zm9.658,3.32A1.405,1.405,0,0,0-51.8-2.808a3.347,3.347,0,0,0,1.68.366A6.917,6.917,0,0,0-47.363-3V-.361a9.9,9.9,0,0,1-3.672.605,5.794,5.794,0,0,1-4.072-1.338,4.753,4.753,0,0,1-1.455-3.682,6.074,6.074,0,0,1,.64-2.842,4.6,4.6,0,0,1,1.895-1.929,5.6,5.6,0,0,1,2.769-.7,5.447,5.447,0,0,1,2.656.605,4.033,4.033,0,0,1,1.675,1.7,5.452,5.452,0,0,1,.571,2.559v1.563ZM-50.039-6q0-1.729-1.24-1.729a1.049,1.049,0,0,0-.869.474A2.364,2.364,0,0,0-52.559-6Zm18.086,6V-5.762a1.838,1.838,0,0,0-.259-1.079.973.973,0,0,0-.845-.356,1.055,1.055,0,0,0-.9.435,1.989,1.989,0,0,0-.322,1.206V0h-4.16V-5.664q0-1.533-1.045-1.533a1.106,1.106,0,0,0-.957.444,2.148,2.148,0,0,0-.322,1.274V0h-4.16V-10h4.16v1.582h.039a3.224,3.224,0,0,1,.747-.854,4.385,4.385,0,0,1,1.157-.7,3.594,3.594,0,0,1,1.4-.269,3.535,3.535,0,0,1,1.792.42A3.256,3.256,0,0,1-34.414-8.5,3.564,3.564,0,0,1-33.008-9.79a4.191,4.191,0,0,1,1.953-.454,2.939,2.939,0,0,1,2.412,1.025A4.566,4.566,0,0,1-27.8-6.26V0Zm17.158-5.176A5.207,5.207,0,0,1-16.323-1.2,5.972,5.972,0,0,1-20.6.244a6,6,0,0,1-4.243-1.411,5.051,5.051,0,0,1-1.519-3.892,5.214,5.214,0,0,1,.713-2.764,4.636,4.636,0,0,1,2.031-1.8,7.012,7.012,0,0,1,3.037-.625A6.792,6.792,0,0,1-17.5-9.59a4.763,4.763,0,0,1,2,1.816A4.946,4.946,0,0,1-14.795-5.176Zm-4.219.02q0-2.041-1.562-2.041t-1.562,2.139q0,2.256,1.582,2.256Q-19.014-2.8-19.014-5.156Zm13.9,1.836A3.054,3.054,0,0,1-6.411-.688,6.082,6.082,0,0,1-10.02.244,12.546,12.546,0,0,1-11.685.107,10.286,10.286,0,0,1-13.3-.225v-2.92a7.958,7.958,0,0,0,3.086.82q1.221,0,1.221-.635a.5.5,0,0,0-.283-.435,10.01,10.01,0,0,0-1.484-.571A4.192,4.192,0,0,1-12.7-5.078,2.647,2.647,0,0,1-13.3-6.885a2.883,2.883,0,0,1,1.235-2.456,5.8,5.8,0,0,1,3.472-.9,11.035,11.035,0,0,1,2.773.381v2.8A8.387,8.387,0,0,0-7.168-7.5,5.443,5.443,0,0,0-8.4-7.676a1.339,1.339,0,0,0-.654.137.421.421,0,0,0-.244.381.531.531,0,0,0,.264.459,4.664,4.664,0,0,0,1.055.42,4.894,4.894,0,0,1,2.2,1.152A2.525,2.525,0,0,1-5.117-3.32ZM3.457-.137a4.053,4.053,0,0,1-.928.259A8.482,8.482,0,0,1,.977.244a3.73,3.73,0,0,1-2.72-.957,3.632,3.632,0,0,1-.981-2.725V-7.119H-4.3V-10h1.572v-1.963l4.1-1.133V-10h2.08v2.881H1.377v3Q1.377-2.8,2.422-2.8a2.835,2.835,0,0,0,1.035-.215Zm8.818-6.3a3.233,3.233,0,0,0-.635-.2,3.212,3.212,0,0,0-.664-.088q-2.061,0-2.061,2.383V0H4.756V-10h4.16v1.758h.039a3.123,3.123,0,0,1,1.084-1.44,2.785,2.785,0,0,1,1.641-.493,1.409,1.409,0,0,1,.6.117ZM19.023,0V-1.523h-.039A3.272,3.272,0,0,1,15.938.244,2.917,2.917,0,0,1,13.721-.6a3.12,3.12,0,0,1-.8-2.246q0-2.949,3.623-3.418l2.48-.322a.946.946,0,0,0-.439-.8A2,2,0,0,0,17.4-7.7a7.783,7.783,0,0,0-3.545.957V-9.443a9.484,9.484,0,0,1,2.031-.576,11.822,11.822,0,0,1,2.09-.225,5.247,5.247,0,0,1,3.7,1.089,4.853,4.853,0,0,1,1.147,3.638V0ZM16.563-3.4a.922.922,0,0,0,.259.674.987.987,0,0,0,.737.264,1.311,1.311,0,0,0,1.06-.488,1.892,1.892,0,0,0,.405-1.25V-4.58l-1.406.2Q16.563-4.209,16.563-3.4ZM31.738-.137a4.053,4.053,0,0,1-.928.259,8.482,8.482,0,0,1-1.553.122,3.73,3.73,0,0,1-2.72-.957,3.632,3.632,0,0,1-.981-2.725V-7.119H23.984V-10h1.572v-1.963l4.1-1.133V-10h2.08v2.881h-2.08v3Q29.658-2.8,30.7-2.8a2.835,2.835,0,0,0,1.035-.215Zm5.7-12.559a1.787,1.787,0,0,1-.64,1.426,2.5,2.5,0,0,1-1.685.547,2.441,2.441,0,0,1-1.665-.566A1.791,1.791,0,0,1,32.8-12.7a1.734,1.734,0,0,1,.63-1.392,2.524,2.524,0,0,1,1.685-.532,2.548,2.548,0,0,1,1.685.532A1.723,1.723,0,0,1,37.441-12.7ZM33.037,0V-10H37.2V0ZM46.484,0H41.543L38.2-10h4.336L43.76-4.541a12.629,12.629,0,0,1,.322,1.982h.059q.02-.2.054-.4T45.645-10h4.316Zm15.6-5.176A5.207,5.207,0,0,1,60.552-1.2,5.972,5.972,0,0,1,56.279.244a6,6,0,0,1-4.243-1.411,5.051,5.051,0,0,1-1.519-3.892,5.214,5.214,0,0,1,.713-2.764,4.636,4.636,0,0,1,2.031-1.8,7.012,7.012,0,0,1,3.037-.625,6.792,6.792,0,0,1,3.081.654,4.763,4.763,0,0,1,2,1.816A4.946,4.946,0,0,1,62.08-5.176Zm-4.219.02Q57.861-7.2,56.3-7.2T54.736-5.059q0,2.256,1.582,2.256Q57.861-2.8,57.861-5.156Zm13.9,1.836A3.054,3.054,0,0,1,70.464-.688a6.082,6.082,0,0,1-3.608.933A12.546,12.546,0,0,1,65.19.107a10.286,10.286,0,0,1-1.616-.332v-2.92a7.958,7.958,0,0,0,3.086.82q1.221,0,1.221-.635a.5.5,0,0,0-.283-.435,10.01,10.01,0,0,0-1.484-.571A4.192,4.192,0,0,1,64.18-5.078a2.647,2.647,0,0,1-.605-1.807A2.883,2.883,0,0,1,64.81-9.341a5.8,5.8,0,0,1,3.472-.9,11.035,11.035,0,0,1,2.773.381v2.8A8.387,8.387,0,0,0,69.707-7.5a5.443,5.443,0,0,0-1.23-.176,1.339,1.339,0,0,0-.654.137.421.421,0,0,0-.244.381.531.531,0,0,0,.264.459,4.664,4.664,0,0,0,1.055.42,4.894,4.894,0,0,1,2.2,1.152A2.525,2.525,0,0,1,71.758-3.32Z" transform="translate(8202.498 -8622)" fill="#12263f"/>
      <path id="Trazado_1005610" data-name="Trazado 1005610" d="M-78.047,0V-14h4.219V0Zm13.076,0V-5.459a2.427,2.427,0,0,0-.278-1.333,1.017,1.017,0,0,0-.9-.405.978.978,0,0,0-.84.42,1.792,1.792,0,0,0-.3,1.074V0h-4.16V-10h4.16v1.563h.039a3.53,3.53,0,0,1,1.338-1.333,3.655,3.655,0,0,1,1.826-.474q3.281,0,3.281,4.141V0Zm13.076-.137a4.053,4.053,0,0,1-.928.259,8.482,8.482,0,0,1-1.553.122,3.73,3.73,0,0,1-2.72-.957,3.632,3.632,0,0,1-.981-2.725V-7.119h-1.572V-10h1.572v-1.963l4.1-1.133V-10h2.08v2.881h-2.08v3q0,1.318,1.045,1.318a2.835,2.835,0,0,0,1.035-.215Zm4.883-3.682a1.405,1.405,0,0,0,.742,1.011,3.347,3.347,0,0,0,1.68.366A6.917,6.917,0,0,0-41.836-3V-.361a9.9,9.9,0,0,1-3.672.605A5.794,5.794,0,0,1-49.58-1.094a4.753,4.753,0,0,1-1.455-3.682,6.074,6.074,0,0,1,.64-2.842A4.6,4.6,0,0,1-48.5-9.546a5.6,5.6,0,0,1,2.769-.7,5.447,5.447,0,0,1,2.656.605,4.033,4.033,0,0,1,1.675,1.7,5.452,5.452,0,0,1,.571,2.559v1.563ZM-44.512-6q0-1.729-1.24-1.729a1.049,1.049,0,0,0-.869.474A2.364,2.364,0,0,0-47.031-6Zm12.637-.439a3.233,3.233,0,0,0-.635-.2,3.212,3.212,0,0,0-.664-.088q-2.061,0-2.061,2.383V0h-4.16V-10h4.16v1.758h.039a3.123,3.123,0,0,1,1.084-1.44,2.785,2.785,0,0,1,1.641-.493,1.409,1.409,0,0,1,.6.117Zm8.721,0a3.233,3.233,0,0,0-.635-.2,3.212,3.212,0,0,0-.664-.088q-2.061,0-2.061,2.383V0h-4.16V-10h4.16v1.758h.039a3.123,3.123,0,0,1,1.084-1.44,2.785,2.785,0,0,1,1.641-.493,1.409,1.409,0,0,1,.6.117Zm12.324,1.26A5.207,5.207,0,0,1-12.358-1.2,5.972,5.972,0,0,1-16.631.244a6,6,0,0,1-4.243-1.411,5.051,5.051,0,0,1-1.519-3.892,5.214,5.214,0,0,1,.713-2.764,4.636,4.636,0,0,1,2.031-1.8,7.012,7.012,0,0,1,3.037-.625,6.792,6.792,0,0,1,3.081.654,4.763,4.763,0,0,1,2,1.816A4.946,4.946,0,0,1-10.83-5.176Zm-4.219.02q0-2.041-1.562-2.041t-1.562,2.139q0,2.256,1.582,2.256Q-15.049-2.8-15.049-5.156ZM1.563-1.4A5.685,5.685,0,0,1-.249,3.091,7.736,7.736,0,0,1-5.537,4.7a11.033,11.033,0,0,1-1.816-.146,5.006,5.006,0,0,1-1.26-.332V.957a5.58,5.58,0,0,0,1.465.625,5.636,5.636,0,0,0,1.494.234,3.469,3.469,0,0,0,2.236-.674,2.177,2.177,0,0,0,.84-1.787V-1.26h-.039A3.232,3.232,0,0,1-3.853-.166a3.589,3.589,0,0,1-1.685.41A3.775,3.775,0,0,1-8.594-1.1,5.605,5.605,0,0,1-9.717-4.8a6.627,6.627,0,0,1,.586-2.861A4.465,4.465,0,0,1-7.5-9.575a4.188,4.188,0,0,1,2.3-.669A2.884,2.884,0,0,1-2.617-8.965h.039V-10H1.563ZM-2.51-5.283a2.245,2.245,0,0,0-.4-1.4A1.256,1.256,0,0,0-3.955-7.2a1.293,1.293,0,0,0-1.123.625A2.951,2.951,0,0,0-5.5-4.9a2.89,2.89,0,0,0,.352,1.533A1.214,1.214,0,0,0-4.033-2.8a1.29,1.29,0,0,0,1.118-.581A2.676,2.676,0,0,0-2.51-4.941ZM9.111,0V-1.523H9.072A3.272,3.272,0,0,1,6.025.244,2.917,2.917,0,0,1,3.809-.6a3.12,3.12,0,0,1-.8-2.246q0-2.949,3.623-3.418l2.48-.322a.946.946,0,0,0-.439-.8A2,2,0,0,0,7.49-7.7a7.783,7.783,0,0,0-3.545.957V-9.443a9.484,9.484,0,0,1,2.031-.576,11.822,11.822,0,0,1,2.09-.225,5.247,5.247,0,0,1,3.7,1.089A4.853,4.853,0,0,1,12.91-5.518V0ZM6.65-3.4a.922.922,0,0,0,.259.674.987.987,0,0,0,.737.264,1.311,1.311,0,0,0,1.06-.488A1.892,1.892,0,0,0,9.111-4.2V-4.58l-1.406.2Q6.65-4.209,6.65-3.4ZM21.826-.137A4.053,4.053,0,0,1,20.9.122a8.482,8.482,0,0,1-1.553.122,3.73,3.73,0,0,1-2.72-.957,3.632,3.632,0,0,1-.981-2.725V-7.119H14.072V-10h1.572v-1.963l4.1-1.133V-10h2.08v2.881h-2.08v3q0,1.318,1.045,1.318a2.835,2.835,0,0,0,1.035-.215Zm5.7-12.559a1.787,1.787,0,0,1-.64,1.426,2.5,2.5,0,0,1-1.685.547,2.441,2.441,0,0,1-1.665-.566,1.791,1.791,0,0,1-.649-1.406,1.734,1.734,0,0,1,.63-1.392,2.524,2.524,0,0,1,1.685-.532,2.548,2.548,0,0,1,1.685.532A1.723,1.723,0,0,1,27.529-12.7ZM23.125,0V-10h4.16V0ZM36.572,0H31.631l-3.34-10h4.336l1.221,5.459a12.629,12.629,0,0,1,.322,1.982h.059q.02-.2.054-.4T35.732-10h4.316Zm15.6-5.176A5.207,5.207,0,0,1,50.64-1.2,5.972,5.972,0,0,1,46.367.244a6,6,0,0,1-4.243-1.411,5.051,5.051,0,0,1-1.519-3.892,5.214,5.214,0,0,1,.713-2.764,4.636,4.636,0,0,1,2.031-1.8,7.012,7.012,0,0,1,3.037-.625,6.792,6.792,0,0,1,3.081.654,4.763,4.763,0,0,1,2,1.816A4.946,4.946,0,0,1,52.168-5.176Zm-4.219.02q0-2.041-1.562-2.041T44.824-5.059q0,2.256,1.582,2.256Q47.949-2.8,47.949-5.156Zm13.9,1.836A3.054,3.054,0,0,1,60.552-.688a6.082,6.082,0,0,1-3.608.933A12.546,12.546,0,0,1,55.278.107a10.286,10.286,0,0,1-1.616-.332v-2.92a7.958,7.958,0,0,0,3.086.82q1.221,0,1.221-.635a.5.5,0,0,0-.283-.435A10.01,10.01,0,0,0,56.2-3.965a4.192,4.192,0,0,1-1.934-1.113,2.647,2.647,0,0,1-.605-1.807A2.883,2.883,0,0,1,54.9-9.341a5.8,5.8,0,0,1,3.472-.9,11.035,11.035,0,0,1,2.773.381v2.8A8.387,8.387,0,0,0,59.795-7.5a5.443,5.443,0,0,0-1.23-.176,1.339,1.339,0,0,0-.654.137.421.421,0,0,0-.244.381.531.531,0,0,0,.264.459,4.664,4.664,0,0,0,1.055.42,4.894,4.894,0,0,1,2.2,1.152A2.525,2.525,0,0,1,61.846-3.32ZM70.879,4.7a8.4,8.4,0,0,1-1.26-.1,6.113,6.113,0,0,1-1.2-.3V1.162a2.5,2.5,0,0,0,.728.342,2.973,2.973,0,0,0,.913.156A1.5,1.5,0,0,0,71.6.742l.322-.781L67.744-10h4.6l1.211,4.824a11.978,11.978,0,0,1,.381,1.816h.039q.029-.215.083-.479T75.576-10h4.043L75.938.283a7.636,7.636,0,0,1-2.056,3.389A4.523,4.523,0,0,1,70.879,4.7ZM-60.283,18.182a1.405,1.405,0,0,0,.742,1.011,3.347,3.347,0,0,0,1.68.366A6.917,6.917,0,0,0-55.107,19v2.637a9.9,9.9,0,0,1-3.672.605,5.794,5.794,0,0,1-4.072-1.338,4.753,4.753,0,0,1-1.455-3.682,6.074,6.074,0,0,1,.64-2.842,4.6,4.6,0,0,1,1.895-1.929,5.6,5.6,0,0,1,2.769-.7,5.447,5.447,0,0,1,2.656.605,4.033,4.033,0,0,1,1.675,1.7,5.452,5.452,0,0,1,.571,2.559v1.563Zm2.5-2.178q0-1.729-1.24-1.729a1.049,1.049,0,0,0-.869.474A2.364,2.364,0,0,0-60.3,16Zm13.34.674L-41.221,22h-4.785l-1.074-2.275a10.36,10.36,0,0,1-.42-1.045h-.039q-.205.664-.264.815T-48.945,22H-53.7l3.32-5.039L-53.506,12h4.8l1.074,2.324a6.372,6.372,0,0,1,.43,1.094h.039q.283-.85.4-1.113l1.016-2.3H-41.2ZM-32,21.717a3.922,3.922,0,0,1-1.26.381,11.91,11.91,0,0,1-1.982.146,6.1,6.1,0,0,1-2.827-.64A4.667,4.667,0,0,1-40,19.813a4.975,4.975,0,0,1-.684-2.588,5.667,5.667,0,0,1,.728-2.944,4.743,4.743,0,0,1,2.075-1.875,7.119,7.119,0,0,1,3.125-.649A10.933,10.933,0,0,1-33,11.883a2.678,2.678,0,0,1,1,.293v3.242a2.889,2.889,0,0,0-.9-.43,3.609,3.609,0,0,0-1.084-.186,2.639,2.639,0,0,0-1.851.581,2.114,2.114,0,0,0-.63,1.636,2.075,2.075,0,0,0,.62,1.606,2.419,2.419,0,0,0,1.7.571A4.244,4.244,0,0,0-32,18.641Zm1.66.283V7.2h4.16V22Zm11.709,0V20.477h-.039a3.272,3.272,0,0,1-3.047,1.768,2.917,2.917,0,0,1-2.217-.84,3.12,3.12,0,0,1-.8-2.246q0-2.949,3.623-3.418l2.48-.322a.946.946,0,0,0-.439-.8,2,2,0,0,0-1.182-.312,7.783,7.783,0,0,0-3.545.957V12.557a9.484,9.484,0,0,1,2.031-.576,11.822,11.822,0,0,1,2.09-.225,5.247,5.247,0,0,1,3.7,1.089,4.853,4.853,0,0,1,1.147,3.638V22Zm-2.461-3.4a.922.922,0,0,0,.259.674.987.987,0,0,0,.737.264,1.311,1.311,0,0,0,1.06-.488,1.892,1.892,0,0,0,.405-1.25V17.42l-1.406.2Q-21.094,17.791-21.094,18.6ZM.01,22V16.238a1.838,1.838,0,0,0-.259-1.079.973.973,0,0,0-.845-.356,1.055,1.055,0,0,0-.9.435,1.989,1.989,0,0,0-.322,1.206V22h-4.16V16.336q0-1.533-1.045-1.533a1.106,1.106,0,0,0-.957.444A2.148,2.148,0,0,0-8.8,16.521V22h-4.16V12H-8.8v1.582h.039a3.224,3.224,0,0,1,.747-.854,4.385,4.385,0,0,1,1.157-.7,3.594,3.594,0,0,1,1.4-.269,3.535,3.535,0,0,1,1.792.42A3.256,3.256,0,0,1-2.451,13.5,3.564,3.564,0,0,1-1.045,12.21a4.191,4.191,0,0,1,1.953-.454A2.939,2.939,0,0,1,3.32,12.781a4.566,4.566,0,0,1,.84,2.959V22Zm11.582,0V20.477h-.039a3.272,3.272,0,0,1-3.047,1.768,2.917,2.917,0,0,1-2.217-.84,3.12,3.12,0,0,1-.8-2.246q0-2.949,3.623-3.418l2.48-.322a.946.946,0,0,0-.439-.8A2,2,0,0,0,9.971,14.3a7.783,7.783,0,0,0-3.545.957V12.557a9.484,9.484,0,0,1,2.031-.576,11.822,11.822,0,0,1,2.09-.225,5.247,5.247,0,0,1,3.7,1.089,4.853,4.853,0,0,1,1.147,3.638V22ZM9.131,18.6a.922.922,0,0,0,.259.674.987.987,0,0,0,.737.264,1.311,1.311,0,0,0,1.06-.488,1.892,1.892,0,0,0,.405-1.25V17.42l-1.406.2Q9.131,17.791,9.131,18.6Zm15.176,3.262a4.053,4.053,0,0,1-.928.259,8.482,8.482,0,0,1-1.553.122,3.73,3.73,0,0,1-2.72-.957,3.632,3.632,0,0,1-.981-2.725V14.881H16.553V12h1.572V10.037l4.1-1.133V12h2.08v2.881h-2.08v3q0,1.318,1.045,1.318a2.835,2.835,0,0,0,1.035-.215ZM30.01,9.3a1.787,1.787,0,0,1-.64,1.426,2.5,2.5,0,0,1-1.685.547,2.441,2.441,0,0,1-1.665-.566A1.791,1.791,0,0,1,25.371,9.3,1.734,1.734,0,0,1,26,7.913a2.932,2.932,0,0,1,3.369,0A1.723,1.723,0,0,1,30.01,9.3ZM25.605,22V12h4.16V22Zm13.447,0H34.111l-3.34-10h4.336l1.221,5.459a12.629,12.629,0,0,1,.322,1.982h.059q.02-.2.054-.4T38.213,12h4.316Zm15.6-5.176A5.207,5.207,0,0,1,53.12,20.8a5.972,5.972,0,0,1-4.272,1.445A6,6,0,0,1,44.6,20.833a5.051,5.051,0,0,1-1.519-3.892,5.214,5.214,0,0,1,.713-2.764,4.636,4.636,0,0,1,2.031-1.8,7.012,7.012,0,0,1,3.037-.625,6.792,6.792,0,0,1,3.081.654,4.763,4.763,0,0,1,2,1.816A4.946,4.946,0,0,1,54.648,16.824Zm-4.219.02q0-2.041-1.562-2.041T47.3,16.941q0,2.256,1.582,2.256Q50.43,19.2,50.43,16.844Zm13.9,1.836a3.054,3.054,0,0,1-1.294,2.632,6.082,6.082,0,0,1-3.608.933,12.546,12.546,0,0,1-1.665-.137,10.286,10.286,0,0,1-1.616-.332v-2.92a7.958,7.958,0,0,0,3.086.82q1.221,0,1.221-.635a.5.5,0,0,0-.283-.435,10.01,10.01,0,0,0-1.484-.571,4.192,4.192,0,0,1-1.934-1.113,2.647,2.647,0,0,1-.605-1.807,2.883,2.883,0,0,1,1.235-2.456,5.8,5.8,0,0,1,3.472-.9,11.035,11.035,0,0,1,2.773.381v2.8a8.387,8.387,0,0,0-1.348-.439,5.443,5.443,0,0,0-1.23-.176,1.339,1.339,0,0,0-.654.137.421.421,0,0,0-.244.381.531.531,0,0,0,.264.459,4.664,4.664,0,0,0,1.055.42,4.894,4.894,0,0,1,2.2,1.152A2.525,2.525,0,0,1,64.326,18.68Z" transform="translate(7814.633 -8742.014)" fill="#12263f"/>
      <g id="Grupo_1192418" data-name="Grupo 1192418">
        <circle id="Elipse_13786" data-name="Elipse 13786" cx="30" cy="30" r="30" transform="translate(7657 -8460)" fill="#fff"/>
        <g id="Grupo_1192417" data-name="Grupo 1192417" transform="translate(7670.002 -8447)">
          <g id="Grupo_1192414" data-name="Grupo 1192414" transform="translate(18.212 18.213)">
            <path id="Trazado_1004859" data-name="Trazado 1004859" d="M32.956,33.436A2.253,2.253,0,0,1,32.68,32.3v-.034a2.281,2.281,0,1,1,4.561.005v.072a2.266,2.266,0,0,1-.668,1.613l-.778.778a2.043,2.043,0,0,0-.736,1.716" transform="translate(-27.172 -26.411)" fill="none" stroke="#5c3b66" stroke-linecap="round" stroke-linejoin="round" stroke-width="1.5"/>
            <circle id="Elipse_13787" data-name="Elipse 13787" cx="7.5" cy="7.5" r="7.5" transform="translate(0.281 0.283)" fill="none" stroke="#5c3b66" stroke-linecap="round" stroke-linejoin="round" stroke-width="1.5"/>
            <circle id="Elipse_13788" data-name="Elipse 13788" cx="1" cy="1" r="1" transform="translate(7.281 11.283)" fill="#5c3b66"/>
          </g>
          <g id="Grupo_1192416" data-name="Grupo 1192416" transform="translate(0.998 1)">
            <g id="Grupo_1192415" data-name="Grupo 1192415" transform="translate(11.891)">
              <path id="Trazado_1004860" data-name="Trazado 1004860" d="M17.579,3.133A6.129,6.129,0,0,1,22.188,1a6.353,6.353,0,0,1,5.827,4.116c.172-.015.344-.028.519-.028a6.46,6.46,0,0,1,6.174,5.231" transform="translate(-17.579 -1)" fill="none" stroke="#5c3b66" stroke-linecap="round" stroke-miterlimit="10" stroke-width="1.5"/>
              <path id="Trazado_1004861" data-name="Trazado 1004861" d="M43.62,19.4a5.321,5.321,0,0,0-8.57-4.214" transform="translate(-22.52 -4.699)" fill="none" stroke="#5c3b66" stroke-linecap="round" stroke-miterlimit="10" stroke-width="1.5"/>
            </g>
            <path id="Trazado_1004862" data-name="Trazado 1004862" d="M45.484,19.485a5.32,5.32,0,0,0-3.843-5.109" transform="translate(-12.492 -4.783)" fill="none" stroke="#5c3b66" stroke-linecap="round" stroke-miterlimit="10" stroke-width="1.5"/>
            <path id="Trazado_1004863" data-name="Trazado 1004863" d="M16.012,6.729A6.385,6.385,0,0,0,4.724,10.821c0,.155.012.306.023.458A5.4,5.4,0,0,0,1,16.531a5.4,5.4,0,0,0,4.664,5.516l9.68.006" transform="translate(-0.998 -1.971)" fill="none" stroke="#5c3b66" stroke-linecap="round" stroke-miterlimit="10" stroke-width="1.5"/>
          </g>
        </g>
      </g>
      <g id="Grupo_1192419" data-name="Grupo 1192419" transform="translate(62 -105)">
        <circle id="Elipse_13786-2" data-name="Elipse 13786" cx="30" cy="30" r="30" transform="translate(7657 -8460)" fill="#fff"/>
        <g id="Translation" transform="translate(7666.009 -8451.237)">
          <g id="Grupo_1192420" data-name="Grupo 1192420" transform="translate(4.045 4.562)">
            <path id="Trazado_1004864" data-name="Trazado 1004864" d="M23.8,15.563V8.074a3.516,3.516,0,0,0-3.512-3.512H7.564A3.52,3.52,0,0,0,4.045,8.074v7.489a3.523,3.523,0,0,0,3.519,3.519H7.7v1.8a1.276,1.276,0,0,0,2.084.981l3.406-2.783h7.1A3.52,3.52,0,0,0,23.8,15.563Zm-11.326,2.73L9.115,21.064a.229.229,0,0,1-.37-.179V18.777a.741.741,0,0,0-.74-.74H7.564a2.477,2.477,0,0,1-2.475-2.474V8.074A2.474,2.474,0,0,1,7.564,5.606H20.292A2.471,2.471,0,0,1,22.76,8.074v7.489a2.474,2.474,0,0,1-2.468,2.474h-7.1a1.092,1.092,0,0,0-.713.255Z" transform="translate(-4.045 -4.562)" fill="#5c3b66"/>
            <path id="Trazado_1004865" data-name="Trazado 1004865" d="M34.623,49.265l7.15.017,3.351,2.761a1.276,1.276,0,0,0,2.09-.976v-1.8h.137a3.523,3.523,0,0,0,3.519-3.519V38.257a3.52,3.52,0,0,0-3.519-3.512H34.623a3.516,3.516,0,0,0-3.512,3.512v7.489a3.52,3.52,0,0,0,3.512,3.519ZM32.155,38.257a2.471,2.471,0,0,1,2.468-2.468H47.351a2.474,2.474,0,0,1,2.475,2.468v7.489a2.477,2.477,0,0,1-2.475,2.474h-.442a.741.741,0,0,0-.74.74v2.107a.228.228,0,0,1-.376.175l-3.347-2.757a1.1,1.1,0,0,0-.723-.264h-7.1a2.474,2.474,0,0,1-2.468-2.474Z" transform="translate(-16.979 -18.985)" fill="#5c3b66"/>
            <path id="Trazado_1004866" data-name="Trazado 1004866" d="M12.3,14.065v1.562H10.135V14.065a.39.39,0,0,0-.4-.391.385.385,0,0,0-.383.391v3.866a.38.38,0,0,0,.386.385.385.385,0,0,0,.393-.385V16.368H12.3v1.562a.382.382,0,0,0,.386.386.388.388,0,0,0,.393-.386V14.065a.39.39,0,0,0-.389-.391.385.385,0,0,0-.391.391Z" transform="translate(-6.583 -8.916)" fill="#5c3b66"/>
            <path id="Trazado_1004867" data-name="Trazado 1004867" d="M20.857,17.55a1.575,1.575,0,0,0-1.6-1.683,1.592,1.592,0,0,0-1.6,1.765A1.6,1.6,0,0,0,19.386,19.4a2.066,2.066,0,0,0,1.149-.29.368.368,0,0,0,.215-.322.356.356,0,0,0-.514-.313,1.659,1.659,0,0,1-.8.183.876.876,0,0,1-.975-.718h2a.377.377,0,0,0,.393-.386Zm-2.4-.286a.792.792,0,0,1,.8-.706.8.8,0,0,1,.815.706Z" transform="translate(-10.551 -9.964)" fill="#5c3b66"/>
            <path id="Trazado_1004868" data-name="Trazado 1004868" d="M24.823,13.68v4.066a.382.382,0,0,0,.386.386.387.387,0,0,0,.393-.386V13.68a.381.381,0,0,0-.39-.392A.385.385,0,0,0,24.823,13.68Z" transform="translate(-13.974 -8.732)" fill="#5c3b66"/>
            <path id="Trazado_1004869" data-name="Trazado 1004869" d="M27.812,13.682v4.066a.382.382,0,0,0,.386.386.387.387,0,0,0,.393-.386V13.682a.39.39,0,1,0-.779,0Z" transform="translate(-15.402 -8.734)" fill="#5c3b66"/>
            <path id="Trazado_1004870" data-name="Trazado 1004870" d="M33.845,17.631a1.709,1.709,0,1,0-3.417,0,1.709,1.709,0,1,0,3.417,0Zm-1.708,1.036a.927.927,0,0,1-.929-1.042.934.934,0,1,1,1.859,0A.932.932,0,0,1,32.136,18.668Z" transform="translate(-16.653 -9.964)" fill="#5c3b66"/>
            <path id="Trazado_1004871" data-name="Trazado 1004871" d="M38.189,48.317a.4.4,0,0,0,.429-.394V46.3h2.245v1.618a.391.391,0,0,0,.4.4.4.4,0,0,0,.4-.4v-4a.4.4,0,0,0-.394-.4.4.4,0,0,0-.4.4v1.618H38.618V43.927a.4.4,0,0,0-.428-.4.4.4,0,0,0-.37.4v4a.39.39,0,0,0,.37.394Z" transform="translate(-20.185 -23.181)" fill="#5c3b66"/>
            <path id="Trazado_1004872" data-name="Trazado 1004872" d="M48.165,49.435a1.822,1.822,0,1,0-1.762-1.82A1.7,1.7,0,0,0,48.165,49.435ZM47.2,47.608a.969.969,0,1,1,1.928,0,.97.97,0,1,1-1.928,0Z" transform="translate(-24.286 -24.265)" fill="#5c3b66"/>
            <path id="Trazado_1004873" data-name="Trazado 1004873" d="M54.724,48.129a.4.4,0,0,0,.4-.4v-4.2a.391.391,0,0,0-.4-.4.4.4,0,0,0-.4.4v4.2A.391.391,0,0,0,54.724,48.129Z" transform="translate(-28.074 -22.992)" fill="#5c3b66"/>
            <path id="Trazado_1004874" data-name="Trazado 1004874" d="M57.007,48.359a1.082,1.082,0,0,0,1.16,1.076,1.757,1.757,0,0,0,1.117-.366.392.392,0,0,0,.4.333.4.4,0,0,0,.394-.4V47.174a1.343,1.343,0,0,0-1.458-1.38,2.967,2.967,0,0,0-1.161.241.352.352,0,0,0-.232.342.347.347,0,0,0,.461.332,2.312,2.312,0,0,1,.828-.15c.55,0,.747.2.762.646H58.6c-.837,0-1.594.32-1.594,1.154Zm1.381.349c-.325,0-.582-.085-.582-.414,0-.27.294-.407.873-.407h.6v.4a1.276,1.276,0,0,1-.893.422Z" transform="translate(-29.354 -24.265)" fill="#5c3b66"/>
            <path id="Trazado_1004875" data-name="Trazado 1004875" d="M12.976,53.348l2.715-2.715a.622.622,0,0,0,0-.871l-2.715-2.715a.617.617,0,0,0-1.051.438v.826c-3.4-.291-5.545-2.053-6.936-5.692a.2.2,0,0,0-.393.049c-.339,2.818.209,5.079,1.632,6.719a8.626,8.626,0,0,0,5.7,2.67v.855a.617.617,0,0,0,1.051.437Z" transform="translate(-4.262 -22.685)" fill="#5c3b66"/>
            <path id="Trazado_1004876" data-name="Trazado 1004876" d="M49.618,9.547,46.9,12.262a.622.622,0,0,0,0,.871l2.715,2.715a.617.617,0,0,0,1.051-.438v-.826c3.4.291,5.545,2.053,6.935,5.692A.2.2,0,0,0,58,20.228c.339-2.818-.209-5.079-1.632-6.719a8.626,8.626,0,0,0-5.7-2.67V9.984a.617.617,0,0,0-1.051-.437Z" transform="translate(-24.44 -6.858)" fill="#5c3b66"/>
          </g>
        </g>
      </g>
      <g id="Grupo_1192421" data-name="Grupo 1192421" transform="translate(170 -168)">
        <circle id="Elipse_13786-3" data-name="Elipse 13786" cx="30" cy="30" r="30" transform="translate(7657 -8460)" fill="#fff"/>
        <g id="Grupo_1192422" data-name="Grupo 1192422" transform="translate(7666.6 -8505.951)">
          <path id="Trazado_1004877" data-name="Trazado 1004877" d="M151.5,384.756a2.72,2.72,0,0,0-4.986,2.174l.007.017a2.72,2.72,0,0,0,4.986-2.174Zm-1.067,1.66a1.546,1.546,0,1,1-.029-1.183A1.514,1.514,0,0,1,150.43,386.416Z" transform="translate(-134.625 -297.039)" fill="#5c3b66"/>
          <path id="Trazado_1004878" data-name="Trazado 1004878" d="M39.2,69.268a.6.6,0,0,0-.966.7,7.124,7.124,0,0,1-5.2,11.312,1.3,1.3,0,0,0-1.139.963l-.233.869a1.524,1.524,0,1,1-2.945-.789l.233-.87a4.347,4.347,0,0,1,3.846-3.212,4.08,4.08,0,1,0-2.216-7.673,9.261,9.261,0,0,0,.026-1.625,9.166,9.166,0,0,0-.252-1.565,7.136,7.136,0,0,1,4.429.044,7.041,7.041,0,0,1,1.592.776.6.6,0,1,0,.655-1,8.233,8.233,0,0,0-1.862-.907,8.331,8.331,0,0,0-5.178-.049A9.274,9.274,0,0,0,12.3,67.614,8.321,8.321,0,0,0,.693,78.25a2.72,2.72,0,0,0,5.024-.094,2.7,2.7,0,0,0-.039-2.081,3,3,0,0,1-.136-.383,2.887,2.887,0,1,1,4.75,1.34,5.543,5.543,0,0,0-1.284,6.261l.36.825a2.719,2.719,0,1,0,4.986-2.173L14,81.12a.1.1,0,0,1,.011-.111,8.293,8.293,0,0,0,.7-.741.6.6,0,1,0-.918-.766,7.062,7.062,0,0,1-.6.632A1.293,1.293,0,0,0,12.9,81.6l.36.826a1.524,1.524,0,1,1-2.794,1.218l-.36-.825a4.346,4.346,0,0,1,1-4.91,4.082,4.082,0,1,0-6.717-1.891,4.214,4.214,0,0,0,.192.538,1.524,1.524,0,0,1-2.794,1.219A7.125,7.125,0,0,1,12.11,68.886c-.02.249-.031.5-.031.748a2.984,2.984,0,0,0,2.98,2.98h.008a7.162,7.162,0,0,1-.014,4.647.6.6,0,1,0,1.13.39,8.357,8.357,0,0,0,.061-5.284,2.984,2.984,0,0,0,1.794-2.734,3.4,3.4,0,0,1,.032-.466,3.314,3.314,0,1,1,4.385,3.592,6.152,6.152,0,0,0-4.083,5.8v1.011a2.98,2.98,0,1,0,5.96,0V78.557a.186.186,0,0,1,.11-.179A9.3,9.3,0,0,0,30.2,72.4a2.92,2.92,0,0,1,3.217-.96,2.887,2.887,0,0,1-.715,5.608,5.545,5.545,0,0,0-4.908,4.095l-.233.87a2.72,2.72,0,1,0,5.254,1.408l.232-.868a.1.1,0,0,1,.078-.081A8.319,8.319,0,0,0,39.2,69.268ZM24.045,77.252a1.379,1.379,0,0,0-.907,1.306v1.011a1.785,1.785,0,1,1-3.57,0V78.558a4.954,4.954,0,0,1,3.287-4.671,4.51,4.51,0,0,0-1.194-8.752q-.15-.01-.3-.01A4.528,4.528,0,0,0,16.888,69a4.576,4.576,0,0,0-.044.631,1.785,1.785,0,0,1-3.57,0,8.079,8.079,0,1,1,10.77,7.618Z" transform="translate(0)" fill="#5c3b66"/>
          <path id="Trazado_1004879" data-name="Trazado 1004879" d="M327.566,383.208a2.72,2.72,0,0,0-3.331,1.922l0,.018a2.72,2.72,0,1,0,5.255,1.407l0-.016a2.719,2.719,0,0,0-1.923-3.331Zm.768,3.023,0,.016a1.551,1.551,0,1,1,0-.016Z" transform="translate(-298.306 -297.033)" fill="#5c3b66"/>
          <path id="Trazado_1004880" data-name="Trazado 1004880" d="M233.524,352.694a2.984,2.984,0,0,0-2.98,2.98v.02a2.98,2.98,0,1,0,5.96,0v-.02A2.984,2.984,0,0,0,233.524,352.694Zm1.785,3a1.785,1.785,0,1,1-3.57,0v-.02a1.785,1.785,0,1,1,3.57,0Z" transform="translate(-212.171 -269.037)" fill="#5c3b66"/>
        </g>
      </g>
      <g id="Grupo_1192423" data-name="Grupo 1192423" transform="translate(285 -168)">
        <circle id="Elipse_13786-4" data-name="Elipse 13786" cx="30" cy="30" r="30" transform="translate(7657 -8460)" fill="#fff"/>
        <g id="Grupo_1192424" data-name="Grupo 1192424" transform="translate(7671.333 -8448.078)">
          <path id="Trazado_1004881" data-name="Trazado 1004881" d="M21.009,8.988a1.743,1.743,0,1,0-2.466,2.465l2.97,2.97a1.743,1.743,0,0,0,2.465,0l6.345-6.345a1.743,1.743,0,1,0-2.465-2.465l-.7.7a6.739,6.739,0,0,0-1.69-.942V4.577a1.745,1.745,0,0,0-1.743-1.743H18.26V2.228A2.23,2.23,0,0,0,16.032,0h-6.1A2.23,2.23,0,0,0,7.708,2.228V4.745A1.239,1.239,0,0,0,8.946,5.983h8.076A1.239,1.239,0,0,0,18.26,4.745V3.894h5.466a.683.683,0,0,1,.682.682v.489a6.737,6.737,0,1,0,0,13.208v16.14a.683.683,0,0,1-.682.682H2.242a.683.683,0,0,1-.682-.682V4.577a.683.683,0,0,1,.682-.682H5.768a.53.53,0,0,0,0-1.061H2.242A1.745,1.745,0,0,0,.5,4.577V34.414a1.745,1.745,0,0,0,1.743,1.743H23.726a1.745,1.745,0,0,0,1.743-1.743V17.967A6.742,6.742,0,0,0,29.807,11.9a.531.531,0,1,0-1.06-.036,5.649,5.649,0,0,1-3.93,5.208.5.5,0,0,0-.089.029A5.679,5.679,0,1,1,23.073,5.991,5.667,5.667,0,0,1,26.4,7.07l-3.655,3.655ZM17.2,4.745a.177.177,0,0,1-.177.177H8.946a.177.177,0,0,1-.177-.177V2.228A1.168,1.168,0,0,1,9.936,1.061h6.1A1.168,1.168,0,0,1,17.2,2.228Zm11.41,1.618a.682.682,0,1,1,.965.965l-6.345,6.345a.682.682,0,0,1-.965,0l-2.97-2.97a.682.682,0,1,1,.965-.965l2.112,2.112a.53.53,0,0,0,.75,0Zm0,0" fill="#5c3b66"/>
          <path id="Trazado_1004882" data-name="Trazado 1004882" d="M112.9,188.547h-6.463a.53.53,0,0,0,0,1.061H112.9a.53.53,0,1,0,0-1.061Zm0,0" transform="translate(-97.961 -175.232)" fill="#5c3b66"/>
          <path id="Trazado_1004883" data-name="Trazado 1004883" d="M45.119,111.012H41.55a.53.53,0,0,0,0,1.061h3.569a.53.53,0,0,0,0-1.061Zm0,0" transform="translate(-37.659 -103.172)" fill="#5c3b66"/>
          <path id="Trazado_1004884" data-name="Trazado 1004884" d="M106.432,224.455H112.9a.53.53,0,1,0,0-1.061h-6.464a.53.53,0,0,0,0,1.061Zm0,0" transform="translate(-97.96 -207.618)" fill="#5c3b66"/>
          <path id="Trazado_1004885" data-name="Trazado 1004885" d="M115.129,279.648h-8.7a.53.53,0,0,0,0,1.061h8.7a.53.53,0,1,0,0-1.061Zm0,0" transform="translate(-97.96 -259.899)" fill="#5c3b66"/>
          <path id="Trazado_1004886" data-name="Trazado 1004886" d="M106.432,315.557h4.348a.53.53,0,0,0,0-1.061h-4.348a.53.53,0,0,0,0,1.061Zm0,0" transform="translate(-97.96 -292.287)" fill="#5c3b66"/>
          <path id="Trazado_1004887" data-name="Trazado 1004887" d="M106.432,371.909H112.9a.53.53,0,1,0,0-1.061h-6.464a.53.53,0,0,0,0,1.061Zm0,0" transform="translate(-97.96 -344.659)" fill="#5c3b66"/>
          <path id="Trazado_1004888" data-name="Trazado 1004888" d="M106.432,406.756h8.7a.53.53,0,1,0,0-1.061h-8.7a.53.53,0,0,0,0,1.061Zm0,0" transform="translate(-97.96 -377.046)" fill="#5c3b66"/>
          <path id="Trazado_1004889" data-name="Trazado 1004889" d="M36.275,182.035a2.143,2.143,0,1,0,2.143,2.143A2.145,2.145,0,0,0,36.275,182.035Zm0,3.224a1.082,1.082,0,1,1,1.082-1.082A1.083,1.083,0,0,1,36.275,185.259Zm0,0" transform="translate(-31.259 -169.18)" fill="#5c3b66"/>
          <path id="Trazado_1004890" data-name="Trazado 1004890" d="M36.275,274.242a2.143,2.143,0,1,0,2.143,2.143A2.145,2.145,0,0,0,36.275,274.242Zm0,3.224a1.082,1.082,0,1,1,1.082-1.082A1.083,1.083,0,0,1,36.275,277.466Zm0,0" transform="translate(-31.259 -254.875)" fill="#5c3b66"/>
          <path id="Trazado_1004891" data-name="Trazado 1004891" d="M36.275,365.441a2.143,2.143,0,1,0,2.143,2.143A2.145,2.145,0,0,0,36.275,365.441Zm0,3.224a1.082,1.082,0,1,1,1.082-1.082A1.083,1.083,0,0,1,36.275,368.665Zm0,0" transform="translate(-31.259 -339.634)" fill="#5c3b66"/>
        </g>
      </g>
      <g id="Grupo_1192425" data-name="Grupo 1192425" transform="translate(393 -108)">
        <circle id="Elipse_13786-5" data-name="Elipse 13786" cx="30" cy="30" r="30" transform="translate(7657 -8460)" fill="#fff"/>
        <g id="Grupo_1192427" data-name="Grupo 1192427" transform="translate(7629 -8446.4)">
          <g id="Grupo_1192426" data-name="Grupo 1192426" transform="translate(44.447 0)">
            <path id="Trazado_1004892" data-name="Trazado 1004892" d="M71.073,25.393a.481.481,0,0,0,.48-.48V4.687a.481.481,0,0,0-.48-.48h-1.59V2.551a.481.481,0,0,0-.48-.48h-1.59V.481a.48.48,0,0,0-.48-.48h-22a.481.481,0,0,0-.48.48V28.114a.481.481,0,0,0,.48.48h1.59v1.59a.481.481,0,0,0,.48.48h1.59v1.655a.481.481,0,0,0,.48.48h22a.481.481,0,0,0,.48-.48V27.155a.48.48,0,0,0-.961,0v4.686H49.55V30.666H69a.48.48,0,0,0,.48-.48V22.007a.48.48,0,1,0-.961,0v7.7H47.479v-1.11H66.931a.481.481,0,0,0,.48-.48V17.978a.48.48,0,0,0-.961,0v9.656H45.408V.961H66.451V15.73a.48.48,0,0,0,.961,0V3.032h1.11V19.763a.48.48,0,0,0,.961,0V5.168h1.11V24.912a.481.481,0,0,0,.481.48Z" transform="translate(-44.447 0)" fill="#5c3b66"/>
            <path id="Trazado_1004893" data-name="Trazado 1004893" d="M90.266,47.8V38.866a.481.481,0,0,0-.48-.48H83.313a.481.481,0,0,0-.48.48V47.8a.481.481,0,0,0,.48.48h6.472A.48.48,0,0,0,90.266,47.8Zm-.961-.48H83.794v-7.97H89.3v7.97Z" transform="translate(-80.374 -35.927)" fill="#5c3b66"/>
            <path id="Trazado_1004894" data-name="Trazado 1004894" d="M229.46,38.866a.481.481,0,0,0-.48-.48H220.7a.481.481,0,0,0-.48.48v2.2a.481.481,0,0,0,.48.48h8.284a.481.481,0,0,0,.48-.48Zm-.961,1.72h-7.323V39.347H228.5Z" transform="translate(-208.954 -35.927)" fill="#5c3b66"/>
            <path id="Trazado_1004895" data-name="Trazado 1004895" d="M228.979,109.1H220.7a.48.48,0,1,0,0,.961h8.284a.48.48,0,1,0,0-.961Z" transform="translate(-208.954 -102.109)" fill="#5c3b66"/>
            <path id="Trazado_1004896" data-name="Trazado 1004896" d="M228.979,141.423H220.7a.48.48,0,1,0,0,.961h8.284a.48.48,0,1,0,0-.961Z" transform="translate(-208.954 -132.363)" fill="#5c3b66"/>
            <path id="Trazado_1004897" data-name="Trazado 1004897" d="M228.979,177.789H220.7a.48.48,0,1,0,0,.961h8.284a.48.48,0,1,0,0-.961Z" transform="translate(-208.954 -166.399)" fill="#5c3b66"/>
            <path id="Trazado_1004898" data-name="Trazado 1004898" d="M172.252,214.154H160.085a.48.48,0,0,0,0,.961h12.167a.48.48,0,1,0,0-.961Z" transform="translate(-152.227 -200.434)" fill="#5c3b66"/>
            <path id="Trazado_1004899" data-name="Trazado 1004899" d="M85.9,214.154H83.313a.48.48,0,1,0,0,.961H85.9a.48.48,0,0,0,0-.961Z" transform="translate(-80.374 -200.434)" fill="#5c3b66"/>
            <path id="Trazado_1004900" data-name="Trazado 1004900" d="M172.252,250.521H160.085a.48.48,0,1,0,0,.961h12.167a.48.48,0,1,0,0-.961Z" transform="translate(-152.227 -234.471)" fill="#5c3b66"/>
            <path id="Trazado_1004901" data-name="Trazado 1004901" d="M85.9,250.521H83.313a.48.48,0,1,0,0,.961H85.9a.48.48,0,0,0,0-.961Z" transform="translate(-80.374 -234.471)" fill="#5c3b66"/>
            <path id="Trazado_1004902" data-name="Trazado 1004902" d="M172.252,286.886H160.085a.48.48,0,0,0,0,.961h12.167a.48.48,0,0,0,0-.961Z" transform="translate(-152.227 -268.507)" fill="#5c3b66"/>
            <path id="Trazado_1004903" data-name="Trazado 1004903" d="M85.9,286.886H83.313a.48.48,0,0,0,0,.961H85.9a.48.48,0,0,0,0-.961Z" transform="translate(-80.374 -268.507)" fill="#5c3b66"/>
            <path id="Trazado_1004904" data-name="Trazado 1004904" d="M172.252,323.252H160.085a.48.48,0,0,0,0,.961h12.167a.48.48,0,0,0,0-.961Z" transform="translate(-152.227 -302.543)" fill="#5c3b66"/>
            <path id="Trazado_1004905" data-name="Trazado 1004905" d="M85.9,323.252H83.313a.48.48,0,0,0,0,.961H85.9a.48.48,0,0,0,0-.961Z" transform="translate(-80.374 -302.543)" fill="#5c3b66"/>
            <path id="Trazado_1004906" data-name="Trazado 1004906" d="M172.252,359.618H160.085a.48.48,0,1,0,0,.961h12.167a.48.48,0,1,0,0-.961Z" transform="translate(-152.227 -336.579)" fill="#5c3b66"/>
            <path id="Trazado_1004907" data-name="Trazado 1004907" d="M85.9,359.618H83.313a.48.48,0,1,0,0,.961H85.9a.48.48,0,0,0,0-.961Z" transform="translate(-80.374 -336.579)" fill="#5c3b66"/>
          </g>
        </g>
      </g>
      <g id="Grupo_1192428" data-name="Grupo 1192428" transform="translate(453 -4)">
        <circle id="Elipse_13786-6" data-name="Elipse 13786" cx="30" cy="30" r="30" transform="translate(7657 -8460)" fill="#fff"/>
        <g id="Grupo_1192429" data-name="Grupo 1192429" transform="translate(7593.97 -8446.914)">
          <path id="Trazado_1004908" data-name="Trazado 1004908" d="M123.156,192.289A1.29,1.29,0,0,0,121.868,191h-1.321a1.29,1.29,0,0,0-1.288,1.288v1.321a1.29,1.29,0,0,0,1.288,1.288h1.321a1.29,1.29,0,0,0,1.288-1.288Zm-.991,1.321a.3.3,0,0,1-.3.3h-1.321a.3.3,0,0,1-.3-.3v-1.321a.3.3,0,0,1,.3-.3h1.321a.3.3,0,0,1,.3.3Z" transform="translate(-35.262 -178.381)" fill="#5c3b66"/>
          <path id="Trazado_1004909" data-name="Trazado 1004909" d="M194.651,192.289A1.29,1.29,0,0,0,193.363,191h-1.321a1.29,1.29,0,0,0-1.288,1.288v1.321a1.29,1.29,0,0,0,1.288,1.288h1.321a1.29,1.29,0,0,0,1.288-1.288Zm-.991,1.321a.3.3,0,0,1-.3.3h-1.321a.3.3,0,0,1-.3-.3v-1.321a.3.3,0,0,1,.3-.3h1.321a.3.3,0,0,1,.3.3Z" transform="translate(-102.034 -178.381)" fill="#5c3b66"/>
          <path id="Trazado_1004910" data-name="Trazado 1004910" d="M263.537,194.9h1.321a1.29,1.29,0,0,0,1.288-1.288v-1.321A1.29,1.29,0,0,0,264.859,191h-1.321a1.29,1.29,0,0,0-1.288,1.288v1.321A1.29,1.29,0,0,0,263.537,194.9Zm-.3-2.61a.3.3,0,0,1,.3-.3h1.321a.3.3,0,0,1,.3.3v1.321a.3.3,0,0,1-.3.3h-1.321a.3.3,0,0,1-.3-.3Z" transform="translate(-168.806 -178.381)" fill="#5c3b66"/>
          <path id="Trazado_1004911" data-name="Trazado 1004911" d="M337.642,192.289A1.29,1.29,0,0,0,336.354,191h-1.321a1.29,1.29,0,0,0-1.288,1.288v1.321a1.29,1.29,0,0,0,1.288,1.288h1.321a1.29,1.29,0,0,0,1.288-1.288Zm-.991,1.321a.3.3,0,0,1-.3.3h-1.321a.3.3,0,0,1-.3-.3v-1.321a.3.3,0,0,1,.3-.3h1.321a.3.3,0,0,1,.3.3Z" transform="translate(-235.577 -178.381)" fill="#5c3b66"/>
          <path id="Trazado_1004912" data-name="Trazado 1004912" d="M123.156,264.789a1.29,1.29,0,0,0-1.288-1.288h-1.321a1.29,1.29,0,0,0-1.288,1.288v1.321a1.29,1.29,0,0,0,1.288,1.288h1.321a1.29,1.29,0,0,0,1.288-1.288Zm-.991,1.321a.3.3,0,0,1-.3.3h-1.321a.3.3,0,0,1-.3-.3v-1.321a.3.3,0,0,1,.3-.3h1.321a.3.3,0,0,1,.3.3Z" transform="translate(-35.262 -246.091)" fill="#5c3b66"/>
          <path id="Trazado_1004913" data-name="Trazado 1004913" d="M194.651,264.789a1.29,1.29,0,0,0-1.288-1.288h-1.321a1.29,1.29,0,0,0-1.288,1.288v1.321a1.29,1.29,0,0,0,1.288,1.288h1.321a1.29,1.29,0,0,0,1.288-1.288Zm-.991,1.321a.3.3,0,0,1-.3.3h-1.321a.3.3,0,0,1-.3-.3v-1.321a.3.3,0,0,1,.3-.3h1.321a.3.3,0,0,1,.3.3Z" transform="translate(-102.034 -246.091)" fill="#5c3b66"/>
          <path id="Trazado_1004914" data-name="Trazado 1004914" d="M262.249,266.111a1.29,1.29,0,0,0,1.288,1.288h1.321a1.29,1.29,0,0,0,1.288-1.288v-1.321a1.29,1.29,0,0,0-1.288-1.288h-1.321a1.29,1.29,0,0,0-1.288,1.288Zm.991-1.321a.3.3,0,0,1,.3-.3h1.321a.3.3,0,0,1,.3.3v1.321a.3.3,0,0,1-.3.3h-1.321a.3.3,0,0,1-.3-.3Z" transform="translate(-168.806 -246.091)" fill="#5c3b66"/>
          <path id="Trazado_1004915" data-name="Trazado 1004915" d="M337.642,264.789a1.29,1.29,0,0,0-1.288-1.288h-1.321a1.29,1.29,0,0,0-1.288,1.288v1.321a1.29,1.29,0,0,0,1.288,1.288h1.321a1.29,1.29,0,0,0,1.288-1.288Zm-.991,1.321a.3.3,0,0,1-.3.3h-1.321a.3.3,0,0,1-.3-.3v-1.321a.3.3,0,0,1,.3-.3h1.321a.3.3,0,0,1,.3.3Z" transform="translate(-235.577 -246.091)" fill="#5c3b66"/>
          <path id="Trazado_1004916" data-name="Trazado 1004916" d="M123.156,337.289A1.29,1.29,0,0,0,121.868,336h-1.321a1.29,1.29,0,0,0-1.288,1.288v1.321a1.29,1.29,0,0,0,1.288,1.288h1.321a1.29,1.29,0,0,0,1.288-1.288Zm-.991,1.321a.3.3,0,0,1-.3.3h-1.321a.3.3,0,0,1-.3-.3v-1.321a.3.3,0,0,1,.3-.3h1.321a.3.3,0,0,1,.3.3Z" transform="translate(-35.262 -313.801)" fill="#5c3b66"/>
          <path id="Trazado_1004917" data-name="Trazado 1004917" d="M194.651,337.289A1.29,1.29,0,0,0,193.363,336h-1.321a1.29,1.29,0,0,0-1.288,1.288v1.321a1.29,1.29,0,0,0,1.288,1.288h1.321a1.29,1.29,0,0,0,1.288-1.288Zm-.991,1.321a.3.3,0,0,1-.3.3h-1.321a.3.3,0,0,1-.3-.3v-1.321a.3.3,0,0,1,.3-.3h1.321a.3.3,0,0,1,.3.3Z" transform="translate(-102.034 -313.801)" fill="#5c3b66"/>
          <path id="Trazado_1004918" data-name="Trazado 1004918" d="M262.249,338.611a1.29,1.29,0,0,0,1.288,1.288h1.321a1.29,1.29,0,0,0,1.288-1.288v-1.321A1.29,1.29,0,0,0,264.859,336h-1.321a1.29,1.29,0,0,0-1.288,1.288Zm.991-1.321a.3.3,0,0,1,.3-.3h1.321a.3.3,0,0,1,.3.3v1.321a.3.3,0,0,1-.3.3h-1.321a.3.3,0,0,1-.3-.3Z" transform="translate(-168.806 -313.801)" fill="#5c3b66"/>
          <path id="Trazado_1004919" data-name="Trazado 1004919" d="M337.642,337.289A1.29,1.29,0,0,0,336.354,336h-1.321a1.29,1.29,0,0,0-1.288,1.288v1.321a1.29,1.29,0,0,0,1.288,1.288h1.321a1.29,1.29,0,0,0,1.288-1.288Zm-.991,1.321a.3.3,0,0,1-.3.3h-1.321a.3.3,0,0,1-.3-.3v-1.321a.3.3,0,0,1,.3-.3h1.321a.3.3,0,0,1,.3.3Z" transform="translate(-235.577 -313.801)" fill="#5c3b66"/>
          <path id="Trazado_1004920" data-name="Trazado 1004920" d="M121.868,408.5h-1.321a1.29,1.29,0,0,0-1.288,1.288v1.321a1.29,1.29,0,0,0,1.288,1.288h1.321a1.29,1.29,0,0,0,1.288-1.288v-1.321A1.29,1.29,0,0,0,121.868,408.5Zm.3,2.61a.3.3,0,0,1-.3.3h-1.321a.3.3,0,0,1-.3-.3v-1.321a.3.3,0,0,1,.3-.3h1.321a.3.3,0,0,1,.3.3Z" transform="translate(-35.262 -381.511)" fill="#5c3b66"/>
          <path id="Trazado_1004921" data-name="Trazado 1004921" d="M193.363,408.5h-1.321a1.29,1.29,0,0,0-1.288,1.288v1.321a1.29,1.29,0,0,0,1.288,1.288h1.321a1.29,1.29,0,0,0,1.288-1.288v-1.321A1.29,1.29,0,0,0,193.363,408.5Zm.3,2.61a.3.3,0,0,1-.3.3h-1.321a.3.3,0,0,1-.3-.3v-1.321a.3.3,0,0,1,.3-.3h1.321a.3.3,0,0,1,.3.3Z" transform="translate(-102.034 -381.511)" fill="#5c3b66"/>
          <path id="Trazado_1004922" data-name="Trazado 1004922" d="M262.249,411.111a1.29,1.29,0,0,0,1.288,1.288h6.045a1.29,1.29,0,0,0,1.288-1.288v-1.321a1.29,1.29,0,0,0-1.288-1.288h-6.045a1.29,1.29,0,0,0-1.288,1.288Zm.991-1.321a.3.3,0,0,1,.3-.3h6.045a.3.3,0,0,1,.3.3v1.321a.3.3,0,0,1-.3.3h-6.045a.3.3,0,0,1-.3-.3Z" transform="translate(-168.806 -381.511)" fill="#5c3b66"/>
          <path id="Trazado_1004923" data-name="Trazado 1004923" d="M217.972,35.992a.5.5,0,1,0,0-.991h-4.724a.5.5,0,1,0,0,.991Z" transform="translate(-122.58 -32.688)" fill="#5c3b66"/>
          <path id="Trazado_1004924" data-name="Trazado 1004924" d="M137.327,70.454a1.116,1.116,0,0,0-1.115-1.115h-15.84a1.116,1.116,0,0,0-1.115,1.115V75.1a1.116,1.116,0,0,0,1.115,1.115h6.764a.5.5,0,1,0,0-.991h-6.764a.124.124,0,0,1-.124-.124V70.454a.124.124,0,0,1,.124-.124h15.84a.124.124,0,0,1,.124.124V75.1a.124.124,0,0,1-.124.124h-6.764a.5.5,0,1,0,0,.991h6.764a1.116,1.116,0,0,0,1.115-1.115Z" transform="translate(-35.262 -64.758)" fill="#5c3b66"/>
          <path id="Trazado_1004925" data-name="Trazado 1004925" d="M81.5,2.664v28.5a2.667,2.667,0,0,0,2.664,2.664H101.9a2.667,2.667,0,0,0,2.664-2.664V18.07a.5.5,0,1,0-.991,0V31.165a1.674,1.674,0,0,1-1.673,1.673H84.165a1.674,1.674,0,0,1-1.673-1.673V2.664A1.674,1.674,0,0,1,84.165.991H101.9a1.674,1.674,0,0,1,1.673,1.673V15.758a.5.5,0,1,0,.991,0V2.664A2.667,2.667,0,0,0,101.9,0H84.165A2.667,2.667,0,0,0,81.5,2.664Z" transform="translate(0)" fill="#5c3b66"/>
        </g>
      </g>
    </g>
  </g>
</svg>
