<svg xmlns="http://www.w3.org/2000/svg" width="74" height="74" viewBox="0 0 74 74">
  <g id="Grupo_1192474" data-name="Grupo 1192474" transform="translate(-185.08 -674.002)">
    <rect id="Image_Place_Holder" data-name="Image Place Holder" width="74" height="74" rx="10" transform="translate(185.08 674.002)" fill="#e795ff"/>
    <g id="Grupo_1192482" data-name="Grupo 1192482" transform="translate(194.835 632.612)">
      <g id="Grupo_1192480" data-name="Grupo 1192480" transform="translate(0.798 58.035)">
        <path id="Trazado_1005025" data-name="Trazado 1005025" d="M66.31,100.572,59.57,82.787h-.136l-1.886,5.242,2.561,6.758H54.987l-1.421,3.749H61.53L62.8,101.9a1.874,1.874,0,1,0,3.505-1.328Z" transform="translate(-48.663 -80.866)" fill="#b166db"/>
        <path id="Trazado_1005026" data-name="Trazado 1005026" d="M227.147,74.649a6.262,6.262,0,0,0-5.091-9.913H220.1l-.65.225-.758.705-.106.492v2.128l.183.277v-.079h3.293a2.516,2.516,0,1,1,0,5.033h-3.293v-.055l-.116.229V77.06l.116.229v-.023h4.654a2.983,2.983,0,0,1,0,5.965h-4.654v-.048l-.1.143v1.98l.228.993.443.452.821.229h3.257a6.73,6.73,0,0,0,3.731-12.331Z" transform="translate(-196.116 -64.736)" fill="#b166db"/>
        <path id="Trazado_1005027" data-name="Trazado 1005027" d="M130.912,338.556a1.7,1.7,0,0,0-2.367.4l-4.062,5.695a.5.5,0,0,1-.821,0l-4.063-5.695a1.7,1.7,0,0,0-2.763,0l-4.062,5.694a.5.5,0,0,1-.822,0l-4.062-5.694a1.7,1.7,0,0,0-2.763,0l-4.062,5.694a.5.5,0,0,1-.822,0l-4.062-5.694a1.7,1.7,0,0,0-2.763,0l-4.062,5.694a.5.5,0,0,1-.442.21l-.209.247,1.463,2.881h.976l3.244-4.548a.5.5,0,0,1,.822,0l4.062,5.694a1.7,1.7,0,0,0,2.763,0l4.062-5.694a.5.5,0,0,1,.822,0l4.039,5.662a1.746,1.746,0,0,0,.992.693,1.7,1.7,0,0,0,1.794-.661l4.062-5.694a.5.5,0,0,1,.821,0l4.062,5.695a1.7,1.7,0,0,0,2.763,0l5.855-8.207a1.7,1.7,0,0,0-.4-2.367Z" transform="translate(-80.064 -309.133)" fill="#00d2fc"/>
        <g id="Grupo_1192475" data-name="Grupo 1192475" transform="translate(18.898 0)">
          <path id="Trazado_1005028" data-name="Trazado 1005028" d="M188.826,85.106V83.232h-.005V77.266h.005V73.518h-.005V68.485h.005V66.61a1.874,1.874,0,0,1,1.874-1.874h-3.754a1.874,1.874,0,0,0-1.874,1.874v18.5a1.874,1.874,0,0,0,1.874,1.874H190.7A1.874,1.874,0,0,1,188.826,85.106Z" transform="translate(-185.072 -64.736)" fill="#9956be"/>
        </g>
        <g id="Grupo_1192476" data-name="Grupo 1192476" transform="translate(0 0)">
          <path id="Trazado_1005029" data-name="Trazado 1005029" d="M12.436,82.406l1.421-3.749h-.035L16.383,71.9l.018.047,2-5.289-.269-.711a1.874,1.874,0,0,0-3.505,0l-7.01,18.5a1.874,1.874,0,0,0,3.505,1.328L12.4,82.406Z" transform="translate(-7.498 -64.737)" fill="#9956be"/>
        </g>
        <g id="Grupo_1192477" data-name="Grupo 1192477" transform="translate(1.331 29.107)">
          <path id="Trazado_1005030" data-name="Trazado 1005030" d="M27.528,344.856a.5.5,0,0,1-.379-.21l-4.062-5.694a1.7,1.7,0,0,0-2.763,1.971l5.854,8.207a1.7,1.7,0,0,0,2.763,0l.818-1.146Z" transform="translate(-20.009 -338.24)" fill="#00c2fb"/>
        </g>
        <g id="Grupo_1192478" data-name="Grupo 1192478" transform="translate(38.773 0.18)">
          <path id="Trazado_1005031" data-name="Trazado 1005031" d="M380.945,66.431h-1.319L376.3,67.74s-2.567,2.182-2.594,2.248-1.237,2.235-1.25,2.315-.625,1.3-.625,1.3l.41.72a7.356,7.356,0,0,1,10.791-3.087,1.874,1.874,0,0,0,2.083-3.116A11.066,11.066,0,0,0,380.945,66.431Z" transform="translate(-371.831 -66.431)" fill="#b166db"/>
          <path id="Trazado_1005032" data-name="Trazado 1005032" d="M387.755,200.351a1.874,1.874,0,0,0-2.6-.516,7.358,7.358,0,0,1-10.852-3.22l-.1.274,1.454,3.512,2.465,2.856,1.667.763,2.457.559.653.094a11.061,11.061,0,0,0,4.336-1.72,1.874,1.874,0,0,0,.516-2.6Z" transform="translate(-373.953 -182.76)" fill="#b166db"/>
        </g>
        <g id="Grupo_1192479" data-name="Grupo 1192479" transform="translate(34.774 0)">
          <path id="Trazado_1005033" data-name="Trazado 1005033" d="M338.676,78.938a7.348,7.348,0,0,1,0-6.157,11.158,11.158,0,0,1,8.689-7.863,11.122,11.122,0,1,0,0,21.883A11.158,11.158,0,0,1,338.676,78.938Z" transform="translate(-334.251 -64.737)" fill="#9956be"/>
        </g>
      </g>
      <g id="Grupo_1192481" data-name="Grupo 1192481" transform="translate(0 57.237)">
        <path id="Trazado_1005034" data-name="Trazado 1005034" d="M218.245,174.975h-4.654a.8.8,0,0,0-.8.8v5.966a.8.8,0,0,0,.8.8h4.654a3.781,3.781,0,0,0,0-7.562Zm0,5.965h-3.855v-4.369h3.855a2.185,2.185,0,0,1,0,4.369Z" transform="translate(-190.147 -162.445)"/>
        <path id="Trazado_1005035" data-name="Trazado 1005035" d="M213.592,99.089h3.293a3.315,3.315,0,0,0,0-6.629h-3.293a.8.8,0,0,0-.8.8v5.033A.8.8,0,0,0,213.592,99.089Zm.8-5.033h2.5a1.718,1.718,0,0,1,0,3.437h-2.5Z" transform="translate(-190.148 -88.711)"/>
        <path id="Trazado_1005036" data-name="Trazado 1005036" d="M61.421,330.771a2.478,2.478,0,0,0-1.62,1.012l-3.824,5.36-3.824-5.36a2.5,2.5,0,0,0-4.063,0l-3.823,5.359-3.823-5.359a2.5,2.5,0,0,0-4.063,0l-3.823,5.359-3.822-5.359a2.5,2.5,0,0,0-4.063,0l-3.823,5.359-3.822-5.359a2.5,2.5,0,0,0-4.063,2.9l5.854,8.207a2.5,2.5,0,0,0,4.063,0l3.823-5.359,3.823,5.359a2.5,2.5,0,0,0,4.063,0l3.822-5.359,3.8,5.327a2.5,2.5,0,0,0,2.059,1.079,2.483,2.483,0,0,0,2.027-1.047l3.823-5.359,3.823,5.36a2.5,2.5,0,0,0,4.063,0l5.855-8.207a2.5,2.5,0,0,0-2.443-3.91Zm1.144,2.983-5.855,8.207a.9.9,0,0,1-1.464,0l-4.062-5.695a1.3,1.3,0,0,0-2.121,0L45,341.961a.9.9,0,0,1-.953.35.949.949,0,0,1-.533-.382l-4.039-5.662a1.3,1.3,0,0,0-2.121,0l-4.062,5.694a.9.9,0,0,1-1.464,0l-4.062-5.694a1.3,1.3,0,0,0-2.121,0l-4.062,5.694a.9.9,0,0,1-1.464,0l-5.854-8.207a.9.9,0,0,1,1.464-1.044l4.061,5.694a1.3,1.3,0,0,0,2.121,0l4.062-5.694a.9.9,0,0,1,1.464,0L31.5,338.4a1.3,1.3,0,0,0,2.121,0l4.062-5.694a.9.9,0,0,1,1.464,0l4.062,5.694a1.3,1.3,0,0,0,2.121,0l4.062-5.694a.9.9,0,0,1,1.464,0l4.063,5.695a1.3,1.3,0,0,0,2.121,0L61.1,332.71a.9.9,0,1,1,1.464,1.044Z" transform="translate(-11.172 -301.63)"/>
        <path id="Trazado_1005037" data-name="Trazado 1005037" d="M65.991,132.553a.8.8,0,0,0,.09-.736l-2.561-6.758a.8.8,0,0,0-1.493,0l-2.561,6.758a.8.8,0,0,0,.746,1.081h5.122A.8.8,0,0,0,65.991,132.553ZM61.368,131.3l1.4-3.707,1.4,3.707Z" transform="translate(-53.09 -117.381)"/>
        <path id="Trazado_1005038" data-name="Trazado 1005038" d="M50.33,74.626a6.562,6.562,0,0,1-10-3.809.8.8,0,1,0-1.545.4,8.159,8.159,0,0,0,12.43,4.732,1.076,1.076,0,1,1,1.2,1.789,10.324,10.324,0,1,1,0-17.171,1.076,1.076,0,0,1-1.2,1.789,8.159,8.159,0,0,0-12.43,4.733.8.8,0,1,0,1.545.4,6.562,6.562,0,0,1,10-3.809,2.673,2.673,0,0,0,2.97-4.444,11.91,11.91,0,0,0-18.526,9.913c0,.336.015.668.042,1a7.534,7.534,0,0,0-1.916-2.4,7.062,7.062,0,0,0-6.162-10.515H21.57A2.675,2.675,0,0,0,18.9,59.91V76.684L12.182,58.962a2.672,2.672,0,0,0-5,0l-7.01,18.5a2.672,2.672,0,1,0,5,1.894L6.252,76.5H7.82a.8.8,0,0,0,0-1.6H5.7a.8.8,0,0,0-.746.515L3.679,78.786a1.076,1.076,0,1,1-2.012-.763l7.009-18.5a1.076,1.076,0,0,1,2.013,0l7.01,18.5a1.076,1.076,0,1,1-2.012.763l-1.275-3.365a.8.8,0,0,0-.746-.515H11.545a.8.8,0,1,0,0,1.6h1.568l1.08,2.849a2.671,2.671,0,0,0,4.938.142,2.676,2.676,0,0,0,2.439,1.583H28.1a7.537,7.537,0,0,0,7.528-7.494A11.906,11.906,0,0,0,53.3,79.07a2.672,2.672,0,0,0-2.971-4.443ZM28.1,79.481H21.57A1.077,1.077,0,0,1,20.494,78.4v-18.5a1.077,1.077,0,0,1,1.076-1.076h5.168a5.464,5.464,0,0,1,4.443,8.649.8.8,0,0,0,.2,1.129A5.932,5.932,0,0,1,28.1,79.481Z" transform="translate(0 -57.237)"/>
      </g>
    </g>
  </g>
</svg>
