<svg xmlns="http://www.w3.org/2000/svg" width="74" height="74" viewBox="0 0 74 74">
  <g id="Grupo_1178218" data-name="Grupo 1178218" transform="translate(-185.08 -674.002)">
    <rect id="Image_Place_Holder" data-name="Image Place Holder" width="74" height="74" rx="10" transform="translate(185.08 674.002)" fill="#a4c2ff"/>
    <g id="Grupo_1192141" data-name="Grupo 1192141" transform="translate(189.08 679.002)">
      <g id="Grupo_1192140" data-name="Grupo 1192140" transform="translate(14.774 14.774)">
        <g id="Grupo_1192139" data-name="Grupo 1192139" transform="translate(0)">
          <path id="Trazado_1004622" data-name="Trazado 1004622" d="M100.819,118.3a17.483,17.483,0,1,0-17.486-17.481A17.512,17.512,0,0,0,100.819,118.3Z" transform="translate(-83.333 -83.333)" fill="#8ac9fe" fill-rule="evenodd"/>
          <path id="Trazado_1004623" data-name="Trazado 1004623" d="M250.026,118.293a17.484,17.484,0,0,0,0-34.952q.254-.007.509-.007a17.483,17.483,0,0,1,0,34.967Q250.28,118.3,250.026,118.293Z" transform="translate(-233.049 -83.333)" fill="#60b7ff" fill-rule="evenodd"/>
          <path id="Trazado_1004624" data-name="Trazado 1004624" d="M131.255,145.285a14.032,14.032,0,1,0-14.034-14.03A14.055,14.055,0,0,0,131.255,145.285Z" transform="translate(-113.77 -113.77)" fill="#eceff1" fill-rule="evenodd"/>
          <path id="Trazado_1004625" data-name="Trazado 1004625" d="M131.764,117.23a14.032,14.032,0,0,0,0,28.046q-.254.009-.509.009a14.032,14.032,0,1,1,0-28.064Q131.511,117.221,131.764,117.23Z" transform="translate(-113.77 -113.77)" fill="#60b7ff" fill-rule="evenodd"/>
          <path id="Trazado_1004626" data-name="Trazado 1004626" d="M181.862,203.722l6.474-6.542a1.973,1.973,0,1,1,2.8,2.782c-2.627,2.651-5.234,5.318-7.873,7.957a1.976,1.976,0,0,1-2.794,0l-4.376-4.38a1.976,1.976,0,0,1,2.794-2.794Z" transform="translate(-166.125 -185.063)" fill="#8ac9fe" fill-rule="evenodd"/>
        </g>
      </g>
      <path id="Trazado_1004627" data-name="Trazado 1004627" d="M32.26,50.556a18.3,18.3,0,1,1,18.3-18.3A18.333,18.333,0,0,1,32.26,50.556Zm0-1.63A16.669,16.669,0,1,0,15.589,32.26,16.7,16.7,0,0,0,32.26,48.926Zm0-1.822A14.847,14.847,0,1,1,47.1,32.26,14.875,14.875,0,0,1,32.26,47.1Zm0-1.63A13.217,13.217,0,1,0,19.04,32.26,13.239,13.239,0,0,0,32.26,45.475Zm-1.751-13.2,5.9-5.96,0,0a2.788,2.788,0,0,1,3.955,3.93h0c-2.628,2.652-5.236,5.319-7.876,7.959a2.792,2.792,0,0,1-3.946,0l-4.376-4.38a2.791,2.791,0,0,1,0-3.945v0a2.792,2.792,0,0,1,3.946,0Zm-.573,1.731-2.977-2.977a1.161,1.161,0,1,0-1.642,1.642l4.376,4.38a1.161,1.161,0,0,0,1.642,0c2.638-2.638,5.244-5.3,7.87-7.954a1.158,1.158,0,1,0-1.641-1.635L31.09,34.005a.815.815,0,0,1-1.155,0ZM31.443,7.815a.815.815,0,0,1,1.63,0V11.1a.815.815,0,0,1-1.63,0Zm12.331,2.867a.815.815,0,0,1,1.411.815l-1.642,2.845a.815.815,0,0,1-1.411-.815Zm9.245,8.648a.815.815,0,1,1,.815,1.411l-2.845,1.642a.815.815,0,0,1-.815-1.411ZM56.7,31.443a.815.815,0,1,1,0,1.63H53.416a.815.815,0,1,1,0-1.63ZM53.833,43.773a.815.815,0,1,1-.815,1.411l-2.845-1.642a.815.815,0,0,1,.815-1.411Zm-8.648,9.245a.815.815,0,0,1-1.411.815l-1.642-2.845a.815.815,0,0,1,1.411-.815ZM33.072,56.7a.815.815,0,0,1-1.63,0V53.416a.815.815,0,1,1,1.63,0ZM20.742,53.833a.815.815,0,1,1-1.411-.815l1.642-2.845a.815.815,0,0,1,1.411.815ZM11.5,45.185a.815.815,0,0,1-.815-1.411l2.845-1.642a.815.815,0,0,1,.815,1.411ZM7.815,33.072a.815.815,0,0,1,0-1.63H11.1a.815.815,0,0,1,0,1.63Zm2.867-12.331a.815.815,0,0,1,.815-1.411l2.845,1.642a.815.815,0,0,1-.815,1.411ZM19.331,11.5a.815.815,0,1,1,1.411-.815l1.642,2.845a.815.815,0,0,1-1.411.815Z" fill-rule="evenodd"/>
    </g>
  </g>
</svg>
