<svg xmlns="http://www.w3.org/2000/svg" xmlns:xlink="http://www.w3.org/1999/xlink" width="292" height="216.863" viewBox="0 0 292 216.863">
  <defs>
    <clipPath id="clip-path">
      <rect id="Rect치ngulo_454535" data-name="Rect치ngulo 454535" width="104.607" height="109.729" fill="#cff878"/>
    </clipPath>
  </defs>
  <g id="Grupo_1192365" data-name="Grupo 1192365" transform="translate(-1122 -404.137)">
    <rect id="Rect치ngulo_455173" data-name="Rect치ngulo 455173" width="291.968" height="216.863" rx="10" transform="translate(1122 404.137)" fill="#e795ff"/>
    <g id="Grupo_1177105" data-name="Grupo 1177105" transform="translate(1184.188 418.267)">
      <g id="Grupo_1176862" data-name="Grupo 1176862" clip-path="url(#clip-path)">
        <path id="Trazado_991676" data-name="Trazado 991676" d="M61.066,21.506,54.626,1.687a2.442,2.442,0,0,0-4.644,0l-6.44,19.819a2.441,2.441,0,0,1-3.757,1.221L22.926,10.478a2.441,2.441,0,0,0-3.757,2.73l6.44,19.819a2.442,2.442,0,0,1-2.322,3.2H2.447A2.442,2.442,0,0,0,1.011,40.64L17.871,52.889a2.442,2.442,0,0,1,0,3.951L1.011,69.089a2.442,2.442,0,0,0,1.436,4.417H23.286a2.442,2.442,0,0,1,2.322,3.2l-6.44,19.819a2.442,2.442,0,0,0,3.757,2.73L39.785,87a2.441,2.441,0,0,1,3.757,1.221l6.44,19.819a2.442,2.442,0,0,0,4.644,0l6.44-19.819A2.442,2.442,0,0,1,64.823,87L81.682,99.251a2.441,2.441,0,0,0,3.757-2.73L79,76.7a2.442,2.442,0,0,1,2.322-3.2h20.839a2.442,2.442,0,0,0,1.436-4.417L86.737,56.84a2.442,2.442,0,0,1,0-3.951L103.6,40.64a2.442,2.442,0,0,0-1.436-4.417H81.322A2.442,2.442,0,0,1,79,33.027l6.44-19.819a2.441,2.441,0,0,0-3.757-2.73L64.823,22.727a2.442,2.442,0,0,1-3.757-1.221" transform="translate(0)" fill="#cff878"/>
      </g>
    </g>
    <g id="_20884544_6384398" data-name="20884544_6384398" transform="translate(1076.029 345.479)">
      <g id="OBJECTS" transform="translate(45.971 100.953)">
        <path id="Trazado_1004628" data-name="Trazado 1004628" d="M267.06,152.886s-40.958-6.823-84.637,11.943C151.2,178.242,66.049,148.99,50.052,178.614s15.631,60.741,84.46,64.446,42.579-19.071,119.45-7.373c70.76,10.768,84.08-9.311,84.009-33.344S304.705,157.069,267.06,152.886Z" transform="translate(-45.971 -129.169)" fill="#e8d9eb"/>
        <g id="Grupo_1192364" data-name="Grupo 1192364" transform="translate(12.339)">
          <g id="Grupo_1192197" data-name="Grupo 1192197" transform="translate(192.021 1.541)">
            <path id="Trazado_1004629" data-name="Trazado 1004629" d="M512.808,333.127s2.824,6.342,1.7,6.829-3.3-4.721-3.3-4.721Z" transform="translate(-509.13 -231.646)" fill="#d55b5d"/>
            <path id="Trazado_1004630" data-name="Trazado 1004630" d="M515.564,328.6s2.824,6.343,1.7,6.829-3.3-4.721-3.3-4.721Z" transform="translate(-510.663 -229.126)" fill="#d55b5d"/>
            <path id="Trazado_1004631" data-name="Trazado 1004631" d="M526.181,209.8l-4.032,19.239s-5.434,19.952-7.187,27.213l6.214,1.5s10-23.292,11.06-27.17,2.363-14.737,2.363-14.737Z" transform="translate(-511.218 -163.044)" fill="#e38680"/>
            <path id="Trazado_1004632" data-name="Trazado 1004632" d="M516.259,313.572a12.733,12.733,0,0,1,.982,4.605,40.863,40.863,0,0,1-1.33,8.507.4.4,0,0,1-.193.051,1.332,1.332,0,0,1-1.388-1.246l-.539-6.433s-3.45,3.368-4.271,4.9,1.234,6.283.546,6.931-.775.641-1.47-.114-2.076-5.966-2.074-8.453,3.937-9.6,3.937-9.6Z" transform="translate(-506.522 -220.294)" fill="#e38680"/>
            <g id="Grupo_1192156" data-name="Grupo 1192156" transform="translate(15.915 33.78)">
              <g id="Grupo_1192143" data-name="Grupo 1192143" transform="translate(0 0.004)">
                <g id="Grupo_1192142" data-name="Grupo 1192142">
                  <path id="Trazado_1004633" data-name="Trazado 1004633" d="M591.849,197.366l-49.46-2.385s.816-3.114,1.915-6.229a6.928,6.928,0,0,1,5.681-4.871c.723-.15,2.049-.465,3.579-.842.591-.146,1.213-.3,1.843-.459l.884-.222c3.234-.814,6.388-1.632,6.388-1.632l5.164-.163h.03l.029,0,4.623.6s2.75.972,5.756,2.02l1.742.605c2.248.778,4.372,1.5,5.334,1.8a6.927,6.927,0,0,1,5.186,5.395C591.336,194.188,591.849,197.366,591.849,197.366Z" transform="translate(-542.389 -180.563)" fill="#e69848"/>
                </g>
              </g>
              <g id="Grupo_1192153" data-name="Grupo 1192153" transform="translate(13.018)">
                <g id="Grupo_1192144" data-name="Grupo 1192144" transform="translate(0 0.004)">
                  <path id="Trazado_1004634" data-name="Trazado 1004634" d="M596.341,183.786a20.24,20.24,0,0,1-1.905,4.569c-1.857,3.2-5.062,6.272-10.492,6.01a12.075,12.075,0,0,1-10.559-7.068,19.538,19.538,0,0,1-1.658-4.717l.884-.222c3.233-.814,6.388-1.632,6.388-1.632l5.164-.163h.03l.029,0,4.623.6s2.75.972,5.756,2.02Z" transform="translate(-571.726 -180.563)" fill="#e38680"/>
                </g>
                <g id="Grupo_1192151" data-name="Grupo 1192151" transform="translate(5.433)">
                  <g id="Grupo_1192146" data-name="Grupo 1192146">
                    <g id="Grupo_1192145" data-name="Grupo 1192145">
                      <path id="Trazado_1004635" data-name="Trazado 1004635" d="M584.457,181.575a.514.514,0,0,1-.354-.167.5.5,0,0,1-.06-.08.536.536,0,0,1-.043-.09.556.556,0,0,1-.025-.1.54.54,0,0,1,0-.1.5.5,0,0,1,.048-.194.472.472,0,0,1,.051-.085.538.538,0,0,1,.067-.075.511.511,0,0,1,.723.035.464.464,0,0,1,.06.08.508.508,0,0,1,.067.188.473.473,0,0,1,.005.1.5.5,0,0,1-.015.1.512.512,0,0,1-.034.094.578.578,0,0,1-.051.086.52.52,0,0,1-.148.134.606.606,0,0,1-.091.043.553.553,0,0,1-.1.024A.536.536,0,0,1,584.457,181.575Z" transform="translate(-583.97 -180.554)" fill="#f2edfd"/>
                    </g>
                  </g>
                  <g id="Grupo_1192148" data-name="Grupo 1192148" transform="translate(0.262 1.281)">
                    <g id="Grupo_1192147" data-name="Grupo 1192147">
                      <path id="Trazado_1004636" data-name="Trazado 1004636" d="M591.047,188.7h0a.511.511,0,0,1-.484-.537h0a.51.51,0,0,1,.537-.484h0a.511.511,0,0,1,.485.537h0a.512.512,0,0,1-.535.485h0Zm.826-.486a.512.512,0,0,1,.463-.556h0a.512.512,0,0,1,.555.464h0a.511.511,0,0,1-.464.555h0a.476.476,0,0,1-.071,0h0A.51.51,0,0,1,591.873,188.213Zm-2.2.32a.511.511,0,0,1-.4-.6h0a.51.51,0,0,1,.6-.4h0a.51.51,0,0,1,.4.6h0a.51.51,0,0,1-.526.412h0A.458.458,0,0,1,589.675,188.533Zm3.5-.459a.512.512,0,0,1,.356-.63h0a.51.51,0,0,1,.629.356h0a.512.512,0,0,1-.355.63h0a.513.513,0,0,1-.161.018h0A.512.512,0,0,1,593.178,188.074Zm-4.849.071a.512.512,0,0,1-.289-.663h0a.511.511,0,0,1,.662-.289h0a.511.511,0,0,1,.289.662h0a.51.51,0,0,1-.5.324h0A.523.523,0,0,1,588.329,188.145Zm6.107-.449a.512.512,0,0,1,.21-.692h0a.511.511,0,0,1,.692.21h0a.512.512,0,0,1-.21.692h0a.518.518,0,0,1-.265.06h0A.512.512,0,0,1,594.435,187.7Zm-7.365-.208a.511.511,0,0,1-.14-.71h0a.512.512,0,0,1,.71-.139h0a.512.512,0,0,1,.14.71h0a.514.514,0,0,1-.45.226h0A.507.507,0,0,1,587.07,187.489Zm8.506-.442a.512.512,0,0,1,.037-.722h0a.512.512,0,0,1,.722.037h0a.512.512,0,0,1-.037.722h0a.51.51,0,0,1-.367.131h0A.513.513,0,0,1,595.576,187.047Zm-9.59-.487h0a.511.511,0,0,1,.03-.723h0a.512.512,0,0,1,.723.031h0a.51.51,0,0,1-.031.722h0a.512.512,0,0,1-.371.135h0A.512.512,0,0,1,585.986,186.559Zm10.542-.42a.511.511,0,0,1-.133-.711h0a.512.512,0,0,1,.711-.132h0a.511.511,0,0,1,.132.71h0a.51.51,0,0,1-.447.221h0A.5.5,0,0,1,596.528,186.14Zm-11.38-.734h0a.512.512,0,0,1,.193-.7h0a.512.512,0,0,1,.7.193h0a.512.512,0,0,1-.193.7h0a.507.507,0,0,1-.276.066h0A.512.512,0,0,1,585.148,185.406Zm12.094-.369a.51.51,0,0,1-.279-.666h0a.511.511,0,0,1,.667-.28h0a.511.511,0,0,1,.279.667h0a.511.511,0,0,1-.5.317h0A.5.5,0,0,1,597.243,185.037Zm-12.659-.93h0a.511.511,0,0,1,.333-.642h0a.51.51,0,0,1,.642.332h0a.511.511,0,0,1-.332.642h0a.5.5,0,0,1-.18.024h0A.512.512,0,0,1,584.584,184.107Z" transform="translate(-584.56 -183.441)" fill="#f2edfd"/>
                    </g>
                  </g>
                  <g id="Grupo_1192150" data-name="Grupo 1192150" transform="translate(12.99 0.625)">
                    <g id="Grupo_1192149" data-name="Grupo 1192149">
                      <path id="Trazado_1004637" data-name="Trazado 1004637" d="M613.732,182.985a.5.5,0,0,1-.1-.015.553.553,0,0,1-.094-.034.607.607,0,0,1-.087-.051.537.537,0,0,1-.075-.067.472.472,0,0,1-.059-.08.537.537,0,0,1-.044-.091.524.524,0,0,1-.024-.1.471.471,0,0,1,0-.1.516.516,0,0,1,.014-.1.547.547,0,0,1,.034-.094.475.475,0,0,1,.052-.085.422.422,0,0,1,.067-.075.489.489,0,0,1,.081-.06.531.531,0,0,1,.091-.043.557.557,0,0,1,.1-.025.533.533,0,0,1,.2.01.56.56,0,0,1,.094.035.493.493,0,0,1,.086.051.491.491,0,0,1,.134.148.492.492,0,0,1,.043.09.583.583,0,0,1,.025.1.553.553,0,0,1,0,.1.575.575,0,0,1-.014.1.516.516,0,0,1-.035.094.5.5,0,0,1-.051.086.558.558,0,0,1-.067.075.513.513,0,0,1-.081.06.523.523,0,0,1-.09.043.517.517,0,0,1-.2.03Z" transform="translate(-613.245 -181.963)" fill="#f2edfd"/>
                    </g>
                  </g>
                </g>
                <g id="Grupo_1192152" data-name="Grupo 1192152" transform="translate(1.658 6.739)">
                  <path id="Trazado_1004638" data-name="Trazado 1004638" d="M596.514,196.8c-1.857,3.2-5.062,6.272-10.493,6.01a12.075,12.075,0,0,1-10.559-7.068A42.95,42.95,0,0,0,596.514,196.8Z" transform="translate(-575.462 -195.74)" fill="#f2edfd"/>
                </g>
              </g>
              <g id="Grupo_1192154" data-name="Grupo 1192154" transform="translate(25.484 0.003)">
                <path id="Trazado_1004639" data-name="Trazado 1004639" d="M599.849,180.56v0l-.029,0Z" transform="translate(-599.82 -180.56)" fill="#5848bc"/>
              </g>
              <g id="Grupo_1192155" data-name="Grupo 1192155" transform="translate(25.454 0)">
                <path id="Trazado_1004640" data-name="Trazado 1004640" d="M599.783,180.558h-.03v0Z" transform="translate(-599.753 -180.554)" fill="#5848bc"/>
              </g>
            </g>
            <g id="Grupo_1192194" data-name="Grupo 1192194" transform="translate(27.878 1.326)">
              <g id="Grupo_1192157" data-name="Grupo 1192157" transform="translate(0 0)">
                <circle id="Elipse_13776" data-name="Elipse 13776" cx="12.549" cy="12.549" r="12.549" transform="matrix(0.993, -0.119, 0.119, 0.993, 0, 2.997)" fill="#dd504f"/>
              </g>
              <g id="Grupo_1192160" data-name="Grupo 1192160" transform="translate(8.261 29.024)">
                <g id="Grupo_1192158" data-name="Grupo 1192158">
                  <path id="Trazado_1004641" data-name="Trazado 1004641" d="M597.735,178.114a5.4,5.4,0,0,1-4.975,2.161,5.739,5.739,0,0,1-4.793-2.752l.295-1.713.05-.288.463-2.7,8.544.651.093,1.039.031.34Z" transform="translate(-587.967 -172.824)" fill="#e38680"/>
                </g>
                <g id="Grupo_1192159" data-name="Grupo 1192159" transform="translate(0.295 0)">
                  <path id="Trazado_1004642" data-name="Trazado 1004642" d="M597.781,174.515c-2.017,1.549-5.183,2.023-9.149,1.3l.05-.288.463-2.7,8.544.651Z" transform="translate(-588.632 -172.825)" fill="#3b2539"/>
                </g>
              </g>
              <g id="Grupo_1192165" data-name="Grupo 1192165" transform="translate(0.537 16.268)">
                <g id="Grupo_1192161" data-name="Grupo 1192161">
                  <path id="Trazado_1004643" data-name="Trazado 1004643" d="M576.22,149.615c-2.043,2.579-6.076.575-5.625-2.957.41-3.2,3.978-2.521,3.978-2.521Z" transform="translate(-570.56 -144.076)" fill="#d55b5d"/>
                </g>
                <g id="Grupo_1192162" data-name="Grupo 1192162" transform="translate(1.836 4.706)">
                  <path id="Trazado_1004644" data-name="Trazado 1004644" d="M576,155.362a.649.649,0,1,1-.617-.68A.649.649,0,0,1,576,155.362Z" transform="translate(-574.698 -154.681)" fill="#f2edfd"/>
                </g>
                <g id="Grupo_1192163" data-name="Grupo 1192163" transform="translate(1.753 1.825)">
                  <path id="Trazado_1004645" data-name="Trazado 1004645" d="M576.653,151.887a.256.256,0,0,1-.238-.206,7.192,7.192,0,0,0-1.827-3.052.256.256,0,0,1,.358-.366,7.588,7.588,0,0,1,1.971,3.319.256.256,0,0,1-.2.3A.238.238,0,0,1,576.653,151.887Z" transform="translate(-574.511 -148.19)" fill="#b33a41"/>
                </g>
                <g id="Grupo_1192164" data-name="Grupo 1192164" transform="translate(1.556 3.335)">
                  <path id="Trazado_1004646" data-name="Trazado 1004646" d="M575.817,152.3a.259.259,0,0,1-.08-.017,2.887,2.887,0,0,0-1.37-.157.256.256,0,0,1-.087-.5,3.37,3.37,0,0,1,1.643.184.256.256,0,0,1-.105.493Z" transform="translate(-574.068 -151.593)" fill="#b33a41"/>
                </g>
              </g>
              <g id="Grupo_1192170" data-name="Grupo 1192170" transform="translate(20.366 17.187)">
                <g id="Grupo_1192166" data-name="Grupo 1192166">
                  <path id="Trazado_1004647" data-name="Trazado 1004647" d="M615.248,151.45c1.785,2.764,5.993,1.157,5.883-2.4-.1-3.229-3.716-2.892-3.716-2.892Z" transform="translate(-615.248 -146.146)" fill="#d55b5d"/>
                </g>
                <g id="Grupo_1192167" data-name="Grupo 1192167" transform="translate(2.528 4.777)">
                  <path id="Trazado_1004648" data-name="Trazado 1004648" d="M622.243,157.593a.649.649,0,1,1-.617-.68A.649.649,0,0,1,622.243,157.593Z" transform="translate(-620.945 -156.912)" fill="#f2edfd"/>
                </g>
                <g id="Grupo_1192168" data-name="Grupo 1192168" transform="translate(1.515 1.958)">
                  <path id="Trazado_1004649" data-name="Trazado 1004649" d="M618.906,154.058a.269.269,0,0,1-.061-.01.256.256,0,0,1-.172-.318,7.594,7.594,0,0,1,2.281-3.114.256.256,0,1,1,.321.4,7.21,7.21,0,0,0-2.112,2.862A.255.255,0,0,1,618.906,154.058Z" transform="translate(-618.662 -150.559)" fill="#b33a41"/>
                </g>
                <g id="Grupo_1192169" data-name="Grupo 1192169" transform="translate(2.243 3.425)">
                  <path id="Trazado_1004650" data-name="Trazado 1004650" d="M620.547,154.483a.256.256,0,0,1-.057-.5,3.368,3.368,0,0,1,1.653-.025.256.256,0,0,1-.135.493,2.9,2.9,0,0,0-1.379.024A.266.266,0,0,1,620.547,154.483Z" transform="translate(-620.303 -153.865)" fill="#b33a41"/>
                </g>
              </g>
              <g id="Grupo_1192171" data-name="Grupo 1192171" transform="translate(3.634 4.062)">
                <path id="Trazado_1004651" data-name="Trazado 1004651" d="M577.882,124.894a23.135,23.135,0,0,0,.935,11.536c1.948,5.244,4.791,6.986,7.9,7.184,3.532.226,11.032-1.461,10.669-18.289C597.138,113.955,579.369,113.5,577.882,124.894Z" transform="translate(-577.54 -116.569)" fill="#e38680"/>
              </g>
              <g id="Grupo_1192172" data-name="Grupo 1192172" transform="translate(3.832 3.168)">
                <path id="Trazado_1004652" data-name="Trazado 1004652" d="M595.149,120.834a37.147,37.147,0,0,0,2.261,5.743l1.11-2.922s-.287-8.6-10.212-9.08c-10.261-.495-10.323,8.09-10.323,8.09l.685,4.077s2.769-3.725,3.087-6.269c0,0,3.249,3.968,6.447,3.667a7.981,7.981,0,0,1-1.37-2.284s5.409,3.2,9.174,2.319A6.77,6.77,0,0,1,595.149,120.834Z" transform="translate(-577.985 -114.555)" fill="#dd504f"/>
              </g>
              <g id="Grupo_1192173" data-name="Grupo 1192173" transform="translate(7.135 13.531)">
                <path id="Trazado_1004653" data-name="Trazado 1004653" d="M585.43,139.859a5.67,5.67,0,0,1,3.79-1.95.674.674,0,0,1,.706.667v.006a.677.677,0,0,1-.7.683A9.466,9.466,0,0,0,585.43,139.859Z" transform="translate(-585.43 -137.908)" fill="#dd504f"/>
              </g>
              <g id="Grupo_1192174" data-name="Grupo 1192174" transform="translate(15.869 13.8)">
                <path id="Trazado_1004654" data-name="Trazado 1004654" d="M609.469,140.828a5.669,5.669,0,0,0-3.585-2.306.674.674,0,0,0-.767.6v.006a.677.677,0,0,0,.632.748A9.46,9.46,0,0,1,609.469,140.828Z" transform="translate(-605.112 -138.514)" fill="#dd504f"/>
              </g>
              <g id="Grupo_1192175" data-name="Grupo 1192175" transform="translate(11.947 27.378)">
                <path id="Trazado_1004655" data-name="Trazado 1004655" d="M597.718,169.855a3.541,3.541,0,0,1-1.328-.336.213.213,0,0,1,.194-.379h0a2.735,2.735,0,0,0,2.385,0,.213.213,0,0,1,.217.367A2.6,2.6,0,0,1,597.718,169.855Z" transform="translate(-596.274 -169.114)" fill="#d55b5d"/>
              </g>
              <g id="Grupo_1192176" data-name="Grupo 1192176" transform="translate(12.654 18.076)">
                <path id="Trazado_1004656" data-name="Trazado 1004656" d="M599.619,152.807H599.6l-1.55-.2a.213.213,0,0,1,.055-.423l1.3.168-.215-3.975a.213.213,0,0,1,.426-.023l.229,4.231a.213.213,0,0,1-.223.224Z" transform="translate(-597.866 -148.15)" fill="#d55b5d"/>
              </g>
              <g id="Grupo_1192177" data-name="Grupo 1192177" transform="translate(10.232 24.232)">
                <path id="Trazado_1004657" data-name="Trazado 1004657" d="M592.409,162.024a17.359,17.359,0,0,0,6.475.221,3.139,3.139,0,0,1-3.456,2.638A3.316,3.316,0,0,1,592.409,162.024Z" transform="translate(-592.409 -162.024)" fill="#f2edfd"/>
              </g>
              <g id="Grupo_1192178" data-name="Grupo 1192178" transform="translate(8.873 16.732)">
                <path id="Trazado_1004658" data-name="Trazado 1004658" d="M590.847,146.494c-.036.738-.4,1.32-.813,1.3s-.72-.635-.685-1.372.4-1.32.813-1.3S590.882,145.756,590.847,146.494Z" transform="translate(-589.346 -145.121)" fill="#3b2539"/>
              </g>
              <g id="Grupo_1192179" data-name="Grupo 1192179" transform="translate(16.841 17.116)">
                <path id="Trazado_1004659" data-name="Trazado 1004659" d="M608.8,147.36c-.035.738-.4,1.32-.813,1.3s-.72-.635-.685-1.372.4-1.32.813-1.3S608.84,146.622,608.8,147.36Z" transform="translate(-607.304 -145.987)" fill="#3b2539"/>
              </g>
              <g id="Grupo_1192186" data-name="Grupo 1192186" transform="translate(6.978 20.472)">
                <g id="Grupo_1192180" data-name="Grupo 1192180" transform="translate(0.065)">
                  <path id="Trazado_1004660" data-name="Trazado 1004660" d="M585.682,153.792a.23.23,0,1,1-.219-.241A.23.23,0,0,1,585.682,153.792Z" transform="translate(-585.222 -153.55)" fill="#d55b5d"/>
                </g>
                <g id="Grupo_1192181" data-name="Grupo 1192181" transform="translate(1.16 0.608)">
                  <path id="Trazado_1004661" data-name="Trazado 1004661" d="M588.15,155.163a.23.23,0,1,1-.219-.241A.23.23,0,0,1,588.15,155.163Z" transform="translate(-587.69 -154.921)" fill="#d55b5d"/>
                </g>
                <g id="Grupo_1192182" data-name="Grupo 1192182" transform="translate(0 1.353)">
                  <path id="Trazado_1004662" data-name="Trazado 1004662" d="M585.535,156.842a.23.23,0,1,1-.219-.241A.23.23,0,0,1,585.535,156.842Z" transform="translate(-585.075 -156.6)" fill="#d55b5d"/>
                </g>
                <g id="Grupo_1192183" data-name="Grupo 1192183" transform="translate(1.753 1.668)">
                  <path id="Trazado_1004663" data-name="Trazado 1004663" d="M589.485,157.551a.23.23,0,1,1-.219-.241A.23.23,0,0,1,589.485,157.551Z" transform="translate(-589.025 -157.309)" fill="#d55b5d"/>
                </g>
                <g id="Grupo_1192184" data-name="Grupo 1192184" transform="translate(2.939 1.495)">
                  <path id="Trazado_1004664" data-name="Trazado 1004664" d="M592.159,157.161a.23.23,0,1,1-.219-.241A.23.23,0,0,1,592.159,157.161Z" transform="translate(-591.699 -156.919)" fill="#d55b5d"/>
                </g>
                <g id="Grupo_1192185" data-name="Grupo 1192185" transform="translate(2.459 0.346)">
                  <path id="Trazado_1004665" data-name="Trazado 1004665" d="M591.076,154.571a.23.23,0,1,1-.219-.241A.23.23,0,0,1,591.076,154.571Z" transform="translate(-590.616 -154.329)" fill="#d55b5d"/>
                </g>
              </g>
              <g id="Grupo_1192193" data-name="Grupo 1192193" transform="translate(16.894 21.092)">
                <g id="Grupo_1192187" data-name="Grupo 1192187" transform="translate(3.004)">
                  <path id="Trazado_1004666" data-name="Trazado 1004666" d="M614.194,155.166a.23.23,0,1,0,.241-.219A.23.23,0,0,0,614.194,155.166Z" transform="translate(-614.193 -154.947)" fill="#d55b5d"/>
                </g>
                <g id="Grupo_1192188" data-name="Grupo 1192188" transform="translate(1.856 0.501)">
                  <path id="Trazado_1004667" data-name="Trazado 1004667" d="M611.606,156.294a.23.23,0,1,0,.241-.219A.23.23,0,0,0,611.606,156.294Z" transform="translate(-611.605 -156.075)" fill="#d55b5d"/>
                </g>
                <g id="Grupo_1192189" data-name="Grupo 1192189" transform="translate(2.939 1.353)">
                  <path id="Trazado_1004668" data-name="Trazado 1004668" d="M614.047,158.216a.23.23,0,1,0,.241-.219A.23.23,0,0,0,614.047,158.216Z" transform="translate(-614.046 -157.997)" fill="#d55b5d"/>
                </g>
                <g id="Grupo_1192190" data-name="Grupo 1192190" transform="translate(1.164 1.498)">
                  <path id="Trazado_1004669" data-name="Trazado 1004669" d="M610.048,158.542a.23.23,0,1,0,.241-.219A.23.23,0,0,0,610.048,158.542Z" transform="translate(-610.047 -158.323)" fill="#d55b5d"/>
                </g>
                <g id="Grupo_1192191" data-name="Grupo 1192191" transform="translate(0 1.212)">
                  <path id="Trazado_1004670" data-name="Trazado 1004670" d="M607.424,157.9a.23.23,0,1,0,.241-.219A.23.23,0,0,0,607.424,157.9Z" transform="translate(-607.423 -157.678)" fill="#d55b5d"/>
                </g>
                <g id="Grupo_1192192" data-name="Grupo 1192192" transform="translate(0.588 0.114)">
                  <path id="Trazado_1004671" data-name="Trazado 1004671" d="M608.75,155.422a.23.23,0,1,0,.241-.219A.23.23,0,0,0,608.75,155.422Z" transform="translate(-608.749 -155.203)" fill="#d55b5d"/>
                </g>
              </g>
            </g>
            <path id="Trazado_1004672" data-name="Trazado 1004672" d="M550.516,203.721l1.029,34.41-3.6,13.55h44.081l-3.43-12.349,2.058-32.069S565.214,211.588,550.516,203.721Z" transform="translate(-529.563 -159.661)" fill="#e69848"/>
            <path id="Trazado_1004673" data-name="Trazado 1004673" d="M594.224,340.3H572.213l-6.2-24.4-1.815.968-2.891,22.41s-.029.4-.067,1.022H539.991c-.366-10.3-.744-20.524-.257-24.9,1.026-9.263,5.682-21.957,5.682-21.957,23.7,5.492,39.649,0,39.649,0s7.751,12.437,8.179,30.98C593.352,329.023,593.734,334.656,594.224,340.3Z" transform="translate(-524.868 -209.569)" fill="#684868"/>
            <path id="Trazado_1004674" data-name="Trazado 1004674" d="M642.131,192.986s3.96,1.207,8.163,7.638l-8.163,9.6Z" transform="translate(-581.957 -153.689)" fill="#e69848"/>
            <path id="Trazado_1004675" data-name="Trazado 1004675" d="M649.977,210.775l8.3,12.1-7.623,6.344-8.683-10.5Z" transform="translate(-581.87 -163.585)" fill="#d55b5d"/>
            <path id="Trazado_1004676" data-name="Trazado 1004676" d="M661.973,198.452l-7.993-18.209-6.687.649,6.323,31.347s3.4,3.235,6.644,2.374a6.954,6.954,0,0,0,4.924-5.461C665.378,207.578,661.973,198.452,661.973,198.452Z" transform="translate(-584.829 -146.601)" fill="#e38680"/>
            <path id="Trazado_1004677" data-name="Trazado 1004677" d="M635.884,150.653a19.489,19.489,0,0,1,3.7,1.108l1.165-3.614h0c.057-.2.189-.61.369-1.136h0a40.924,40.924,0,0,1,2.312-5.718c.757-1.16,1.444-.252,1.176.506-.206.585-1.1,4.459-1.5,6.2l.071.035a44.72,44.72,0,0,1,2.481-6.217c.757-1.16,1.444-.252,1.176.506-.231.655-1.329,5.433-1.623,6.723l.054.027a42.038,42.038,0,0,1,2.365-5.871c.757-1.16,1.444-.252,1.176.506-.177.5-.859,3.41-1.3,5.33a26.816,26.816,0,0,1,1.931-3.705c.776-1,1.338-.124,1.038.549-.205.461-1.1,3.252-1.643,4.965l-2.457,5.909,1.064,2.591-7.048-.262-.84-2.852-1.115-1.2c-.992-.8-1.933-2.323-2.592-2.717C634.735,151.65,634.142,150.448,635.884,150.653Z" transform="translate(-577.871 -124.625)" fill="#e38680"/>
            <g id="Grupo_1192195" data-name="Grupo 1192195" transform="translate(63.81 23.164)">
              <path id="Trazado_1004678" data-name="Trazado 1004678" d="M655.878,159.672a.176.176,0,0,1-.083-.019l-5.372-2.693a.175.175,0,0,1,.157-.313l5.372,2.693a.175.175,0,0,1-.075.332Z" transform="translate(-650.327 -156.627)" fill="#d55b5d"/>
            </g>
            <g id="Grupo_1192196" data-name="Grupo 1192196" transform="translate(62.294 27.077)">
              <path id="Trazado_1004679" data-name="Trazado 1004679" d="M649.026,167.987a.175.175,0,0,1-.172-.126,3.714,3.714,0,0,0-1.842-2.078.175.175,0,0,1,.146-.319,4,4,0,0,1,2.033,2.3.175.175,0,0,1-.119.217A.18.18,0,0,1,649.026,167.987Z" transform="translate(-646.909 -165.448)" fill="#d55b5d"/>
            </g>
            <path id="Trazado_1004680" data-name="Trazado 1004680" d="M542.546,190.795s-2.586,1.15-4.537,5.181a77.729,77.729,0,0,0-3.494,8.919l10.377,3.516S545.174,192.389,542.546,190.795Z" transform="translate(-522.093 -152.47)" fill="#e69848"/>
            <path id="Trazado_1004681" data-name="Trazado 1004681" d="M581.308,110.624a9.61,9.61,0,0,1,7.543-5.978,18.291,18.291,0,0,1,10.919,1.78l-1.305,1.1s3.976.859,5.756,4.183a8.476,8.476,0,0,1-1.662.475s3.236,2.908,2.478,6.765l-2.784-.593s-5.263-5.993-8.769-7.3S581.308,110.624,581.308,110.624Z" transform="translate(-548.123 -104.426)" fill="#dd504f"/>
            <path id="Trazado_1004682" data-name="Trazado 1004682" d="M575.968,117.4s-5.38-1.157-7.383,2.848H570.5a4.537,4.537,0,0,0-1.914,2.314s.662.712,3.691-.712A6.986,6.986,0,0,0,575.968,117.4Z" transform="translate(-541.046 -111.555)" fill="#dd504f"/>
          </g>
          <g id="Grupo_1192283" data-name="Grupo 1192283" transform="translate(125.068)">
            <path id="Trazado_1004683" data-name="Trazado 1004683" d="M375.226,210.433l-7.006.879-9.093-7.546,11.247-6.963h4.851Z" transform="translate(-357.578 -154.271)" fill="#e48888"/>
            <path id="Trazado_1004684" data-name="Trazado 1004684" d="M371.3,153.25l-5.024,33.835s-7.8.715-10.255-5.634,7.532-27.4,7.532-27.4Z" transform="translate(-355.635 -130.044)" fill="#ecb6a0"/>
            <path id="Trazado_1004685" data-name="Trazado 1004685" d="M386.409,119.454a23.51,23.51,0,0,0-4.608.733l-.815-4.514h0c-.036-.248-.129-.761-.26-1.419h0a49.445,49.445,0,0,0-1.85-7.218c-.719-1.51-1.688-.533-1.49.417.153.733.606,5.516.8,7.664l-.091.031a54.056,54.056,0,0,0-1.971-7.842c-.719-1.51-1.688-.533-1.49.417.171.821.718,6.718.864,8.309l-.069.024a50.791,50.791,0,0,0-1.888-7.409c-.72-1.51-1.688-.533-1.49.417.131.627.481,4.22.7,6.591a32.383,32.383,0,0,0-1.717-4.746c-.769-1.327-1.582-.363-1.331.49.172.585.794,4.07,1.169,6.209l1.021,7.14-.676,3.937,7.361,1.913.518-3.488,3.116-3.434c1.316-.8,3.124-1.863,3.977-2.229C387.626,120.832,388.528,119.489,386.409,119.454Z" transform="translate(-363.442 -103.901)" fill="#ecb6a0"/>
            <g id="Grupo_1192198" data-name="Grupo 1192198" transform="translate(9.173 11.163)">
              <path id="Trazado_1004686" data-name="Trazado 1004686" d="M376.487,128.894a.21.21,0,0,0,.1-.009l6.864-2.362a.212.212,0,0,0-.138-.4l-6.864,2.362a.212.212,0,0,0,.036.409Z" transform="translate(-376.308 -126.11)" fill="#e48888"/>
            </g>
            <g id="Grupo_1192199" data-name="Grupo 1192199" transform="translate(14.554 16.092)">
              <path id="Trazado_1004687" data-name="Trazado 1004687" d="M388.613,139.949a.212.212,0,0,0,.226-.123,4.485,4.485,0,0,1,2.539-2.193.212.212,0,0,0-.123-.405,4.833,4.833,0,0,0-2.8,2.426.212.212,0,0,0,.107.28A.2.2,0,0,0,388.613,139.949Z" transform="translate(-388.434 -137.218)" fill="#e48888"/>
            </g>
            <path id="Trazado_1004688" data-name="Trazado 1004688" d="M407,314.678s-3.56,29.92-4.273,36.857H423.73L428,331.056l.913.534,2.826,19.944H450.79v-37.9Z" transform="translate(-381.829 -219.262)" fill="#4f1e4a"/>
            <path id="Trazado_1004689" data-name="Trazado 1004689" d="M452.188,189.159c-1.276-.511-4.406-2.04-7.532-3.6-.459-.229-.918-.46-1.37-.688l-1.254-.633-.319-.161c-.838-.424-1.627-.826-2.322-1.181-1.673-.853-2.812-1.439-2.812-1.439l-.012,0a23.123,23.123,0,0,1-7.662.528q-.7-.068-1.389-.18t-1.4-.267l-.37-.083-.035.019c-.205.109-1.283.681-2.789,1.472-.684.36-1.457.763-2.275,1.19l-.314.163c-1,.52-2.056,1.066-3.1,1.6-2.812,1.44-5.523,2.789-6.706,3.262-2.927,1.171-3.415,7.22-3.415,7.22l.663,45.9h45.218l2.607-45.9S455.114,190.331,452.188,189.159Z" transform="translate(-384.271 -145.732)" fill="#dd504f"/>
            <g id="Grupo_1192282" data-name="Grupo 1192282" transform="translate(33.362)">
              <g id="Grupo_1192201" data-name="Grupo 1192201" transform="translate(2.701 38.34)">
                <g id="Grupo_1192200" data-name="Grupo 1192200">
                  <path id="Trazado_1004690" data-name="Trazado 1004690" d="M458.6,187.519c-.166.485-.357.981-.577,1.475a12.272,12.272,0,0,1-3.387,4.631,9.662,9.662,0,0,1-6.262,2.114,11.879,11.879,0,0,1-9.933-5.463,18.255,18.255,0,0,1-1.538-2.695l.314-.163a17.83,17.83,0,0,0,1.521,2.665,11.311,11.311,0,0,0,9.637,5.3c4.261,0,7.4-2.2,9.325-6.535.223-.5.415-1,.581-1.493Z" transform="translate(-436.908 -187.358)" fill="#a73034"/>
                </g>
              </g>
              <g id="Grupo_1192202" data-name="Grupo 1192202" transform="translate(5.289 35.719)">
                <path id="Trazado_1004691" data-name="Trazado 1004691" d="M459.209,182.89a8.211,8.211,0,0,1-8.032,6.625c-5.608,0-7.715-4.538-8.434-6.573,1.506-.791,2.584-1.363,2.789-1.472l.035-.019.37.083q.7.156,1.4.267t1.389.18a23.114,23.114,0,0,0,7.662-.528l.012,0S457.535,182.038,459.209,182.89Z" transform="translate(-442.742 -181.451)" fill="#fcf6f0"/>
              </g>
              <g id="Grupo_1192281" data-name="Grupo 1192281">
                <g id="Grupo_1192213" data-name="Grupo 1192213" transform="translate(7.573 29.603)">
                  <g id="Grupo_1192207" data-name="Grupo 1192207">
                    <g id="Grupo_1192206" data-name="Grupo 1192206">
                      <g id="Grupo_1192205" data-name="Grupo 1192205">
                        <g id="Grupo_1192204" data-name="Grupo 1192204">
                          <g id="Grupo_1192203" data-name="Grupo 1192203">
                            <path id="Trazado_1004692" data-name="Trazado 1004692" d="M459.506,175.019s-.951,2.989-5.321,2.989c-5.1,0-6.3-2.717-6.3-2.717a22.163,22.163,0,0,0,.953-3.233h0a17.419,17.419,0,0,0,.408-4.035l8.954-.355c.083.758.217,1.651.37,2.549C458.979,172.6,459.506,175.019,459.506,175.019Z" transform="translate(-447.889 -167.668)" fill="#ecb6a0"/>
                          </g>
                        </g>
                      </g>
                    </g>
                  </g>
                  <g id="Grupo_1192212" data-name="Grupo 1192212" transform="translate(0.954 0)">
                    <g id="Grupo_1192211" data-name="Grupo 1192211">
                      <g id="Grupo_1192210" data-name="Grupo 1192210">
                        <g id="Grupo_1192209" data-name="Grupo 1192209">
                          <g id="Grupo_1192208" data-name="Grupo 1192208">
                            <path id="Trazado_1004693" data-name="Trazado 1004693" d="M459.77,170.218c-1.387.965-4.42,2.4-9.731,1.841a17.423,17.423,0,0,0,.408-4.035l8.954-.355C459.483,168.427,459.618,169.32,459.77,170.218Z" transform="translate(-450.039 -167.669)" fill="#3b2539"/>
                          </g>
                        </g>
                      </g>
                    </g>
                  </g>
                </g>
                <g id="Grupo_1192230" data-name="Grupo 1192230" transform="translate(0 16.036)">
                  <g id="Grupo_1192229" data-name="Grupo 1192229">
                    <g id="Grupo_1192218" data-name="Grupo 1192218">
                      <g id="Grupo_1192217" data-name="Grupo 1192217">
                        <g id="Grupo_1192216" data-name="Grupo 1192216">
                          <g id="Grupo_1192215" data-name="Grupo 1192215">
                            <g id="Grupo_1192214" data-name="Grupo 1192214">
                              <path id="Trazado_1004694" data-name="Trazado 1004694" d="M436.339,139.338s-2.771-3.772-4.926-1.539,2,10.007,5.773,8.313Z" transform="translate(-430.821 -137.092)" fill="#ecb6a0"/>
                            </g>
                          </g>
                        </g>
                      </g>
                    </g>
                    <g id="Grupo_1192223" data-name="Grupo 1192223" transform="translate(1.462 1.948)">
                      <g id="Grupo_1192222" data-name="Grupo 1192222">
                        <g id="Grupo_1192221" data-name="Grupo 1192221">
                          <g id="Grupo_1192220" data-name="Grupo 1192220">
                            <g id="Grupo_1192219" data-name="Grupo 1192219">
                              <path id="Trazado_1004695" data-name="Trazado 1004695" d="M436.85,146.237a.191.191,0,0,1-.189-.165,7.1,7.1,0,0,0-2.468-4.245.192.192,0,0,1,.232-.305,7.374,7.374,0,0,1,2.616,4.5.192.192,0,0,1-.163.216A.128.128,0,0,1,436.85,146.237Z" transform="translate(-434.117 -141.482)" fill="#e48888"/>
                            </g>
                          </g>
                        </g>
                      </g>
                    </g>
                    <g id="Grupo_1192228" data-name="Grupo 1192228" transform="translate(1.847 3.916)">
                      <g id="Grupo_1192227" data-name="Grupo 1192227">
                        <g id="Grupo_1192226" data-name="Grupo 1192226">
                          <g id="Grupo_1192225" data-name="Grupo 1192225">
                            <g id="Grupo_1192224" data-name="Grupo 1192224">
                              <path id="Trazado_1004696" data-name="Trazado 1004696" d="M436.752,146.822a.192.192,0,0,1-.159-.084c-.278-.411-1.11-.453-1.406-.435a.191.191,0,1,1-.024-.382c.053,0,1.29-.072,1.747.6a.191.191,0,0,1-.158.3Z" transform="translate(-434.984 -145.917)" fill="#e48888"/>
                            </g>
                          </g>
                        </g>
                      </g>
                    </g>
                  </g>
                </g>
                <g id="Grupo_1192247" data-name="Grupo 1192247" transform="translate(21.552 16.036)">
                  <g id="Grupo_1192246" data-name="Grupo 1192246">
                    <g id="Grupo_1192235" data-name="Grupo 1192235">
                      <g id="Grupo_1192234" data-name="Grupo 1192234">
                        <g id="Grupo_1192233" data-name="Grupo 1192233">
                          <g id="Grupo_1192232" data-name="Grupo 1192232">
                            <g id="Grupo_1192231" data-name="Grupo 1192231">
                              <path id="Trazado_1004697" data-name="Trazado 1004697" d="M480.238,139.338s2.771-3.772,4.926-1.539-2,10.007-5.773,8.313Z" transform="translate(-479.391 -137.092)" fill="#ecb6a0"/>
                            </g>
                          </g>
                        </g>
                      </g>
                    </g>
                    <g id="Grupo_1192240" data-name="Grupo 1192240" transform="translate(1.976 1.949)">
                      <g id="Grupo_1192239" data-name="Grupo 1192239">
                        <g id="Grupo_1192238" data-name="Grupo 1192238">
                          <g id="Grupo_1192237" data-name="Grupo 1192237">
                            <g id="Grupo_1192236" data-name="Grupo 1192236">
                              <path id="Trazado_1004698" data-name="Trazado 1004698" d="M484.037,146.238l-.027,0a.191.191,0,0,1-.163-.216,7.374,7.374,0,0,1,2.616-4.5.192.192,0,0,1,.232.305,7.116,7.116,0,0,0-2.469,4.245A.191.191,0,0,1,484.037,146.238Z" transform="translate(-483.845 -141.484)" fill="#e48888"/>
                            </g>
                          </g>
                        </g>
                      </g>
                    </g>
                    <g id="Grupo_1192245" data-name="Grupo 1192245" transform="translate(2.557 3.916)">
                      <g id="Grupo_1192244" data-name="Grupo 1192244">
                        <g id="Grupo_1192243" data-name="Grupo 1192243">
                          <g id="Grupo_1192242" data-name="Grupo 1192242">
                            <g id="Grupo_1192241" data-name="Grupo 1192241">
                              <path id="Trazado_1004699" data-name="Trazado 1004699" d="M485.345,146.822a.191.191,0,0,1-.158-.3c.457-.675,1.694-.606,1.747-.6a.191.191,0,0,1-.024.382c-.3-.018-1.129.025-1.406.435A.191.191,0,0,1,485.345,146.822Z" transform="translate(-485.154 -145.917)" fill="#e48888"/>
                            </g>
                          </g>
                        </g>
                      </g>
                    </g>
                  </g>
                </g>
                <g id="Grupo_1192253" data-name="Grupo 1192253" transform="translate(2.769)">
                  <g id="Grupo_1192252" data-name="Grupo 1192252">
                    <g id="Grupo_1192251" data-name="Grupo 1192251">
                      <g id="Grupo_1192250" data-name="Grupo 1192250">
                        <g id="Grupo_1192248" data-name="Grupo 1192248" transform="translate(0.935 6.586)">
                          <path id="Trazado_1004700" data-name="Trazado 1004700" d="M451.193,115.795c-7.9,0-12.8,4.089-11.921,13.483.526,5.607,3.41,12.544,10.063,12.7,6.933.163,9.715-7.386,10.705-13.114.906-5.242-1.76-11.053-6.816-12.71A10.95,10.95,0,0,0,451.193,115.795Z" transform="translate(-439.17 -115.795)" fill="#ecb6a0"/>
                        </g>
                        <g id="Grupo_1192249" data-name="Grupo 1192249">
                          <path id="Trazado_1004701" data-name="Trazado 1004701" d="M438.009,119.306s-.919-8.9-.946-10.878c-.065-4.8,4.776-7.491,11.883-7.476,5.731.012,6.437,2.522,6.9,4.553,0,0,4.237.109,4.883,3.063s-2.043,11.876-2.043,11.876a29.3,29.3,0,0,1-1.548-5.008c-.647-2.954-1.487-4.763-3.334-4.8a11.782,11.782,0,0,0-6.648,1.533c-2.493,1.477-4.986,1.662-6.74.369C440.416,112.539,439.947,117,438.009,119.306Z" transform="translate(-437.063 -100.953)" fill="#3b2539"/>
                        </g>
                      </g>
                    </g>
                  </g>
                </g>
                <g id="Grupo_1192255" data-name="Grupo 1192255" transform="translate(5.067 20.857)" opacity="0.5">
                  <g id="Grupo_1192254" data-name="Grupo 1192254">
                    <path id="Trazado_1004702" data-name="Trazado 1004702" d="M447.766,149.169c0,.67-1.237,1.213-2.763,1.213s-2.763-.543-2.763-1.213,1.237-1.213,2.763-1.213S447.766,148.5,447.766,149.169Z" transform="translate(-442.241 -147.956)" fill="#e48888"/>
                  </g>
                </g>
                <g id="Grupo_1192257" data-name="Grupo 1192257" transform="translate(18.065 20.857)" opacity="0.5">
                  <g id="Grupo_1192256" data-name="Grupo 1192256">
                    <path id="Trazado_1004703" data-name="Trazado 1004703" d="M477.059,149.169c0,.67-1.237,1.213-2.763,1.213s-2.763-.543-2.763-1.213,1.237-1.213,2.763-1.213S477.059,148.5,477.059,149.169Z" transform="translate(-471.534 -147.956)" fill="#e48888"/>
                  </g>
                </g>
                <g id="Grupo_1192259" data-name="Grupo 1192259" transform="translate(13.17 19.387)">
                  <g id="Grupo_1192258" data-name="Grupo 1192258">
                    <path id="Trazado_1004704" data-name="Trazado 1004704" d="M461.754,149.683a2.765,2.765,0,0,1-1.088-.259.272.272,0,0,1-.162-.286l.554-4.257a.273.273,0,0,1,.542.071L461.073,149a1.371,1.371,0,0,0,1.31-.052.273.273,0,1,1,.306.453A1.631,1.631,0,0,1,461.754,149.683Z" transform="translate(-460.502 -144.644)" fill="#e48888"/>
                  </g>
                </g>
                <g id="Grupo_1192261" data-name="Grupo 1192261" transform="translate(11.004 25.808)">
                  <g id="Grupo_1192260" data-name="Grupo 1192260">
                    <path id="Trazado_1004705" data-name="Trazado 1004705" d="M458.533,161.04a6.313,6.313,0,0,1-2.772-.657.273.273,0,0,1,.267-.477,5.053,5.053,0,0,0,5.774-.718.273.273,0,0,1,.371.4A5.229,5.229,0,0,1,458.533,161.04Z" transform="translate(-455.621 -159.115)" fill="#e48888"/>
                  </g>
                </g>
                <g id="Grupo_1192263" data-name="Grupo 1192263" transform="translate(13.02 28.465)">
                  <g id="Grupo_1192262" data-name="Grupo 1192262">
                    <path id="Trazado_1004706" data-name="Trazado 1004706" d="M461.5,165.934a4.223,4.223,0,0,1-1.148-.162.273.273,0,0,1,.162-.521h0a3.059,3.059,0,0,0,2.076-.112.273.273,0,1,1,.269.476A2.77,2.77,0,0,1,461.5,165.934Z" transform="translate(-460.164 -165.103)" fill="#e48888"/>
                  </g>
                </g>
                <g id="Grupo_1192265" data-name="Grupo 1192265" transform="translate(7.546 14.829)">
                  <g id="Grupo_1192264" data-name="Grupo 1192264">
                    <path id="Trazado_1004707" data-name="Trazado 1004707" d="M448.873,136.7a7.4,7.4,0,0,1,2.282-.828.713.713,0,0,0,.578-.943l-.031-.086a.709.709,0,0,0-.742-.467,5.005,5.005,0,0,0-2.926,1.2.708.708,0,0,0-.172.713h0A.71.71,0,0,0,448.873,136.7Z" transform="translate(-447.828 -134.372)" fill="#3b2539"/>
                  </g>
                </g>
                <g id="Grupo_1192267" data-name="Grupo 1192267" transform="translate(16.995 14.829)">
                  <g id="Grupo_1192266" data-name="Grupo 1192266">
                    <path id="Trazado_1004708" data-name="Trazado 1004708" d="M472.024,136.7a7.4,7.4,0,0,0-2.282-.828.713.713,0,0,1-.578-.943l.031-.086a.709.709,0,0,1,.742-.467,5.005,5.005,0,0,1,2.926,1.2.708.708,0,0,1,.172.713h0A.71.71,0,0,1,472.024,136.7Z" transform="translate(-469.123 -134.372)" fill="#3b2539"/>
                  </g>
                </g>
                <g id="Grupo_1192280" data-name="Grupo 1192280" transform="translate(9.52 17.915)">
                  <g id="Grupo_1192273" data-name="Grupo 1192273">
                    <g id="Grupo_1192272" data-name="Grupo 1192272">
                      <g id="Grupo_1192271" data-name="Grupo 1192271">
                        <g id="Grupo_1192270" data-name="Grupo 1192270">
                          <g id="Grupo_1192269" data-name="Grupo 1192269">
                            <g id="Grupo_1192268" data-name="Grupo 1192268">
                              <path id="Trazado_1004709" data-name="Trazado 1004709" d="M453.541,142.656c.013.74-.26,1.345-.609,1.351s-.643-.589-.656-1.329.26-1.345.609-1.351S453.528,141.916,453.541,142.656Z" transform="translate(-452.275 -141.327)" fill="#3b2539"/>
                            </g>
                          </g>
                        </g>
                      </g>
                    </g>
                  </g>
                  <g id="Grupo_1192279" data-name="Grupo 1192279" transform="translate(7.88)">
                    <g id="Grupo_1192278" data-name="Grupo 1192278">
                      <g id="Grupo_1192277" data-name="Grupo 1192277">
                        <g id="Grupo_1192276" data-name="Grupo 1192276">
                          <g id="Grupo_1192275" data-name="Grupo 1192275">
                            <g id="Grupo_1192274" data-name="Grupo 1192274">
                              <path id="Trazado_1004710" data-name="Trazado 1004710" d="M470.033,142.656c-.013.74.26,1.345.61,1.351s.643-.589.656-1.329-.26-1.345-.609-1.351S470.047,141.916,470.033,142.656Z" transform="translate(-470.033 -141.327)" fill="#3b2539"/>
                            </g>
                          </g>
                        </g>
                      </g>
                    </g>
                  </g>
                </g>
              </g>
            </g>
            <path id="Trazado_1004711" data-name="Trazado 1004711" d="M408.452,189.771a20.528,20.528,0,0,0-9.557.539l-9.557,1.755.712,16.615s11.216.534,15.844-2.2C407.243,205.689,408.452,189.771,408.452,189.771Z" transform="translate(-374.383 -150.175)" fill="#dd504f"/>
            <path id="Trazado_1004712" data-name="Trazado 1004712" d="M499.9,194.744a24.141,24.141,0,0,1,9.688,4.308c4.273,3.383,10.5,14.064,10.5,14.064l-15.245,8.723Z" transform="translate(-435.887 -153.126)" fill="#dd504f"/>
            <path id="Trazado_1004713" data-name="Trazado 1004713" d="M525.384,238.025s10.147,13.2,10.7,17.782S516.1,281.7,516.1,281.7l-4.064-6.005,10.783-19.886-9.247-11.024Z" transform="translate(-442.634 -177.202)" fill="#ecb6a0"/>
            <path id="Trazado_1004714" data-name="Trazado 1004714" d="M484.1,325.82a27.6,27.6,0,0,1,2.911-1.456c.008-.017.013-.036.022-.052l.157-.025.013-.006v0l8.439-1.361s5.708,4.11,4.064,6.005c-1.49,1.717-7.421,3.895-8.526,4.289h0l-.177.063,0,0-2.123.679s-1.034,2.331-1.936,2.238,0-3.143.976-3.75a19.139,19.139,0,0,1,1.836-.954l-.071-.108-2.006.641s-1.176,2.653-2.2,2.547,0-3.577,1.111-4.267a20.034,20.034,0,0,1,1.845-.97l-.059-.1-1.945.622s-1.176,2.653-2.2,2.547,0-3.577,1.111-4.267a21.141,21.141,0,0,1,2-1.045q-.04-.1-.077-.2l-2.06.659s-1.176,2.653-2.2,2.547S482.987,326.51,484.1,325.82Z" transform="translate(-426.242 -224.428)" fill="#ecb6a0"/>
          </g>
          <g id="Grupo_1192336" data-name="Grupo 1192336" transform="translate(72.166 9.929)">
            <path id="Trazado_1004715" data-name="Trazado 1004715" d="M382.5,265.682l-2.169-7.85-4.958,2.759Z" transform="translate(-313.716 -198.149)" fill="#d55b5d"/>
            <g id="Grupo_1192284" data-name="Grupo 1192284" transform="translate(16.619)">
              <path id="Trazado_1004716" data-name="Trazado 1004716" d="M308.418,144.921c1.4,3.332.384,4.94-1.12,6.339l-.045.042c-3.123,2.892-3.63,0-7.18,2.317s-6.164,1.724-11.019,1.739-4.345-2.888-7.866-1.739-5.039-.148-6.663-2.317c-1.522-2.032.047-6.283.253-6.825,0-.011.007-.018.011-.029s.011-.025.011-.025c.705-1.627.98-3.687,1.8-7.18.116-.5.242-1.023.383-1.583.155-.615.325-1.266.517-1.96.112-.4.232-.8.354-1.175a13.748,13.748,0,0,1,25.941,0c.123.379.239.77.351,1.175.192.694.365,1.345.517,1.96.145.56.271,1.088.387,1.583C306.131,141.881,307.482,142.7,308.418,144.921Z" transform="translate(-273.867 -123.328)" fill="#4f1e4a"/>
            </g>
            <g id="Grupo_1192287" data-name="Grupo 1192287" transform="translate(9.266 33.788)">
              <path id="Trazado_1004717" data-name="Trazado 1004717" d="M308.024,209.613a7.536,7.536,0,0,0-5.918-5.591c-1.334-.343-4.7-1.324-7.816-2.243-3.321-.981-6.36-1.893-6.36-1.893l-5.055-.4-.032,0-.032,0-5.6.448s-3.385,1.054-6.856,2.108c-.995.3-2,.6-2.928.883-1.643.489-3.067.9-3.845,1.1a7.537,7.537,0,0,0-5.918,5.591c-1.031,3.442.438,24.7.438,24.7l2.136,22.825H303.96l2.19-22.825h1.208S309.055,213.056,308.024,209.613Z" transform="translate(-257.295 -199.477)" fill="#684868"/>
              <g id="Grupo_1192285" data-name="Grupo 1192285" transform="translate(25.549)">
                <path id="Trazado_1004718" data-name="Trazado 1004718" d="M314.9,199.473v0l-.031,0Z" transform="translate(-314.873 -199.473)" fill="#5848bc"/>
              </g>
              <g id="Grupo_1192286" data-name="Grupo 1192286" transform="translate(25.516)">
                <path id="Trazado_1004719" data-name="Trazado 1004719" d="M314.832,199.476l-.032,0v0Z" transform="translate(-314.8 -199.473)" fill="#5848bc"/>
              </g>
            </g>
            <g id="Grupo_1192331" data-name="Grupo 1192331" transform="translate(20.016 1.952)">
              <g id="Grupo_1192291" data-name="Grupo 1192291" transform="translate(4.987 28.341)">
                <g id="Grupo_1192288" data-name="Grupo 1192288" transform="translate(4.163 0)">
                  <path id="Trazado_1004720" data-name="Trazado 1004720" d="M312.789,196.876a5.876,5.876,0,0,1-5.293,2.61,6.244,6.244,0,0,1-5.352-2.739l.23-1.877.039-.315.362-2.956,9.318.26.156,1.124.051.368Z" transform="translate(-302.144 -191.598)" fill="#e38680"/>
                </g>
                <g id="Grupo_1192289" data-name="Grupo 1192289" transform="translate(0 3.936)">
                  <path id="Trazado_1004721" data-name="Trazado 1004721" d="M311.223,205.847c-2.319,2.985-7.349,1.379-8.983-.8-1.635,2.184-6.664,3.79-8.984.8-2.233-2.874,3.817-5.379,3.817-5.379.619,2.784,4.014,3.677,5.167,3.892,1.154-.216,4.526-1.108,5.143-3.892C307.384,200.468,313.457,202.973,311.223,205.847Z" transform="translate(-292.762 -200.468)" fill="#f2edfd"/>
                </g>
                <g id="Grupo_1192290" data-name="Grupo 1192290" transform="translate(4.393)">
                  <path id="Trazado_1004722" data-name="Trazado 1004722" d="M312.536,192.981c-2.111,1.79-5.526,2.47-9.874,1.887l.039-.316.362-2.956,9.318.26Z" transform="translate(-302.662 -191.597)" fill="#3b2539"/>
                </g>
              </g>
              <g id="Grupo_1192296" data-name="Grupo 1192296" transform="translate(0 14.75)">
                <g id="Grupo_1192292" data-name="Grupo 1192292">
                  <path id="Trazado_1004723" data-name="Trazado 1004723" d="M287.805,166.866c-2.084,2.91-6.573.943-6.267-2.918.277-3.5,4.19-2.948,4.19-2.948Z" transform="translate(-281.523 -160.967)" fill="#d55b5d"/>
                </g>
                <g id="Grupo_1192293" data-name="Grupo 1192293" transform="translate(1.528 6.115)">
                  <path id="Trazado_1004724" data-name="Trazado 1004724" d="M287.556,176.044a1.295,1.295,0,1,1-1.295-1.295A1.295,1.295,0,0,1,287.556,176.044Z" transform="translate(-284.966 -174.749)" fill="#eaa940"/>
                </g>
                <g id="Grupo_1192294" data-name="Grupo 1192294" transform="translate(1.855 2.054)">
                  <path id="Trazado_1004725" data-name="Trazado 1004725" d="M288.212,169.514a.278.278,0,0,1-.27-.212,7.845,7.845,0,0,0-2.145-3.221.278.278,0,0,1,.37-.416,8.267,8.267,0,0,1,2.316,3.5.278.278,0,0,1-.2.336A.275.275,0,0,1,288.212,169.514Z" transform="translate(-285.704 -165.596)" fill="#b33a41"/>
                </g>
                <g id="Grupo_1192295" data-name="Grupo 1192295" transform="translate(1.722 3.68)">
                  <path id="Trazado_1004726" data-name="Trazado 1004726" d="M287.328,169.979a.279.279,0,0,1-.088-.015,3.143,3.143,0,0,0-1.5-.1.278.278,0,0,1-.121-.543,3.667,3.667,0,0,1,1.795.114.278.278,0,0,1-.088.542Z" transform="translate(-285.404 -169.261)" fill="#b33a41"/>
                </g>
              </g>
              <g id="Grupo_1192301" data-name="Grupo 1192301" transform="translate(21.715 14.75)">
                <g id="Grupo_1192297" data-name="Grupo 1192297">
                  <path id="Trazado_1004727" data-name="Trazado 1004727" d="M330.461,166.866c2.084,2.91,6.573.943,6.267-2.918-.277-3.5-4.19-2.948-4.19-2.948Z" transform="translate(-330.461 -160.967)" fill="#d55b5d"/>
                </g>
                <g id="Grupo_1192298" data-name="Grupo 1192298" transform="translate(2.28 6.115)">
                  <path id="Trazado_1004728" data-name="Trazado 1004728" d="M338.189,176.044a1.295,1.295,0,1,1-1.295-1.295A1.295,1.295,0,0,1,338.189,176.044Z" transform="translate(-335.599 -174.749)" fill="#eaa940"/>
                </g>
                <g id="Grupo_1192299" data-name="Grupo 1192299" transform="translate(1.64 2.054)">
                  <path id="Trazado_1004729" data-name="Trazado 1004729" d="M334.436,169.515a.287.287,0,0,1-.067-.008.278.278,0,0,1-.2-.336,8.259,8.259,0,0,1,2.316-3.5.278.278,0,0,1,.37.416,7.846,7.846,0,0,0-2.145,3.221A.279.279,0,0,1,334.436,169.515Z" transform="translate(-334.158 -165.597)" fill="#b33a41"/>
                </g>
                <g id="Grupo_1192300" data-name="Grupo 1192300" transform="translate(2.358 3.68)">
                  <path id="Trazado_1004730" data-name="Trazado 1004730" d="M336.052,169.979a.278.278,0,0,1-.088-.542,3.668,3.668,0,0,1,1.795-.114.278.278,0,0,1-.121.543h0a3.149,3.149,0,0,0-1.5.1A.3.3,0,0,1,336.052,169.979Z" transform="translate(-335.774 -169.261)" fill="#b33a41"/>
                </g>
              </g>
              <g id="Grupo_1192302" data-name="Grupo 1192302" transform="translate(3.181 0.947)">
                <path id="Trazado_1004731" data-name="Trazado 1004731" d="M288.886,139.443a25.167,25.167,0,0,0,1.621,12.487c2.391,5.6,5.572,7.34,8.958,7.393,3.85.06,11.911-2.166,10.635-20.433C309.237,126.546,289.905,126.982,288.886,139.443Z" transform="translate(-288.693 -129.861)" fill="#e38680"/>
              </g>
              <g id="Grupo_1192303" data-name="Grupo 1192303" transform="translate(2.822)">
                <path id="Trazado_1004732" data-name="Trazado 1004732" d="M287.884,141.046s.2,3.91,1.824,3.763.835-8.955.835-8.955a4.691,4.691,0,0,0,4.084,1.9c2.638-.232.245-3.662.245-3.662s2.435,3.384,4.662,3.245,0-4.311,0-4.311,2.909,4.728,5,4.589.32-4.08.32-4.08,1.666,4.358,3.256,4.682c0,0-.4,6.42,1.3,6.15s1.072-7.448.372-9.627a11.228,11.228,0,0,0-11.659-6.954C290.914,128.484,288.013,132.47,287.884,141.046Z" transform="translate(-287.884 -127.727)" fill="#4f1e4a"/>
              </g>
              <g id="Grupo_1192304" data-name="Grupo 1192304" transform="translate(6.97 11.405)">
                <path id="Trazado_1004733" data-name="Trazado 1004733" d="M297.231,155.751a6.169,6.169,0,0,1,4.017-2.318.733.733,0,0,1,.8.688v.007a.737.737,0,0,1-.726.78A10.283,10.283,0,0,0,297.231,155.751Z" transform="translate(-297.231 -153.429)" fill="#4f1e4a"/>
              </g>
              <g id="Grupo_1192305" data-name="Grupo 1192305" transform="translate(16.407 11.405)">
                <path id="Trazado_1004734" data-name="Trazado 1004734" d="M323.32,155.751a6.167,6.167,0,0,0-4.017-2.318.733.733,0,0,0-.8.688v.007a.737.737,0,0,0,.726.78A10.283,10.283,0,0,1,323.32,155.751Z" transform="translate(-318.499 -153.429)" fill="#4f1e4a"/>
              </g>
              <g id="Grupo_1192306" data-name="Grupo 1192306" transform="translate(12.833 26.253)">
                <path id="Trazado_1004735" data-name="Trazado 1004735" d="M312.042,187.77a3.854,3.854,0,0,1-1.461-.3.232.232,0,1,1,.191-.422,2.975,2.975,0,0,0,2.592-.121.232.232,0,0,1,.255.387A2.828,2.828,0,0,1,312.042,187.77Z" transform="translate(-310.444 -186.893)" fill="#d55b5d"/>
              </g>
              <g id="Grupo_1192307" data-name="Grupo 1192307" transform="translate(13.324 16.173)">
                <path id="Trazado_1004736" data-name="Trazado 1004736" d="M313.478,169.226h-.019l-1.7-.137a.232.232,0,0,1,.037-.462l1.417.114-.442-4.309a.232.232,0,1,1,.461-.047l.471,4.586a.233.233,0,0,1-.065.186A.229.229,0,0,1,313.478,169.226Z" transform="translate(-311.551 -164.176)" fill="#d55b5d"/>
              </g>
              <g id="Grupo_1192308" data-name="Grupo 1192308" transform="translate(10.794 22.973)">
                <path id="Trazado_1004737" data-name="Trazado 1004737" d="M305.848,179.6a18.882,18.882,0,0,0,7.048-.1,3.416,3.416,0,0,1-3.618,3.048C306.41,182.56,305.848,179.6,305.848,179.6Z" transform="translate(-305.848 -179.5)" fill="#f2edfd"/>
              </g>
              <g id="Grupo_1192309" data-name="Grupo 1192309" transform="translate(8.994 14.95)">
                <path id="Trazado_1004738" data-name="Trazado 1004738" d="M303.425,162.875c0,.8-.365,1.455-.816,1.455s-.816-.652-.816-1.455.365-1.455.816-1.455S303.425,162.072,303.425,162.875Z" transform="translate(-301.793 -161.42)" fill="#3b2539"/>
              </g>
              <g id="Grupo_1192310" data-name="Grupo 1192310" transform="translate(17.674 14.95)">
                <path id="Trazado_1004739" data-name="Trazado 1004739" d="M322.985,162.875c0,.8-.365,1.455-.816,1.455s-.816-.652-.816-1.455.365-1.455.816-1.455S322.985,162.072,322.985,162.875Z" transform="translate(-321.353 -161.42)" fill="#3b2539"/>
              </g>
              <g id="Grupo_1192317" data-name="Grupo 1192317" transform="translate(7.143 19.141)">
                <g id="Grupo_1192311" data-name="Grupo 1192311">
                  <path id="Trazado_1004740" data-name="Trazado 1004740" d="M298.123,171.113a.25.25,0,1,1-.25-.25A.25.25,0,0,1,298.123,171.113Z" transform="translate(-297.622 -170.863)" fill="#d55b5d"/>
                </g>
                <g id="Grupo_1192312" data-name="Grupo 1192312" transform="translate(1.222 0.604)">
                  <path id="Trazado_1004741" data-name="Trazado 1004741" d="M300.876,172.475a.25.25,0,1,1-.25-.25A.251.251,0,0,1,300.876,172.475Z" transform="translate(-300.375 -172.225)" fill="#d55b5d"/>
                </g>
                <g id="Grupo_1192313" data-name="Grupo 1192313" transform="translate(0 1.474)">
                  <path id="Trazado_1004742" data-name="Trazado 1004742" d="M298.123,174.435a.25.25,0,1,1-.25-.25A.25.25,0,0,1,298.123,174.435Z" transform="translate(-297.622 -174.185)" fill="#d55b5d"/>
                </g>
                <g id="Grupo_1192314" data-name="Grupo 1192314" transform="translate(1.921 1.725)">
                  <circle id="Elipse_13777" data-name="Elipse 13777" cx="0.25" cy="0.25" r="0.25" fill="#d55b5d"/>
                </g>
                <g id="Grupo_1192315" data-name="Grupo 1192315" transform="translate(3.201 1.474)">
                  <path id="Trazado_1004743" data-name="Trazado 1004743" d="M305.337,174.435a.25.25,0,1,1-.25-.25A.25.25,0,0,1,305.337,174.435Z" transform="translate(-304.836 -174.185)" fill="#d55b5d"/>
                </g>
                <g id="Grupo_1192316" data-name="Grupo 1192316" transform="translate(2.619 0.25)">
                  <path id="Trazado_1004744" data-name="Trazado 1004744" d="M304.025,171.677a.25.25,0,1,1-.25-.25A.25.25,0,0,1,304.025,171.677Z" transform="translate(-303.524 -171.427)" fill="#d55b5d"/>
                </g>
              </g>
              <g id="Grupo_1192324" data-name="Grupo 1192324" transform="translate(17.944 19.141)">
                <g id="Grupo_1192318" data-name="Grupo 1192318" transform="translate(3.201)">
                  <path id="Trazado_1004745" data-name="Trazado 1004745" d="M329.176,171.113a.25.25,0,1,0,.25-.25A.251.251,0,0,0,329.176,171.113Z" transform="translate(-329.176 -170.863)" fill="#d55b5d"/>
                </g>
                <g id="Grupo_1192319" data-name="Grupo 1192319" transform="translate(1.979 0.604)">
                  <path id="Trazado_1004746" data-name="Trazado 1004746" d="M326.422,172.475a.25.25,0,1,0,.25-.25A.251.251,0,0,0,326.422,172.475Z" transform="translate(-326.422 -172.225)" fill="#d55b5d"/>
                </g>
                <g id="Grupo_1192320" data-name="Grupo 1192320" transform="translate(3.201 1.474)">
                  <path id="Trazado_1004747" data-name="Trazado 1004747" d="M329.176,174.435a.25.25,0,1,0,.25-.25A.25.25,0,0,0,329.176,174.435Z" transform="translate(-329.176 -174.185)" fill="#d55b5d"/>
                </g>
                <g id="Grupo_1192321" data-name="Grupo 1192321" transform="translate(1.28 1.725)">
                  <circle id="Elipse_13778" data-name="Elipse 13778" cx="0.25" cy="0.25" r="0.25" fill="#d55b5d"/>
                </g>
                <g id="Grupo_1192322" data-name="Grupo 1192322" transform="translate(0 1.474)">
                  <path id="Trazado_1004748" data-name="Trazado 1004748" d="M321.962,174.435a.25.25,0,1,0,.25-.25A.25.25,0,0,0,321.962,174.435Z" transform="translate(-321.962 -174.185)" fill="#d55b5d"/>
                </g>
                <g id="Grupo_1192323" data-name="Grupo 1192323" transform="translate(0.582 0.25)">
                  <path id="Trazado_1004749" data-name="Trazado 1004749" d="M323.274,171.677a.25.25,0,1,0,.25-.25A.25.25,0,0,0,323.274,171.677Z" transform="translate(-323.274 -171.427)" fill="#d55b5d"/>
                </g>
              </g>
              <g id="Grupo_1192330" data-name="Grupo 1192330" transform="translate(2.18 12.998)">
                <g id="Grupo_1192325" data-name="Grupo 1192325" transform="translate(3.216)">
                  <path id="Trazado_1004750" data-name="Trazado 1004750" d="M297.772,165.2a4.088,4.088,0,1,1,4.088-4.088A4.092,4.092,0,0,1,297.772,165.2Zm0-7.8a3.717,3.717,0,1,0,3.717,3.717A3.721,3.721,0,0,0,297.772,157.391Z" transform="translate(-293.684 -157.02)" fill="#f2edfd"/>
                </g>
                <g id="Grupo_1192326" data-name="Grupo 1192326" transform="translate(13.056)">
                  <path id="Trazado_1004751" data-name="Trazado 1004751" d="M319.948,165.2a4.088,4.088,0,1,1,4.088-4.088A4.092,4.092,0,0,1,319.948,165.2Zm0-7.8a3.717,3.717,0,1,0,3.717,3.717A3.721,3.721,0,0,0,319.948,157.391Z" transform="translate(-315.86 -157.02)" fill="#f2edfd"/>
                </g>
                <g id="Grupo_1192327" data-name="Grupo 1192327" transform="translate(20.629 1.533)">
                  <path id="Trazado_1004752" data-name="Trazado 1004752" d="M333.113,161.89a.185.185,0,0,1-.137-.31,3.593,3.593,0,0,1,3.069-1.06.185.185,0,1,1-.06.366,3.259,3.259,0,0,0-2.734.943A.187.187,0,0,1,333.113,161.89Z" transform="translate(-332.927 -160.476)" fill="#f2edfd"/>
                </g>
                <g id="Grupo_1192328" data-name="Grupo 1192328" transform="translate(0 1.415)">
                  <path id="Trazado_1004753" data-name="Trazado 1004753" d="M290.1,161.666a.186.186,0,0,1-.133-.056,3.439,3.439,0,0,0-3.284-.879.186.186,0,1,1-.118-.352,3.751,3.751,0,0,1,3.668.973.185.185,0,0,1-.133.315Z" transform="translate(-286.437 -160.209)" fill="#f2edfd"/>
                </g>
                <g id="Grupo_1192329" data-name="Grupo 1192329" transform="translate(11.02 2.577)">
                  <path id="Trazado_1004754" data-name="Trazado 1004754" d="M311.458,163.964h-.012a.186.186,0,0,1-.173-.2,1.24,1.24,0,0,1,2.406,0,.185.185,0,0,1-.37.024c0-.059-.072-.592-.833-.592-.785,0-.832.568-.833.592A.186.186,0,0,1,311.458,163.964Z" transform="translate(-311.272 -162.827)" fill="#f2edfd"/>
                </g>
              </g>
            </g>
            <path id="Trazado_1004755" data-name="Trazado 1004755" d="M249.69,211.641s-1.966-.331-5.839,4.31-7.436,17.656-7.436,17.656l10.922,4.261a47.546,47.546,0,0,0,4.416-13.116A21.679,21.679,0,0,0,249.69,211.641Z" transform="translate(-236.414 -172.451)" fill="#684868"/>
            <path id="Trazado_1004756" data-name="Trazado 1004756" d="M357.111,210.243s1.966-.331,5.839,4.31,7.436,17.656,7.436,17.656l-10.922,4.261a47.545,47.545,0,0,1-4.416-13.116A21.678,21.678,0,0,1,357.111,210.243Z" transform="translate(-302.252 -171.674)" fill="#684868"/>
            <path id="Trazado_1004757" data-name="Trazado 1004757" d="M325.171,202.22a23.528,23.528,0,0,1,4.552,1.025l1.1-4.453h0c.051-.245.177-.751.35-1.4h0a49.454,49.454,0,0,1,2.306-7.085c.814-1.461,1.719-.425,1.46.511-.2.722-.956,5.466-1.291,7.6l.089.037a54.067,54.067,0,0,1,2.467-7.7c.814-1.461,1.719-.425,1.46.511-.223.808-1.144,6.658-1.391,8.237l.068.028a50.828,50.828,0,0,1,2.356-7.275c.814-1.461,1.719-.425,1.46.511-.171.618-.749,4.181-1.123,6.533a32.43,32.43,0,0,1,2.015-4.627c.852-1.276,1.6-.262,1.3.574-.209.573-1.052,4.011-1.562,6.121l-1.276,6.116,1.853,3.5-7.449,3.408-1.941-4.067-2.891-3.625c-1.262-.879-3-2.058-3.827-2.478C323.869,203.518,323.054,202.12,325.171,202.22Z" transform="translate(-285.068 -160.18)" fill="#e38680"/>
            <g id="Grupo_1192332" data-name="Grupo 1192332" transform="translate(46.861 38.085)">
              <path id="Trazado_1004758" data-name="Trazado 1004758" d="M348.953,212.376a.21.21,0,0,1-.1-.016l-6.7-2.795a.212.212,0,1,1,.163-.391l6.7,2.795a.212.212,0,0,1-.062.406Z" transform="translate(-342.022 -209.159)" fill="#d55b5d"/>
            </g>
            <g id="Grupo_1192333" data-name="Grupo 1192333" transform="translate(45.363 42.93)">
              <path id="Trazado_1004759" data-name="Trazado 1004759" d="M341.394,222.973a.211.211,0,0,1-.218-.137,4.484,4.484,0,0,0-2.395-2.35.212.212,0,0,1,.149-.4,4.836,4.836,0,0,1,2.643,2.6.211.211,0,0,1-.179.284Z" transform="translate(-338.644 -220.076)" fill="#d55b5d"/>
            </g>
            <path id="Trazado_1004760" data-name="Trazado 1004760" d="M346.486,240.6s6.85,15.183,9.731,17.972,5.361,2.685,7.633,1.963,3.615-4.132,2.582-6.61S353.674,236.7,353.674,236.7,346.99,238.744,346.486,240.6Z" transform="translate(-297.644 -186.395)" fill="#e38680"/>
            <path id="Trazado_1004761" data-name="Trazado 1004761" d="M238.133,270.187l2.169-7.85,4.958,2.759Z" transform="translate(-237.37 -200.655)" fill="#d55b5d"/>
            <path id="Trazado_1004762" data-name="Trazado 1004762" d="M281.164,206.725a23.529,23.529,0,0,0-4.552,1.025l-1.1-4.453h0c-.051-.245-.177-.751-.35-1.4h0a49.455,49.455,0,0,0-2.306-7.085c-.814-1.461-1.719-.425-1.46.511.2.722.955,5.466,1.291,7.6l-.089.037a54.066,54.066,0,0,0-2.467-7.7c-.814-1.461-1.719-.425-1.46.511.223.808,1.144,6.658,1.391,8.237l-.068.028a50.825,50.825,0,0,0-2.356-7.274c-.814-1.461-1.719-.425-1.46.511.171.618.749,4.181,1.122,6.533a32.356,32.356,0,0,0-2.015-4.627c-.851-1.276-1.6-.262-1.3.574.209.573,1.052,4.011,1.562,6.121l1.276,6.116-1.853,3.5,7.449,3.409,1.941-4.067,2.891-3.625c1.262-.879,3-2.058,3.827-2.478C282.466,208.023,283.281,206.625,281.164,206.725Z" transform="translate(-251.715 -162.686)" fill="#e38680"/>
            <g id="Grupo_1192334" data-name="Grupo 1192334" transform="translate(15.567 40.084)">
              <path id="Trazado_1004763" data-name="Trazado 1004763" d="M271.688,216.881a.213.213,0,0,0,.1-.016l6.7-2.795a.212.212,0,0,0-.163-.391l-6.7,2.795a.212.212,0,0,0,.062.406Z" transform="translate(-271.496 -213.664)" fill="#d55b5d"/>
            </g>
            <g id="Grupo_1192335" data-name="Grupo 1192335" transform="translate(21.247 44.929)">
              <path id="Trazado_1004764" data-name="Trazado 1004764" d="M284.489,227.478a.211.211,0,0,0,.218-.137,4.483,4.483,0,0,1,2.395-2.35.212.212,0,0,0-.149-.4,4.834,4.834,0,0,0-2.643,2.6.211.211,0,0,0,.125.272A.232.232,0,0,0,284.489,227.478Z" transform="translate(-284.296 -224.581)" fill="#d55b5d"/>
            </g>
            <path id="Trazado_1004765" data-name="Trazado 1004765" d="M257.636,245.109s-6.85,15.183-9.731,17.972-5.361,2.685-7.633,1.963-3.615-4.132-2.582-6.61,12.759-17.226,12.759-17.226S257.132,243.25,257.636,245.109Z" transform="translate(-236.927 -188.901)" fill="#e38680"/>
            <path id="Trazado_1004766" data-name="Trazado 1004766" d="M256.715,311.328h45.244s4.485,25.506,4.375,37.9H252.315S252.987,322.671,256.715,311.328Z" transform="translate(-245.259 -227.907)" fill="#4f1e4a"/>
          </g>
          <g id="Grupo_1192363" data-name="Grupo 1192363" transform="translate(0 4.3)">
            <path id="Trazado_1004767" data-name="Trazado 1004767" d="M100.3,332.757l-1.372,28.106h21.961l1.859-10.122,2.066,1.756,1.239,8.366h21.835l-1.59-28.106Z" transform="translate(-87.768 -234.198)" fill="#352c38"/>
            <path id="Trazado_1004768" data-name="Trazado 1004768" d="M79.159,249.224,76.583,261.98H86.5l1.372-8.108Z" transform="translate(-75.339 -187.731)" fill="#ffac9d"/>
            <path id="Trazado_1004769" data-name="Trazado 1004769" d="M218.133,241.752l5.505,2.762,9.093-7.546-8.22-6.469Z" transform="translate(-154.079 -177.315)" fill="#ffac9d"/>
            <g id="Grupo_1192360" data-name="Grupo 1192360" transform="translate(11.16)">
              <g id="Grupo_1192339" data-name="Grupo 1192339" transform="translate(11.142 19.461)">
                <g id="Grupo_1192337" data-name="Grupo 1192337" transform="translate(5.89 8.105)">
                  <path id="Trazado_1004770" data-name="Trazado 1004770" d="M140.329,176.852s-4.877,3.074-2.226,7.739,20.991,3.392,11.555-7.739C141.864,167.657,140.329,176.852,140.329,176.852Z" transform="translate(-137.314 -172.765)" fill="#76413b"/>
                </g>
                <g id="Grupo_1192338" data-name="Grupo 1192338">
                  <path id="Trazado_1004771" data-name="Trazado 1004771" d="M165.724,154.818s-2.12,2.544-1.7,5.089c.61,3.661-4.983,8.481-10.707,6.891s.424-12.3.424-12.3Z" transform="translate(-138.971 -154.5)" fill="#76413b"/>
                  <path id="Trazado_1004772" data-name="Trazado 1004772" d="M124.04,154.818s2.12,2.544,1.7,5.089c-.61,3.661,4.983,8.481,10.707,6.891s-.424-12.3-.424-12.3Z" transform="translate(-124.04 -154.5)" fill="#76413b"/>
                  <path id="Trazado_1004773" data-name="Trazado 1004773" d="M153.546,162.827a16.145,16.145,0,0,0,7.633-1.647,8.157,8.157,0,0,0,2.856-2.516,8.44,8.44,0,0,1,1.715-3.845L153.77,154.5s-2.607,4.542-2.843,8.15A25.763,25.763,0,0,0,153.546,162.827Z" transform="translate(-138.996 -154.501)" fill="#965450"/>
                  <path id="Trazado_1004774" data-name="Trazado 1004774" d="M125.783,159.463a28.752,28.752,0,0,0,12.806,3.364c.094,0,.189,0,.283,0-.162-3.633-2.853-8.323-2.853-8.323l-11.979.318A7.781,7.781,0,0,1,125.783,159.463Z" transform="translate(-124.039 -154.501)" fill="#965450"/>
                </g>
              </g>
              <g id="Grupo_1192343" data-name="Grupo 1192343" transform="translate(0 28.373)">
                <g id="Grupo_1192340" data-name="Grupo 1192340" transform="translate(0.376)">
                  <path id="Trazado_1004775" data-name="Trazado 1004775" d="M130.326,183.168c-2.7-1.471-1.962-8.584-1.962-8.584l-4.04.26v-.26l-.432.13-.432-.13v.26l-4.04-.26s.736,7.113-1.962,8.584S98.183,185.375,99.9,201.806h47.984C149.6,185.375,133.024,184.639,130.326,183.168Z" transform="translate(-99.776 -174.584)" fill="#ffac9d"/>
                  <path id="Trazado_1004776" data-name="Trazado 1004776" d="M142.768,181.333q4.841-.722,9.675-1.489a21.548,21.548,0,0,1-.163-5.26l-4.04.26v-.26l-.432.13-.432-.13v.26l-4.04-.26S143.761,178.717,142.768,181.333Z" transform="translate(-123.691 -174.584)" fill="#cc887f"/>
                </g>
                <g id="Grupo_1192342" data-name="Grupo 1192342" transform="translate(0 9.849)">
                  <path id="Trazado_1004777" data-name="Trazado 1004777" d="M135.341,196.781a17.136,17.136,0,0,1-9.824,4.005l-2.143,7.714-1.134-7.653a17.408,17.408,0,0,1-10.626-4.066c-5.6,1.795-13.785,5.686-12.564,17.372h48.855C149.126,202.467,140.943,198.576,135.341,196.781Z" transform="translate(-98.928 -196.781)" fill="#4f1e4a"/>
                  <g id="Grupo_1192341" data-name="Grupo 1192341" transform="translate(9.714 0)">
                    <path id="Trazado_1004778" data-name="Trazado 1004778" d="M134.708,202.811l-.291-1.962a17.408,17.408,0,0,1-10.626-4.066,28.488,28.488,0,0,0-2.972,1.127C122.807,200.609,128.214,202.6,134.708,202.811Z" transform="translate(-120.82 -196.782)" fill="#684868"/>
                    <path id="Trazado_1004779" data-name="Trazado 1004779" d="M171.27,198.058a27.792,27.792,0,0,0-3.3-1.276,17.136,17.136,0,0,1-9.824,4.005l-.561,2.02C163.918,202.582,169.207,200.669,171.27,198.058Z" transform="translate(-141.271 -196.782)" fill="#684868"/>
                  </g>
                  <path id="Trazado_1004780" data-name="Trazado 1004780" d="M152.924,226.274a.891.891,0,1,0,.891-.891A.891.891,0,0,0,152.924,226.274Z" transform="translate(-128.964 -212.691)" fill="#684868"/>
                </g>
              </g>
              <g id="Grupo_1192359" data-name="Grupo 1192359" transform="translate(9.272)">
                <g id="Grupo_1192346" data-name="Grupo 1192346" transform="translate(2.634 4.071)">
                  <g id="Grupo_1192344" data-name="Grupo 1192344">
                    <path id="Trazado_1004781" data-name="Trazado 1004781" d="M130.447,148.7c-.795-2.466-2.677-1.9-2.853-1.835-.185.022-2.13.311-1.794,2.879.338,2.584,1.837,3.985,3.244,3.573C130.491,153.084,131.247,151.177,130.447,148.7Z" transform="translate(-125.761 -134.806)" fill="#cc887f"/>
                    <path id="Trazado_1004782" data-name="Trazado 1004782" d="M171.682,148.7c.795-2.466,2.677-1.9,2.853-1.835.185.022,2.13.311,1.794,2.879-.338,2.584-1.837,3.985-3.244,3.573C171.639,153.084,170.882,151.177,171.682,148.7Z" transform="translate(-151.125 -134.806)" fill="#cc887f"/>
                    <path id="Trazado_1004783" data-name="Trazado 1004783" d="M131.815,129.972c.985-10.81,9.2-10.2,9.978-10.123.775-.081,8.994-.687,9.978,10.123.991,10.874-3.853,17.977-9.978,17.586C135.668,147.949,130.824,140.846,131.815,129.972Z" transform="translate(-129.057 -119.816)" fill="#ffac9d"/>
                  </g>
                  <g id="Grupo_1192345" data-name="Grupo 1192345" transform="translate(2.41 8.801)">
                    <path id="Trazado_1004784" data-name="Trazado 1004784" d="M132.555,146.112a25.373,25.373,0,0,1-.4-3.265c-.424-7.315-.954.212-.954.212a28.826,28.826,0,0,0,.165,3.667C131.762,146.523,132.158,146.317,132.555,146.112Z" transform="translate(-131.192 -139.65)" fill="#76413b"/>
                    <path id="Trazado_1004785" data-name="Trazado 1004785" d="M176.046,149.416a29.27,29.27,0,0,0-.01-3.889l-1.06-.106s-.095,1.539-.343,3.482Q175.342,149.156,176.046,149.416Z" transform="translate(-155.358 -142.86)" fill="#76413b"/>
                  </g>
                </g>
                <g id="Grupo_1192352" data-name="Grupo 1192352" transform="translate(7.73 12.636)">
                  <g id="Grupo_1192347" data-name="Grupo 1192347" transform="translate(7.849 2.858)">
                    <path id="Trazado_1004786" data-name="Trazado 1004786" d="M156.142,145.559a18.094,18.094,0,0,1,.679,2.992c.07.5.142,1.007.183,1.514s.082,1.013.1,1.522l.008.2-.134.079c-.328.193-.662.377-1,.555s-.684.346-1.045.49c.265-.285.55-.54.834-.8s.58-.5.879-.733l-.126.276c-.092-.5-.174-1-.234-1.508s-.11-1.01-.152-1.517A18.073,18.073,0,0,1,156.142,145.559Z" transform="translate(-154.933 -145.559)" fill="#cc887f"/>
                  </g>
                  <g id="Grupo_1192348" data-name="Grupo 1192348" transform="translate(10.238)">
                    <path id="Trazado_1004787" data-name="Trazado 1004787" d="M165.47,141.175c-.512-.211-.958-.4-1.387-.559a4.833,4.833,0,0,0-1.213-.292,2.9,2.9,0,0,0-1.177.121,6.028,6.028,0,0,0-.652.22c-.23.087-.446.211-.725.3a3.063,3.063,0,0,1,.35-.748,2.566,2.566,0,0,1,.6-.6,2.433,2.433,0,0,1,1.715-.477,2.887,2.887,0,0,1,1.593.681A2.762,2.762,0,0,1,165.47,141.175Z" transform="translate(-160.316 -139.119)" fill="#352c38"/>
                  </g>
                  <g id="Grupo_1192349" data-name="Grupo 1192349">
                    <path id="Trazado_1004788" data-name="Trazado 1004788" d="M142.4,141.175c-.512-.211-.958-.4-1.387-.559a4.831,4.831,0,0,0-1.214-.292,2.9,2.9,0,0,0-1.177.121,6.062,6.062,0,0,0-.652.22c-.23.087-.446.211-.725.3a3.063,3.063,0,0,1,.35-.748,2.566,2.566,0,0,1,.6-.6,2.432,2.432,0,0,1,1.714-.477,2.887,2.887,0,0,1,1.593.681A2.757,2.757,0,0,1,142.4,141.175Z" transform="translate(-137.244 -139.119)" fill="#352c38"/>
                  </g>
                  <g id="Grupo_1192350" data-name="Grupo 1192350" transform="translate(1.484 3.778)">
                    <path id="Trazado_1004789" data-name="Trazado 1004789" d="M143.934,149.828a3.467,3.467,0,0,0-.651-1.193,1.388,1.388,0,0,0-1.067-.473,1.225,1.225,0,0,0-1.055.422,2.766,2.766,0,0,0-.491,1.245,1.931,1.931,0,0,1,.149-1.478,1.435,1.435,0,0,1,.607-.565,1.927,1.927,0,0,1,.8-.153,1.642,1.642,0,0,1,1.382.753A2.19,2.19,0,0,1,143.934,149.828Z" transform="translate(-140.589 -147.632)" fill="#352c38"/>
                  </g>
                  <g id="Grupo_1192351" data-name="Grupo 1192351" transform="translate(10.684 3.629)">
                    <path id="Trazado_1004790" data-name="Trazado 1004790" d="M164.667,149.494a3.467,3.467,0,0,0-.651-1.193,1.388,1.388,0,0,0-1.067-.473,1.225,1.225,0,0,0-1.055.422,2.759,2.759,0,0,0-.491,1.245,1.931,1.931,0,0,1,.149-1.478,1.432,1.432,0,0,1,.607-.565,1.927,1.927,0,0,1,.8-.153,1.643,1.643,0,0,1,1.382.753A2.192,2.192,0,0,1,164.667,149.494Z" transform="translate(-161.322 -147.298)" fill="#352c38"/>
                  </g>
                  <path id="Trazado_1004791" data-name="Trazado 1004791" d="M154.152,166.5c-1.957,1.9-5.271,1.8-7.781.1" transform="translate(-142.321 -154.35)" fill="#fff"/>
                </g>
                <g id="Grupo_1192358" data-name="Grupo 1192358">
                  <g id="Grupo_1192353" data-name="Grupo 1192353">
                    <path id="Trazado_1004792" data-name="Trazado 1004792" d="M135.342,116.322s-5.937-1.06-6.891,2.65.424,8.693-3.923,7.951c0,0-3.152.636-1.137,5.618,0,0-5.965-5.725-2.467-9.859,2.854-3.373,1.7-10.707,8.693-11.873S135.342,114.944,135.342,116.322Z" transform="translate(-119.824 -110.643)" fill="#76413b"/>
                  </g>
                  <g id="Grupo_1192354" data-name="Grupo 1192354">
                    <path id="Trazado_1004793" data-name="Trazado 1004793" d="M135.342,116.322s-5.937-1.06-6.891,2.65.424,8.693-3.923,7.951c0,0-3.152.636-1.137,5.618,0,0-5.965-5.725-2.467-9.859,2.854-3.373,1.7-10.707,8.693-11.873S135.342,114.944,135.342,116.322Z" transform="translate(-119.824 -110.643)" fill="#965450"/>
                  </g>
                  <g id="Grupo_1192355" data-name="Grupo 1192355" transform="translate(14.886)">
                    <path id="Trazado_1004794" data-name="Trazado 1004794" d="M153.463,116.322s5.937-1.06,6.891,2.65-.424,8.693,3.923,7.951c0,0,3.152.636,1.137,5.618,0,0,5.965-5.725,2.467-9.859-2.854-3.373-1.7-10.707-8.693-11.873S153.463,114.944,153.463,116.322Z" transform="translate(-153.372 -110.643)" fill="#965450"/>
                  </g>
                  <g id="Grupo_1192357" data-name="Grupo 1192357" transform="translate(14.871 4.631)">
                    <g id="Grupo_1192356" data-name="Grupo 1192356">
                      <path id="Trazado_1004795" data-name="Trazado 1004795" d="M153.338,121.081a13.3,13.3,0,0,1,2.439.188,8.915,8.915,0,0,1,2.366.731,4.674,4.674,0,0,1,1.985,1.674,3.753,3.753,0,0,1,.494,1.249,8.319,8.319,0,0,1,.134,1.229c.088,1.6-.148,3.157-.069,4.65a3.009,3.009,0,0,0,.662,1.96,2.676,2.676,0,0,0,2.011.581h.026a3.135,3.135,0,0,1,.7.2,2.452,2.452,0,0,1,.619.362,1.518,1.518,0,0,1,.436.561,1.446,1.446,0,0,1,.111.685,1.347,1.347,0,0,0-.638-1.124,2.682,2.682,0,0,0-1.251-.382h.025a4.661,4.661,0,0,1-1.21,0,2.34,2.34,0,0,1-1.165-.506,2.46,2.46,0,0,1-.721-1.067,5.53,5.53,0,0,1-.277-1.2c-.185-1.6-.068-3.155-.213-4.647a7.462,7.462,0,0,0-.166-1.075,2.712,2.712,0,0,0-.4-.885,3.773,3.773,0,0,0-1.577-1.222,8.465,8.465,0,0,0-2.079-.588,12.211,12.211,0,0,0-2.193-.162Z" transform="translate(-153.338 -121.079)" fill="#965450"/>
                    </g>
                  </g>
                </g>
              </g>
            </g>
            <path id="Trazado_1004796" data-name="Trazado 1004796" d="M99.048,234.514,98.926,285.6l48.555.305.422-51.389S101.112,231.969,99.048,234.514Z" transform="translate(-87.767 -178.92)" fill="#4f1e4a"/>
            <path id="Trazado_1004797" data-name="Trazado 1004797" d="M193.742,202.374a18.916,18.916,0,0,1,6.537,2.224c5.881,3.149,11.769,10.256,11.769,10.256l-7.2,12.48-4.082-1.022Z" transform="translate(-140.511 -161.67)" fill="#684868"/>
            <path id="Trazado_1004798" data-name="Trazado 1004798" d="M219.218,185.832l5.024,33.835s7.8.715,10.255-5.634-7.532-27.4-7.532-27.4Z" transform="translate(-154.682 -152.468)" fill="#ffac9d"/>
            <path id="Trazado_1004799" data-name="Trazado 1004799" d="M201.19,152.036a23.51,23.51,0,0,1,4.608.733l.815-4.514h0c.036-.249.129-.761.26-1.419h0a49.452,49.452,0,0,1,1.85-7.218c.72-1.51,1.688-.533,1.49.417-.153.733-.606,5.516-.8,7.664l.091.031a54.052,54.052,0,0,1,1.971-7.842c.719-1.51,1.688-.533,1.49.417-.171.821-.718,6.718-.864,8.309l.069.024a50.813,50.813,0,0,1,1.889-7.41c.72-1.51,1.688-.533,1.49.417-.131.627-.481,4.221-.7,6.591a32.38,32.38,0,0,1,1.717-4.746c.769-1.327,1.582-.363,1.331.49-.172.585-.794,4.07-1.169,6.209l-1.021,7.14.676,3.937-7.361,1.913-.518-3.488-3.116-3.434c-1.316-.8-3.124-1.863-3.977-2.229C199.974,153.414,199.072,152.07,201.19,152.036Z" transform="translate(-143.955 -126.325)" fill="#ffac9d"/>
            <g id="Grupo_1192361" data-name="Grupo 1192361" transform="translate(63.742 21.321)">
              <path id="Trazado_1004800" data-name="Trazado 1004800" d="M224.537,161.475a.21.21,0,0,1-.1-.009l-6.864-2.362a.212.212,0,1,1,.138-.4l6.864,2.362a.212.212,0,0,1-.036.409Z" transform="translate(-217.429 -158.691)" fill="#cc887f"/>
            </g>
            <g id="Grupo_1192362" data-name="Grupo 1192362" transform="translate(62.554 26.25)">
              <path id="Trazado_1004801" data-name="Trazado 1004801" d="M217.668,172.531a.212.212,0,0,1-.226-.123,4.485,4.485,0,0,0-2.539-2.193.212.212,0,0,1,.123-.405,4.833,4.833,0,0,1,2.8,2.426.212.212,0,0,1-.107.28A.2.2,0,0,1,217.668,172.531Z" transform="translate(-214.752 -169.8)" fill="#cc887f"/>
            </g>
            <path id="Trazado_1004802" data-name="Trazado 1004802" d="M91.214,203.574s-4.464,0-8.512,4.84c-3.007,3.595-8.792,15.294-8.792,15.294l12.472,4.77Z" transform="translate(-73.852 -162.338)" fill="#684868"/>
            <path id="Trazado_1004803" data-name="Trazado 1004803" d="M75.423,273.509a50.839,50.839,0,0,0-1.586,15.2c.422,8.366,11.1,24.318,11.1,24.318l5.848-5.887-5.472-16.113L84.937,274.3Z" transform="translate(-73.778 -201.24)" fill="#ffac9d"/>
            <path id="Trazado_1004804" data-name="Trazado 1004804" d="M102.444,345.586s5.578,5.371,7.023,7.54l1.446,2.169-10.329,3.718L97.709,352.3Z" transform="translate(-87.09 -241.335)" fill="#ffac9d"/>
            <path id="Trazado_1004805" data-name="Trazado 1004805" d="M114.783,353.5a37.054,37.054,0,0,1,3.718.826c1.549.465,4.906,1.136,4.854,1.859s-1.084.878-2.944.516l-1.859-.362-1.291.1Z" transform="translate(-96.588 -245.738)" fill="#ffac9d"/>
          </g>
        </g>
      </g>
    </g>
    <path id="Rect치ngulo_455435" data-name="Rect치ngulo 455435" d="M0,0H291.968a0,0,0,0,1,0,0V36.3a10,10,0,0,1-10,10H10a10,10,0,0,1-10-10V0A0,0,0,0,1,0,0Z" transform="translate(1122 574.704)" fill="#a4c2ff"/>
    <g id="Grupo_1177113" data-name="Grupo 1177113" transform="translate(1365.31 583.267)">
      <path id="Trazado_991669" data-name="Trazado 991669" d="M.155,1.739,1.738.155a.528.528,0,0,1,.747,0L4.07,1.739a.529.529,0,0,1,0,.747L2.485,4.069a.528.528,0,0,1-.747,0L.155,2.486a.528.528,0,0,1,0-.747" transform="translate(42.771 0) rotate(90)" fill="#fff"/>
      <path id="Trazado_991670" data-name="Trazado 991670" d="M.155,1.739,1.738.155a.528.528,0,0,1,.747,0L4.07,1.739a.529.529,0,0,1,0,.747L2.485,4.069a.528.528,0,0,1-.747,0L.155,2.486a.528.528,0,0,1,0-.747" transform="translate(35.061 0) rotate(90)" fill="#fff"/>
      <path id="Trazado_991671" data-name="Trazado 991671" d="M.155,1.738,1.738.155a.528.528,0,0,1,.747,0L4.07,1.738a.529.529,0,0,1,0,.747L2.485,4.069a.528.528,0,0,1-.747,0L.155,2.486a.529.529,0,0,1,0-.747" transform="translate(27.352 0) rotate(90)" fill="#fff"/>
      <path id="Trazado_991672" data-name="Trazado 991672" d="M.155,1.739,1.738.155a.528.528,0,0,1,.747,0L4.07,1.739a.529.529,0,0,1,0,.747L2.485,4.069a.528.528,0,0,1-.747,0L.155,2.486a.528.528,0,0,1,0-.747" transform="translate(19.643 0) rotate(90)" fill="#fff"/>
      <path id="Trazado_991673" data-name="Trazado 991673" d="M.155,1.739,1.738.155a.528.528,0,0,1,.747,0L4.07,1.739a.529.529,0,0,1,0,.747L2.485,4.069a.528.528,0,0,1-.747,0L.155,2.486a.528.528,0,0,1,0-.747" transform="translate(11.933 0) rotate(90)" fill="#fff"/>
      <path id="Trazado_991674" data-name="Trazado 991674" d="M.155,1.739,1.738.155a.528.528,0,0,1,.747,0L4.07,1.739a.529.529,0,0,1,0,.747L2.485,4.069a.528.528,0,0,1-.747,0L.155,2.486a.528.528,0,0,1,0-.747" transform="translate(4.224 0) rotate(90)" fill="#fff"/>
    </g>
    <g id="Grupo_1192366" data-name="Grupo 1192366" transform="translate(1132.31 416.155)">
      <path id="Trazado_991669-2" data-name="Trazado 991669" d="M.155,1.739,1.738.155a.528.528,0,0,1,.747,0L4.07,1.739a.529.529,0,0,1,0,.747L2.485,4.069a.528.528,0,0,1-.747,0L.155,2.486a.528.528,0,0,1,0-.747" transform="translate(42.771 0) rotate(90)" fill="#fff"/>
      <path id="Trazado_991670-2" data-name="Trazado 991670" d="M.155,1.739,1.738.155a.528.528,0,0,1,.747,0L4.07,1.739a.529.529,0,0,1,0,.747L2.485,4.069a.528.528,0,0,1-.747,0L.155,2.486a.528.528,0,0,1,0-.747" transform="translate(35.061 0) rotate(90)" fill="#fff"/>
      <path id="Trazado_991671-2" data-name="Trazado 991671" d="M.155,1.738,1.738.155a.528.528,0,0,1,.747,0L4.07,1.738a.529.529,0,0,1,0,.747L2.485,4.069a.528.528,0,0,1-.747,0L.155,2.486a.529.529,0,0,1,0-.747" transform="translate(27.352 0) rotate(90)" fill="#fff"/>
      <path id="Trazado_991672-2" data-name="Trazado 991672" d="M.155,1.739,1.738.155a.528.528,0,0,1,.747,0L4.07,1.739a.529.529,0,0,1,0,.747L2.485,4.069a.528.528,0,0,1-.747,0L.155,2.486a.528.528,0,0,1,0-.747" transform="translate(19.643 0) rotate(90)" fill="#fff"/>
      <path id="Trazado_991673-2" data-name="Trazado 991673" d="M.155,1.739,1.738.155a.528.528,0,0,1,.747,0L4.07,1.739a.529.529,0,0,1,0,.747L2.485,4.069a.528.528,0,0,1-.747,0L.155,2.486a.528.528,0,0,1,0-.747" transform="translate(11.933 0) rotate(90)" fill="#fff"/>
      <path id="Trazado_991674-2" data-name="Trazado 991674" d="M.155,1.739,1.738.155a.528.528,0,0,1,.747,0L4.07,1.739a.529.529,0,0,1,0,.747L2.485,4.069a.528.528,0,0,1-.747,0L.155,2.486a.528.528,0,0,1,0-.747" transform="translate(4.224 0) rotate(90)" fill="#fff"/>
    </g>
  </g>
</svg>
