<svg xmlns="http://www.w3.org/2000/svg" width="1021.413" height="830" viewBox="0 0 1021.413 830">
  <g id="Grupo_1192456" data-name="Grupo 1192456" transform="translate(-288.985 -799.5)">
    <g id="Grupo_1192374" data-name="Grupo 1192374">
      <path id="Trazado_1005001" data-name="Trazado 1005001" d="M10,0H1011.413a10,10,0,0,1,10,10V820a10,10,0,0,1-10,10H10A10,10,0,0,1,0,820V10A10,10,0,0,1,10,0Z" transform="translate(288.985 799.5)" fill="#f9fbff"/>
      <g id="Grupo_1192368" data-name="Grupo 1192368" transform="translate(68.521)">
        <rect id="Rectángulo_455437" data-name="Rectángulo 455437" width="812" height="80" rx="10" transform="translate(325.959 838)" fill="#5c3b66"/>
        <rect id="Rectángulo_455438" data-name="Rectángulo 455438" width="812" height="80" rx="10" transform="translate(325.959 833)" fill="#e795ff"/>
        <text id="_1._Abstractos_Designan_ideas_conceptos_realidades_no_perceptibles_por_los_sentidos:_amor_serenidad_inteligencia_paz." data-name="1. Abstractos
Designan ideas, conceptos, realidades no perceptibles por los sentidos: amor, serenidad, inteligencia, paz." transform="translate(343.959 848)" fill="#12263f" font-size="16" font-family="SegoeUI-Bold, Segoe UI" letter-spacing="0.003em" font-weight="700"><tspan x="0" y="17">1. Abstractos</tspan><tspan font-family="SegoeUI, Segoe UI" font-weight="400"><tspan x="0" y="41">Designan ideas, conceptos, realidades no perceptibles por los sentidos: amor, serenidad, inteligencia, paz.</tspan></tspan></text>
      </g>
      <rect id="Rectángulo_455437-2" data-name="Rectángulo 455437" width="812" height="80" rx="10" transform="translate(394.479 958)" fill="#4d5464"/>
      <rect id="Rectángulo_455438-2" data-name="Rectángulo 455438" width="812" height="100" rx="10" transform="translate(394.479 933)" fill="#a4c2ff"/>
      <path id="Rectángulo_455441" data-name="Rectángulo 455441" d="M0,0H766a0,0,0,0,1,0,0V546a10,10,0,0,1-10,10H10A10,10,0,0,1,0,546V0A0,0,0,0,1,0,0Z" transform="translate(417.479 1038)" fill="#4d5464"/>
      <path id="Rectángulo_455440" data-name="Rectángulo 455440" d="M0,0H766a0,0,0,0,1,0,0V546a10,10,0,0,1-10,10H10A10,10,0,0,1,0,546V0A0,0,0,0,1,0,0Z" transform="translate(417.479 1031)" fill="#a4c2ff"/>
      <text id="_2._Concretos_Se_refieren_a_seres_y_objetos_que_podemos_percibir_por_los_sentidos:_ciudad_elefante_arboleda.Los_sustantivos_concretos_a_su_vez_se_dividen_en:" data-name="2. Concretos
Se refieren a seres y objetos que podemos percibir por los sentidos: ciudad, elefante, arboleda.Los sustantivos concretos, a su vez, se dividen en:" transform="translate(412.479 948)" fill="#12263f" font-size="16" font-family="SegoeUI-Bold, Segoe UI" letter-spacing="0.003em" font-weight="700"><tspan x="0" y="17">2. Concretos</tspan><tspan font-family="SegoeUI, Segoe UI" font-weight="400"><tspan x="0" y="41">Se refieren a seres y objetos que podemos percibir por los sentidos: ciudad, elefante, arboleda.Los sustantivos </tspan><tspan x="0" y="65">concretos, a su vez, se dividen en:</tspan></tspan></text>
      <g id="Grupo_1192370" data-name="Grupo 1192370" transform="translate(439.864 1031)">
        <rect id="Rectángulo_455438-3" data-name="Rectángulo 455438" width="722" height="120" rx="10" transform="translate(-0.384)" fill="#ecf2fe"/>
        <text id="Propios_Actúan_como_una_marca_o_etiqueta_que_colocamos_a_un_individuo_u_objeto_para_distinguirlo_de_los_de_su_grupo._Pueden_ser_nombres_de_persona_antropónimos_Pablo_Irene_Tomás_o_nombres_de_lugar_topónimos_Extremadura_Pirineos_Getafe_." data-name="Propios
Actúan como una marca o etiqueta que colocamos a un individuo u objeto para distinguirlo de los de su grupo. Pueden ser nombres de persona —antropónimos— (Pablo, Irene, Tomás), o nombres de lugar —topónimos— (Extremadura, Pirineos, Getafe)." transform="translate(16.616 15)" fill="#12263f" font-size="16" font-family="SegoeUI-Bold, Segoe UI" letter-spacing="0.003em" font-weight="700"><tspan x="0" y="17">Propios</tspan><tspan font-family="SegoeUI, Segoe UI" font-weight="400"><tspan x="0" y="41">Actúan como una marca o etiqueta que colocamos a un individuo u objeto para distinguirlo de </tspan><tspan x="0" y="65">los de su grupo. Pueden ser nombres de persona —antropónimos— (Pablo, Irene, Tomás), o </tspan><tspan x="0" y="89">nombres de lugar —topónimos— (Extremadura, Pirineos, Getafe).</tspan></tspan></text>
      </g>
      <rect id="Rectángulo_455438-4" data-name="Rectángulo 455438" width="722" height="394" rx="10" transform="translate(439.479 1171)" fill="#ecf2fe"/>
      <g id="Trazado_1004806" data-name="Trazado 1004806" transform="translate(459.479 1268)" fill="#f8dfff">
        <path d="M 672 277.5 L 10 277.5 C 4.761666774749756 277.5 0.5 273.2383422851562 0.5 268 L 0.5 10 C 0.5 4.761666774749756 4.761666774749756 0.5 10 0.5 L 672 0.5 C 677.2383422851562 0.5 681.5 4.761666774749756 681.5 10 L 681.5 268 C 681.5 273.2383422851562 677.2383422851562 277.5 672 277.5 Z" stroke="none"/>
        <path d="M 10 1 C 5.03741455078125 1 1 5.03741455078125 1 10 L 1 268 C 1 272.9625854492188 5.03741455078125 277 10 277 L 672 277 C 676.9625854492188 277 681 272.9625854492188 681 268 L 681 10 C 681 5.03741455078125 676.9625854492188 1 672 1 L 10 1 M 10 0 L 672 0 C 677.5228271484375 0 682 4.4771728515625 682 10 L 682 268 C 682 273.5228271484375 677.5228271484375 278 672 278 L 10 278 C 4.4771728515625 278 0 273.5228271484375 0 268 L 0 10 C 0 4.4771728515625 4.4771728515625 0 10 0 Z" stroke="none" fill="#5c3b66"/>
      </g>
      <text id="Comunes_Se_refieren_a_seres_u_objetos_como_partes_de_un_conjunto_con_los_que_comparten_características:_mueble_ciudad_alumno._Por_su_parte_los_nombres_comunes_pueden_ser:" data-name="Comunes
Se refieren a seres u objetos como partes de un conjunto con los que comparten características: mueble, ciudad, alumno. Por su parte, los nombres comunes pueden ser:" transform="translate(452.479 1186)" fill="#12263f" font-size="16" font-family="SegoeUI-Bold, Segoe UI" letter-spacing="0.003em" font-weight="700"><tspan x="0" y="17">Comunes</tspan><tspan font-family="SegoeUI, Segoe UI" font-weight="400"><tspan x="0" y="41">Se refieren a seres u objetos como partes de un conjunto con los que comparten características: </tspan><tspan x="0" y="65">mueble, ciudad, alumno. Por su parte, los nombres comunes pueden ser:</tspan></tspan></text>
      <text id="Contables_Que_se_pueden_contar:_reloj_un_reloj_dos_relojes_tres_relojes..._libro_ratón_lápiz._No_contables_Los_que_no_se_pueden_contar:_sencillez_una_sencillez_dos_sencilleces..._felicidad_tristeza_inteligencia._Individuales_Cuando_se_refier" data-name="Contables
Que se pueden contar: reloj (un reloj, dos relojes, tres relojes...), libro, ratón, lápiz.

No contables
Los que no se pueden contar: sencillez (una sencillez, dos sencilleces...), felicidad, tristeza, inteligencia.

Individuales
Cuando se refier" transform="translate(477.479 1286)" fill="#12263f" font-size="16" font-family="SegoeUI-Bold, Segoe UI" letter-spacing="0.003em" font-weight="700"><tspan x="0" y="17">Contables</tspan><tspan font-family="SegoeUI, Segoe UI" font-weight="400"><tspan x="0" y="41">Que se pueden contar: reloj (un reloj, dos relojes, tres relojes...), libro, ratón, lápiz.</tspan></tspan><tspan x="0" y="65"></tspan><tspan x="0" y="89">No contables</tspan><tspan font-family="SegoeUI, Segoe UI" font-weight="400"><tspan x="0" y="113">Los que no se pueden contar: sencillez (una sencillez, dos sencilleces...), felicidad, tristeza, </tspan><tspan x="0" y="137">inteligencia.</tspan></tspan><tspan x="0" y="161"></tspan><tspan x="0" y="185">Individuales</tspan><tspan font-family="SegoeUI, Segoe UI" font-weight="400"><tspan x="0" y="209">Cuando se refieren a una sola cosa en particular, aunque también pueden expresarse en </tspan><tspan x="0" y="233">plural. En singular designan uno (libro), y en plural, varios (libros). </tspan></tspan></text>
      <path id="Trazado_1004807" data-name="Trazado 1004807" d="M65.926,41.693A36.358,36.358,0,0,0,29.9,78.051a2.948,2.948,0,1,1-5.9,0A42.217,42.217,0,0,1,65.936,35.8l3.926,2.944ZM64.1,52.892,79.821,41.1a2.948,2.948,0,0,0,0-4.717L64.1,24.588a2.948,2.948,0,1,0-3.538,4.717L73.138,38.74,60.559,48.175A2.948,2.948,0,1,0,64.1,52.892Z" transform="translate(1253.48 1104.999) rotate(180)" fill="#781495"/>
      <path id="Trazado_1004996" data-name="Trazado 1004996" d="M41.926,39.306A36.357,36.357,0,0,1,5.9,2.948a2.948,2.948,0,0,0-5.9,0A42.217,42.217,0,0,0,41.936,45.2l3.926-2.944ZM40.1,28.107,55.821,39.9a2.948,2.948,0,0,1,0,4.717L40.1,56.41a2.948,2.948,0,0,1-3.538-4.717l12.579-9.434L36.559,32.824A2.948,2.948,0,0,1,40.1,28.107Z" transform="translate(370.479 1024)" fill="#781495"/>
    </g>
  </g>
</svg>
