<svg xmlns="http://www.w3.org/2000/svg" width="680.136" height="79" viewBox="0 0 680.136 79">
  <g id="Grupo_1192383" data-name="Grupo 1192383" transform="translate(-459.479 -2331)">
    <g id="Grupo_1192378" data-name="Grupo 1192378" transform="translate(0 22)">
      <g id="Grupo_1192377" data-name="Grupo 1192377" transform="translate(65 -357)">
        <path id="Trazado_1004811" data-name="Trazado 1004811" d="M0,0H204.168l27.968,40.354L204.168,79H0L27.968,37.266Z" transform="translate(394.479 2666)" fill="#a4c2ff"/>
        <path id="Trazado_1004812" data-name="Trazado 1004812" d="M0,0H204.168l27.968,40.354L204.168,79H0L27.968,37.266Z" transform="translate(618.479 2666)" fill="#e795ff"/>
        <path id="Trazado_1004813" data-name="Trazado 1004813" d="M0,0H204.168l27.968,40.354L204.168,79H0L27.968,37.266Z" transform="translate(842.479 2666)" fill="#cff878"/>
      </g>
      <text id="Animales_feroces" data-name="Animales
feroces" transform="translate(566 2344.5)" fill="#12263f" font-size="20" font-family="SegoeUIBlack, Segoe UI"><tspan x="0" y="0">Animales</tspan><tspan x="0" y="22">feroces</tspan></text>
      <text id="Insectos_grandes" data-name="Insectos
grandes" transform="translate(781.692 2344.5)" fill="#12263f" font-size="20" font-family="SegoeUIBlack, Segoe UI"><tspan x="0" y="0">Insectos</tspan><tspan x="0" y="22">grandes</tspan></text>
      <text id="Insectos_pequeños" data-name="Insectos
pequeños" transform="translate(1006 2344.5)" fill="#12263f" font-size="20" font-family="SegoeUIBlack, Segoe UI"><tspan x="0" y="0">Insectos</tspan><tspan x="0" y="22">pequeños</tspan></text>
    </g>
    <g id="Grupo_1192381" data-name="Grupo 1192381" transform="translate(498 2343.388)">
      <g id="Grupo_1192379" data-name="Grupo 1192379" transform="translate(0 0.004)">
        <path id="Trazado_1004814" data-name="Trazado 1004814" d="M50.038,17.236q.667.216,1.315.5a1.165,1.165,0,0,0,1.6-1.347,16.293,16.293,0,0,0-6.176-9.213,16.482,16.482,0,0,0-8.052-3.1l.158-.017a1.165,1.165,0,0,0,.543-2.12A11.09,11.09,0,0,0,27.109,1.8a11.09,11.09,0,0,0-12.315.138,1.165,1.165,0,0,0,.543,2.12l.158.017a16.485,16.485,0,0,0-8.052,3.1,16.293,16.293,0,0,0-6.176,9.213,1.165,1.165,0,0,0,1.6,1.347,14.05,14.05,0,0,1,1.315-.5A19.63,19.63,0,0,0,4.542,41.9a1.165,1.165,0,0,0,2.06-.74q0-.353.017-.7a18.31,18.31,0,0,0,.779,1.87,17.994,17.994,0,0,0,8.766,8.557A1.165,1.165,0,0,0,17.7,49.322q-.157-.329-.3-.663a15.755,15.755,0,0,0,4.826,2.58c1.9.619,3.087,1.193,3.911,2.455a1.165,1.165,0,0,0,1.95,0c.825-1.262,2.011-1.836,3.911-2.455a15.76,15.76,0,0,0,4.826-2.58q-.142.334-.3.663a1.165,1.165,0,0,0,1.531,1.564,17.992,17.992,0,0,0,8.766-8.557,18.311,18.311,0,0,0,.779-1.87q.016.351.017.7a1.165,1.165,0,0,0,2.06.74,19.63,19.63,0,0,0,.363-24.667Zm-.385,20.613a19.49,19.49,0,0,0-1.131-3.955,1.165,1.165,0,0,0-2.245.45,15.484,15.484,0,0,1-1.557,6.973,15.668,15.668,0,0,1-4.941,5.89,17.842,17.842,0,0,0,.482-2.5,1.165,1.165,0,0,0-2.113-.8,13.535,13.535,0,0,1-6.875,5.119,10.288,10.288,0,0,0-4.165,2.213,10.285,10.285,0,0,0-4.165-2.213A13.536,13.536,0,0,1,16.068,43.9a1.165,1.165,0,0,0-2.113.8,17.86,17.86,0,0,0,.482,2.5A15.668,15.668,0,0,1,9.5,41.317,15.485,15.485,0,0,1,7.94,34.344a1.165,1.165,0,0,0-2.245-.45,19.489,19.489,0,0,0-1.131,3.955A17.3,17.3,0,0,1,8.256,16.306a1.165,1.165,0,0,0-.841-2.04,16.187,16.187,0,0,0-3.158.518A14.029,14.029,0,0,1,21.2,6.93,1.165,1.165,0,0,0,22.378,5a11.079,11.079,0,0,0-3.49-2.395A8.756,8.756,0,0,1,26.4,4.153a1.165,1.165,0,0,0,1.424,0,8.756,8.756,0,0,1,7.509-1.547A11.08,11.08,0,0,0,31.84,5,1.165,1.165,0,0,0,33.015,6.93a14.029,14.029,0,0,1,16.946,7.855,16.193,16.193,0,0,0-3.158-.518,1.165,1.165,0,0,0-.841,2.04,17.3,17.3,0,0,1,3.691,21.542Z" transform="translate(0 -0.004)" fill="#12263f"/>
        <path id="Trazado_1004815" data-name="Trazado 1004815" d="M194.923,229.378l-2.34-1.67a1.165,1.165,0,1,0-1.354,1.9l2.34,1.67a1.165,1.165,0,0,0,1.354-1.9Z" transform="translate(-170.543 -203.401)" fill="#12263f"/>
        <path id="Trazado_1004816" data-name="Trazado 1004816" d="M279.991,227.708l-2.34,1.67a1.165,1.165,0,1,0,1.354,1.9l2.34-1.67a1.165,1.165,0,1,0-1.354-1.9Z" transform="translate(-247.813 -203.402)" fill="#12263f"/>
      </g>
      <g id="Grupo_1192380" data-name="Grupo 1192380" transform="translate(12.146 8.789)">
        <path id="Trazado_1004817" data-name="Trazado 1004817" d="M116.811,91.8a1.165,1.165,0,0,0,1.459-.116,10.837,10.837,0,0,1,5.132-2.729,1.165,1.165,0,0,0,.974-1.109c0-.014,0-.027,0-.041a4.838,4.838,0,1,0-7.566,4Zm2.728-6.5a2.513,2.513,0,0,1,2.349,1.629,13.737,13.737,0,0,0-4.385,2.344,2.508,2.508,0,0,1,2.036-3.973Z" transform="translate(-114.701 -82.965)" fill="#12263f"/>
        <path id="Trazado_1004818" data-name="Trazado 1004818" d="M306.9,88.954a10.837,10.837,0,0,1,5.132,2.729,1.165,1.165,0,0,0,1.459.116,4.838,4.838,0,1,0-7.566-4c0,.014,0,.027,0,.041A1.165,1.165,0,0,0,306.9,88.954Zm3.863-3.659a2.508,2.508,0,0,1,2.036,3.973,13.733,13.733,0,0,0-4.385-2.344A2.513,2.513,0,0,1,310.759,85.295Z" transform="translate(-285.672 -82.965)" fill="#12263f"/>
        <path id="Trazado_1004819" data-name="Trazado 1004819" d="M150.814,164.163l-1.96-1.858a7.067,7.067,0,0,0-7.627-1.376l-2.363,1-2.363-1a7.066,7.066,0,0,0-7.627,1.376l-1.96,1.858a6.2,6.2,0,0,0-.988,7.761l3.2,5.119-.033.077a6,6,0,0,0,4.036,8.19,5.83,5.83,0,0,0,11.5-.008,6,6,0,0,0,4.005-8.182l-.033-.077,3.2-5.119A6.2,6.2,0,0,0,150.814,164.163Zm-11.935,23.673a3.507,3.507,0,0,1-3.325-2.406,5.953,5.953,0,0,0,1.9-.629l1.409-.749,1.409.749a5.951,5.951,0,0,0,1.931.631A3.507,3.507,0,0,1,138.879,187.836Zm-1.692-8.629a.726.726,0,0,1,.672-.422h2.012a.746.746,0,0,1,.583,1.21l-1.006,1.264a.746.746,0,0,1-1.167,0L137.275,180a.726.726,0,0,1-.088-.788Zm12.641-8.518-2.386,3.815a1.164,1.164,0,0,0-1.925,1.249l.975,2.282a3.69,3.69,0,0,1-5.124,4.71l-.088-.047,1-1.252a3.075,3.075,0,0,0-2.406-4.991h-2.012a3.075,3.075,0,0,0-2.406,4.991l1,1.252-.088.047a3.69,3.69,0,0,1-5.124-4.711l.975-2.282a1.164,1.164,0,0,0-1.925-1.248l-2.386-3.815a3.862,3.862,0,0,1,.616-4.835l1.96-1.858a4.737,4.737,0,0,1,5.113-.922l2.818,1.2a1.165,1.165,0,0,0,.911,0l2.818-1.2a4.737,4.737,0,0,1,5.113.922l1.96,1.858A3.862,3.862,0,0,1,149.827,170.689Z" transform="translate(-123.901 -152.17)" fill="#12263f"/>
      </g>
    </g>
    <g id="Grupo_1192382" data-name="Grupo 1192382" transform="translate(919.542 2343.5)">
      <path id="Trazado_1004820" data-name="Trazado 1004820" d="M77.186,27.453l-4.8-.961-3.88-3.88a1.583,1.583,0,0,0-1.231-.459l-5.825.416a9.892,9.892,0,0,0-.41-1.629L65.9,18.857a1.582,1.582,0,0,0,.733-.64l2.863-4.772,5.773-1.924a1.582,1.582,0,0,0-1-3l-6.328,2.109a1.582,1.582,0,0,0-.856.687l-2.9,4.835-4.7,2.014q-.247-.293-.514-.551a8.784,8.784,0,0,0,1.387-1.2,7.99,7.99,0,0,0,2.283-5.34,5.169,5.169,0,0,0-2.612-4.552,5.824,5.824,0,0,1,5.248-3.358,1.582,1.582,0,0,0,0-3.164,8.937,8.937,0,0,0-8.239,5.464,14.075,14.075,0,0,0-4.617,0A8.936,8.936,0,0,0,44.181,0a1.582,1.582,0,0,0,0,3.164,5.824,5.824,0,0,1,5.248,3.358,5.169,5.169,0,0,0-2.612,4.552,7.99,7.99,0,0,0,2.283,5.34,8.789,8.789,0,0,0,1.387,1.2q-.266.258-.514.551l-4.7-2.014-2.9-4.835a1.582,1.582,0,0,0-.856-.687L35.189,8.519a1.582,1.582,0,0,0-1,3l5.773,1.924,2.863,4.772a1.581,1.581,0,0,0,.733.64l4.861,2.083a9.891,9.891,0,0,0-.41,1.629l-5.825-.416a1.581,1.581,0,0,0-1.231.459l-3.88,3.88-4.8.961a1.582,1.582,0,1,0,.62,3.1L38.163,29.5a1.582,1.582,0,0,0,.808-.433l3.708-3.708,5.3.379a10.07,10.07,0,0,0,.249,1.217l-5.536,1.582a1.582,1.582,0,0,0-1.019.9l-2.906,6.781L34.1,38.082a1.582,1.582,0,1,0,1.175,2.938L40.55,38.91a1.582,1.582,0,0,0,.867-.846l2.868-6.691,5.3-1.516c.051.071.1.143.156.213.1.133.208.26.316.383A8.845,8.845,0,0,0,47.7,31.974a9.864,9.864,0,0,0-2.992,7.577A18.854,18.854,0,0,0,47.413,49c1.98,3.227,4.578,5,7.315,5s5.335-1.777,7.315-5a18.854,18.854,0,0,0,2.7-9.445,9.864,9.864,0,0,0-2.992-7.576,8.84,8.84,0,0,0-2.361-1.521c.108-.124.214-.25.316-.383.053-.07.1-.141.156-.213l5.305,1.516,2.868,6.691a1.582,1.582,0,0,0,.867.846l5.273,2.109a1.582,1.582,0,0,0,1.175-2.938l-4.665-1.866-2.906-6.78a1.582,1.582,0,0,0-1.019-.9l-5.536-1.582a10.071,10.071,0,0,0,.249-1.217l5.3-.379,3.708,3.708a1.582,1.582,0,0,0,.808.433l5.273,1.055a1.582,1.582,0,1,0,.62-3.1ZM54.728,8.437c1.113,0,4.746.19,4.746,2.637a5.144,5.144,0,0,1-4.746,4.746,5.144,5.144,0,0,1-4.746-4.746C49.982,8.628,53.614,8.437,54.728,8.437ZM47.873,39.656H61.582a14.856,14.856,0,0,1-.676,4.219H48.549A14.853,14.853,0,0,1,47.873,39.656Zm6.854,11.18c-1.72,0-3.491-1.546-4.8-3.8h9.6C58.219,49.29,56.448,50.836,54.728,50.836Zm6.351-14.344h-12.7c1.285-3.366,4.7-3.8,6.351-3.8S59.794,33.126,61.079,36.492ZM51.036,24.258c0-2.859,1.69-5.273,3.691-5.273s3.691,2.415,3.691,5.273-1.69,5.273-3.691,5.273S51.036,27.116,51.036,24.258Z" transform="translate(0)" fill="#12263f"/>
    </g>
    <path id="Trazado_1004821" data-name="Trazado 1004821" d="M76.156,39.731l-1.142-4.079a.791.791,0,0,0-.3-.429l-5.54-3.984a1.4,1.4,0,0,0-.342-1.837L59.94,22.565a9.688,9.688,0,0,0-1.613-1.956,5.933,5.933,0,0,0,1.351-1.425l8.371-5.079,3.28,1.034A.791.791,0,1,0,71.8,13.63l-3.622-1.142a.792.792,0,0,0-.648.078l-6.921,4.2A5.886,5.886,0,0,0,58.185,11.1a3.064,3.064,0,0,0-.56-4.509V4.7A4.807,4.807,0,0,0,53.951.024a.829.829,0,0,0-1.025.805V2.312a.791.791,0,0,0,1.582,0V1.95A3.228,3.228,0,0,1,56.042,4.7V6.034c-.059,0-.118-.005-.178-.005H54.509V5.684a.791.791,0,0,0-1.582,0v.345H51.484V.829A.829.829,0,0,0,50.458.024,4.807,4.807,0,0,0,46.785,4.7V6.516a3.064,3.064,0,0,0-.665,4.58,5.892,5.892,0,0,0-2.429,5.669l-6.92-4.2a.791.791,0,0,0-.648-.078L32.5,13.63a.791.791,0,0,0,.476,1.509l3.28-1.034,8.372,5.08a5.937,5.937,0,0,0,1.35,1.424,9.691,9.691,0,0,0-1.614,1.957L35.471,29.4a1.4,1.4,0,0,0-.342,1.837l-5.54,3.984a.791.791,0,0,0-.3.429L28.148,39.73a.791.791,0,1,0,1.524.427l1.067-3.812,5.426-3.9.4.448a1.421,1.421,0,0,0,1.964.16l1.2-.977a.791.791,0,0,0-1-1.228l-1.084.881-.77-.869h0l-.284-.32,6.566-5.048a9.58,9.58,0,0,0-.24,1.955l-1.568,1.274a.791.791,0,1,0,1,1.228l.723-.588c.037.206.08.411.131.616l.268,1.082L40.2,33.441a.791.791,0,0,0-.319.545l-1.063,8.889a1.57,1.57,0,0,0,1.559,1.757h.091v2.785L38.1,49.785a.791.791,0,0,0-.232.559v2.863a.791.791,0,0,0,1.582,0V50.673L41.816,48.3a.791.791,0,0,0,.232-.559V44.622a1.567,1.567,0,0,0,1.393-1.39l.731-6.714.532-.466.958,3.869a6.686,6.686,0,0,0,12.98,0l.958-3.869.532.466.731,6.714a1.567,1.567,0,0,0,1.393,1.39v3.122a.791.791,0,0,0,.232.559l2.369,2.369v2.536a.791.791,0,1,0,1.582,0V50.345a.791.791,0,0,0-.232-.559l-2.369-2.369V44.632h.091a1.57,1.57,0,0,0,1.559-1.757l-1.063-8.889a.791.791,0,0,0-.319-.545l-3.27-2.384.268-1.082c.051-.2.094-.41.131-.616l4.543,3.692a1.421,1.421,0,0,0,1.964-.16l.4-.448,5.426,3.9,1.067,3.812a.791.791,0,0,0,1.524-.426Zm-24-13.8-3.629-4.224a5.845,5.845,0,0,0,.991.086H54.79a5.9,5.9,0,0,0,.99-.085ZM48.367,4.7A3.228,3.228,0,0,1,49.9,1.95V6.029H48.439l-.072,0V4.7Zm-.627,7.282h1.888a.791.791,0,1,0,0-1.582H47.751a1.481,1.481,0,0,1,.688-2.792h7.425a1.481,1.481,0,0,1,.688,2.792H52.779a.791.791,0,1,0,0,1.582h3.785a4.3,4.3,0,0,1-1.774,8.226H49.514a4.3,4.3,0,0,1-1.774-8.226ZM42.9,35.531a.791.791,0,0,0-.265.509l-.763,7.009h-1.48l1.02-8.532,2.469-1.8.4,1.607Zm14.208,4.01a5.075,5.075,0,0,1-3.836,3.753c-.108.024-.217.044-.327.061V38.544a.791.791,0,1,0-1.582,0v4.812c-.11-.017-.219-.037-.327-.061A5.076,5.076,0,0,1,47.2,39.541L44.736,29.6a8.017,8.017,0,0,1,2.012-7.526l4.613,5.369v7.733a.791.791,0,1,0,1.582,0V27.439l4.613-5.369A8.017,8.017,0,0,1,59.569,29.6ZM62.9,34.517l1.02,8.532h-1.48l-.763-7.009a.792.792,0,0,0-.265-.509l-1.379-1.208.4-1.607Zm3.763-2.789-5.27-4.283a9.58,9.58,0,0,0-.24-1.955l6.566,5.048-.283.32,0,0Z" transform="translate(696.361 2341)" fill="#12263f" stroke="#12263f" stroke-width="1"/>
  </g>
</svg>
