<svg xmlns="http://www.w3.org/2000/svg" width="80" height="80" viewBox="0 0 80 80">
  <g id="Grupo_1192392" data-name="Grupo 1192392" transform="translate(-534 -2563)">
    <rect id="Rectángulo_455177" data-name="Rectángulo 455177" width="80" height="80" rx="10" transform="translate(534 2563)" fill="#a4c2ff"/>
    <g id="Grupo_1192391" data-name="Grupo 1192391" transform="translate(546 2539.406)">
      <g id="Grupo_1192390" data-name="Grupo 1192390" transform="translate(0.82 43.336)">
        <path id="Trazado_1004826" data-name="Trazado 1004826" d="M265.891,249.708a26.947,26.947,0,0,0,6.824,12.013c1.7,1.712,4.134,1.307,6.7,2.58,1.421.705,1.128-.891,2.018-2.2,1.606-2.372,5.048-2.036,4.815-8.227a4.99,4.99,0,0,0-1.71-3.587c-.768-.666-1.395-3-2.538-3.672a11.14,11.14,0,0,0-3.725-1.462l-5.559-2.806-8.117,4.849Z" transform="translate(-236.478 -223.577)" fill="#ee596b"/>
        <path id="Trazado_1004827" data-name="Trazado 1004827" d="M346.083,291.319c4.237-.924,4.929-6.631,2.252-8.614a20.74,20.74,0,0,1,2.677,1.983,4.99,4.99,0,0,1,1.71,3.587,21.435,21.435,0,0,1-3.526,12.937,3.167,3.167,0,0,1-4.035,1.05,23.808,23.808,0,0,1-6.352-4.594C345.007,299.795,341.846,292.243,346.083,291.319Z" transform="translate(-302.572 -259.525)" fill="#ffd064"/>
        <path id="Trazado_1004828" data-name="Trazado 1004828" d="M279.459,99.79s1.377-11.174,10.044-16.311c3-1.779,5.382-1.3,10.378-.921A2.831,2.831,0,0,1,302.5,85.2c.216,3.631,2.051,7.817-.892,13.152a2.823,2.823,0,0,1-1.728,1.358c-.85.233-2.567,1.932-4.362,2.245a77.385,77.385,0,0,1-15.219.982Z" transform="translate(-249.713 -80.949)" fill="#ffd064"/>
        <path id="Trazado_1004829" data-name="Trazado 1004829" d="M379.885,77.9c-3.808,6.976,3.725,9.441-2.572,13.888,1.795-.312,3.125-.635,3.975-.868a2.828,2.828,0,0,0,1.728-1.357c2.943-5.336,2.989-12.429,2.773-16.06a2.833,2.833,0,0,0-2.621-2.647A19.743,19.743,0,0,0,371.3,73.3C375.329,71.562,382.424,73.245,379.885,77.9Z" transform="translate(-331.506 -70.772)" fill="#ee596b"/>
        <path id="Trazado_1004830" data-name="Trazado 1004830" d="M71.029,247.192l-8.117-4.849-5.559,2.806a11.14,11.14,0,0,0-3.725,1.462c-1.143.676-1.77,3.006-2.538,3.672a4.99,4.99,0,0,0-1.71,3.587c-.233,6.19,3.209,5.854,4.815,8.227.889,1.314.6,2.91,2.018,2.2,2.565-1.273,5-.868,6.7-2.58a26.947,26.947,0,0,0,6.824-12.013Z" transform="translate(-44.79 -223.577)" fill="#ee596b"/>
        <path id="Trazado_1004831" data-name="Trazado 1004831" d="M52.479,291.319c-4.237-.924-4.929-6.631-2.252-8.614a20.738,20.738,0,0,0-2.677,1.983,4.99,4.99,0,0,0-1.71,3.587,21.435,21.435,0,0,0,3.526,12.937,3.167,3.167,0,0,0,4.035,1.05,23.808,23.808,0,0,0,6.352-4.594C53.555,299.795,56.716,292.243,52.479,291.319Z" transform="translate(-41.631 -259.525)" fill="#ffd064"/>
        <path id="Trazado_1004832" data-name="Trazado 1004832" d="M38.7,99.79S37.325,88.617,28.658,83.479c-3-1.779-5.382-1.3-10.378-.921A2.831,2.831,0,0,0,15.66,85.2c-.216,3.631-2.051,7.817.892,13.152a2.823,2.823,0,0,0,1.728,1.358c.85.233,2.567,1.932,4.362,2.245a77.385,77.385,0,0,0,15.219.982Z" transform="translate(-14.088 -80.949)" fill="#ffd064"/>
        <path id="Trazado_1004833" data-name="Trazado 1004833" d="M13.48,77.9c3.808,6.976-3.725,9.441,2.572,13.888-1.795-.312-3.125-.635-3.974-.868a2.828,2.828,0,0,1-1.728-1.357C7.405,84.223,7.36,77.13,7.575,73.5A2.833,2.833,0,0,1,10.2,70.852,19.743,19.743,0,0,1,22.067,73.3C18.035,71.563,10.94,73.246,13.48,77.9Z" transform="translate(-7.498 -70.773)" fill="#ee596b"/>
        <ellipse id="Elipse_13779" data-name="Elipse 13779" cx="4.6" cy="10.306" rx="4.6" ry="10.306" transform="translate(22.58 12.002)" fill="#665e66"/>
        <path id="Trazado_1004834" data-name="Trazado 1004834" d="M218.542,201.117c-2.542,0-4.6-4.614-4.6-10.305S216,180.5,218.542,180.5c-.843,0-1.527,4.614-1.527,10.307S217.7,201.117,218.542,201.117Z" transform="translate(-191.361 -168.503)" fill="#544f57"/>
      </g>
      <path id="Trazado_1004835" data-name="Trazado 1004835" d="M55.922,46.011A3.668,3.668,0,0,0,52.545,42.6c-6.465-.5-11.808,1.284-15.88,5.288a24.011,24.011,0,0,0-5.457,8.691,5.968,5.968,0,0,0-1-1.159c1.225-4.146,3.355-9.438,6.739-12.241a7.145,7.145,0,0,1,3.016-1.59.819.819,0,1,0-.351-1.6c-2.194.471-7.321,2.855-10.876,14.624a2.946,2.946,0,0,0-1.468,0c-3.56-11.786-8.7-14.16-10.885-14.626a.817.817,0,0,0-.989.842.827.827,0,0,0,.657.762,7.146,7.146,0,0,1,3.008,1.587c3.384,2.8,5.514,8.1,6.739,12.241a5.972,5.972,0,0,0-1,1.159,24.011,24.011,0,0,0-5.457-8.691c-4.072-4-9.413-5.784-15.88-5.288A3.668,3.668,0,0,0,.078,46.012C-.147,49.82-.074,57.029,2.952,62.517a3.664,3.664,0,0,0,2.23,1.752,45.945,45.945,0,0,0,4.763,1A20.2,20.2,0,0,0,6.2,67.88,5.833,5.833,0,0,0,4.21,72.055,22.136,22.136,0,0,0,7.876,85.484a4,4,0,0,0,5.079,1.324A26.244,26.244,0,0,0,24.733,74.626,4.039,4.039,0,0,0,28,76.771a4.04,4.04,0,0,0,3.267-2.146A26.249,26.249,0,0,0,43.046,86.808a4,4,0,0,0,5.082-1.33l.021-.031a.82.82,0,0,0-1.352-.93l-.031.046a2.357,2.357,0,0,1-2.991.775,22.693,22.693,0,0,1-4.218-2.713,2.889,2.889,0,0,0,.887-.3c1.243-.66,1.614-2.037,1.973-3.369.458-1.7.828-2.754,2.089-3.029a5.632,5.632,0,0,0,4.336-4.49,6.526,6.526,0,0,0,.11-2.106,4.2,4.2,0,0,1,1.2,2.782,21.191,21.191,0,0,1-1.832,9.665.82.82,0,1,0,1.494.679,22.817,22.817,0,0,0,1.978-10.406A5.833,5.833,0,0,0,49.8,67.88a20.194,20.194,0,0,0-3.744-2.61,45.988,45.988,0,0,0,4.763-1,3.665,3.665,0,0,0,2.23-1.752c3.026-5.488,3.1-12.7,2.874-16.505Zm-14.963.6c2.453-1.047,6.145-.656,7.469.8a2.119,2.119,0,0,1,.051,2.659,9.229,9.229,0,0,0-.536,8.14C48.6,60.318,49,61.61,46.3,63.568a74.838,74.838,0,0,1-12.908.971q-.012-.258-.029-.514a44.776,44.776,0,0,1,7.545-3.963.82.82,0,0,0-.6-1.527,46.535,46.535,0,0,0-7.145,3.657q-.06-.392-.133-.774A25.647,25.647,0,0,1,42.969,52.5a.82.82,0,1,0-.713-1.478,26.884,26.884,0,0,0-9.759,8.3q-.119-.365-.253-.711C33.424,54.833,35.9,49.633,40.958,46.61ZM4.389,61.724C1.562,56.6,1.5,49.74,1.716,46.109a2.021,2.021,0,0,1,1.865-1.878,22.011,22.011,0,0,1,6.218.35,7.1,7.1,0,0,0-2.783,1.136,3.523,3.523,0,0,0-1.551,3.268A.82.82,0,0,0,7.1,48.82a1.874,1.874,0,0,1,.887-1.78c1.615-1.183,4.843-1.378,7.06-.43,5.057,3.024,7.532,8.223,8.712,12q-.134.346-.254.711a26.883,26.883,0,0,0-9.759-8.3.82.82,0,1,0-.713,1.478,25.647,25.647,0,0,1,9.936,8.919q-.073.381-.133.774a46.541,46.541,0,0,0-7.145-3.657.82.82,0,0,0-.6,1.527,44.776,44.776,0,0,1,7.545,3.963q-.017.256-.029.514A74.884,74.884,0,0,1,9.7,63.567C7,61.61,7.4,60.319,8.058,58.2a9.461,9.461,0,0,0,.193-6.526.82.82,0,1,0-1.546.549,7.862,7.862,0,0,1-.214,5.492c-.518,1.67-1.047,3.382.265,5.256-.454-.107-.836-.206-1.14-.289A2.013,2.013,0,0,1,4.389,61.724Zm7.836,23.614a2.356,2.356,0,0,1-2.991-.774A20.507,20.507,0,0,1,5.85,72.117a4.194,4.194,0,0,1,1.2-2.782,6.524,6.524,0,0,0,.11,2.106,5.633,5.633,0,0,0,4.336,4.49c1.261.275,1.63,1.328,2.089,3.029.359,1.332.73,2.709,1.973,3.369a2.885,2.885,0,0,0,.888.3A22.7,22.7,0,0,1,12.226,85.338Zm6.25-4.569a2.959,2.959,0,0,1-2.15.111c-.614-.326-.878-1.308-1.158-2.347-.444-1.648-1-3.7-3.324-4.205A4.031,4.031,0,0,1,8.762,71.1,3.879,3.879,0,0,1,9.9,67.175h0a10.511,10.511,0,0,1,3.518-1.441,81.967,81.967,0,0,0,8.715.447l.447,0q.017.775.083,1.529a16.6,16.6,0,0,0-4.906,2.509.82.82,0,0,0,1.05,1.261,15.052,15.052,0,0,1,4.066-2.1,16.79,16.79,0,0,0,.906,3.379A26.564,26.564,0,0,1,18.476,80.769ZM28,75.13c-1.788,0-3.78-3.9-3.78-9.486s1.992-9.486,3.78-9.486,3.78,3.9,3.78,9.486S29.788,75.13,28,75.13Zm18.1-7.952A3.881,3.881,0,0,1,47.238,71.1a4.031,4.031,0,0,1-3.081,3.231c-2.327.507-2.88,2.558-3.324,4.205-.28,1.039-.545,2.021-1.158,2.347a2.958,2.958,0,0,1-2.15-.111,26.579,26.579,0,0,1-5.31-8.016,16.786,16.786,0,0,0,.906-3.379,15.058,15.058,0,0,1,4.064,2.1.82.82,0,1,0,1.052-1.259,16.593,16.593,0,0,0-4.906-2.509q.066-.752.083-1.529l.447,0a81.954,81.954,0,0,0,8.712-.447A10.62,10.62,0,0,1,46.1,67.178Zm5.512-5.454a2.015,2.015,0,0,1-1.227.962c-.3.083-.686.182-1.139.289,1.312-1.874.782-3.586.264-5.256-.595-1.919-1.21-3.9.409-6.868,1.261-2.31.367-3.843-.279-4.551a6.237,6.237,0,0,0-3.418-1.723,22.01,22.01,0,0,1,6.2-.346,2.021,2.021,0,0,1,1.865,1.877c.215,3.632.155,10.49-2.673,15.616Z" transform="translate(0 0)"/>
    </g>
  </g>
</svg>
